<?xml version="1.0" encoding="UTF-8"?> <svg xmlns="http://www.w3.org/2000/svg" width="586" height="602" viewBox="0 0 586 602" fill="none"><g filter="url(#filter0_b_2884_13089)"><g filter="url(#filter1_b_2884_13089)"><g filter="url(#filter2_b_2884_13089)"><g filter="url(#filter3_d_2884_13089)"><rect x="22" y="12" width="542" height="558" rx="30" fill="white" fill-opacity="0.1" shape-rendering="crispEdges"></rect><rect x="22.5" y="12.5" width="541" height="557" rx="29.5" stroke="url(#paint0_linear_2884_13089)" stroke-opacity="0.3" shape-rendering="crispEdges"></rect></g></g></g><g filter="url(#filter4_b_2884_13089)"><g filter="url(#filter5_d_2884_13089)"><rect x="22" y="12" width="542" height="558" rx="30" fill="white" fill-opacity="0.15" shape-rendering="crispEdges"></rect><rect x="22.5" y="12.5" width="541" height="557" rx="29.5" stroke="url(#paint1_linear_2884_13089)" shape-rendering="crispEdges"></rect></g></g></g><g filter="url(#filter6_b_2884_13089)"><g filter="url(#filter7_d_2884_13089)"><rect x="22" y="12" width="542" height="558" rx="30" fill="url(#paint2_linear_2884_13089)" fill-opacity="0.25" shape-rendering="crispEdges"></rect></g></g><path d="M187.852 403.716C191.444 403.716 194.356 400.718 194.356 397.02C194.356 393.322 191.444 390.324 187.852 390.324C184.26 390.324 181.348 393.322 181.348 397.02C181.348 400.718 184.26 403.716 187.852 403.716Z" fill="white"></path><path d="M187.852 424.92C191.444 424.92 194.356 421.922 194.356 418.224C194.356 414.526 191.444 411.528 187.852 411.528C184.26 411.528 181.348 414.526 181.348 418.224C181.348 421.922 184.26 424.92 187.852 424.92Z" fill="white"></path><path d="M412.814 198.238L369.369 143.972C366.386 140.245 362.04 138.108 357.447 138.108H198.116C189.468 138.108 182.432 145.622 182.432 154.857V205.637C182.432 208.884 184.985 211.516 188.136 211.516C191.286 211.516 193.839 208.884 193.839 205.637V154.857C193.839 152.105 195.758 149.866 198.116 149.866H349.09V198.48C349.09 208.23 356.785 216.161 366.243 216.161H405.169V450.579C405.169 453.331 403.251 455.57 400.892 455.57H198.116C195.758 455.57 193.839 453.331 193.839 450.579V439.013C193.839 435.766 191.286 433.134 188.136 433.134C184.985 433.134 182.432 435.766 182.432 439.013V450.579C182.432 459.814 189.468 467.328 198.116 467.328H400.892C409.54 467.328 416.576 459.814 416.576 450.579V209.124C416.576 205.135 415.24 201.269 412.814 198.238ZM360.497 198.48V151.372C360.521 151.4 360.548 151.426 360.571 151.455L402.961 204.404H366.243C363.075 204.404 360.497 201.746 360.497 198.48Z" fill="white"></path><path d="M250.724 302.718C250.724 258.719 216.198 222.924 173.76 222.924C131.322 222.924 96.7959 258.719 96.7959 302.718C96.7959 346.716 131.322 382.512 173.76 382.512C216.198 382.512 250.724 346.716 250.724 302.718ZM173.76 370.691C137.609 370.691 108.198 340.198 108.198 302.718C108.198 265.238 137.609 234.745 173.76 234.745C209.911 234.745 239.322 265.238 239.322 302.718C239.322 340.198 209.911 370.691 173.76 370.691Z" fill="white"></path><path d="M207.065 304.824C205.018 302.378 201.444 302.115 199.082 304.234L185.43 316.488L170.988 303.525C177.674 299.427 182.171 291.885 182.171 283.272C182.171 270.303 171.982 259.752 159.458 259.752H145.815C142.69 259.752 140.156 262.376 140.156 265.612V324.243C140.156 327.48 142.69 330.104 145.815 330.104C148.941 330.104 151.474 327.48 151.474 324.243V306.792H157.347L176.789 324.243L164.364 335.395C162.003 337.515 161.748 341.216 163.795 343.662C165.842 346.108 169.416 346.372 171.778 344.252L185.43 331.999L199.082 344.252C201.444 346.372 205.018 346.107 207.065 343.662C209.112 341.216 208.857 337.515 206.495 335.395L194.071 324.243L206.495 313.091C208.857 310.971 209.112 307.27 207.065 304.824ZM151.474 271.473H159.458C165.741 271.473 170.852 276.766 170.852 283.272C170.852 289.778 165.741 295.072 159.458 295.072H151.474V271.473Z" fill="white"></path><path d="M270.555 328.944H379.4C382.57 328.944 385.14 326.196 385.14 322.806C385.14 319.416 382.57 316.668 379.4 316.668H270.555C267.385 316.668 264.816 319.416 264.816 322.806C264.816 326.196 267.385 328.944 270.555 328.944Z" fill="white"></path><path d="M270.555 370.236H379.4C382.57 370.236 385.14 367.738 385.14 364.656C385.14 361.574 382.57 359.076 379.4 359.076H270.555C267.385 359.076 264.816 361.574 264.816 364.656C264.816 367.738 267.385 370.236 270.555 370.236Z" fill="white"></path><path d="M270.555 410.412H379.4C382.57 410.412 385.14 407.914 385.14 404.832C385.14 401.75 382.57 399.252 379.4 399.252H270.555C267.385 399.252 264.816 401.75 264.816 404.832C264.816 407.914 267.385 410.412 270.555 410.412Z" fill="white"></path><path d="M280.599 288.768H369.356C378.059 288.768 385.14 281.582 385.14 272.749V262.379C385.14 253.546 378.059 246.36 369.356 246.36H280.599C271.896 246.36 264.816 253.546 264.816 262.379V272.749C264.816 281.582 271.896 288.768 280.599 288.768ZM276.295 262.379C276.295 259.97 278.226 258.01 280.599 258.01H369.356C371.73 258.01 373.661 259.97 373.661 262.379V272.749C373.661 275.158 371.73 277.118 369.356 277.118H280.599C278.226 277.118 276.295 275.158 276.295 272.749V262.379Z" fill="white"></path><defs><filter id="filter0_b_2884_13089" x="19" y="9" width="548" height="564" filterUnits="userSpaceOnUse" color-interpolation-filters="sRGB"><feFlood flood-opacity="0" result="BackgroundImageFix"></feFlood><feGaussianBlur in="BackgroundImageFix" stdDeviation="1.5"></feGaussianBlur><feComposite in2="SourceAlpha" operator="in" result="effect1_backgroundBlur_2884_13089"></feComposite><feBlend mode="normal" in="SourceGraphic" in2="effect1_backgroundBlur_2884_13089" result="shape"></feBlend></filter><filter id="filter1_b_2884_13089" x="19" y="9" width="548" height="564" filterUnits="userSpaceOnUse" color-interpolation-filters="sRGB"><feFlood flood-opacity="0" result="BackgroundImageFix"></feFlood><feGaussianBlur in="BackgroundImageFix" stdDeviation="1.5"></feGaussianBlur><feComposite in2="SourceAlpha" operator="in" result="effect1_backgroundBlur_2884_13089"></feComposite><feBlend mode="normal" in="SourceGraphic" in2="effect1_backgroundBlur_2884_13089" result="shape"></feBlend></filter><filter id="filter2_b_2884_13089" x="19" y="9" width="548" height="564" filterUnits="userSpaceOnUse" color-interpolation-filters="sRGB"><feFlood flood-opacity="0" result="BackgroundImageFix"></feFlood><feGaussianBlur in="BackgroundImageFix" stdDeviation="1.5"></feGaussianBlur><feComposite in2="SourceAlpha" operator="in" result="effect1_backgroundBlur_2884_13089"></feComposite><feBlend mode="normal" in="SourceGraphic" in2="effect1_backgroundBlur_2884_13089" result="shape"></feBlend></filter><filter id="filter3_d_2884_13089" x="0" y="0" width="586" height="602" filterUnits="userSpaceOnUse" color-interpolation-filters="sRGB"><feFlood flood-opacity="0" result="BackgroundImageFix"></feFlood><feColorMatrix in="SourceAlpha" type="matrix" values="0 0 0 0 0 0 0 0 0 0 0 0 0 0 0 0 0 0 127 0" result="hardAlpha"></feColorMatrix><feMorphology radius="2" operator="dilate" in="SourceAlpha" result="effect1_dropShadow_2884_13089"></feMorphology><feOffset dy="10"></feOffset><feGaussianBlur stdDeviation="10"></feGaussianBlur><feComposite in2="hardAlpha" operator="out"></feComposite><feColorMatrix type="matrix" values="0 0 0 0 0.0911438 0 0 0 0 0.195795 0 0 0 0 0.315397 0 0 0 0.08 0"></feColorMatrix><feBlend mode="normal" in2="BackgroundImageFix" result="effect1_dropShadow_2884_13089"></feBlend><feBlend mode="normal" in="SourceGraphic" in2="effect1_dropShadow_2884_13089" result="shape"></feBlend></filter><filter id="filter4_b_2884_13089" x="19" y="9" width="548" height="564" filterUnits="userSpaceOnUse" color-interpolation-filters="sRGB"><feFlood flood-opacity="0" result="BackgroundImageFix"></feFlood><feGaussianBlur in="BackgroundImageFix" stdDeviation="1.5"></feGaussianBlur><feComposite in2="SourceAlpha" operator="in" result="effect1_backgroundBlur_2884_13089"></feComposite><feBlend mode="normal" in="SourceGraphic" in2="effect1_backgroundBlur_2884_13089" result="shape"></feBlend></filter><filter id="filter5_d_2884_13089" x="0" y="0" width="586" height="602" filterUnits="userSpaceOnUse" color-interpolation-filters="sRGB"><feFlood flood-opacity="0" result="BackgroundImageFix"></feFlood><feColorMatrix in="SourceAlpha" type="matrix" values="0 0 0 0 0 0 0 0 0 0 0 0 0 0 0 0 0 0 127 0" result="hardAlpha"></feColorMatrix><feMorphology radius="2" operator="dilate" in="SourceAlpha" result="effect1_dropShadow_2884_13089"></feMorphology><feOffset dy="10"></feOffset><feGaussianBlur stdDeviation="10"></feGaussianBlur><feComposite in2="hardAlpha" operator="out"></feComposite><feColorMatrix type="matrix" values="0 0 0 0 0.0911438 0 0 0 0 0.195795 0 0 0 0 0.315397 0 0 0 0.08 0"></feColorMatrix><feBlend mode="normal" in2="BackgroundImageFix" result="effect1_dropShadow_2884_13089"></feBlend><feBlend mode="normal" in="SourceGraphic" in2="effect1_dropShadow_2884_13089" result="shape"></feBlend></filter><filter id="filter6_b_2884_13089" x="19" y="9" width="548" height="564" filterUnits="userSpaceOnUse" color-interpolation-filters="sRGB"><feFlood flood-opacity="0" result="BackgroundImageFix"></feFlood><feGaussianBlur in="BackgroundImageFix" stdDeviation="1.5"></feGaussianBlur><feComposite in2="SourceAlpha" operator="in" result="effect1_backgroundBlur_2884_13089"></feComposite><feBlend mode="normal" in="SourceGraphic" in2="effect1_backgroundBlur_2884_13089" result="shape"></feBlend></filter><filter id="filter7_d_2884_13089" x="0" y="0" width="586" height="602" filterUnits="userSpaceOnUse" color-interpolation-filters="sRGB"><feFlood flood-opacity="0" result="BackgroundImageFix"></feFlood><feColorMatrix in="SourceAlpha" type="matrix" values="0 0 0 0 0 0 0 0 0 0 0 0 0 0 0 0 0 0 127 0" result="hardAlpha"></feColorMatrix><feMorphology radius="2" operator="dilate" in="SourceAlpha" result="effect1_dropShadow_2884_13089"></feMorphology><feOffset dy="10"></feOffset><feGaussianBlur stdDeviation="10"></feGaussianBlur><feComposite in2="hardAlpha" operator="out"></feComposite><feColorMatrix type="matrix" values="0 0 0 0 0.0911438 0 0 0 0 0.195795 0 0 0 0 0.315397 0 0 0 0.08 0"></feColorMatrix><feBlend mode="normal" in2="BackgroundImageFix" result="effect1_dropShadow_2884_13089"></feBlend><feBlend mode="normal" in="SourceGraphic" in2="effect1_dropShadow_2884_13089" result="shape"></feBlend></filter><linearGradient id="paint0_linear_2884_13089" x1="45.7298" y1="12" x2="586.647" y2="520.684" gradientUnits="userSpaceOnUse"><stop stop-color="#A46AFF"></stop><stop offset="0.295162" stop-color="#FA54AF"></stop><stop offset="1" stop-color="#FF7F2C"></stop></linearGradient><linearGradient id="paint1_linear_2884_13089" x1="45.7298" y1="12" x2="586.647" y2="520.684" gradientUnits="userSpaceOnUse"><stop stop-color="#A46AFF"></stop><stop offset="0.295162" stop-color="#FA54AF"></stop><stop offset="1" stop-color="#FF7F2C"></stop></linearGradient><linearGradient id="paint2_linear_2884_13089" x1="293" y1="12" x2="293" y2="570" gradientUnits="userSpaceOnUse"><stop stop-color="#FA54AF"></stop><stop offset="1" stop-color="#8131FF"></stop></linearGradient></defs></svg> 