<?xml version="1.0" encoding="UTF-8"?> <svg xmlns="http://www.w3.org/2000/svg" width="586" height="590" viewBox="0 0 586 590" fill="none"><g filter="url(#filter0_b_2884_13088)"><g filter="url(#filter1_b_2884_13088)"><g filter="url(#filter2_b_2884_13088)"><g filter="url(#filter3_d_2884_13088)"><rect x="22" y="16.2524" width="542" height="541.748" rx="30" fill="white" fill-opacity="0.1" shape-rendering="crispEdges"></rect><rect x="22.5" y="16.7524" width="541" height="540.748" rx="29.5" stroke="url(#paint0_linear_2884_13088)" stroke-opacity="0.3" shape-rendering="crispEdges"></rect></g></g></g><g filter="url(#filter4_b_2884_13088)"><g filter="url(#filter5_d_2884_13088)"><rect x="22" y="16.2524" width="542" height="541.748" rx="30" fill="white" fill-opacity="0.15" shape-rendering="crispEdges"></rect><rect x="22.5" y="16.7524" width="541" height="540.748" rx="29.5" stroke="url(#paint1_linear_2884_13088)" shape-rendering="crispEdges"></rect></g></g></g><g filter="url(#filter6_b_2884_13088)"><g filter="url(#filter7_d_2884_13088)"><rect x="22" y="16.2524" width="542" height="541.748" rx="30" fill="url(#paint2_linear_2884_13088)" fill-opacity="0.23" shape-rendering="crispEdges"></rect></g></g><path d="M474.482 287.164H361.64L339.441 227.996C338.704 225.771 336.854 224.298 333.892 224.298C331.305 224.298 329.455 226.147 328.342 228.372L293.195 338.199L258.423 246.485C257.686 244.26 255.46 242.787 253.249 242.787C250.662 242.411 248.813 244.26 247.7 246.485L230.314 286.786L173.76 286.786C170.436 286.786 167.834 289.371 167.834 292.708C167.834 296.031 170.421 298.631 173.76 298.631L234.375 298.631C236.6 298.631 238.812 297.158 239.548 294.933L252.498 264.237L288.021 358.159C288.758 360.384 290.984 361.857 293.571 361.857C296.158 361.857 298.007 360.008 299.12 357.783L334.268 247.593L352.029 294.932C352.766 297.156 354.992 298.63 357.579 298.63H474.498C477.822 298.63 480.424 296.044 480.424 292.707C480.41 289.384 477.823 287.16 474.484 287.16L474.482 287.164Z" fill="white"></path><path d="M405.678 313.051L290.986 427.69L164.081 300.844C138.183 274.958 132.633 227.997 152.606 200.62C165.931 182.13 186.279 170.66 208.479 168.811C230.679 166.962 252.499 175.095 268.053 190.624L286.927 209.49C289.153 211.714 292.853 211.714 295.064 209.49L310.6 193.961C336.498 168.075 383.481 162.528 411.229 182.491C438.24 201.718 449.34 235.735 439.714 267.168C438.602 270.13 440.451 273.452 443.414 274.565C446.377 275.301 449.701 273.828 450.814 270.867C462.289 234.623 448.964 195.434 418.253 173.605C386.068 150.304 333.159 155.851 302.824 186.172L291.349 197.642L276.55 182.85C258.427 164.735 233.267 155.49 207.728 157.339C182.205 159.564 158.895 172.868 143.718 193.944C120.407 226.114 125.956 278.998 156.291 309.319L286.911 439.892C288.024 441.004 289.498 441.741 290.987 441.741C292.461 441.741 293.949 441.004 295.062 439.892L413.832 321.178C416.057 318.954 416.057 315.255 413.832 313.045C411.592 310.835 407.892 310.835 405.681 313.045L405.678 313.051Z" fill="white"></path><defs><filter id="filter0_b_2884_13088" x="19" y="13.2524" width="548" height="547.748" filterUnits="userSpaceOnUse" color-interpolation-filters="sRGB"><feFlood flood-opacity="0" result="BackgroundImageFix"></feFlood><feGaussianBlur in="BackgroundImageFix" stdDeviation="1.5"></feGaussianBlur><feComposite in2="SourceAlpha" operator="in" result="effect1_backgroundBlur_2884_13088"></feComposite><feBlend mode="normal" in="SourceGraphic" in2="effect1_backgroundBlur_2884_13088" result="shape"></feBlend></filter><filter id="filter1_b_2884_13088" x="19" y="13.2524" width="548" height="547.748" filterUnits="userSpaceOnUse" color-interpolation-filters="sRGB"><feFlood flood-opacity="0" result="BackgroundImageFix"></feFlood><feGaussianBlur in="BackgroundImageFix" stdDeviation="1.5"></feGaussianBlur><feComposite in2="SourceAlpha" operator="in" result="effect1_backgroundBlur_2884_13088"></feComposite><feBlend mode="normal" in="SourceGraphic" in2="effect1_backgroundBlur_2884_13088" result="shape"></feBlend></filter><filter id="filter2_b_2884_13088" x="19" y="13.2524" width="548" height="547.748" filterUnits="userSpaceOnUse" color-interpolation-filters="sRGB"><feFlood flood-opacity="0" result="BackgroundImageFix"></feFlood><feGaussianBlur in="BackgroundImageFix" stdDeviation="1.5"></feGaussianBlur><feComposite in2="SourceAlpha" operator="in" result="effect1_backgroundBlur_2884_13088"></feComposite><feBlend mode="normal" in="SourceGraphic" in2="effect1_backgroundBlur_2884_13088" result="shape"></feBlend></filter><filter id="filter3_d_2884_13088" x="0" y="4.25244" width="586" height="585.748" filterUnits="userSpaceOnUse" color-interpolation-filters="sRGB"><feFlood flood-opacity="0" result="BackgroundImageFix"></feFlood><feColorMatrix in="SourceAlpha" type="matrix" values="0 0 0 0 0 0 0 0 0 0 0 0 0 0 0 0 0 0 127 0" result="hardAlpha"></feColorMatrix><feMorphology radius="2" operator="dilate" in="SourceAlpha" result="effect1_dropShadow_2884_13088"></feMorphology><feOffset dy="10"></feOffset><feGaussianBlur stdDeviation="10"></feGaussianBlur><feComposite in2="hardAlpha" operator="out"></feComposite><feColorMatrix type="matrix" values="0 0 0 0 0.0911438 0 0 0 0 0.195795 0 0 0 0 0.315397 0 0 0 0.08 0"></feColorMatrix><feBlend mode="normal" in2="BackgroundImageFix" result="effect1_dropShadow_2884_13088"></feBlend><feBlend mode="normal" in="SourceGraphic" in2="effect1_dropShadow_2884_13088" result="shape"></feBlend></filter><filter id="filter4_b_2884_13088" x="19" y="13.2524" width="548" height="547.748" filterUnits="userSpaceOnUse" color-interpolation-filters="sRGB"><feFlood flood-opacity="0" result="BackgroundImageFix"></feFlood><feGaussianBlur in="BackgroundImageFix" stdDeviation="1.5"></feGaussianBlur><feComposite in2="SourceAlpha" operator="in" result="effect1_backgroundBlur_2884_13088"></feComposite><feBlend mode="normal" in="SourceGraphic" in2="effect1_backgroundBlur_2884_13088" result="shape"></feBlend></filter><filter id="filter5_d_2884_13088" x="0" y="4.25244" width="586" height="585.748" filterUnits="userSpaceOnUse" color-interpolation-filters="sRGB"><feFlood flood-opacity="0" result="BackgroundImageFix"></feFlood><feColorMatrix in="SourceAlpha" type="matrix" values="0 0 0 0 0 0 0 0 0 0 0 0 0 0 0 0 0 0 127 0" result="hardAlpha"></feColorMatrix><feMorphology radius="2" operator="dilate" in="SourceAlpha" result="effect1_dropShadow_2884_13088"></feMorphology><feOffset dy="10"></feOffset><feGaussianBlur stdDeviation="10"></feGaussianBlur><feComposite in2="hardAlpha" operator="out"></feComposite><feColorMatrix type="matrix" values="0 0 0 0 0.0911438 0 0 0 0 0.195795 0 0 0 0 0.315397 0 0 0 0.08 0"></feColorMatrix><feBlend mode="normal" in2="BackgroundImageFix" result="effect1_dropShadow_2884_13088"></feBlend><feBlend mode="normal" in="SourceGraphic" in2="effect1_dropShadow_2884_13088" result="shape"></feBlend></filter><filter id="filter6_b_2884_13088" x="19" y="13.2524" width="548" height="547.748" filterUnits="userSpaceOnUse" color-interpolation-filters="sRGB"><feFlood flood-opacity="0" result="BackgroundImageFix"></feFlood><feGaussianBlur in="BackgroundImageFix" stdDeviation="1.5"></feGaussianBlur><feComposite in2="SourceAlpha" operator="in" result="effect1_backgroundBlur_2884_13088"></feComposite><feBlend mode="normal" in="SourceGraphic" in2="effect1_backgroundBlur_2884_13088" result="shape"></feBlend></filter><filter id="filter7_d_2884_13088" x="0" y="4.25244" width="586" height="585.748" filterUnits="userSpaceOnUse" color-interpolation-filters="sRGB"><feFlood flood-opacity="0" result="BackgroundImageFix"></feFlood><feColorMatrix in="SourceAlpha" type="matrix" values="0 0 0 0 0 0 0 0 0 0 0 0 0 0 0 0 0 0 127 0" result="hardAlpha"></feColorMatrix><feMorphology radius="2" operator="dilate" in="SourceAlpha" result="effect1_dropShadow_2884_13088"></feMorphology><feOffset dy="10"></feOffset><feGaussianBlur stdDeviation="10"></feGaussianBlur><feComposite in2="hardAlpha" operator="out"></feComposite><feColorMatrix type="matrix" values="0 0 0 0 0.0911438 0 0 0 0 0.195795 0 0 0 0 0.315397 0 0 0 0.08 0"></feColorMatrix><feBlend mode="normal" in2="BackgroundImageFix" result="effect1_dropShadow_2884_13088"></feBlend><feBlend mode="normal" in="SourceGraphic" in2="effect1_dropShadow_2884_13088" result="shape"></feBlend></filter><linearGradient id="paint0_linear_2884_13088" x1="45.7298" y1="16.2524" x2="571.617" y2="525.638" gradientUnits="userSpaceOnUse"><stop stop-color="#A46AFF"></stop><stop offset="0.295162" stop-color="#FA54AF"></stop><stop offset="1" stop-color="#FF7F2C"></stop></linearGradient><linearGradient id="paint1_linear_2884_13088" x1="45.7298" y1="16.2524" x2="571.617" y2="525.638" gradientUnits="userSpaceOnUse"><stop stop-color="#A46AFF"></stop><stop offset="0.295162" stop-color="#FA54AF"></stop><stop offset="1" stop-color="#FF7F2C"></stop></linearGradient><linearGradient id="paint2_linear_2884_13088" x1="293" y1="16.2524" x2="293" y2="558" gradientUnits="userSpaceOnUse"><stop offset="0.41" stop-color="#FF7F2C"></stop><stop offset="1" stop-color="#FA54AF"></stop></linearGradient></defs></svg> 