<?xml version="1.0" encoding="UTF-8"?> <svg xmlns="http://www.w3.org/2000/svg" width="1055" height="743" viewBox="0 0 1055 743" fill="none"><g opacity="0.6"><g filter="url(#filter0_d_2702_2613)"><rect x="123" y="92" width="746.89" height="420" rx="15" fill="#515151" fill-opacity="0.2" shape-rendering="crispEdges"></rect></g><path d="M123 107C123 98.7157 129.716 92 138 92H854.89C863.174 92 869.89 98.7157 869.89 107V497C869.89 505.284 863.174 512 854.89 512H138C129.716 512 123 505.284 123 497V107Z" fill="#7A7A7A" fill-opacity="0.2"></path><path d="M354.101 147.263H407.689" stroke="#9A9A9A" stroke-width="2" stroke-linecap="round"></path><rect x="229.338" y="129.342" width="100.148" height="11.0574" rx="5.52871" stroke="#B7B7B7" stroke-opacity="0.5"></rect><rect x="352.091" y="128.842" width="57.6077" height="12.0574" rx="6.02871" fill="#B7B7B7" fill-opacity="0.5"></rect><rect x="432.304" y="129.342" width="56.6077" height="11.0574" rx="5.52871" stroke="#B7B7B7" stroke-opacity="0.5"></rect><rect x="512.017" y="129.342" width="96.799" height="11.0574" rx="5.52871" stroke="#B7B7B7" stroke-opacity="0.5"></rect><rect x="228.838" y="185.11" width="486.316" height="198.278" rx="10" fill="white" fill-opacity="0.2"></rect><path d="M297.832 248.746H689.028" stroke="#9E9E9E"></path><path d="M297.832 354.583H689.028" stroke="#9E9E9E"></path><path d="M297.832 283.579H689.028" stroke="#9E9E9E"></path><path d="M297.832 319.751H689.028" stroke="#9E9E9E"></path><rect x="246.924" y="201.187" width="101.148" height="12.0574" rx="6.02871" fill="#9E9E9E"></rect><rect x="659.555" y="201.187" width="29.4737" height="12.0574" rx="6.02871" fill="#ABABAB" fill-opacity="0.5"></rect><rect x="622.043" y="201.187" width="29.4737" height="12.0574" rx="6.02871" fill="#B7B7B7" fill-opacity="0.5"></rect><path d="M336.014 262.454C336.014 259.693 338.253 257.454 341.014 257.454H361.488C363.697 257.454 365.488 259.245 365.488 261.454V354.583H336.014V262.454Z" fill="#B7B7B7" fill-opacity="0.5"></path><path d="M405.679 288.579C405.679 285.817 407.918 283.579 410.679 283.579H431.823C434.032 283.579 435.823 285.369 435.823 287.579V354.583H405.679V288.579Z" fill="#B7B7B7" fill-opacity="0.5"></path><path d="M615.344 288.579C615.344 285.817 617.583 283.579 620.344 283.579H641.488C643.697 283.579 645.488 285.369 645.488 287.579V354.583H615.344V288.579Z" fill="#B7B7B7" fill-opacity="0.5"></path><path d="M476.014 281.88C476.014 279.118 478.253 276.88 481.014 276.88H501.488C503.697 276.88 505.488 278.671 505.488 280.88V354.583H476.014V281.88Z" fill="#B7B7B7" fill-opacity="0.5"></path><path d="M545.679 243.028C545.679 240.267 547.918 238.028 550.679 238.028H571.153C573.362 238.028 575.153 239.819 575.153 242.028V354.583H545.679V243.028Z" fill="#B7B7B7" fill-opacity="0.5"></path><rect x="123.5" y="92.5" width="745.89" height="419" rx="14.5" stroke="url(#paint0_linear_2702_2613)" stroke-opacity="0.2"></rect><path d="M228.838 410.804C228.838 405.281 233.315 400.804 238.838 400.804H705.153C710.676 400.804 715.153 405.281 715.153 410.804V512H228.838V410.804Z" fill="white" fill-opacity="0.2"></path><rect x="299.843" y="428.938" width="101.148" height="12.0574" rx="6.02871" fill="#9E9E9E"></rect><rect x="659.555" y="428.938" width="29.4737" height="12.0574" rx="6.02871" fill="#B7B7B7" fill-opacity="0.5"></rect><rect x="249.603" y="470.469" width="439.426" height="12.0574" rx="6.02871" fill="#ABABAB" fill-opacity="0.5"></rect><rect x="249.603" y="489.895" width="298.756" height="12.0574" rx="6.02871" fill="#ABABAB" fill-opacity="0.5"></rect><circle cx="265.345" cy="434.631" r="15.7416" fill="url(#paint1_linear_2702_2613)" fill-opacity="0.5"></circle><path d="M123 107C123 98.7157 129.716 92 138 92H210.751V512H138C129.716 512 123 505.284 123 497V107Z" fill="#B8B8B8" fill-opacity="0.25"></path><rect x="123" y="197.167" width="87.7512" height="28.8038" fill="#B7B7B7" fill-opacity="0.5"></rect><rect x="136.397" y="205.875" width="61.6268" height="12.0574" rx="6.02871" fill="white" fill-opacity="0.75"></rect><rect x="136.397" y="270.182" width="61.6268" height="12.0574" rx="6.02871" fill="#B7B7B7" fill-opacity="0.5"></rect><rect x="136.397" y="238.029" width="61.6268" height="12.0574" rx="6.02871" fill="#B7B7B7" fill-opacity="0.5"></rect><rect x="136.397" y="302.335" width="61.6268" height="12.0574" rx="6.02871" fill="#B7B7B7" fill-opacity="0.5"></rect><rect x="158.502" y="481.856" width="39.5215" height="8.03828" rx="4.01914" fill="#B7B7B7" fill-opacity="0.5"></rect><circle cx="145.44" cy="485.541" r="9.04306" fill="#ADADAD" fill-opacity="0.5"></circle><g filter="url(#filter1_d_2702_2613)"><rect x="138.407" y="109.417" width="57.6077" height="58.2775" rx="10" fill="#A9A9A9"></rect><rect x="138.907" y="109.917" width="56.6077" height="57.2775" rx="9.5" stroke="white" stroke-opacity="0.2"></rect></g><path fill-rule="evenodd" clip-rule="evenodd" d="M166.685 120.875C155.735 120.875 147.131 129.479 147.131 140.429C147.131 146.165 149.478 151.379 153.128 155.03C154.431 156.333 156.778 156.333 158.342 155.29C160.428 153.465 163.557 152.422 166.685 152.422C170.075 152.422 172.682 153.465 175.028 155.29C176.593 156.594 178.678 156.333 180.243 154.769C183.893 151.119 186.239 146.165 186.239 140.429C185.979 129.74 177.375 120.875 166.685 120.875ZM166.425 150.597C160.428 150.597 156.517 146.165 156.517 140.69C156.517 135.215 160.428 130.782 166.425 130.782C172.421 130.782 176.332 135.215 176.332 140.69C176.332 146.165 172.421 150.597 166.425 150.597Z" fill="white"></path></g><g filter="url(#filter2_b_2702_2613)"><rect x="386.979" width="668" height="603" rx="24" fill="url(#paint2_linear_2702_2613)" fill-opacity="0.98"></rect><path d="M443.676 48.1325L437.225 45.7575L434.85 39.3012C434.709 38.9192 434.455 38.5894 434.121 38.3565C433.787 38.1236 433.389 37.9987 432.982 37.9987C432.575 37.9987 432.178 38.1236 431.844 38.3565C431.51 38.5894 431.255 38.9192 431.115 39.3012L428.737 45.75L422.281 48.125C421.899 48.2656 421.569 48.5201 421.336 48.854C421.103 49.188 420.979 49.5853 420.979 49.9925C420.979 50.3997 421.103 50.797 421.336 51.131C421.569 51.4649 421.899 51.7194 422.281 51.86L428.729 54.25L431.104 60.7025C431.244 61.0846 431.499 61.4143 431.833 61.6473C432.167 61.8802 432.564 62.0051 432.971 62.0051C433.378 62.0051 433.776 61.8802 434.11 61.6473C434.443 61.4143 434.698 61.0846 434.839 60.7025L437.214 54.2512L443.67 51.8762C444.052 51.7356 444.382 51.4811 444.615 51.1472C444.848 50.8133 444.972 50.4159 444.972 50.0088C444.972 49.6016 444.848 49.2042 444.615 48.8703C444.382 48.5364 444.052 48.2819 443.67 48.1413L443.676 48.1325ZM436.527 52.375C436.257 52.4742 436.012 52.631 435.808 52.8345C435.605 53.0381 435.448 53.2835 435.349 53.5537L432.974 59.9862L430.604 53.5487C430.504 53.2799 430.348 53.0358 430.145 52.8332C429.943 52.6306 429.699 52.4743 429.43 52.375L422.997 50L429.43 47.625C429.699 47.5257 429.943 47.3694 430.145 47.1668C430.348 46.9642 430.504 46.7201 430.604 46.4513L432.979 40.0188L435.354 46.4513C435.453 46.7215 435.61 46.9669 435.813 47.1705C436.017 47.374 436.262 47.5308 436.532 47.63L442.965 50.005L436.527 52.375ZM436.979 37C436.979 36.7348 437.084 36.4804 437.271 36.2929C437.459 36.1054 437.713 36 437.979 36H439.979V34C439.979 33.7348 440.084 33.4804 440.271 33.2929C440.459 33.1054 440.713 33 440.979 33C441.244 33 441.498 33.1054 441.686 33.2929C441.873 33.4804 441.979 33.7348 441.979 34V36H443.979C444.244 36 444.498 36.1054 444.686 36.2929C444.873 36.4804 444.979 36.7348 444.979 37C444.979 37.2652 444.873 37.5196 444.686 37.7071C444.498 37.8946 444.244 38 443.979 38H441.979V40C441.979 40.2652 441.873 40.5196 441.686 40.7071C441.498 40.8946 441.244 41 440.979 41C440.713 41 440.459 40.8946 440.271 40.7071C440.084 40.5196 439.979 40.2652 439.979 40V38H437.979C437.713 38 437.459 37.8946 437.271 37.7071C437.084 37.5196 436.979 37.2652 436.979 37ZM449.979 43C449.979 43.2652 449.873 43.5196 449.686 43.7071C449.498 43.8946 449.244 44 448.979 44H447.979V45C447.979 45.2652 447.873 45.5196 447.686 45.7071C447.498 45.8946 447.244 46 446.979 46C446.713 46 446.459 45.8946 446.271 45.7071C446.084 45.5196 445.979 45.2652 445.979 45V44H444.979C444.713 44 444.459 43.8946 444.271 43.7071C444.084 43.5196 443.979 43.2652 443.979 43C443.979 42.7348 444.084 42.4804 444.271 42.2929C444.459 42.1054 444.713 42 444.979 42H445.979V41C445.979 40.7348 446.084 40.4804 446.271 40.2929C446.459 40.1054 446.713 40 446.979 40C447.244 40 447.498 40.1054 447.686 40.2929C447.873 40.4804 447.979 40.7348 447.979 41V42H448.979C449.244 42 449.498 42.1054 449.686 42.2929C449.873 42.4804 449.979 42.7348 449.979 43Z" fill="url(#paint3_linear_2702_2613)"></path><path d="M470.219 54L469.059 50.78H462.619L461.439 54H460.039L465.119 40.2H466.559L471.619 54H470.219ZM463.019 49.66H468.639L465.839 41.94L463.019 49.66ZM474.32 54V40.2H475.72V54H474.32ZM494.751 54L493.591 50.78H487.151L485.971 54H484.571L489.651 40.2H491.091L496.151 54H494.751ZM487.551 49.66H493.171L490.371 41.94L487.551 49.66ZM506.632 43.08H508.032V54H506.632V52.22C505.899 53.54 504.692 54.2 503.012 54.2C501.799 54.2 500.785 53.8067 499.972 53.02C499.159 52.22 498.752 51.0733 498.752 49.58V43.08H500.132V49.32C500.132 50.52 500.419 51.4333 500.992 52.06C501.579 52.6867 502.372 53 503.372 53C504.385 53 505.179 52.6867 505.752 52.06C506.339 51.4333 506.632 50.52 506.632 49.32V43.08ZM516.049 44.18H513.029V51.42C513.029 51.9667 513.136 52.3533 513.349 52.58C513.563 52.7933 513.943 52.9 514.489 52.9H516.049V54H514.189C512.483 54 511.629 53.14 511.629 51.42V44.18H510.109V43.08H511.629V40.34H513.029V43.08H516.049V44.18ZM522.697 53.08C523.83 53.08 524.81 52.6733 525.637 51.86C526.463 51.0467 526.877 49.94 526.877 48.54C526.877 47.1267 526.483 46.02 525.697 45.22C524.91 44.4067 523.95 44 522.817 44C521.683 44 520.737 44.4 519.977 45.2C519.217 46 518.837 47.1133 518.837 48.54C518.837 49.9667 519.197 51.08 519.917 51.88C520.637 52.68 521.563 53.08 522.697 53.08ZM522.697 54.2C521.137 54.2 519.863 53.68 518.877 52.64C517.903 51.6 517.417 50.24 517.417 48.56C517.417 46.8667 517.937 45.5 518.977 44.46C520.017 43.4067 521.317 42.88 522.877 42.88C524.437 42.88 525.737 43.4067 526.777 44.46C527.817 45.5 528.337 46.86 528.337 48.54C528.337 50.2067 527.79 51.5667 526.697 52.62C525.603 53.6733 524.27 54.2 522.697 54.2ZM532.186 43.08V44.86C532.92 43.54 534.126 42.88 535.806 42.88C536.673 42.88 537.446 43.0867 538.126 43.5C538.82 43.9133 539.333 44.52 539.666 45.32C540.04 44.5467 540.573 43.9467 541.266 43.52C541.973 43.0933 542.78 42.88 543.686 42.88C544.9 42.88 545.913 43.28 546.726 44.08C547.54 44.8667 547.946 46.0067 547.946 47.5V54H546.566V47.76C546.566 46.56 546.273 45.6467 545.686 45.02C545.113 44.3933 544.32 44.08 543.306 44.08C542.306 44.08 541.513 44.3933 540.926 45.02C540.353 45.6467 540.066 46.56 540.066 47.76V54H538.686V47.76C538.686 46.56 538.393 45.6467 537.806 45.02C537.233 44.3933 536.44 44.08 535.426 44.08C534.426 44.08 533.633 44.3933 533.046 45.02C532.473 45.6467 532.186 46.56 532.186 47.76V54H530.786V43.08H532.186ZM558.635 51.78C559.435 50.9533 559.835 49.8733 559.835 48.54C559.835 47.2067 559.435 46.1333 558.635 45.32C557.848 44.4933 556.895 44.08 555.775 44.08C554.655 44.08 553.702 44.4733 552.915 45.26C552.128 46.0467 551.735 47.1133 551.735 48.46C551.735 49.7933 552.128 50.8867 552.915 51.74C553.715 52.58 554.668 53 555.775 53C556.895 53 557.848 52.5933 558.635 51.78ZM555.575 54.2C554.055 54.2 552.795 53.66 551.795 52.58C550.795 51.5 550.295 50.1267 550.295 48.46C550.295 46.78 550.788 45.4333 551.775 44.42C552.775 43.3933 554.042 42.88 555.575 42.88C556.562 42.88 557.428 43.12 558.175 43.6C558.922 44.08 559.475 44.7 559.835 45.46V43.08H561.235V54H559.835V51.6C559.475 52.36 558.922 52.9867 558.175 53.48C557.428 53.96 556.562 54.2 555.575 54.2ZM569.247 44.18H566.227V51.42C566.227 51.9667 566.334 52.3533 566.547 52.58C566.76 52.7933 567.14 52.9 567.687 52.9H569.247V54H567.387C565.68 54 564.827 53.14 564.827 51.42V44.18H563.307V43.08H564.827V40.34H566.227V43.08H569.247V44.18ZM575.874 54.2C574.314 54.2 573.048 53.68 572.074 52.64C571.101 51.6 570.614 50.2333 570.614 48.54C570.614 46.8333 571.108 45.4667 572.094 44.44C573.094 43.4 574.381 42.88 575.954 42.88C577.541 42.88 578.801 43.3667 579.734 44.34C580.668 45.3133 581.134 46.52 581.134 47.96C581.134 48.3467 581.108 48.7067 581.054 49.04H572.054C572.108 50.2933 572.488 51.28 573.194 52C573.901 52.72 574.794 53.08 575.874 53.08C576.714 53.08 577.428 52.8867 578.014 52.5C578.614 52.1133 579.028 51.6067 579.254 50.98H580.754C580.394 51.9133 579.808 52.6867 578.994 53.3C578.181 53.9 577.141 54.2 575.874 54.2ZM579.694 47.94C579.694 46.74 579.328 45.7867 578.594 45.08C577.874 44.36 576.974 44 575.894 44C574.828 44 573.934 44.3533 573.214 45.06C572.508 45.7533 572.121 46.7133 572.054 47.94H579.694ZM591.214 51.78C592.014 50.9533 592.414 49.8733 592.414 48.54C592.414 47.2067 592.014 46.1333 591.214 45.32C590.427 44.4933 589.474 44.08 588.354 44.08C587.234 44.08 586.28 44.4733 585.494 45.26C584.707 46.0467 584.314 47.1133 584.314 48.46C584.314 49.7933 584.707 50.8867 585.494 51.74C586.294 52.58 587.247 53 588.354 53C589.474 53 590.427 52.5933 591.214 51.78ZM588.154 54.2C586.634 54.2 585.374 53.66 584.374 52.58C583.374 51.5 582.874 50.1267 582.874 48.46C582.874 46.78 583.367 45.4333 584.354 44.42C585.354 43.3933 586.62 42.88 588.154 42.88C589.14 42.88 590.007 43.12 590.754 43.6C591.5 44.08 592.054 44.7 592.414 45.46V39.2H593.814V54H592.414V51.6C592.054 52.36 591.5 52.9867 590.754 53.48C590.007 53.96 589.14 54.2 588.154 54.2ZM610.852 41.32C611.652 42.0533 612.052 43.02 612.052 44.22C612.052 45.42 611.652 46.3867 610.852 47.12C610.065 47.8533 608.892 48.22 607.332 48.22H604.512V54H603.112V40.2H607.332C608.879 40.2 610.052 40.5733 610.852 41.32ZM604.512 47.08H607.332C609.532 47.08 610.632 46.1267 610.632 44.22C610.632 42.3 609.532 41.34 607.332 41.34H604.512V47.08ZM615.893 43.08V44.88C616.493 43.5467 617.619 42.88 619.273 42.88V44.34H618.873C617.913 44.34 617.173 44.6 616.653 45.12C616.146 45.64 615.893 46.5333 615.893 47.8V54H614.493V43.08H615.893ZM626.273 53.08C627.407 53.08 628.387 52.6733 629.213 51.86C630.04 51.0467 630.453 49.94 630.453 48.54C630.453 47.1267 630.06 46.02 629.273 45.22C628.487 44.4067 627.527 44 626.393 44C625.26 44 624.313 44.4 623.553 45.2C622.793 46 622.413 47.1133 622.413 48.54C622.413 49.9667 622.773 51.08 623.493 51.88C624.213 52.68 625.14 53.08 626.273 53.08ZM626.273 54.2C624.713 54.2 623.44 53.68 622.453 52.64C621.48 51.6 620.993 50.24 620.993 48.56C620.993 46.8667 621.513 45.5 622.553 44.46C623.593 43.4067 624.893 42.88 626.453 42.88C628.013 42.88 629.313 43.4067 630.353 44.46C631.393 45.5 631.913 46.86 631.913 48.54C631.913 50.2067 631.367 51.5667 630.273 52.62C629.18 53.6733 627.847 54.2 626.273 54.2ZM635.123 52.64C634.15 51.6 633.663 50.2333 633.663 48.54C633.663 46.8467 634.15 45.48 635.123 44.44C636.096 43.4 637.363 42.88 638.923 42.88C641.483 42.88 643.11 44.0267 643.803 46.32H642.303C642.076 45.5867 641.67 45.02 641.083 44.62C640.51 44.2067 639.79 44 638.923 44C637.79 44 636.87 44.3933 636.163 45.18C635.456 45.9533 635.103 47.0733 635.103 48.54C635.103 49.9933 635.456 51.1133 636.163 51.9C636.87 52.6867 637.79 53.08 638.923 53.08C639.79 53.08 640.51 52.88 641.083 52.48C641.67 52.0667 642.076 51.4933 642.303 50.76H643.803C643.456 51.8 642.876 52.6333 642.063 53.26C641.25 53.8867 640.203 54.2 638.923 54.2C637.363 54.2 636.096 53.68 635.123 52.64ZM651.065 54.2C649.505 54.2 648.238 53.68 647.265 52.64C646.292 51.6 645.805 50.2333 645.805 48.54C645.805 46.8333 646.298 45.4667 647.285 44.44C648.285 43.4 649.572 42.88 651.145 42.88C652.732 42.88 653.992 43.3667 654.925 44.34C655.858 45.3133 656.325 46.52 656.325 47.96C656.325 48.3467 656.298 48.7067 656.245 49.04H647.245C647.298 50.2933 647.678 51.28 648.385 52C649.092 52.72 649.985 53.08 651.065 53.08C651.905 53.08 652.618 52.8867 653.205 52.5C653.805 52.1133 654.218 51.6067 654.445 50.98H655.945C655.585 51.9133 654.998 52.6867 654.185 53.3C653.372 53.9 652.332 54.2 651.065 54.2ZM654.885 47.94C654.885 46.74 654.518 45.7867 653.785 45.08C653.065 44.36 652.165 44 651.085 44C650.018 44 649.125 44.3533 648.405 45.06C647.698 45.7533 647.312 46.7133 647.245 47.94H654.885ZM658.464 46.1C658.464 45.1933 658.838 44.4333 659.584 43.82C660.331 43.1933 661.284 42.88 662.444 42.88C663.604 42.88 664.504 43.1867 665.144 43.8C665.798 44.4 666.158 45.2333 666.224 46.3H664.784C664.758 45.6333 664.531 45.0867 664.104 44.66C663.678 44.22 663.084 44 662.324 44C661.564 44 660.964 44.1867 660.524 44.56C660.098 44.9333 659.884 45.3867 659.884 45.92C659.884 46.44 660.044 46.8533 660.364 47.16C660.684 47.4667 661.084 47.6733 661.564 47.78C662.058 47.8867 662.584 48.0133 663.144 48.16C663.718 48.3067 664.244 48.4667 664.724 48.64C665.218 48.8 665.624 49.1 665.944 49.54C666.264 49.9667 666.424 50.52 666.424 51.2C666.424 52.08 666.058 52.8 665.324 53.36C664.591 53.92 663.624 54.2 662.424 54.2C661.238 54.2 660.298 53.8933 659.604 53.28C658.911 52.6667 658.531 51.8333 658.464 50.78H659.904C659.931 51.46 660.171 52.0133 660.624 52.44C661.078 52.8667 661.698 53.08 662.484 53.08C663.284 53.08 663.904 52.9133 664.344 52.58C664.784 52.2333 665.004 51.7933 665.004 51.26C665.004 50.7267 664.844 50.3067 664.524 50C664.204 49.6933 663.798 49.4867 663.304 49.38C662.824 49.26 662.298 49.1267 661.724 48.98C661.164 48.8333 660.638 48.68 660.144 48.52C659.664 48.36 659.264 48.0733 658.944 47.66C658.624 47.2467 658.464 46.7267 658.464 46.1ZM668.966 46.1C668.966 45.1933 669.339 44.4333 670.086 43.82C670.833 43.1933 671.786 42.88 672.946 42.88C674.106 42.88 675.006 43.1867 675.646 43.8C676.299 44.4 676.659 45.2333 676.726 46.3H675.286C675.259 45.6333 675.033 45.0867 674.606 44.66C674.179 44.22 673.586 44 672.826 44C672.066 44 671.466 44.1867 671.026 44.56C670.599 44.9333 670.386 45.3867 670.386 45.92C670.386 46.44 670.546 46.8533 670.866 47.16C671.186 47.4667 671.586 47.6733 672.066 47.78C672.559 47.8867 673.086 48.0133 673.646 48.16C674.219 48.3067 674.746 48.4667 675.226 48.64C675.719 48.8 676.126 49.1 676.446 49.54C676.766 49.9667 676.926 50.52 676.926 51.2C676.926 52.08 676.559 52.8 675.826 53.36C675.093 53.92 674.126 54.2 672.926 54.2C671.739 54.2 670.799 53.8933 670.106 53.28C669.413 52.6667 669.033 51.8333 668.966 50.78H670.406C670.433 51.46 670.673 52.0133 671.126 52.44C671.579 52.8667 672.199 53.08 672.986 53.08C673.786 53.08 674.406 52.9133 674.846 52.58C675.286 52.2333 675.506 51.7933 675.506 51.26C675.506 50.7267 675.346 50.3067 675.026 50C674.706 49.6933 674.299 49.4867 673.806 49.38C673.326 49.26 672.799 49.1267 672.226 48.98C671.666 48.8333 671.139 48.68 670.646 48.52C670.166 48.36 669.766 48.0733 669.446 47.66C669.126 47.2467 668.966 46.7267 668.966 46.1Z" fill="white"></path><rect x="705.979" y="338" width="316" height="66" rx="33" fill="url(#paint4_linear_2702_2613)" fill-opacity="0.2"></rect><rect x="705.979" y="338" width="316" height="66" rx="33" stroke="url(#paint5_linear_2702_2613)" stroke-width="2"></rect><path d="M741.627 374.344C741.627 375.176 741.411 375.96 740.979 376.696C740.547 377.432 739.907 378.032 739.059 378.496C738.211 378.944 737.195 379.168 736.011 379.168C734.955 379.168 734.003 379 733.155 378.664C732.307 378.312 731.635 377.816 731.139 377.176C730.659 376.52 730.419 375.744 730.419 374.848H732.747C732.811 375.6 733.107 376.208 733.635 376.672C734.179 377.136 734.971 377.368 736.011 377.368C737.083 377.368 737.931 377.096 738.555 376.552C739.179 376.008 739.491 375.312 739.491 374.464C739.491 373.824 739.315 373.32 738.963 372.952C738.611 372.568 738.171 372.28 737.643 372.088C737.115 371.896 736.411 371.704 735.531 371.512C734.427 371.256 733.531 370.992 732.843 370.72C732.171 370.448 731.595 370.008 731.115 369.4C730.651 368.792 730.419 367.952 730.419 366.88C730.419 365.952 730.643 365.136 731.091 364.432C731.539 363.728 732.179 363.184 733.011 362.8C733.859 362.4 734.843 362.2 735.963 362.2C737.483 362.2 738.715 362.576 739.659 363.328C740.619 364.064 741.171 365.088 741.315 366.4H738.891C738.827 365.744 738.515 365.184 737.955 364.72C737.411 364.256 736.675 364.024 735.747 364.024C734.803 364.024 734.035 364.264 733.443 364.744C732.851 365.208 732.555 365.896 732.555 366.808C732.555 367.464 732.731 367.984 733.083 368.368C733.435 368.752 733.867 369.04 734.379 369.232C734.907 369.424 735.635 369.624 736.563 369.832C737.651 370.088 738.531 370.352 739.203 370.624C739.875 370.88 740.443 371.304 740.907 371.896C741.387 372.488 741.627 373.304 741.627 374.344ZM756.486 365.824V379H754.302V376.888C753.87 377.656 753.278 378.24 752.526 378.64C751.774 379.024 750.934 379.216 750.006 379.216C749.062 379.216 748.198 379.008 747.414 378.592C746.646 378.16 746.03 377.528 745.566 376.696C745.118 375.864 744.894 374.848 744.894 373.648V365.824H747.054V373.288C747.054 374.6 747.374 375.608 748.014 376.312C748.67 377 749.558 377.344 750.678 377.344C751.798 377.344 752.678 377 753.318 376.312C753.974 375.608 754.302 374.6 754.302 373.288V365.824H756.486ZM767.291 365.608C768.475 365.608 769.539 365.888 770.483 366.448C771.443 367.008 772.195 367.8 772.739 368.824C773.299 369.832 773.579 371 773.579 372.328C773.579 373.656 773.299 374.848 772.739 375.904C772.195 376.944 771.443 377.76 770.483 378.352C769.539 378.928 768.475 379.216 767.291 379.216C766.171 379.216 765.187 378.952 764.339 378.424C763.507 377.88 762.867 377.176 762.419 376.312V379H760.235V361.24H762.419V368.464C762.867 367.616 763.507 366.928 764.339 366.4C765.187 365.872 766.171 365.608 767.291 365.608ZM766.859 367.504C766.075 367.504 765.339 367.704 764.651 368.104C763.979 368.504 763.435 369.08 763.019 369.832C762.619 370.568 762.419 371.432 762.419 372.424C762.419 373.416 762.619 374.288 763.019 375.04C763.435 375.776 763.979 376.344 764.651 376.744C765.339 377.144 766.075 377.344 766.859 377.344C767.643 377.344 768.379 377.144 769.067 376.744C769.755 376.328 770.299 375.736 770.699 374.968C771.115 374.2 771.323 373.32 771.323 372.328C771.323 371.336 771.115 370.48 770.699 369.76C770.299 369.024 769.755 368.464 769.067 368.08C768.395 367.696 767.659 367.504 766.859 367.504ZM792.303 365.608C793.263 365.608 794.135 365.824 794.919 366.256C795.703 366.672 796.319 367.304 796.767 368.152C797.231 368.984 797.463 370 797.463 371.2V379H795.303V371.56C795.303 370.232 794.975 369.224 794.319 368.536C793.679 367.848 792.799 367.504 791.679 367.504C790.559 367.504 789.671 367.848 789.015 368.536C788.375 369.224 788.055 370.232 788.055 371.56V379H785.895V371.56C785.895 370.232 785.575 369.224 784.935 368.536C784.295 367.848 783.407 367.504 782.271 367.504C781.151 367.504 780.263 367.848 779.607 368.536C778.967 369.224 778.647 370.232 778.647 371.56V379H776.463V365.824H778.647V367.96C779.079 367.192 779.671 366.608 780.423 366.208C781.175 365.808 782.015 365.608 782.943 365.608C783.951 365.608 784.863 365.856 785.679 366.352C786.495 366.832 787.111 367.536 787.527 368.464C788.007 367.568 788.655 366.872 789.471 366.376C790.303 365.864 791.247 365.608 792.303 365.608ZM800.722 362.224C800.722 361.808 800.866 361.456 801.154 361.168C801.442 360.88 801.786 360.736 802.186 360.736C802.602 360.736 802.954 360.88 803.242 361.168C803.53 361.456 803.674 361.808 803.674 362.224C803.674 362.64 803.53 362.992 803.242 363.28C802.954 363.568 802.602 363.712 802.186 363.712C801.77 363.712 801.418 363.568 801.13 363.28C800.858 362.992 800.722 362.64 800.722 362.224ZM803.266 365.824V379H801.082V365.824H803.266ZM813.141 377.224V379H810.933C809.813 379 808.957 378.728 808.365 378.184C807.789 377.64 807.501 376.784 807.501 375.616V367.6H805.797V365.824H807.501V362.56H809.709V365.824H813.117V367.6H809.709V375.616C809.709 376.208 809.829 376.624 810.069 376.864C810.309 377.104 810.733 377.224 811.341 377.224H813.141ZM822.687 362.224C822.687 361.808 822.831 361.456 823.119 361.168C823.407 360.88 823.751 360.736 824.151 360.736C824.567 360.736 824.919 360.88 825.207 361.168C825.495 361.456 825.639 361.808 825.639 362.224C825.639 362.64 825.495 362.992 825.207 363.28C824.919 363.568 824.567 363.712 824.151 363.712C823.735 363.712 823.383 363.568 823.095 363.28C822.823 362.992 822.687 362.64 822.687 362.224ZM825.231 365.824V379H823.047V365.824H825.231ZM835.466 365.608C836.41 365.608 837.266 365.824 838.034 366.256C838.818 366.672 839.434 367.304 839.882 368.152C840.346 368.984 840.578 370 840.578 371.2V379H838.418V371.56C838.418 370.232 838.098 369.224 837.458 368.536C836.818 367.848 835.93 367.504 834.794 367.504C833.674 367.504 832.786 367.848 832.13 368.536C831.49 369.224 831.17 370.232 831.17 371.56V379H828.986V365.824H831.17V367.96C831.602 367.192 832.194 366.608 832.946 366.208C833.698 365.808 834.538 365.608 835.466 365.608ZM849.727 365.608C851.311 365.608 852.599 365.976 853.591 366.712C854.599 367.448 855.303 368.496 855.703 369.856H853.351C853.095 369.088 852.655 368.488 852.031 368.056C851.407 367.624 850.639 367.408 849.727 367.408C848.479 367.408 847.471 367.848 846.703 368.728C845.951 369.592 845.575 370.824 845.575 372.424C845.575 374.008 845.951 375.24 846.703 376.12C847.471 376.984 848.479 377.416 849.727 377.416C850.655 377.416 851.423 377.208 852.031 376.792C852.639 376.376 853.079 375.768 853.351 374.968H855.703C855.303 376.264 854.591 377.296 853.567 378.064C852.559 378.832 851.279 379.216 849.727 379.216C848.495 379.216 847.391 378.936 846.415 378.376C845.455 377.816 844.703 377.024 844.159 376C843.615 374.96 843.343 373.768 843.343 372.424C843.343 371.064 843.615 369.872 844.159 368.848C844.703 367.808 845.455 367.008 846.415 366.448C847.375 365.888 848.479 365.608 849.727 365.608ZM858.387 362.224C858.387 361.808 858.531 361.456 858.819 361.168C859.107 360.88 859.451 360.736 859.851 360.736C860.267 360.736 860.619 360.88 860.907 361.168C861.195 361.456 861.339 361.808 861.339 362.224C861.339 362.64 861.195 362.992 860.907 363.28C860.619 363.568 860.267 363.712 859.851 363.712C859.435 363.712 859.083 363.568 858.795 363.28C858.523 362.992 858.387 362.64 858.387 362.224ZM860.931 365.824V379H858.747V365.824H860.931ZM870.11 365.608C871.23 365.608 872.206 365.872 873.038 366.4C873.886 366.928 874.526 367.616 874.958 368.464V361.24H877.166V379H874.958V376.312C874.526 377.176 873.886 377.88 873.038 378.424C872.206 378.952 871.23 379.216 870.11 379.216C868.926 379.216 867.854 378.928 866.894 378.352C865.95 377.76 865.198 376.944 864.638 375.904C864.094 374.848 863.822 373.656 863.822 372.328C863.822 371 864.094 369.832 864.638 368.824C865.198 367.8 865.95 367.008 866.894 366.448C867.854 365.888 868.926 365.608 870.11 365.608ZM870.494 367.504C869.71 367.504 868.974 367.696 868.286 368.08C867.614 368.464 867.07 369.024 866.654 369.76C866.254 370.48 866.054 371.336 866.054 372.328C866.054 373.32 866.254 374.2 866.654 374.968C867.07 375.72 867.614 376.304 868.286 376.72C868.974 377.136 869.71 377.344 870.494 377.344C871.294 377.344 872.03 377.144 872.702 376.744C873.39 376.344 873.934 375.776 874.334 375.04C874.75 374.288 874.958 373.416 874.958 372.424C874.958 371.432 874.75 370.568 874.334 369.832C873.934 369.08 873.39 368.504 872.702 368.104C872.03 367.704 871.294 367.504 870.494 367.504ZM892.866 371.872C892.866 372.336 892.834 372.768 892.77 373.168H882.282C882.346 374.48 882.754 375.52 883.506 376.288C884.274 377.04 885.25 377.416 886.434 377.416C887.33 377.416 888.082 377.216 888.69 376.816C889.314 376.416 889.77 375.888 890.058 375.232H892.41C891.994 376.384 891.274 377.336 890.25 378.088C889.242 378.84 887.97 379.216 886.434 379.216C885.202 379.216 884.098 378.936 883.122 378.376C882.162 377.816 881.41 377.024 880.866 376C880.322 374.96 880.05 373.768 880.05 372.424C880.05 371.064 880.322 369.872 880.866 368.848C881.41 367.808 882.178 367.008 883.17 366.448C884.162 365.888 885.306 365.608 886.602 365.608C887.834 365.608 888.922 365.88 889.866 366.424C890.81 366.968 891.546 367.712 892.074 368.656C892.602 369.6 892.866 370.672 892.866 371.872ZM890.586 371.584C890.586 370.736 890.402 370 890.034 369.376C889.666 368.736 889.162 368.248 888.522 367.912C887.898 367.576 887.202 367.408 886.434 367.408C885.298 367.408 884.346 367.784 883.578 368.536C882.81 369.272 882.386 370.288 882.306 371.584H890.586ZM902.216 365.608C903.16 365.608 904.016 365.824 904.784 366.256C905.568 366.672 906.184 367.304 906.632 368.152C907.096 368.984 907.328 370 907.328 371.2V379H905.168V371.56C905.168 370.232 904.848 369.224 904.208 368.536C903.568 367.848 902.68 367.504 901.544 367.504C900.424 367.504 899.536 367.848 898.88 368.536C898.24 369.224 897.92 370.232 897.92 371.56V379H895.736V365.824H897.92V367.96C898.352 367.192 898.944 366.608 899.696 366.208C900.448 365.808 901.288 365.608 902.216 365.608ZM917.077 377.224V379H914.869C913.749 379 912.893 378.728 912.301 378.184C911.725 377.64 911.437 376.784 911.437 375.616V367.6H909.733V365.824H911.437V362.56H913.645V365.824H917.053V367.6H913.645V375.616C913.645 376.208 913.765 376.624 914.005 376.864C914.245 377.104 914.669 377.224 915.277 377.224H917.077ZM929.167 368.056C929.951 366.424 931.287 365.608 933.175 365.608V367.888H932.599C931.479 367.888 930.623 368.184 930.031 368.776C929.455 369.352 929.167 370.36 929.167 371.8V379H926.983V365.824H929.167V368.056ZM947.921 371.872C947.921 372.336 947.889 372.768 947.825 373.168H937.337C937.401 374.48 937.809 375.52 938.561 376.288C939.329 377.04 940.305 377.416 941.489 377.416C942.385 377.416 943.137 377.216 943.745 376.816C944.369 376.416 944.825 375.888 945.113 375.232H947.465C947.049 376.384 946.329 377.336 945.305 378.088C944.297 378.84 943.025 379.216 941.489 379.216C940.257 379.216 939.153 378.936 938.177 378.376C937.217 377.816 936.465 377.024 935.921 376C935.377 374.96 935.105 373.768 935.105 372.424C935.105 371.064 935.377 369.872 935.921 368.848C936.465 367.808 937.233 367.008 938.225 366.448C939.217 365.888 940.361 365.608 941.657 365.608C942.889 365.608 943.977 365.88 944.921 366.424C945.865 366.968 946.601 367.712 947.129 368.656C947.657 369.6 947.921 370.672 947.921 371.872ZM945.641 371.584C945.641 370.736 945.457 370 945.089 369.376C944.721 368.736 944.217 368.248 943.577 367.912C942.953 367.576 942.257 367.408 941.489 367.408C940.353 367.408 939.401 367.784 938.633 368.536C937.865 369.272 937.441 370.288 937.361 371.584H945.641ZM957.847 365.608C959.031 365.608 960.095 365.888 961.039 366.448C961.999 367.008 962.751 367.8 963.295 368.824C963.855 369.832 964.135 371 964.135 372.328C964.135 373.656 963.855 374.848 963.295 375.904C962.751 376.944 961.999 377.76 961.039 378.352C960.095 378.928 959.031 379.216 957.847 379.216C956.727 379.216 955.743 378.952 954.895 378.424C954.063 377.88 953.423 377.176 952.975 376.312V385.24H950.791V365.824H952.975V368.464C953.423 367.616 954.063 366.928 954.895 366.4C955.743 365.872 956.727 365.608 957.847 365.608ZM957.415 367.504C956.631 367.504 955.895 367.704 955.207 368.104C954.535 368.504 953.991 369.08 953.575 369.832C953.175 370.568 952.975 371.432 952.975 372.424C952.975 373.416 953.175 374.288 953.575 375.04C953.991 375.776 954.535 376.344 955.207 376.744C955.895 377.144 956.631 377.344 957.415 377.344C958.199 377.344 958.935 377.144 959.623 376.744C960.311 376.328 960.855 375.736 961.255 374.968C961.671 374.2 961.879 373.32 961.879 372.328C961.879 371.336 961.671 370.48 961.255 369.76C960.855 369.024 960.311 368.464 959.623 368.08C958.951 367.696 958.215 367.504 957.415 367.504ZM972.803 365.608C974.051 365.608 975.179 365.888 976.187 366.448C977.195 367.008 977.987 367.808 978.563 368.848C979.155 369.888 979.451 371.08 979.451 372.424C979.451 373.752 979.147 374.936 978.539 375.976C977.931 377 977.107 377.8 976.067 378.376C975.027 378.936 973.875 379.216 972.611 379.216C971.379 379.216 970.267 378.936 969.275 378.376C968.299 377.816 967.531 377.024 966.971 376C966.427 374.96 966.155 373.768 966.155 372.424C966.155 371.064 966.443 369.872 967.019 368.848C967.611 367.808 968.411 367.008 969.419 366.448C970.427 365.888 971.555 365.608 972.803 365.608ZM972.731 367.408C971.931 367.408 971.203 367.6 970.547 367.984C969.891 368.368 969.363 368.936 968.963 369.688C968.579 370.44 968.387 371.352 968.387 372.424C968.387 373.48 968.571 374.384 968.939 375.136C969.323 375.888 969.835 376.456 970.475 376.84C971.115 377.224 971.827 377.416 972.611 377.416C973.411 377.416 974.155 377.224 974.843 376.84C975.547 376.44 976.115 375.864 976.547 375.112C976.979 374.36 977.195 373.464 977.195 372.424C977.195 371.368 976.987 370.464 976.571 369.712C976.171 368.944 975.627 368.368 974.939 367.984C974.267 367.6 973.531 367.408 972.731 367.408ZM984.517 368.056C985.301 366.424 986.637 365.608 988.525 365.608V367.888H987.949C986.829 367.888 985.973 368.184 985.381 368.776C984.805 369.352 984.517 370.36 984.517 371.8V379H982.333V365.824H984.517V368.056ZM997.439 377.224V379H995.231C994.111 379 993.255 378.728 992.663 378.184C992.087 377.64 991.799 376.784 991.799 375.616V367.6H990.095V365.824H991.799V362.56H994.007V365.824H997.415V367.6H994.007V375.616C994.007 376.208 994.127 376.624 994.367 376.864C994.607 377.104 995.031 377.224 995.639 377.224H997.439Z" fill="white"></path><path d="M430.119 437.14L425.619 445.76V451H423.799V445.76L419.279 437.14H421.279L424.699 444.08L428.099 437.14H430.119ZM436.894 439.84C437.934 439.84 438.874 440.073 439.714 440.54C440.554 441.007 441.214 441.673 441.694 442.54C442.187 443.407 442.434 444.4 442.434 445.52C442.434 446.627 442.18 447.613 441.674 448.48C441.167 449.333 440.48 450 439.614 450.48C438.747 450.947 437.787 451.18 436.734 451.18C435.707 451.18 434.78 450.947 433.954 450.48C433.14 450.013 432.5 449.353 432.034 448.5C431.58 447.633 431.354 446.64 431.354 445.52C431.354 444.387 431.594 443.393 432.074 442.54C432.567 441.673 433.234 441.007 434.074 440.54C434.914 440.073 435.854 439.84 436.894 439.84ZM436.834 441.34C436.167 441.34 435.56 441.5 435.014 441.82C434.467 442.14 434.027 442.613 433.694 443.24C433.374 443.867 433.214 444.627 433.214 445.52C433.214 446.4 433.367 447.153 433.674 447.78C433.994 448.407 434.42 448.88 434.954 449.2C435.487 449.52 436.08 449.68 436.734 449.68C437.4 449.68 438.02 449.52 438.594 449.2C439.18 448.867 439.654 448.387 440.014 447.76C440.374 447.133 440.554 446.387 440.554 445.52C440.554 444.64 440.38 443.887 440.034 443.26C439.7 442.62 439.247 442.14 438.674 441.82C438.114 441.5 437.5 441.34 436.834 441.34ZM454.421 440.02V451H452.601V449.24C452.241 449.88 451.747 450.367 451.121 450.7C450.494 451.02 449.794 451.18 449.021 451.18C448.234 451.18 447.514 451.007 446.861 450.66C446.221 450.3 445.707 449.773 445.321 449.08C444.947 448.387 444.761 447.54 444.761 446.54V440.02H446.561V446.24C446.561 447.333 446.827 448.173 447.361 448.76C447.907 449.333 448.647 449.62 449.581 449.62C450.514 449.62 451.247 449.333 451.781 448.76C452.327 448.173 452.601 447.333 452.601 446.24V440.02H454.421ZM459.389 441.88C460.042 440.52 461.156 439.84 462.729 439.84V441.74H462.249C461.316 441.74 460.602 441.987 460.109 442.48C459.629 442.96 459.389 443.8 459.389 445V451H457.569V440.02H459.389V441.88ZM473.049 441.88C473.702 440.52 474.815 439.84 476.389 439.84V441.74H475.909C474.975 441.74 474.262 441.987 473.769 442.48C473.289 442.96 473.049 443.8 473.049 445V451H471.229V440.02H473.049V441.88ZM488.702 445.06C488.702 445.447 488.675 445.807 488.622 446.14H479.882C479.935 447.233 480.275 448.1 480.902 448.74C481.542 449.367 482.355 449.68 483.342 449.68C484.088 449.68 484.715 449.513 485.222 449.18C485.742 448.847 486.122 448.407 486.362 447.86H488.322C487.975 448.82 487.375 449.613 486.522 450.24C485.682 450.867 484.622 451.18 483.342 451.18C482.315 451.18 481.395 450.947 480.582 450.48C479.782 450.013 479.155 449.353 478.702 448.5C478.248 447.633 478.022 446.64 478.022 445.52C478.022 444.387 478.248 443.393 478.702 442.54C479.155 441.673 479.795 441.007 480.622 440.54C481.448 440.073 482.402 439.84 483.482 439.84C484.508 439.84 485.415 440.067 486.202 440.52C486.988 440.973 487.602 441.593 488.042 442.38C488.482 443.167 488.702 444.06 488.702 445.06ZM486.802 444.82C486.802 444.113 486.648 443.5 486.342 442.98C486.035 442.447 485.615 442.04 485.082 441.76C484.562 441.48 483.982 441.34 483.342 441.34C482.395 441.34 481.602 441.653 480.962 442.28C480.322 442.893 479.968 443.74 479.902 444.82H486.802ZM495.638 439.84C496.572 439.84 497.385 440.06 498.078 440.5C498.785 440.94 499.318 441.513 499.678 442.22V440.02H501.518V456.2H499.678V448.76C499.318 449.48 498.785 450.067 498.078 450.52C497.385 450.96 496.572 451.18 495.638 451.18C494.652 451.18 493.758 450.94 492.958 450.46C492.172 449.967 491.545 449.287 491.078 448.42C490.625 447.54 490.398 446.547 490.398 445.44C490.398 444.333 490.625 443.36 491.078 442.52C491.545 441.667 492.172 441.007 492.958 440.54C493.758 440.073 494.652 439.84 495.638 439.84ZM495.958 441.42C495.305 441.42 494.692 441.58 494.118 441.9C493.558 442.22 493.105 442.687 492.758 443.3C492.425 443.9 492.258 444.613 492.258 445.44C492.258 446.267 492.425 447 492.758 447.64C493.105 448.267 493.558 448.753 494.118 449.1C494.692 449.447 495.305 449.62 495.958 449.62C496.625 449.62 497.238 449.453 497.798 449.12C498.372 448.787 498.825 448.313 499.158 447.7C499.505 447.073 499.678 446.347 499.678 445.52C499.678 444.693 499.505 443.973 499.158 443.36C498.825 442.733 498.372 442.253 497.798 441.92C497.238 441.587 496.625 441.42 495.958 441.42ZM514.227 440.02V451H512.407V449.24C512.047 449.88 511.553 450.367 510.927 450.7C510.3 451.02 509.6 451.18 508.827 451.18C508.04 451.18 507.32 451.007 506.667 450.66C506.027 450.3 505.513 449.773 505.127 449.08C504.753 448.387 504.567 447.54 504.567 446.54V440.02H506.367V446.24C506.367 447.333 506.633 448.173 507.167 448.76C507.713 449.333 508.453 449.62 509.387 449.62C510.32 449.62 511.053 449.333 511.587 448.76C512.133 448.173 512.407 447.333 512.407 446.24V440.02H514.227ZM527.335 445.06C527.335 445.447 527.309 445.807 527.255 446.14H518.515C518.569 447.233 518.909 448.1 519.535 448.74C520.175 449.367 520.989 449.68 521.975 449.68C522.722 449.68 523.349 449.513 523.855 449.18C524.375 448.847 524.755 448.407 524.995 447.86H526.955C526.609 448.82 526.009 449.613 525.155 450.24C524.315 450.867 523.255 451.18 521.975 451.18C520.949 451.18 520.029 450.947 519.215 450.48C518.415 450.013 517.789 449.353 517.335 448.5C516.882 447.633 516.655 446.64 516.655 445.52C516.655 444.387 516.882 443.393 517.335 442.54C517.789 441.673 518.429 441.007 519.255 440.54C520.082 440.073 521.035 439.84 522.115 439.84C523.142 439.84 524.049 440.067 524.835 440.52C525.622 440.973 526.235 441.593 526.675 442.38C527.115 443.167 527.335 444.06 527.335 445.06ZM525.435 444.82C525.435 444.113 525.282 443.5 524.975 442.98C524.669 442.447 524.249 442.04 523.715 441.76C523.195 441.48 522.615 441.34 521.975 441.34C521.029 441.34 520.235 441.653 519.595 442.28C518.955 442.893 518.602 443.74 518.535 444.82H525.435ZM533.532 439.84C534.719 439.84 535.659 440.153 536.352 440.78C537.045 441.393 537.425 442.24 537.492 443.32H535.612C535.585 442.707 535.379 442.213 534.992 441.84C534.605 441.467 534.072 441.28 533.392 441.28C532.699 441.28 532.152 441.447 531.752 441.78C531.365 442.1 531.172 442.507 531.172 443C531.172 443.413 531.292 443.747 531.532 444C531.785 444.24 532.092 444.42 532.452 444.54C532.825 444.66 533.325 444.787 533.952 444.92C534.752 445.107 535.392 445.293 535.872 445.48C536.365 445.653 536.785 445.953 537.132 446.38C537.479 446.793 537.652 447.36 537.652 448.08C537.652 448.68 537.479 449.22 537.132 449.7C536.785 450.167 536.299 450.533 535.672 450.8C535.045 451.053 534.325 451.18 533.512 451.18C532.285 451.18 531.299 450.873 530.552 450.26C529.819 449.647 529.419 448.8 529.352 447.72H531.232C531.259 448.333 531.472 448.827 531.872 449.2C532.285 449.56 532.832 449.74 533.512 449.74C534.259 449.74 534.832 449.587 535.232 449.28C535.645 448.973 535.852 448.567 535.852 448.06C535.852 447.647 535.725 447.32 535.472 447.08C535.232 446.827 534.925 446.64 534.552 446.52C534.179 446.387 533.665 446.247 533.012 446.1C532.225 445.927 531.585 445.753 531.092 445.58C530.612 445.393 530.199 445.107 529.852 444.72C529.519 444.333 529.352 443.8 529.352 443.12C529.352 442.52 529.519 441.973 529.852 441.48C530.199 440.973 530.685 440.573 531.312 440.28C531.952 439.987 532.692 439.84 533.532 439.84ZM545.529 449.52V451H543.689C542.756 451 542.043 450.773 541.549 450.32C541.069 449.867 540.829 449.153 540.829 448.18V441.5H539.409V440.02H540.829V437.3H542.669V440.02H545.509V441.5H542.669V448.18C542.669 448.673 542.769 449.02 542.969 449.22C543.169 449.42 543.523 449.52 544.029 449.52H545.529ZM568.255 440.02L564.795 451H562.915L560.435 442.28L557.955 451H556.055L552.575 440.02H554.455L556.995 449.18L559.575 440.02H561.455L563.895 449.2L566.415 440.02H568.255ZM574.657 439.84C575.59 439.84 576.404 440.06 577.097 440.5C577.804 440.94 578.337 441.513 578.697 442.22V440.02H580.537V451H578.697V448.76C578.337 449.48 577.804 450.067 577.097 450.52C576.404 450.96 575.59 451.18 574.657 451.18C573.67 451.18 572.777 450.94 571.977 450.46C571.19 449.967 570.564 449.287 570.097 448.42C569.644 447.54 569.417 446.547 569.417 445.44C569.417 444.333 569.644 443.36 570.097 442.52C570.564 441.667 571.19 441.007 571.977 440.54C572.777 440.073 573.67 439.84 574.657 439.84ZM574.977 441.42C574.324 441.42 573.71 441.58 573.137 441.9C572.577 442.22 572.124 442.687 571.777 443.3C571.444 443.9 571.277 444.613 571.277 445.44C571.277 446.267 571.444 447 571.777 447.64C572.124 448.267 572.577 448.753 573.137 449.1C573.71 449.447 574.324 449.62 574.977 449.62C575.644 449.62 576.257 449.453 576.817 449.12C577.39 448.787 577.844 448.313 578.177 447.7C578.524 447.073 578.697 446.347 578.697 445.52C578.697 444.693 578.524 443.973 578.177 443.36C577.844 442.733 577.39 442.253 576.817 441.92C576.257 441.587 575.644 441.42 574.977 441.42ZM587.466 439.84C588.652 439.84 589.592 440.153 590.286 440.78C590.979 441.393 591.359 442.24 591.426 443.32H589.546C589.519 442.707 589.312 442.213 588.926 441.84C588.539 441.467 588.006 441.28 587.326 441.28C586.632 441.28 586.086 441.447 585.686 441.78C585.299 442.1 585.106 442.507 585.106 443C585.106 443.413 585.226 443.747 585.466 444C585.719 444.24 586.026 444.42 586.386 444.54C586.759 444.66 587.259 444.787 587.886 444.92C588.686 445.107 589.326 445.293 589.806 445.48C590.299 445.653 590.719 445.953 591.066 446.38C591.412 446.793 591.586 447.36 591.586 448.08C591.586 448.68 591.412 449.22 591.066 449.7C590.719 450.167 590.232 450.533 589.606 450.8C588.979 451.053 588.259 451.18 587.446 451.18C586.219 451.18 585.232 450.873 584.486 450.26C583.752 449.647 583.352 448.8 583.286 447.72H585.166C585.192 448.333 585.406 448.827 585.806 449.2C586.219 449.56 586.766 449.74 587.446 449.74C588.192 449.74 588.766 449.587 589.166 449.28C589.579 448.973 589.786 448.567 589.786 448.06C589.786 447.647 589.659 447.32 589.406 447.08C589.166 446.827 588.859 446.64 588.486 446.52C588.112 446.387 587.599 446.247 586.946 446.1C586.159 445.927 585.519 445.753 585.026 445.58C584.546 445.393 584.132 445.107 583.786 444.72C583.452 444.333 583.286 443.8 583.286 443.12C583.286 442.52 583.452 441.973 583.786 441.48C584.132 440.973 584.619 440.573 585.246 440.28C585.886 439.987 586.626 439.84 587.466 439.84ZM604.289 439.84C605.476 439.84 606.416 440.153 607.109 440.78C607.802 441.393 608.182 442.24 608.249 443.32H606.369C606.342 442.707 606.136 442.213 605.749 441.84C605.362 441.467 604.829 441.28 604.149 441.28C603.456 441.28 602.909 441.447 602.509 441.78C602.122 442.1 601.929 442.507 601.929 443C601.929 443.413 602.049 443.747 602.289 444C602.542 444.24 602.849 444.42 603.209 444.54C603.582 444.66 604.082 444.787 604.709 444.92C605.509 445.107 606.149 445.293 606.629 445.48C607.122 445.653 607.542 445.953 607.889 446.38C608.236 446.793 608.409 447.36 608.409 448.08C608.409 448.68 608.236 449.22 607.889 449.7C607.542 450.167 607.056 450.533 606.429 450.8C605.802 451.053 605.082 451.18 604.269 451.18C603.042 451.18 602.056 450.873 601.309 450.26C600.576 449.647 600.176 448.8 600.109 447.72H601.989C602.016 448.333 602.229 448.827 602.629 449.2C603.042 449.56 603.589 449.74 604.269 449.74C605.016 449.74 605.589 449.587 605.989 449.28C606.402 448.973 606.609 448.567 606.609 448.06C606.609 447.647 606.482 447.32 606.229 447.08C605.989 446.827 605.682 446.64 605.309 446.52C604.936 446.387 604.422 446.247 603.769 446.1C602.982 445.927 602.342 445.753 601.849 445.58C601.369 445.393 600.956 445.107 600.609 444.72C600.276 444.333 600.109 443.8 600.109 443.12C600.109 442.52 600.276 441.973 600.609 441.48C600.956 440.973 601.442 440.573 602.069 440.28C602.709 439.987 603.449 439.84 604.289 439.84ZM620.746 440.02V451H618.926V449.24C618.566 449.88 618.073 450.367 617.446 450.7C616.82 451.02 616.12 451.18 615.346 451.18C614.56 451.18 613.84 451.007 613.186 450.66C612.546 450.3 612.033 449.773 611.646 449.08C611.273 448.387 611.086 447.54 611.086 446.54V440.02H612.886V446.24C612.886 447.333 613.153 448.173 613.686 448.76C614.233 449.333 614.973 449.62 615.906 449.62C616.84 449.62 617.573 449.333 618.106 448.76C618.653 448.173 618.926 447.333 618.926 446.24V440.02H620.746ZM629.775 439.84C630.762 439.84 631.648 440.073 632.435 440.54C633.235 441.007 633.862 441.667 634.315 442.52C634.782 443.36 635.015 444.333 635.015 445.44C635.015 446.547 634.782 447.54 634.315 448.42C633.862 449.287 633.235 449.967 632.435 450.46C631.648 450.94 630.762 451.18 629.775 451.18C628.842 451.18 628.022 450.96 627.315 450.52C626.622 450.067 626.088 449.48 625.715 448.76V451H623.895V436.2H625.715V442.22C626.088 441.513 626.622 440.94 627.315 440.5C628.022 440.06 628.842 439.84 629.775 439.84ZM629.415 441.42C628.762 441.42 628.148 441.587 627.575 441.92C627.015 442.253 626.562 442.733 626.215 443.36C625.882 443.973 625.715 444.693 625.715 445.52C625.715 446.347 625.882 447.073 626.215 447.7C626.562 448.313 627.015 448.787 627.575 449.12C628.148 449.453 628.762 449.62 629.415 449.62C630.068 449.62 630.682 449.453 631.255 449.12C631.828 448.773 632.282 448.28 632.615 447.64C632.962 447 633.135 446.267 633.135 445.44C633.135 444.613 632.962 443.9 632.615 443.3C632.282 442.687 631.828 442.22 631.255 441.9C630.695 441.58 630.082 441.42 629.415 441.42ZM650.643 439.84C651.443 439.84 652.17 440.02 652.823 440.38C653.477 440.727 653.99 441.253 654.363 441.96C654.75 442.653 654.943 443.5 654.943 444.5V451H653.143V444.8C653.143 443.693 652.87 442.853 652.323 442.28C651.79 441.707 651.057 441.42 650.123 441.42C649.19 441.42 648.45 441.707 647.903 442.28C647.37 442.853 647.103 443.693 647.103 444.8V451H645.303V444.8C645.303 443.693 645.037 442.853 644.503 442.28C643.97 441.707 643.23 441.42 642.283 441.42C641.35 441.42 640.61 441.707 640.063 442.28C639.53 442.853 639.263 443.693 639.263 444.8V451H637.443V440.02H639.263V441.8C639.623 441.16 640.117 440.673 640.743 440.34C641.37 440.007 642.07 439.84 642.843 439.84C643.683 439.84 644.443 440.047 645.123 440.46C645.803 440.86 646.317 441.447 646.663 442.22C647.063 441.473 647.603 440.893 648.283 440.48C648.977 440.053 649.763 439.84 650.643 439.84ZM657.684 437.02C657.684 436.673 657.804 436.38 658.044 436.14C658.284 435.9 658.571 435.78 658.904 435.78C659.251 435.78 659.544 435.9 659.784 436.14C660.024 436.38 660.144 436.673 660.144 437.02C660.144 437.367 660.024 437.66 659.784 437.9C659.544 438.14 659.251 438.26 658.904 438.26C658.557 438.26 658.264 438.14 658.024 437.9C657.797 437.66 657.684 437.367 657.684 437.02ZM659.804 440.02V451H657.984V440.02H659.804ZM668.058 449.52V451H666.218C665.285 451 664.572 450.773 664.078 450.32C663.598 449.867 663.358 449.153 663.358 448.18V441.5H661.938V440.02H663.358V437.3H665.198V440.02H668.038V441.5H665.198V448.18C665.198 448.673 665.298 449.02 665.498 449.22C665.698 449.42 666.052 449.52 666.558 449.52H668.058ZM675.318 449.52V451H673.478C672.544 451 671.831 450.773 671.338 450.32C670.858 449.867 670.618 449.153 670.618 448.18V441.5H669.198V440.02H670.618V437.3H672.458V440.02H675.298V441.5H672.458V448.18C672.458 448.673 672.558 449.02 672.758 449.22C672.958 449.42 673.311 449.52 673.818 449.52H675.318ZM687.437 445.06C687.437 445.447 687.41 445.807 687.357 446.14H678.617C678.67 447.233 679.01 448.1 679.637 448.74C680.277 449.367 681.09 449.68 682.077 449.68C682.824 449.68 683.45 449.513 683.957 449.18C684.477 448.847 684.857 448.407 685.097 447.86H687.057C686.71 448.82 686.11 449.613 685.257 450.24C684.417 450.867 683.357 451.18 682.077 451.18C681.05 451.18 680.13 450.947 679.317 450.48C678.517 450.013 677.89 449.353 677.437 448.5C676.984 447.633 676.757 446.64 676.757 445.52C676.757 444.387 676.984 443.393 677.437 442.54C677.89 441.673 678.53 441.007 679.357 440.54C680.184 440.073 681.137 439.84 682.217 439.84C683.244 439.84 684.15 440.067 684.937 440.52C685.724 440.973 686.337 441.593 686.777 442.38C687.217 443.167 687.437 444.06 687.437 445.06ZM685.537 444.82C685.537 444.113 685.384 443.5 685.077 442.98C684.77 442.447 684.35 442.04 683.817 441.76C683.297 441.48 682.717 441.34 682.077 441.34C681.13 441.34 680.337 441.653 679.697 442.28C679.057 442.893 678.704 443.74 678.637 444.82H685.537ZM694.374 439.84C695.307 439.84 696.12 440.06 696.814 440.5C697.52 440.94 698.054 441.513 698.414 442.22V436.2H700.254V451H698.414V448.76C698.054 449.48 697.52 450.067 696.814 450.52C696.12 450.96 695.307 451.18 694.374 451.18C693.387 451.18 692.494 450.94 691.694 450.46C690.907 449.967 690.28 449.287 689.814 448.42C689.36 447.54 689.134 446.547 689.134 445.44C689.134 444.333 689.36 443.36 689.814 442.52C690.28 441.667 690.907 441.007 691.694 440.54C692.494 440.073 693.387 439.84 694.374 439.84ZM694.694 441.42C694.04 441.42 693.427 441.58 692.854 441.9C692.294 442.22 691.84 442.687 691.494 443.3C691.16 443.9 690.994 444.613 690.994 445.44C690.994 446.267 691.16 447 691.494 447.64C691.84 448.267 692.294 448.753 692.854 449.1C693.427 449.447 694.04 449.62 694.694 449.62C695.36 449.62 695.974 449.453 696.534 449.12C697.107 448.787 697.56 448.313 697.894 447.7C698.24 447.073 698.414 446.347 698.414 445.52C698.414 444.693 698.24 443.973 697.894 443.36C697.56 442.733 697.107 442.253 696.534 441.92C695.974 441.587 695.36 441.42 694.694 441.42ZM713.328 439.84C714.515 439.84 715.455 440.153 716.148 440.78C716.841 441.393 717.221 442.24 717.288 443.32H715.408C715.381 442.707 715.175 442.213 714.788 441.84C714.401 441.467 713.868 441.28 713.188 441.28C712.495 441.28 711.948 441.447 711.548 441.78C711.161 442.1 710.968 442.507 710.968 443C710.968 443.413 711.088 443.747 711.328 444C711.581 444.24 711.888 444.42 712.248 444.54C712.621 444.66 713.121 444.787 713.748 444.92C714.548 445.107 715.188 445.293 715.668 445.48C716.161 445.653 716.581 445.953 716.928 446.38C717.275 446.793 717.448 447.36 717.448 448.08C717.448 448.68 717.275 449.22 716.928 449.7C716.581 450.167 716.095 450.533 715.468 450.8C714.841 451.053 714.121 451.18 713.308 451.18C712.081 451.18 711.095 450.873 710.348 450.26C709.615 449.647 709.215 448.8 709.148 447.72H711.028C711.055 448.333 711.268 448.827 711.668 449.2C712.081 449.56 712.628 449.74 713.308 449.74C714.055 449.74 714.628 449.587 715.028 449.28C715.441 448.973 715.648 448.567 715.648 448.06C715.648 447.647 715.521 447.32 715.268 447.08C715.028 446.827 714.721 446.64 714.348 446.52C713.975 446.387 713.461 446.247 712.808 446.1C712.021 445.927 711.381 445.753 710.888 445.58C710.408 445.393 709.995 445.107 709.648 444.72C709.315 444.333 709.148 443.8 709.148 443.12C709.148 442.52 709.315 441.973 709.648 441.48C709.995 440.973 710.481 440.573 711.108 440.28C711.748 439.987 712.488 439.84 713.328 439.84ZM729.785 440.02V451H727.965V449.24C727.605 449.88 727.112 450.367 726.485 450.7C725.859 451.02 725.159 451.18 724.385 451.18C723.599 451.18 722.879 451.007 722.225 450.66C721.585 450.3 721.072 449.773 720.685 449.08C720.312 448.387 720.125 447.54 720.125 446.54V440.02H721.925V446.24C721.925 447.333 722.192 448.173 722.725 448.76C723.272 449.333 724.012 449.62 724.945 449.62C725.879 449.62 726.612 449.333 727.145 448.76C727.692 448.173 727.965 447.333 727.965 446.24V440.02H729.785ZM737.534 439.84C738.854 439.84 739.927 440.147 740.754 440.76C741.594 441.373 742.181 442.247 742.514 443.38H740.554C740.341 442.74 739.974 442.24 739.454 441.88C738.934 441.52 738.294 441.34 737.534 441.34C736.494 441.34 735.654 441.707 735.014 442.44C734.387 443.16 734.074 444.187 734.074 445.52C734.074 446.84 734.387 447.867 735.014 448.6C735.654 449.32 736.494 449.68 737.534 449.68C738.307 449.68 738.947 449.507 739.454 449.16C739.961 448.813 740.327 448.307 740.554 447.64H742.514C742.181 448.72 741.587 449.58 740.734 450.22C739.894 450.86 738.827 451.18 737.534 451.18C736.507 451.18 735.587 450.947 734.774 450.48C733.974 450.013 733.347 449.353 732.894 448.5C732.441 447.633 732.214 446.64 732.214 445.52C732.214 444.387 732.441 443.393 732.894 442.54C733.347 441.673 733.974 441.007 734.774 440.54C735.574 440.073 736.494 439.84 737.534 439.84ZM749.676 439.84C750.996 439.84 752.07 440.147 752.896 440.76C753.736 441.373 754.323 442.247 754.656 443.38H752.696C752.483 442.74 752.116 442.24 751.596 441.88C751.076 441.52 750.436 441.34 749.676 441.34C748.636 441.34 747.796 441.707 747.156 442.44C746.53 443.16 746.216 444.187 746.216 445.52C746.216 446.84 746.53 447.867 747.156 448.6C747.796 449.32 748.636 449.68 749.676 449.68C750.45 449.68 751.09 449.507 751.596 449.16C752.103 448.813 752.47 448.307 752.696 447.64H754.656C754.323 448.72 753.73 449.58 752.876 450.22C752.036 450.86 750.97 451.18 749.676 451.18C748.65 451.18 747.73 450.947 746.916 450.48C746.116 450.013 745.49 449.353 745.036 448.5C744.583 447.633 744.356 446.64 744.356 445.52C744.356 444.387 744.583 443.393 745.036 442.54C745.49 441.673 746.116 441.007 746.916 440.54C747.716 440.073 748.636 439.84 749.676 439.84ZM767.178 445.06C767.178 445.447 767.152 445.807 767.098 446.14H758.358C758.412 447.233 758.752 448.1 759.378 448.74C760.018 449.367 760.832 449.68 761.818 449.68C762.565 449.68 763.192 449.513 763.698 449.18C764.218 448.847 764.598 448.407 764.838 447.86H766.798C766.452 448.82 765.852 449.613 764.998 450.24C764.158 450.867 763.098 451.18 761.818 451.18C760.792 451.18 759.872 450.947 759.058 450.48C758.258 450.013 757.632 449.353 757.178 448.5C756.725 447.633 756.498 446.64 756.498 445.52C756.498 444.387 756.725 443.393 757.178 442.54C757.632 441.673 758.272 441.007 759.098 440.54C759.925 440.073 760.878 439.84 761.958 439.84C762.985 439.84 763.892 440.067 764.678 440.52C765.465 440.973 766.078 441.593 766.518 442.38C766.958 443.167 767.178 444.06 767.178 445.06ZM765.278 444.82C765.278 444.113 765.125 443.5 764.818 442.98C764.512 442.447 764.092 442.04 763.558 441.76C763.038 441.48 762.458 441.34 761.818 441.34C760.872 441.34 760.078 441.653 759.438 442.28C758.798 442.893 758.445 443.74 758.378 444.82H765.278ZM773.375 439.84C774.562 439.84 775.502 440.153 776.195 440.78C776.888 441.393 777.268 442.24 777.335 443.32H775.455C775.428 442.707 775.222 442.213 774.835 441.84C774.448 441.467 773.915 441.28 773.235 441.28C772.542 441.28 771.995 441.447 771.595 441.78C771.208 442.1 771.015 442.507 771.015 443C771.015 443.413 771.135 443.747 771.375 444C771.628 444.24 771.935 444.42 772.295 444.54C772.668 444.66 773.168 444.787 773.795 444.92C774.595 445.107 775.235 445.293 775.715 445.48C776.208 445.653 776.628 445.953 776.975 446.38C777.322 446.793 777.495 447.36 777.495 448.08C777.495 448.68 777.322 449.22 776.975 449.7C776.628 450.167 776.142 450.533 775.515 450.8C774.888 451.053 774.168 451.18 773.355 451.18C772.128 451.18 771.142 450.873 770.395 450.26C769.662 449.647 769.262 448.8 769.195 447.72H771.075C771.102 448.333 771.315 448.827 771.715 449.2C772.128 449.56 772.675 449.74 773.355 449.74C774.102 449.74 774.675 449.587 775.075 449.28C775.488 448.973 775.695 448.567 775.695 448.06C775.695 447.647 775.568 447.32 775.315 447.08C775.075 446.827 774.768 446.64 774.395 446.52C774.022 446.387 773.508 446.247 772.855 446.1C772.068 445.927 771.428 445.753 770.935 445.58C770.455 445.393 770.042 445.107 769.695 444.72C769.362 444.333 769.195 443.8 769.195 443.12C769.195 442.52 769.362 441.973 769.695 441.48C770.042 440.973 770.528 440.573 771.155 440.28C771.795 439.987 772.535 439.84 773.375 439.84ZM784.052 439.84C785.239 439.84 786.179 440.153 786.872 440.78C787.566 441.393 787.946 442.24 788.012 443.32H786.132C786.106 442.707 785.899 442.213 785.512 441.84C785.126 441.467 784.592 441.28 783.912 441.28C783.219 441.28 782.672 441.447 782.272 441.78C781.886 442.1 781.692 442.507 781.692 443C781.692 443.413 781.812 443.747 782.052 444C782.306 444.24 782.612 444.42 782.972 444.54C783.346 444.66 783.846 444.787 784.472 444.92C785.272 445.107 785.912 445.293 786.392 445.48C786.886 445.653 787.306 445.953 787.652 446.38C787.999 446.793 788.172 447.36 788.172 448.08C788.172 448.68 787.999 449.22 787.652 449.7C787.306 450.167 786.819 450.533 786.192 450.8C785.566 451.053 784.846 451.18 784.032 451.18C782.806 451.18 781.819 450.873 781.072 450.26C780.339 449.647 779.939 448.8 779.872 447.72H781.752C781.779 448.333 781.992 448.827 782.392 449.2C782.806 449.56 783.352 449.74 784.032 449.74C784.779 449.74 785.352 449.587 785.752 449.28C786.166 448.973 786.372 448.567 786.372 448.06C786.372 447.647 786.246 447.32 785.992 447.08C785.752 446.827 785.446 446.64 785.072 446.52C784.699 446.387 784.186 446.247 783.532 446.1C782.746 445.927 782.106 445.753 781.612 445.58C781.132 445.393 780.719 445.107 780.372 444.72C780.039 444.333 779.872 443.8 779.872 443.12C779.872 442.52 780.039 441.973 780.372 441.48C780.719 440.973 781.206 440.573 781.832 440.28C782.472 439.987 783.212 439.84 784.052 439.84ZM795.47 441.5H793.17V451H791.33V441.5H789.91V440.02H791.33V439.1C791.33 437.9 791.65 437.027 792.29 436.48C792.93 435.933 793.936 435.66 795.31 435.66V437.14C794.51 437.14 793.95 437.293 793.63 437.6C793.323 437.893 793.17 438.393 793.17 439.1V440.02H795.47V441.5ZM807.261 440.02V451H805.441V449.24C805.081 449.88 804.588 450.367 803.961 450.7C803.335 451.02 802.635 451.18 801.861 451.18C801.075 451.18 800.355 451.007 799.701 450.66C799.061 450.3 798.548 449.773 798.161 449.08C797.788 448.387 797.601 447.54 797.601 446.54V440.02H799.401V446.24C799.401 447.333 799.668 448.173 800.201 448.76C800.748 449.333 801.488 449.62 802.421 449.62C803.355 449.62 804.088 449.333 804.621 448.76C805.168 448.173 805.441 447.333 805.441 446.24V440.02H807.261ZM812.23 436.2V451H810.41V436.2H812.23ZM817.204 436.2V451H815.384V436.2H817.204ZM821.098 440.02L824.458 448.9L827.878 440.02H829.758L823.138 456.14H821.258L823.438 450.82L819.098 440.02H821.098ZM836.287 452.4H856.287V432.4H836.287V452.4ZM857.537 449.84C857.537 449.507 857.65 449.227 857.877 449C858.104 448.773 858.377 448.66 858.697 448.66C859.017 448.66 859.29 448.773 859.517 449C859.744 449.227 859.857 449.507 859.857 449.84C859.857 450.16 859.744 450.433 859.517 450.66C859.29 450.887 859.017 451 858.697 451C858.377 451 858.104 450.887 857.877 450.66C857.65 450.433 857.537 450.16 857.537 449.84Z" fill="white" fill-opacity="0.9"></path><rect x="419.979" y="484" width="602" height="86" rx="15" fill="url(#paint6_linear_2702_2613)" fill-opacity="0.06"></rect><rect x="419.979" y="484" width="602" height="86" rx="15" stroke="url(#paint7_linear_2702_2613)" stroke-width="2"></rect><path fill-rule="evenodd" clip-rule="evenodd" d="M463.199 506C450.152 506 439.901 516.251 439.901 529.299C439.901 536.133 442.696 542.346 447.046 546.695C448.599 548.248 451.395 548.248 453.258 547.005C455.744 544.831 459.471 543.588 463.199 543.588C467.238 543.588 470.344 544.831 473.14 547.005C475.004 548.559 477.489 548.248 479.353 546.384C483.702 542.035 486.498 536.133 486.498 529.299C486.187 516.562 475.936 506 463.199 506ZM462.889 541.414C455.744 541.414 451.084 536.133 451.084 529.609C451.084 523.086 455.744 517.805 462.889 517.805C470.033 517.805 474.693 523.086 474.693 529.609C474.693 536.133 470.033 541.414 462.889 541.414Z" fill="#62D84E"></path><path d="M509.519 517.12C509.519 517.813 509.339 518.467 508.979 519.08C508.619 519.693 508.085 520.193 507.379 520.58C506.672 520.953 505.825 521.14 504.839 521.14C503.959 521.14 503.165 521 502.459 520.72C501.752 520.427 501.192 520.013 500.779 519.48C500.379 518.933 500.179 518.287 500.179 517.54H502.119C502.172 518.167 502.419 518.673 502.859 519.06C503.312 519.447 503.972 519.64 504.839 519.64C505.732 519.64 506.439 519.413 506.959 518.96C507.479 518.507 507.739 517.927 507.739 517.22C507.739 516.687 507.592 516.267 507.299 515.96C507.005 515.64 506.639 515.4 506.199 515.24C505.759 515.08 505.172 514.92 504.439 514.76C503.519 514.547 502.772 514.327 502.199 514.1C501.639 513.873 501.159 513.507 500.759 513C500.372 512.493 500.179 511.793 500.179 510.9C500.179 510.127 500.365 509.447 500.739 508.86C501.112 508.273 501.645 507.82 502.339 507.5C503.045 507.167 503.865 507 504.799 507C506.065 507 507.092 507.313 507.879 507.94C508.679 508.553 509.139 509.407 509.259 510.5H507.239C507.185 509.953 506.925 509.487 506.459 509.1C506.005 508.713 505.392 508.52 504.619 508.52C503.832 508.52 503.192 508.72 502.699 509.12C502.205 509.507 501.959 510.08 501.959 510.84C501.959 511.387 502.105 511.82 502.399 512.14C502.692 512.46 503.052 512.7 503.479 512.86C503.919 513.02 504.525 513.187 505.299 513.36C506.205 513.573 506.939 513.793 507.499 514.02C508.059 514.233 508.532 514.587 508.919 515.08C509.319 515.573 509.519 516.253 509.519 517.12ZM522.347 515.06C522.347 515.447 522.32 515.807 522.267 516.14H513.527C513.58 517.233 513.92 518.1 514.547 518.74C515.187 519.367 516 519.68 516.987 519.68C517.733 519.68 518.36 519.513 518.867 519.18C519.387 518.847 519.767 518.407 520.007 517.86H521.967C521.62 518.82 521.02 519.613 520.167 520.24C519.327 520.867 518.267 521.18 516.987 521.18C515.96 521.18 515.04 520.947 514.227 520.48C513.427 520.013 512.8 519.353 512.347 518.5C511.893 517.633 511.667 516.64 511.667 515.52C511.667 514.387 511.893 513.393 512.347 512.54C512.8 511.673 513.44 511.007 514.267 510.54C515.093 510.073 516.047 509.84 517.127 509.84C518.153 509.84 519.06 510.067 519.847 510.52C520.633 510.973 521.247 511.593 521.687 512.38C522.127 513.167 522.347 514.06 522.347 515.06ZM520.447 514.82C520.447 514.113 520.293 513.5 519.987 512.98C519.68 512.447 519.26 512.04 518.727 511.76C518.207 511.48 517.627 511.34 516.987 511.34C516.04 511.34 515.247 511.653 514.607 512.28C513.967 512.893 513.613 513.74 513.547 514.82H520.447ZM526.603 511.88C527.257 510.52 528.37 509.84 529.943 509.84V511.74H529.463C528.53 511.74 527.817 511.987 527.323 512.48C526.843 512.96 526.603 513.8 526.603 515V521H524.783V510.02H526.603V511.88ZM536.357 519.3L539.737 510.02H541.697L537.397 521H535.337L531.057 510.02H532.997L536.357 519.3ZM543.3 507.02C543.3 506.673 543.42 506.38 543.66 506.14C543.9 505.9 544.187 505.78 544.52 505.78C544.867 505.78 545.16 505.9 545.4 506.14C545.64 506.38 545.76 506.673 545.76 507.02C545.76 507.367 545.64 507.66 545.4 507.9C545.16 508.14 544.867 508.26 544.52 508.26C544.173 508.26 543.88 508.14 543.64 507.9C543.413 507.66 543.3 507.367 543.3 507.02ZM545.42 510.02V521H543.6V510.02H545.42ZM553.194 509.84C554.514 509.84 555.587 510.147 556.414 510.76C557.254 511.373 557.841 512.247 558.174 513.38H556.214C556.001 512.74 555.634 512.24 555.114 511.88C554.594 511.52 553.954 511.34 553.194 511.34C552.154 511.34 551.314 511.707 550.674 512.44C550.047 513.16 549.734 514.187 549.734 515.52C549.734 516.84 550.047 517.867 550.674 518.6C551.314 519.32 552.154 519.68 553.194 519.68C553.967 519.68 554.607 519.507 555.114 519.16C555.621 518.813 555.987 518.307 556.214 517.64H558.174C557.841 518.72 557.247 519.58 556.394 520.22C555.554 520.86 554.487 521.18 553.194 521.18C552.167 521.18 551.247 520.947 550.434 520.48C549.634 520.013 549.007 519.353 548.554 518.5C548.101 517.633 547.874 516.64 547.874 515.52C547.874 514.387 548.101 513.393 548.554 512.54C549.007 511.673 549.634 511.007 550.434 510.54C551.234 510.073 552.154 509.84 553.194 509.84ZM570.716 515.06C570.716 515.447 570.69 515.807 570.636 516.14H561.896C561.95 517.233 562.29 518.1 562.916 518.74C563.556 519.367 564.37 519.68 565.356 519.68C566.103 519.68 566.73 519.513 567.236 519.18C567.756 518.847 568.136 518.407 568.376 517.86H570.336C569.99 518.82 569.39 519.613 568.536 520.24C567.696 520.867 566.636 521.18 565.356 521.18C564.33 521.18 563.41 520.947 562.596 520.48C561.796 520.013 561.17 519.353 560.716 518.5C560.263 517.633 560.036 516.64 560.036 515.52C560.036 514.387 560.263 513.393 560.716 512.54C561.17 511.673 561.81 511.007 562.636 510.54C563.463 510.073 564.416 509.84 565.496 509.84C566.523 509.84 567.43 510.067 568.216 510.52C569.003 510.973 569.616 511.593 570.056 512.38C570.496 513.167 570.716 514.06 570.716 515.06ZM568.816 514.82C568.816 514.113 568.663 513.5 568.356 512.98C568.05 512.447 567.63 512.04 567.096 511.76C566.576 511.48 565.996 511.34 565.356 511.34C564.41 511.34 563.616 511.653 562.976 512.28C562.336 512.893 561.983 513.74 561.916 514.82H568.816ZM584.113 521H582.293L574.973 510V521H573.153V507.14H574.973L582.293 518.14V507.14H584.113V521ZM592.108 509.84C593.148 509.84 594.088 510.073 594.928 510.54C595.768 511.007 596.428 511.673 596.908 512.54C597.401 513.407 597.648 514.4 597.648 515.52C597.648 516.627 597.394 517.613 596.888 518.48C596.381 519.333 595.694 520 594.828 520.48C593.961 520.947 593.001 521.18 591.948 521.18C590.921 521.18 589.994 520.947 589.168 520.48C588.354 520.013 587.714 519.353 587.248 518.5C586.794 517.633 586.568 516.64 586.568 515.52C586.568 514.387 586.808 513.393 587.288 512.54C587.781 511.673 588.448 511.007 589.288 510.54C590.128 510.073 591.068 509.84 592.108 509.84ZM592.048 511.34C591.381 511.34 590.774 511.5 590.228 511.82C589.681 512.14 589.241 512.613 588.908 513.24C588.588 513.867 588.428 514.627 588.428 515.52C588.428 516.4 588.581 517.153 588.888 517.78C589.208 518.407 589.634 518.88 590.168 519.2C590.701 519.52 591.294 519.68 591.948 519.68C592.614 519.68 593.234 519.52 593.808 519.2C594.394 518.867 594.868 518.387 595.228 517.76C595.588 517.133 595.768 516.387 595.768 515.52C595.768 514.64 595.594 513.887 595.248 513.26C594.914 512.62 594.461 512.14 593.888 511.82C593.328 511.5 592.714 511.34 592.048 511.34ZM614.514 510.02L611.054 521H609.174L606.694 512.28L604.214 521H602.314L598.834 510.02H600.714L603.254 519.18L605.834 510.02H607.714L610.154 519.2L612.674 510.02H614.514ZM623.083 514.34C623.083 513.647 623.316 513.067 623.783 512.6C624.263 512.12 624.843 511.88 625.523 511.88C626.216 511.88 626.803 512.12 627.283 512.6C627.763 513.067 628.003 513.647 628.003 514.34C628.003 515.02 627.763 515.6 627.283 516.08C626.803 516.547 626.216 516.78 625.523 516.78C624.843 516.78 624.263 516.547 623.783 516.08C623.316 515.6 623.083 515.02 623.083 514.34ZM639.665 507.14V521H637.845V507.14H639.665ZM648.239 509.84C649.026 509.84 649.739 510.02 650.379 510.38C651.032 510.727 651.546 511.253 651.919 511.96C652.306 512.653 652.499 513.5 652.499 514.5V521H650.699V514.8C650.699 513.693 650.432 512.853 649.899 512.28C649.366 511.707 648.626 511.42 647.679 511.42C646.746 511.42 646.006 511.707 645.459 512.28C644.926 512.853 644.659 513.693 644.659 514.8V521H642.839V510.02H644.659V511.8C645.019 511.16 645.512 510.673 646.139 510.34C646.766 510.007 647.466 509.84 648.239 509.84ZM660.168 509.84C661.488 509.84 662.561 510.147 663.388 510.76C664.228 511.373 664.814 512.247 665.148 513.38H663.188C662.974 512.74 662.608 512.24 662.088 511.88C661.568 511.52 660.928 511.34 660.168 511.34C659.128 511.34 658.288 511.707 657.648 512.44C657.021 513.16 656.708 514.187 656.708 515.52C656.708 516.84 657.021 517.867 657.648 518.6C658.288 519.32 659.128 519.68 660.168 519.68C660.941 519.68 661.581 519.507 662.088 519.16C662.594 518.813 662.961 518.307 663.188 517.64H665.148C664.814 518.72 664.221 519.58 663.368 520.22C662.528 520.86 661.461 521.18 660.168 521.18C659.141 521.18 658.221 520.947 657.408 520.48C656.608 520.013 655.981 519.353 655.528 518.5C655.074 517.633 654.848 516.64 654.848 515.52C654.848 514.387 655.074 513.393 655.528 512.54C655.981 511.673 656.608 511.007 657.408 510.54C658.208 510.073 659.128 509.84 660.168 509.84ZM667.43 507.02C667.43 506.673 667.55 506.38 667.79 506.14C668.03 505.9 668.316 505.78 668.65 505.78C668.996 505.78 669.29 505.9 669.53 506.14C669.77 506.38 669.89 506.673 669.89 507.02C669.89 507.367 669.77 507.66 669.53 507.9C669.29 508.14 668.996 508.26 668.65 508.26C668.303 508.26 668.01 508.14 667.77 507.9C667.543 507.66 667.43 507.367 667.43 507.02ZM669.55 510.02V521H667.73V510.02H669.55ZM677.244 509.84C678.177 509.84 678.991 510.06 679.684 510.5C680.391 510.94 680.924 511.513 681.284 512.22V506.2H683.124V521H681.284V518.76C680.924 519.48 680.391 520.067 679.684 520.52C678.991 520.96 678.177 521.18 677.244 521.18C676.257 521.18 675.364 520.94 674.564 520.46C673.777 519.967 673.151 519.287 672.684 518.42C672.231 517.54 672.004 516.547 672.004 515.44C672.004 514.333 672.231 513.36 672.684 512.52C673.151 511.667 673.777 511.007 674.564 510.54C675.364 510.073 676.257 509.84 677.244 509.84ZM677.564 511.42C676.911 511.42 676.297 511.58 675.724 511.9C675.164 512.22 674.711 512.687 674.364 513.3C674.031 513.9 673.864 514.613 673.864 515.44C673.864 516.267 674.031 517 674.364 517.64C674.711 518.267 675.164 518.753 675.724 519.1C676.297 519.447 676.911 519.62 677.564 519.62C678.231 519.62 678.844 519.453 679.404 519.12C679.977 518.787 680.431 518.313 680.764 517.7C681.111 517.073 681.284 516.347 681.284 515.52C681.284 514.693 681.111 513.973 680.764 513.36C680.431 512.733 679.977 512.253 679.404 511.92C678.844 511.587 678.231 511.42 677.564 511.42ZM696.252 515.06C696.252 515.447 696.226 515.807 696.172 516.14H687.432C687.486 517.233 687.826 518.1 688.452 518.74C689.092 519.367 689.906 519.68 690.892 519.68C691.639 519.68 692.266 519.513 692.772 519.18C693.292 518.847 693.672 518.407 693.912 517.86H695.872C695.526 518.82 694.926 519.613 694.072 520.24C693.232 520.867 692.172 521.18 690.892 521.18C689.866 521.18 688.946 520.947 688.132 520.48C687.332 520.013 686.706 519.353 686.252 518.5C685.799 517.633 685.572 516.64 685.572 515.52C685.572 514.387 685.799 513.393 686.252 512.54C686.706 511.673 687.346 511.007 688.172 510.54C688.999 510.073 689.952 509.84 691.032 509.84C692.059 509.84 692.966 510.067 693.752 510.52C694.539 510.973 695.152 511.593 695.592 512.38C696.032 513.167 696.252 514.06 696.252 515.06ZM694.352 514.82C694.352 514.113 694.199 513.5 693.892 512.98C693.586 512.447 693.166 512.04 692.632 511.76C692.112 511.48 691.532 511.34 690.892 511.34C689.946 511.34 689.152 511.653 688.512 512.28C687.872 512.893 687.519 513.74 687.452 514.82H694.352ZM704.089 509.84C704.876 509.84 705.589 510.02 706.229 510.38C706.882 510.727 707.396 511.253 707.769 511.96C708.156 512.653 708.349 513.5 708.349 514.5V521H706.549V514.8C706.549 513.693 706.282 512.853 705.749 512.28C705.216 511.707 704.476 511.42 703.529 511.42C702.596 511.42 701.856 511.707 701.309 512.28C700.776 512.853 700.509 513.693 700.509 514.8V521H698.689V510.02H700.509V511.8C700.869 511.16 701.362 510.673 701.989 510.34C702.616 510.007 703.316 509.84 704.089 509.84ZM716.518 519.52V521H714.678C713.744 521 713.031 520.773 712.538 520.32C712.058 519.867 711.818 519.153 711.818 518.18V511.5H710.398V510.02H711.818V507.3H713.658V510.02H716.498V511.5H713.658V518.18C713.658 518.673 713.758 519.02 713.958 519.22C714.158 519.42 714.511 519.52 715.018 519.52H716.518ZM732.103 521L728.463 515.28H726.683V521H724.863V507.14H729.363C730.403 507.14 731.283 507.32 732.003 507.68C732.723 508.027 733.263 508.513 733.623 509.14C733.983 509.753 734.163 510.447 734.163 511.22C734.163 512.22 733.863 513.087 733.263 513.82C732.663 514.553 731.763 515.013 730.563 515.2L734.383 521H732.103ZM726.683 513.84H729.363C730.363 513.84 731.103 513.613 731.583 513.16C732.076 512.693 732.323 512.047 732.323 511.22C732.323 510.393 732.083 509.753 731.603 509.3C731.123 508.833 730.376 508.6 729.363 508.6H726.683V513.84ZM747.337 515.06C747.337 515.447 747.31 515.807 747.257 516.14H738.517C738.57 517.233 738.91 518.1 739.537 518.74C740.177 519.367 740.99 519.68 741.977 519.68C742.723 519.68 743.35 519.513 743.857 519.18C744.377 518.847 744.757 518.407 744.997 517.86H746.957C746.61 518.82 746.01 519.613 745.157 520.24C744.317 520.867 743.257 521.18 741.977 521.18C740.95 521.18 740.03 520.947 739.217 520.48C738.417 520.013 737.79 519.353 737.337 518.5C736.883 517.633 736.657 516.64 736.657 515.52C736.657 514.387 736.883 513.393 737.337 512.54C737.79 511.673 738.43 511.007 739.257 510.54C740.083 510.073 741.037 509.84 742.117 509.84C743.143 509.84 744.05 510.067 744.837 510.52C745.623 510.973 746.237 511.593 746.677 512.38C747.117 513.167 747.337 514.06 747.337 515.06ZM745.437 514.82C745.437 514.113 745.283 513.5 744.977 512.98C744.67 512.447 744.25 512.04 743.717 511.76C743.197 511.48 742.617 511.34 741.977 511.34C741.03 511.34 740.237 511.653 739.597 512.28C738.957 512.893 738.603 513.74 738.537 514.82H745.437ZM755.653 509.84C756.64 509.84 757.527 510.073 758.313 510.54C759.113 511.007 759.74 511.667 760.193 512.52C760.66 513.36 760.893 514.333 760.893 515.44C760.893 516.547 760.66 517.54 760.193 518.42C759.74 519.287 759.113 519.967 758.313 520.46C757.527 520.94 756.64 521.18 755.653 521.18C754.72 521.18 753.9 520.96 753.193 520.52C752.5 520.067 751.967 519.48 751.593 518.76V526.2H749.773V510.02H751.593V512.22C751.967 511.513 752.5 510.94 753.193 510.5C753.9 510.06 754.72 509.84 755.653 509.84ZM755.293 511.42C754.64 511.42 754.027 511.587 753.453 511.92C752.893 512.253 752.44 512.733 752.093 513.36C751.76 513.973 751.593 514.693 751.593 515.52C751.593 516.347 751.76 517.073 752.093 517.7C752.44 518.313 752.893 518.787 753.453 519.12C754.027 519.453 754.64 519.62 755.293 519.62C755.947 519.62 756.56 519.453 757.133 519.12C757.707 518.773 758.16 518.28 758.493 517.64C758.84 517 759.013 516.267 759.013 515.44C759.013 514.613 758.84 513.9 758.493 513.3C758.16 512.687 757.707 512.22 757.133 511.9C756.573 511.58 755.96 511.42 755.293 511.42ZM768.162 509.84C769.202 509.84 770.142 510.073 770.982 510.54C771.822 511.007 772.482 511.673 772.962 512.54C773.455 513.407 773.702 514.4 773.702 515.52C773.702 516.627 773.448 517.613 772.942 518.48C772.435 519.333 771.748 520 770.882 520.48C770.015 520.947 769.055 521.18 768.002 521.18C766.975 521.18 766.048 520.947 765.222 520.48C764.408 520.013 763.768 519.353 763.302 518.5C762.848 517.633 762.622 516.64 762.622 515.52C762.622 514.387 762.862 513.393 763.342 512.54C763.835 511.673 764.502 511.007 765.342 510.54C766.182 510.073 767.122 509.84 768.162 509.84ZM768.102 511.34C767.435 511.34 766.828 511.5 766.282 511.82C765.735 512.14 765.295 512.613 764.962 513.24C764.642 513.867 764.482 514.627 764.482 515.52C764.482 516.4 764.635 517.153 764.942 517.78C765.262 518.407 765.688 518.88 766.222 519.2C766.755 519.52 767.348 519.68 768.002 519.68C768.668 519.68 769.288 519.52 769.862 519.2C770.448 518.867 770.922 518.387 771.282 517.76C771.642 517.133 771.822 516.387 771.822 515.52C771.822 514.64 771.648 513.887 771.302 513.26C770.968 512.62 770.515 512.14 769.942 511.82C769.382 511.5 768.768 511.34 768.102 511.34ZM777.969 511.88C778.622 510.52 779.735 509.84 781.309 509.84V511.74H780.829C779.895 511.74 779.182 511.987 778.689 512.48C778.209 512.96 777.969 513.8 777.969 515V521H776.149V510.02H777.969V511.88ZM788.782 519.52V521H786.942C786.008 521 785.295 520.773 784.802 520.32C784.322 519.867 784.082 519.153 784.082 518.18V511.5H782.662V510.02H784.082V507.3H785.922V510.02H788.762V511.5H785.922V518.18C785.922 518.673 786.022 519.02 786.222 519.22C786.422 519.42 786.775 519.52 787.282 519.52H788.782Z" fill="white" fill-opacity="0.87"></path><path d="M499.779 539.712C499.779 538.965 500.093 538.336 500.723 537.824C501.352 537.301 502.179 537.04 503.203 537.04C504.227 537.04 505.037 537.296 505.635 537.808C506.243 538.309 506.568 538.997 506.611 539.872H504.739C504.707 539.435 504.552 539.093 504.275 538.848C504.008 538.603 503.629 538.48 503.139 538.48C502.648 538.48 502.264 538.592 501.987 538.816C501.709 539.029 501.571 539.317 501.571 539.68C501.571 540.032 501.747 540.309 502.099 540.512C502.451 540.715 502.877 540.864 503.379 540.96C503.891 541.056 504.397 541.173 504.899 541.312C505.411 541.451 505.843 541.707 506.195 542.08C506.547 542.443 506.723 542.933 506.723 543.552C506.723 544.32 506.397 544.944 505.747 545.424C505.107 545.904 504.28 546.144 503.267 546.144C502.253 546.144 501.432 545.899 500.803 545.408C500.173 544.917 499.827 544.219 499.763 543.312H501.651C501.683 543.749 501.843 544.091 502.131 544.336C502.419 544.581 502.808 544.704 503.299 544.704C503.8 544.704 504.195 544.597 504.483 544.384C504.781 544.16 504.931 543.867 504.931 543.504C504.931 543.141 504.755 542.859 504.403 542.656C504.051 542.453 503.619 542.304 503.107 542.208C502.605 542.101 502.099 541.984 501.587 541.856C501.085 541.717 500.659 541.472 500.307 541.12C499.955 540.768 499.779 540.299 499.779 539.712ZM512.837 546.144C511.557 546.144 510.517 545.728 509.717 544.896C508.917 544.064 508.517 542.96 508.517 541.584C508.517 540.208 508.923 539.109 509.733 538.288C510.544 537.456 511.589 537.04 512.869 537.04C514.16 537.04 515.205 537.44 516.005 538.24C516.805 539.029 517.205 540.064 517.205 541.344C517.205 541.653 517.184 541.941 517.141 542.208H510.389C510.432 542.944 510.677 543.531 511.125 543.968C511.584 544.395 512.155 544.608 512.837 544.608C513.829 544.608 514.528 544.197 514.933 543.376H516.901C516.635 544.187 516.149 544.853 515.445 545.376C514.741 545.888 513.872 546.144 512.837 546.144ZM515.301 540.96C515.291 540.235 515.051 539.659 514.581 539.232C514.112 538.795 513.541 538.576 512.869 538.576C512.197 538.576 511.632 538.795 511.173 539.232C510.725 539.659 510.469 540.235 510.405 540.96H515.301ZM521.224 537.184V538.72C521.79 537.6 522.67 537.04 523.864 537.04V538.928H523.4C522.686 538.928 522.142 539.109 521.768 539.472C521.406 539.835 521.224 540.464 521.224 541.36V546H519.4V537.184H521.224ZM524.901 537.184H526.853L529.349 544.368L531.845 537.184H533.813L530.453 546H528.245L524.901 537.184ZM537.64 534.848C537.64 535.179 537.528 535.456 537.304 535.68C537.08 535.904 536.802 536.016 536.472 536.016C536.152 536.016 535.88 535.904 535.656 535.68C535.432 535.456 535.32 535.179 535.32 534.848C535.32 534.517 535.432 534.24 535.656 534.016C535.88 533.792 536.152 533.68 536.472 533.68C536.802 533.68 537.08 533.792 537.304 534.016C537.528 534.24 537.64 534.517 537.64 534.848ZM535.56 546V537.184H537.384V546H535.56ZM543.891 546.144C542.611 546.144 541.571 545.728 540.771 544.896C539.971 544.064 539.571 542.965 539.571 541.6C539.571 540.224 539.971 539.12 540.771 538.288C541.581 537.456 542.621 537.04 543.891 537.04C544.957 537.04 545.837 537.296 546.531 537.808C547.235 538.309 547.709 539.029 547.955 539.968H545.987C545.656 539.04 544.957 538.576 543.891 538.576C543.144 538.576 542.547 538.843 542.099 539.376C541.661 539.899 541.443 540.635 541.443 541.584C541.443 542.533 541.661 543.275 542.099 543.808C542.547 544.341 543.144 544.608 543.891 544.608C544.947 544.608 545.645 544.144 545.987 543.216H547.955C547.699 544.112 547.219 544.827 546.515 545.36C545.811 545.883 544.936 546.144 543.891 546.144ZM553.884 546.144C552.604 546.144 551.564 545.728 550.764 544.896C549.964 544.064 549.564 542.96 549.564 541.584C549.564 540.208 549.97 539.109 550.78 538.288C551.591 537.456 552.636 537.04 553.916 537.04C555.207 537.04 556.252 537.44 557.052 538.24C557.852 539.029 558.252 540.064 558.252 541.344C558.252 541.653 558.231 541.941 558.188 542.208H551.436C551.479 542.944 551.724 543.531 552.172 543.968C552.631 544.395 553.202 544.608 553.884 544.608C554.876 544.608 555.575 544.197 555.98 543.376H557.948C557.682 544.187 557.196 544.853 556.492 545.376C555.788 545.888 554.919 546.144 553.884 546.144ZM556.348 540.96C556.338 540.235 556.098 539.659 555.628 539.232C555.159 538.795 554.588 538.576 553.916 538.576C553.244 538.576 552.679 538.795 552.22 539.232C551.772 539.659 551.516 540.235 551.452 540.96H556.348ZM562.271 537.184V538.576C562.858 537.552 563.797 537.04 565.087 537.04C566.079 537.04 566.895 537.371 567.535 538.032C568.186 538.693 568.511 539.616 568.511 540.8V546H566.703V541.072C566.703 540.283 566.506 539.68 566.111 539.264C565.717 538.837 565.178 538.624 564.495 538.624C563.813 538.624 563.269 538.837 562.863 539.264C562.469 539.68 562.271 540.283 562.271 541.072V546H560.447V537.184H562.271ZM576.966 543.808C577.499 543.275 577.766 542.533 577.766 541.584C577.766 540.635 577.505 539.899 576.982 539.376C576.47 538.843 575.846 538.576 575.11 538.576C574.374 538.576 573.755 538.843 573.254 539.376C572.753 539.899 572.502 540.64 572.502 541.6C572.502 542.549 572.747 543.291 573.238 543.824C573.729 544.347 574.337 544.608 575.062 544.608C575.798 544.608 576.433 544.341 576.966 543.808ZM575.062 546.144C573.782 546.144 572.726 545.728 571.894 544.896C571.062 544.053 570.646 542.955 570.646 541.6C570.646 540.235 571.073 539.136 571.926 538.304C572.79 537.461 573.862 537.04 575.142 537.04C576.422 537.04 577.489 537.461 578.342 538.304C579.206 539.136 579.638 540.229 579.638 541.584C579.638 542.939 579.195 544.037 578.31 544.88C577.435 545.723 576.353 546.144 575.062 546.144ZM591.889 537.184H593.681L590.945 546H589.025L587.249 539.488L585.473 546H583.553L580.801 537.184H582.657L584.497 544.272L586.369 537.184H588.273L590.065 544.24L591.889 537.184ZM596.9 545.696C596.687 545.899 596.425 546 596.116 546C595.807 546 595.545 545.893 595.332 545.68C595.129 545.467 595.028 545.211 595.028 544.912C595.028 544.603 595.129 544.341 595.332 544.128C595.545 543.915 595.807 543.808 596.116 543.808C596.425 543.808 596.687 543.915 596.9 544.128C597.113 544.341 597.22 544.603 597.22 544.912C597.22 545.221 597.113 545.483 596.9 545.696ZM603.322 546.144C602.042 546.144 601.002 545.728 600.202 544.896C599.402 544.064 599.002 542.965 599.002 541.6C599.002 540.224 599.402 539.12 600.202 538.288C601.012 537.456 602.052 537.04 603.322 537.04C604.388 537.04 605.268 537.296 605.962 537.808C606.666 538.309 607.14 539.029 607.386 539.968H605.418C605.087 539.04 604.388 538.576 603.322 538.576C602.575 538.576 601.978 538.843 601.53 539.376C601.092 539.899 600.874 540.635 600.874 541.584C600.874 542.533 601.092 543.275 601.53 543.808C601.978 544.341 602.575 544.608 603.322 544.608C604.378 544.608 605.076 544.144 605.418 543.216H607.386C607.13 544.112 606.65 544.827 605.946 545.36C605.242 545.883 604.367 546.144 603.322 546.144ZM615.332 543.808C615.865 543.275 616.132 542.533 616.132 541.584C616.132 540.635 615.87 539.899 615.348 539.376C614.836 538.843 614.212 538.576 613.476 538.576C612.74 538.576 612.121 538.843 611.62 539.376C611.118 539.899 610.868 540.64 610.868 541.6C610.868 542.549 611.113 543.291 611.604 543.824C612.094 544.347 612.702 544.608 613.428 544.608C614.164 544.608 614.798 544.341 615.332 543.808ZM613.428 546.144C612.148 546.144 611.092 545.728 610.26 544.896C609.428 544.053 609.012 542.955 609.012 541.6C609.012 540.235 609.438 539.136 610.292 538.304C611.156 537.461 612.228 537.04 613.508 537.04C614.788 537.04 615.854 537.461 616.708 538.304C617.572 539.136 618.004 540.229 618.004 541.584C618.004 542.939 617.561 544.037 616.676 544.88C615.801 545.723 614.718 546.144 613.428 546.144ZM622.031 537.184V538.576C622.617 537.552 623.556 537.04 624.847 537.04C625.529 537.04 626.137 537.2 626.671 537.52C627.204 537.84 627.609 538.304 627.887 538.912C628.196 538.325 628.623 537.867 629.167 537.536C629.721 537.205 630.345 537.04 631.039 537.04C632.052 537.04 632.884 537.371 633.535 538.032C634.185 538.683 634.511 539.605 634.511 540.8V546H632.687V541.072C632.687 540.283 632.489 539.68 632.095 539.264C631.7 538.837 631.161 538.624 630.479 538.624C629.796 538.624 629.257 538.837 628.863 539.264C628.468 539.68 628.271 540.283 628.271 541.072V546H626.463V541.072C626.463 540.283 626.265 539.68 625.871 539.264C625.476 538.837 624.937 538.624 624.255 538.624C623.572 538.624 623.028 538.837 622.623 539.264C622.228 539.68 622.031 540.283 622.031 541.072V546H620.207V537.184H622.031ZM637.008 548.8L641.344 530.896H643.152L638.8 548.8H637.008ZM647.93 534.848C647.93 535.179 647.818 535.456 647.594 535.68C647.37 535.904 647.093 536.016 646.762 536.016C646.442 536.016 646.17 535.904 645.946 535.68C645.722 535.456 645.61 535.179 645.61 534.848C645.61 534.517 645.722 534.24 645.946 534.016C646.17 533.792 646.442 533.68 646.762 533.68C647.093 533.68 647.37 533.792 647.594 534.016C647.818 534.24 647.93 534.517 647.93 534.848ZM645.85 546V537.184H647.674V546H645.85ZM652.293 537.184V538.576C652.88 537.552 653.818 537.04 655.109 537.04C656.101 537.04 656.917 537.371 657.557 538.032C658.208 538.693 658.533 539.616 658.533 540.8V546H656.725V541.072C656.725 540.283 656.528 539.68 656.133 539.264C655.738 538.837 655.2 538.624 654.517 538.624C653.834 538.624 653.29 538.837 652.885 539.264C652.49 539.68 652.293 540.283 652.293 541.072V546H650.469V537.184H652.293ZM664.972 546.144C663.692 546.144 662.652 545.728 661.852 544.896C661.052 544.064 660.652 542.965 660.652 541.6C660.652 540.224 661.052 539.12 661.852 538.288C662.662 537.456 663.702 537.04 664.972 537.04C666.038 537.04 666.918 537.296 667.612 537.808C668.316 538.309 668.79 539.029 669.036 539.968H667.068C666.737 539.04 666.038 538.576 664.972 538.576C664.225 538.576 663.628 538.843 663.18 539.376C662.742 539.899 662.524 540.635 662.524 541.584C662.524 542.533 662.742 543.275 663.18 543.808C663.628 544.341 664.225 544.608 664.972 544.608C666.028 544.608 666.726 544.144 667.068 543.216H669.036C668.78 544.112 668.3 544.827 667.596 545.36C666.892 545.883 666.017 546.144 664.972 546.144ZM673.334 534.848C673.334 535.179 673.222 535.456 672.998 535.68C672.774 535.904 672.496 536.016 672.166 536.016C671.846 536.016 671.574 535.904 671.35 535.68C671.126 535.456 671.014 535.179 671.014 534.848C671.014 534.517 671.126 534.24 671.35 534.016C671.574 533.792 671.846 533.68 672.166 533.68C672.496 533.68 672.774 533.792 672.998 534.016C673.222 534.24 673.334 534.517 673.334 534.848ZM671.254 546V537.184H673.078V546H671.254ZM681.68 543.76C682.214 543.216 682.48 542.491 682.48 541.584C682.48 540.677 682.214 539.957 681.68 539.424C681.158 538.891 680.534 538.624 679.808 538.624C679.083 538.624 678.454 538.885 677.92 539.408C677.398 539.931 677.136 540.645 677.136 541.552C677.136 542.459 677.398 543.189 677.92 543.744C678.454 544.288 679.083 544.56 679.808 544.56C680.534 544.56 681.158 544.293 681.68 543.76ZM679.424 546.144C678.251 546.144 677.264 545.717 676.464 544.864C675.664 544 675.264 542.901 675.264 541.568C675.264 540.224 675.659 539.136 676.448 538.304C677.248 537.461 678.24 537.04 679.424 537.04C680.118 537.04 680.726 537.2 681.248 537.52C681.782 537.829 682.192 538.24 682.48 538.752V534.16H684.32V546H682.48V544.352C682.182 544.896 681.771 545.333 681.248 545.664C680.726 545.984 680.118 546.144 679.424 546.144ZM690.828 546.144C689.548 546.144 688.508 545.728 687.708 544.896C686.908 544.064 686.508 542.96 686.508 541.584C686.508 540.208 686.913 539.109 687.724 538.288C688.535 537.456 689.58 537.04 690.86 537.04C692.151 537.04 693.196 537.44 693.996 538.24C694.796 539.029 695.196 540.064 695.196 541.344C695.196 541.653 695.175 541.941 695.132 542.208H688.38C688.423 542.944 688.668 543.531 689.116 543.968C689.575 544.395 690.145 544.608 690.828 544.608C691.82 544.608 692.519 544.197 692.924 543.376H694.892C694.625 544.187 694.14 544.853 693.436 545.376C692.732 545.888 691.863 546.144 690.828 546.144ZM693.292 540.96C693.281 540.235 693.041 539.659 692.572 539.232C692.103 538.795 691.532 538.576 690.86 538.576C690.188 538.576 689.623 538.795 689.164 539.232C688.716 539.659 688.46 540.235 688.396 540.96H693.292ZM699.215 537.184V538.576C699.802 537.552 700.74 537.04 702.031 537.04C703.023 537.04 703.839 537.371 704.479 538.032C705.13 538.693 705.455 539.616 705.455 540.8V546H703.647V541.072C703.647 540.283 703.45 539.68 703.055 539.264C702.66 538.837 702.122 538.624 701.439 538.624C700.756 538.624 700.212 538.837 699.807 539.264C699.412 539.68 699.215 540.283 699.215 541.072V546H697.391V537.184H699.215ZM712.454 538.672H710.31V543.552C710.31 543.883 710.384 544.123 710.534 544.272C710.694 544.411 710.96 544.48 711.334 544.48H712.454V546H711.014C709.318 546 708.47 545.184 708.47 543.552V538.672H707.43V537.184H708.47V534.992H710.31V537.184H712.454V538.672ZM716.359 537.184V538.72C716.924 537.6 717.804 537.04 718.999 537.04V538.928H718.535C717.82 538.928 717.276 539.109 716.903 539.472C716.54 539.835 716.359 540.464 716.359 541.36V546H714.535V537.184H716.359ZM724.787 546.144C723.507 546.144 722.467 545.728 721.667 544.896C720.867 544.064 720.467 542.96 720.467 541.584C720.467 540.208 720.873 539.109 721.683 538.288C722.494 537.456 723.539 537.04 724.819 537.04C726.11 537.04 727.155 537.44 727.955 538.24C728.755 539.029 729.155 540.064 729.155 541.344C729.155 541.653 729.134 541.941 729.091 542.208H722.339C722.382 542.944 722.627 543.531 723.075 543.968C723.534 544.395 724.105 544.608 724.787 544.608C725.779 544.608 726.478 544.197 726.883 543.376H728.851C728.585 544.187 728.099 544.853 727.395 545.376C726.691 545.888 725.822 546.144 724.787 546.144ZM727.251 540.96C727.241 540.235 727.001 539.659 726.531 539.232C726.062 538.795 725.491 538.576 724.819 538.576C724.147 538.576 723.582 538.795 723.123 539.232C722.675 539.659 722.419 540.235 722.355 540.96H727.251ZM737.734 543.744C738.268 543.189 738.534 542.459 738.534 541.552C738.534 540.645 738.268 539.931 737.734 539.408C737.212 538.885 736.582 538.624 735.846 538.624C735.121 538.624 734.492 538.891 733.958 539.424C733.436 539.957 733.174 540.677 733.174 541.584C733.174 542.491 733.436 543.216 733.958 543.76C734.492 544.293 735.121 544.56 735.846 544.56C736.572 544.56 737.201 544.288 737.734 543.744ZM736.246 537.04C737.43 537.04 738.417 537.461 739.206 538.304C739.996 539.136 740.39 540.224 740.39 541.568C740.39 542.901 739.99 544 739.19 544.864C738.401 545.717 737.42 546.144 736.246 546.144C735.553 546.144 734.945 545.984 734.422 545.664C733.9 545.333 733.484 544.896 733.174 544.352V550.192H731.35V537.184H733.174V538.752C733.473 538.24 733.884 537.829 734.406 537.52C734.94 537.2 735.553 537.04 736.246 537.04ZM748.322 543.808C748.855 543.275 749.122 542.533 749.122 541.584C749.122 540.635 748.861 539.899 748.338 539.376C747.826 538.843 747.202 538.576 746.466 538.576C745.73 538.576 745.111 538.843 744.61 539.376C744.109 539.899 743.858 540.64 743.858 541.6C743.858 542.549 744.103 543.291 744.594 543.824C745.085 544.347 745.693 544.608 746.418 544.608C747.154 544.608 747.789 544.341 748.322 543.808ZM746.418 546.144C745.138 546.144 744.082 545.728 743.25 544.896C742.418 544.053 742.002 542.955 742.002 541.6C742.002 540.235 742.429 539.136 743.282 538.304C744.146 537.461 745.218 537.04 746.498 537.04C747.778 537.04 748.845 537.461 749.698 538.304C750.562 539.136 750.994 540.229 750.994 541.584C750.994 542.939 750.551 544.037 749.666 544.88C748.791 545.723 747.709 546.144 746.418 546.144ZM755.021 537.184V538.72C755.587 537.6 756.467 537.04 757.661 537.04V538.928H757.197C756.483 538.928 755.939 539.109 755.565 539.472C755.203 539.835 755.021 540.464 755.021 541.36V546H753.197V537.184H755.021ZM764.01 538.672H761.866V543.552C761.866 543.883 761.941 544.123 762.09 544.272C762.25 544.411 762.517 544.48 762.89 544.48H764.01V546H762.57C760.874 546 760.026 545.184 760.026 543.552V538.672H758.986V537.184H760.026V534.992H761.866V537.184H764.01V538.672Z" fill="white" fill-opacity="0.6"></path></g><g filter="url(#filter3_d_2702_2613)"><rect x="16" y="267" width="144" height="144" rx="16" fill="white" fill-opacity="0.9" shape-rendering="crispEdges"></rect><rect x="17" y="268" width="142" height="142" rx="15" stroke="url(#paint8_linear_2702_2613)" stroke-width="2" shape-rendering="crispEdges"></rect><path fill-rule="evenodd" clip-rule="evenodd" d="M88.5044 291C58.6822 291 35.2505 314.432 35.2505 344.254C35.2505 359.875 41.641 374.076 51.5817 384.017C55.132 387.567 61.5224 387.567 65.7827 384.727C71.4632 379.756 79.9838 376.916 88.5044 376.916C97.7351 376.916 104.836 379.756 111.226 384.727C115.486 388.277 121.167 387.567 125.427 383.307C135.368 373.366 141.758 359.875 141.758 344.254C141.048 315.142 117.617 291 88.5044 291ZM87.7943 371.946C71.4631 371.946 60.8124 359.875 60.8124 344.964C60.8124 330.053 71.4631 317.982 87.7943 317.982C104.126 317.982 114.776 330.053 114.776 344.964C114.776 359.875 104.126 371.946 87.7943 371.946Z" fill="#62D84E"></path></g><path d="M88 411L88.0001 542.833C88.0001 599.401 88.0001 627.685 105.574 645.259C123.147 662.833 151.432 662.833 208 662.833L498.833 662.833C517.588 662.833 526.966 662.833 534.656 664.911C555.259 670.48 571.353 686.574 576.921 707.177C579 714.867 579 724.244 579 743V743" stroke="url(#paint9_linear_2702_2613)" stroke-width="2" stroke-linecap="round"></path><defs><filter id="filter0_d_2702_2613" x="78" y="67" width="826.89" height="500" filterUnits="userSpaceOnUse" color-interpolation-filters="sRGB"><feFlood flood-opacity="0" result="BackgroundImageFix"></feFlood><feColorMatrix in="SourceAlpha" type="matrix" values="0 0 0 0 0 0 0 0 0 0 0 0 0 0 0 0 0 0 127 0" result="hardAlpha"></feColorMatrix><feOffset dx="-5" dy="15"></feOffset><feGaussianBlur stdDeviation="20"></feGaussianBlur><feComposite in2="hardAlpha" operator="out"></feComposite><feColorMatrix type="matrix" values="0 0 0 0 0.109509 0 0 0 0 0.370207 0 0 0 0 0.668148 0 0 0 0.1 0"></feColorMatrix><feBlend mode="normal" in2="BackgroundImageFix" result="effect1_dropShadow_2702_2613"></feBlend><feBlend mode="normal" in="SourceGraphic" in2="effect1_dropShadow_2702_2613" result="shape"></feBlend></filter><filter id="filter1_d_2702_2613" x="129.407" y="104.417" width="75.6077" height="76.2773" filterUnits="userSpaceOnUse" color-interpolation-filters="sRGB"><feFlood flood-opacity="0" result="BackgroundImageFix"></feFlood><feColorMatrix in="SourceAlpha" type="matrix" values="0 0 0 0 0 0 0 0 0 0 0 0 0 0 0 0 0 0 127 0" result="hardAlpha"></feColorMatrix><feOffset dy="4"></feOffset><feGaussianBlur stdDeviation="4.5"></feGaussianBlur><feComposite in2="hardAlpha" operator="out"></feComposite><feColorMatrix type="matrix" values="0 0 0 0 0.315266 0 0 0 0 0.61071 0 0 0 0 0.68457 0 0 0 0.25 0"></feColorMatrix><feBlend mode="normal" in2="BackgroundImageFix" result="effect1_dropShadow_2702_2613"></feBlend><feBlend mode="normal" in="SourceGraphic" in2="effect1_dropShadow_2702_2613" result="shape"></feBlend></filter><filter id="filter2_b_2702_2613" x="366.979" y="-20" width="708" height="643" filterUnits="userSpaceOnUse" color-interpolation-filters="sRGB"><feFlood flood-opacity="0" result="BackgroundImageFix"></feFlood><feGaussianBlur in="BackgroundImageFix" stdDeviation="10"></feGaussianBlur><feComposite in2="SourceAlpha" operator="in" result="effect1_backgroundBlur_2702_2613"></feComposite><feBlend mode="normal" in="SourceGraphic" in2="effect1_backgroundBlur_2702_2613" result="shape"></feBlend></filter><filter id="filter3_d_2702_2613" x="0" y="259" width="176" height="176" filterUnits="userSpaceOnUse" color-interpolation-filters="sRGB"><feFlood flood-opacity="0" result="BackgroundImageFix"></feFlood><feColorMatrix in="SourceAlpha" type="matrix" values="0 0 0 0 0 0 0 0 0 0 0 0 0 0 0 0 0 0 127 0" result="hardAlpha"></feColorMatrix><feMorphology radius="4" operator="dilate" in="SourceAlpha" result="effect1_dropShadow_2702_2613"></feMorphology><feOffset dy="8"></feOffset><feGaussianBlur stdDeviation="6"></feGaussianBlur><feComposite in2="hardAlpha" operator="out"></feComposite><feColorMatrix type="matrix" values="0 0 0 0 0.980392 0 0 0 0 0.321569 0 0 0 0 0.701961 0 0 0 0.16 0"></feColorMatrix><feBlend mode="normal" in2="BackgroundImageFix" result="effect1_dropShadow_2702_2613"></feBlend><feBlend mode="normal" in="SourceGraphic" in2="effect1_dropShadow_2702_2613" result="shape"></feBlend></filter><linearGradient id="paint0_linear_2702_2613" x1="869.89" y1="472.925" x2="123" y2="131.075" gradientUnits="userSpaceOnUse"><stop stop-color="#F5F5F5"></stop><stop offset="1" stop-color="white"></stop></linearGradient><linearGradient id="paint1_linear_2702_2613" x1="265.345" y1="418.89" x2="265.345" y2="450.373" gradientUnits="userSpaceOnUse"><stop stop-color="white"></stop><stop offset="1" stop-color="white" stop-opacity="0.5"></stop></linearGradient><linearGradient id="paint2_linear_2702_2613" x1="985.367" y1="8.01543e-06" x2="277.676" y2="255.371" gradientUnits="userSpaceOnUse"><stop offset="0.6" stop-color="#0F0D12"></stop><stop offset="0.896603" stop-color="#0F0D12" stop-opacity="0.8"></stop><stop offset="1" stop-color="#0F0D12" stop-opacity="0.8"></stop></linearGradient><linearGradient id="paint3_linear_2702_2613" x1="423.865" y1="33" x2="451.731" y2="48.2877" gradientUnits="userSpaceOnUse"><stop stop-color="#692ACA"></stop><stop offset="0.615" stop-color="#EF6C00"></stop><stop offset="1" stop-color="#FA52B3"></stop></linearGradient><linearGradient id="paint4_linear_2702_2613" x1="736.631" y1="337" x2="789.045" y2="471.495" gradientUnits="userSpaceOnUse"><stop stop-color="#692ACA"></stop><stop offset="0.615" stop-color="#EF6C00"></stop><stop offset="1" stop-color="#FA52B3"></stop></linearGradient><linearGradient id="paint5_linear_2702_2613" x1="736.631" y1="337" x2="789.045" y2="471.495" gradientUnits="userSpaceOnUse"><stop stop-color="#692ACA"></stop><stop offset="0.615" stop-color="#EF6C00"></stop><stop offset="1" stop-color="#FA52B3"></stop></linearGradient><linearGradient id="paint6_linear_2702_2613" x1="479.099" y1="483" x2="528.827" y2="670.282" gradientUnits="userSpaceOnUse"><stop stop-color="#692ACA"></stop><stop offset="0.615" stop-color="#EF6C00"></stop><stop offset="1" stop-color="#FA52B3"></stop></linearGradient><linearGradient id="paint7_linear_2702_2613" x1="479.099" y1="483" x2="528.827" y2="670.282" gradientUnits="userSpaceOnUse"><stop stop-color="#692ACA"></stop><stop offset="0.615" stop-color="#EF6C00"></stop><stop offset="1" stop-color="#FA52B3"></stop></linearGradient><linearGradient id="paint8_linear_2702_2613" x1="30.3333" y1="267" x2="168.691" y2="342.918" gradientUnits="userSpaceOnUse"><stop stop-color="#692ACA"></stop><stop offset="0.615" stop-color="#EF6C00"></stop><stop offset="1" stop-color="#FA52B3"></stop></linearGradient><linearGradient id="paint9_linear_2702_2613" x1="601.643" y1="758.199" x2="179.016" y2="556.964" gradientUnits="userSpaceOnUse"><stop stop-color="#231137" stop-opacity="0.2"></stop><stop offset="0.28" stop-color="#FF4B1E"></stop><stop offset="1" stop-color="#FC52B3"></stop></linearGradient></defs></svg> 