<?xml version="1.0" encoding="UTF-8"?> <svg xmlns="http://www.w3.org/2000/svg" width="18" height="24" viewBox="0 0 18 24" fill="none"><g clip-path="url(#clip0_3539_3585)"><path fill-rule="evenodd" clip-rule="evenodd" d="M17.1 5.83737C17.4829 6.32842 17.7311 6.91085 17.82 7.52713C17.9319 8.44288 17.992 9.36422 18 10.2867V11.5766C17.9924 12.5024 17.9323 13.4271 17.82 14.3462C17.7311 14.9624 17.4829 15.5449 17.1 16.0359C16.6125 16.4946 15.9694 16.7518 15.3 16.7558C12.78 16.9358 9 16.9358 9 16.9358C9 16.9358 4.32 16.9358 2.9 16.7658C2.16881 16.762 1.46173 16.5039 0.9 16.0359C0.515501 15.542 0.267246 14.9559 0.18 14.3362C0.0680335 13.4204 0.0079376 12.4991 0 11.5766V10.2867C0.00756015 9.36088 0.0676567 8.43619 0.18 7.51713C0.268925 6.90085 0.517095 6.31843 0.9 5.82737C1.38752 5.3687 2.0306 5.11151 2.7 5.10748C5.22 4.9375 9 4.9375 9 4.9375C9 4.9375 12.78 4.9375 15.3 5.11747C15.9694 5.12151 16.6125 5.3787 17.1 5.83737ZM13 10.9375L7 7.9375V13.9375L13 10.9375Z" fill="#888888"></path></g><defs><clipPath id="clip0_3539_3585"><rect width="18" height="13" fill="white" transform="translate(0 4)"></rect></clipPath></defs></svg> 