<?xml version="1.0" encoding="UTF-8"?> <svg xmlns="http://www.w3.org/2000/svg" width="1055" height="743" viewBox="0 0 1055 743" fill="none"><g opacity="0.6"><g filter="url(#filter0_d_2702_2189)"><rect x="123" y="92" width="746.89" height="420" rx="15" fill="#515151" fill-opacity="0.2" shape-rendering="crispEdges"></rect></g><path d="M123 107C123 98.7157 129.716 92 138 92H854.89C863.174 92 869.89 98.7157 869.89 107V497C869.89 505.284 863.174 512 854.89 512H138C129.716 512 123 505.284 123 497V107Z" fill="#7A7A7A" fill-opacity="0.2"></path><path d="M354.101 147.263H407.689" stroke="#9A9A9A" stroke-width="2" stroke-linecap="round"></path><rect x="229.338" y="129.342" width="100.148" height="11.0574" rx="5.52871" stroke="#B7B7B7" stroke-opacity="0.5"></rect><rect x="352.091" y="128.842" width="57.6077" height="12.0574" rx="6.02871" fill="#B7B7B7" fill-opacity="0.5"></rect><rect x="432.304" y="129.342" width="56.6077" height="11.0574" rx="5.52871" stroke="#B7B7B7" stroke-opacity="0.5"></rect><rect x="512.017" y="129.342" width="96.799" height="11.0574" rx="5.52871" stroke="#B7B7B7" stroke-opacity="0.5"></rect><rect x="228.838" y="185.11" width="486.316" height="198.278" rx="10" fill="white" fill-opacity="0.2"></rect><path d="M297.832 248.746H689.028" stroke="#9E9E9E"></path><path d="M297.832 354.583H689.028" stroke="#9E9E9E"></path><path d="M297.832 283.579H689.028" stroke="#9E9E9E"></path><path d="M297.832 319.751H689.028" stroke="#9E9E9E"></path><rect x="246.924" y="201.187" width="101.148" height="12.0574" rx="6.02871" fill="#9E9E9E"></rect><rect x="659.555" y="201.187" width="29.4737" height="12.0574" rx="6.02871" fill="#ABABAB" fill-opacity="0.5"></rect><rect x="622.043" y="201.187" width="29.4737" height="12.0574" rx="6.02871" fill="#B7B7B7" fill-opacity="0.5"></rect><path d="M336.014 262.454C336.014 259.693 338.253 257.454 341.014 257.454H361.488C363.697 257.454 365.488 259.245 365.488 261.454V354.583H336.014V262.454Z" fill="#B7B7B7" fill-opacity="0.5"></path><path d="M405.679 288.579C405.679 285.817 407.918 283.579 410.679 283.579H431.823C434.032 283.579 435.823 285.369 435.823 287.579V354.583H405.679V288.579Z" fill="#B7B7B7" fill-opacity="0.5"></path><path d="M615.344 288.579C615.344 285.817 617.583 283.579 620.344 283.579H641.488C643.697 283.579 645.488 285.369 645.488 287.579V354.583H615.344V288.579Z" fill="#B7B7B7" fill-opacity="0.5"></path><path d="M476.014 281.88C476.014 279.118 478.253 276.88 481.014 276.88H501.488C503.697 276.88 505.488 278.671 505.488 280.88V354.583H476.014V281.88Z" fill="#B7B7B7" fill-opacity="0.5"></path><path d="M545.679 243.028C545.679 240.267 547.918 238.028 550.679 238.028H571.153C573.362 238.028 575.153 239.819 575.153 242.028V354.583H545.679V243.028Z" fill="#B7B7B7" fill-opacity="0.5"></path><rect x="123.5" y="92.5" width="745.89" height="419" rx="14.5" stroke="url(#paint0_linear_2702_2189)" stroke-opacity="0.2"></rect><path d="M228.838 410.804C228.838 405.281 233.315 400.804 238.838 400.804H705.153C710.676 400.804 715.153 405.281 715.153 410.804V512H228.838V410.804Z" fill="white" fill-opacity="0.2"></path><rect x="299.843" y="428.938" width="101.148" height="12.0574" rx="6.02871" fill="#9E9E9E"></rect><rect x="659.555" y="428.938" width="29.4737" height="12.0574" rx="6.02871" fill="#B7B7B7" fill-opacity="0.5"></rect><rect x="249.603" y="470.469" width="439.426" height="12.0574" rx="6.02871" fill="#ABABAB" fill-opacity="0.5"></rect><rect x="249.603" y="489.895" width="298.756" height="12.0574" rx="6.02871" fill="#ABABAB" fill-opacity="0.5"></rect><circle cx="265.345" cy="434.631" r="15.7416" fill="url(#paint1_linear_2702_2189)" fill-opacity="0.5"></circle><path d="M123 107C123 98.7157 129.716 92 138 92H210.751V512H138C129.716 512 123 505.284 123 497V107Z" fill="#B8B8B8" fill-opacity="0.25"></path><rect x="123" y="197.167" width="87.7512" height="28.8038" fill="#B7B7B7" fill-opacity="0.5"></rect><rect x="136.397" y="205.875" width="61.6268" height="12.0574" rx="6.02871" fill="white" fill-opacity="0.75"></rect><rect x="136.397" y="270.182" width="61.6268" height="12.0574" rx="6.02871" fill="#B7B7B7" fill-opacity="0.5"></rect><rect x="136.397" y="238.029" width="61.6268" height="12.0574" rx="6.02871" fill="#B7B7B7" fill-opacity="0.5"></rect><rect x="136.397" y="302.335" width="61.6268" height="12.0574" rx="6.02871" fill="#B7B7B7" fill-opacity="0.5"></rect><rect x="158.502" y="481.856" width="39.5215" height="8.03828" rx="4.01914" fill="#B7B7B7" fill-opacity="0.5"></rect><circle cx="145.44" cy="485.541" r="9.04306" fill="#ADADAD" fill-opacity="0.5"></circle><g filter="url(#filter1_d_2702_2189)"><rect x="138.407" y="109.417" width="57.6077" height="58.2775" rx="10" fill="#A9A9A9"></rect><rect x="138.907" y="109.917" width="56.6077" height="57.2775" rx="9.5" stroke="white" stroke-opacity="0.2"></rect></g><path d="M181.135 137.524C179.578 143.43 178.023 149.337 176.47 155.245C176.429 155.478 176.312 155.69 176.138 155.844C175.965 155.999 175.744 156.088 175.515 156.096C174.312 156.137 173.107 156.106 171.905 156.113C171.691 156.142 171.475 156.089 171.297 155.964C171.119 155.839 170.993 155.651 170.942 155.436C169.866 151.375 168.811 147.306 167.744 143.241C167.398 141.818 167.162 140.369 167.04 138.907C166.898 140.213 166.687 141.509 166.408 142.791C165.316 146.976 164.222 151.161 163.124 155.348C163.001 156.026 162.247 156.161 161.686 156.117C160.568 156.096 159.45 156.144 158.333 156.096C158.144 156.091 157.962 156.017 157.821 155.889C157.679 155.76 157.585 155.585 157.556 155.392C155.987 149.51 154.418 143.627 152.851 137.743C152.81 137.486 152.79 137.226 152.792 136.966C152.865 136.847 152.965 136.748 153.082 136.676C153.2 136.605 153.332 136.563 153.469 136.554C154.331 136.545 155.195 136.526 156.057 136.567C156.263 136.588 156.456 136.681 156.602 136.832C156.748 136.983 156.839 137.181 156.859 137.393C157.707 140.936 158.539 144.484 159.383 148.028C159.63 149.123 159.931 150.206 160.093 151.319C160.259 152.319 160.292 153.334 160.45 154.336C160.634 152.9 160.897 151.476 161.238 150.07C162.341 145.84 163.445 141.611 164.548 137.382C164.597 137.148 164.722 136.938 164.904 136.788C165.085 136.638 165.311 136.556 165.544 136.557C166.504 136.532 167.465 136.549 168.424 136.549C168.685 136.527 168.945 136.597 169.161 136.747C169.377 136.897 169.537 137.119 169.614 137.376C170.438 140.459 171.257 143.546 172.072 146.635C172.657 148.611 173.135 150.619 173.505 152.649C173.582 153.214 173.658 153.78 173.772 154.341C174.187 151.138 174.781 147.962 175.551 144.829C176.098 142.319 176.633 139.806 177.187 137.296C177.249 137.063 177.389 136.86 177.583 136.724C177.777 136.588 178.011 136.527 178.245 136.552C179.021 136.547 179.798 136.525 180.573 136.565C180.678 136.575 180.78 136.61 180.87 136.667C180.96 136.725 181.036 136.804 181.091 136.897C181.146 136.991 181.178 137.096 181.186 137.205C181.194 137.314 181.176 137.423 181.135 137.524Z" fill="white"></path><path d="M158.302 122.466C155.772 124.137 153.881 126.495 152.895 129.206C152.726 129.673 152.766 130.182 153.006 130.622C153.247 131.062 153.668 131.396 154.178 131.551C154.688 131.706 155.244 131.67 155.724 131.449C156.204 131.229 156.569 130.843 156.738 130.376C157.455 128.405 158.831 126.69 160.671 125.475C162.511 124.26 164.722 123.607 166.99 123.607C169.258 123.607 171.468 124.26 173.308 125.475C175.148 126.69 176.524 128.405 177.241 130.376C177.325 130.607 177.458 130.821 177.632 131.005C177.806 131.189 178.018 131.34 178.256 131.449C178.493 131.559 178.752 131.624 179.017 131.641C179.283 131.659 179.549 131.628 179.801 131.551C180.054 131.474 180.287 131.353 180.488 131.193C180.689 131.034 180.854 130.84 180.973 130.622C181.092 130.404 181.163 130.167 181.182 129.924C181.201 129.681 181.168 129.437 181.084 129.206C180.099 126.495 178.207 124.137 175.678 122.466C173.148 120.795 170.108 119.896 166.99 119.896C163.871 119.896 160.832 120.795 158.302 122.466Z" fill="white"></path></g><g filter="url(#filter2_b_2702_2189)"><rect x="386.979" width="668" height="603" rx="24" fill="url(#paint2_linear_2702_2189)" fill-opacity="0.98"></rect><path d="M443.676 48.1325L437.225 45.7575L434.85 39.3012C434.709 38.9192 434.455 38.5894 434.121 38.3565C433.787 38.1236 433.389 37.9987 432.982 37.9987C432.575 37.9987 432.178 38.1236 431.844 38.3565C431.51 38.5894 431.255 38.9192 431.115 39.3012L428.737 45.75L422.281 48.125C421.899 48.2656 421.569 48.5201 421.336 48.854C421.103 49.188 420.979 49.5853 420.979 49.9925C420.979 50.3997 421.103 50.797 421.336 51.131C421.569 51.4649 421.899 51.7194 422.281 51.86L428.729 54.25L431.104 60.7025C431.244 61.0846 431.499 61.4143 431.833 61.6473C432.167 61.8802 432.564 62.0051 432.971 62.0051C433.378 62.0051 433.776 61.8802 434.11 61.6473C434.443 61.4143 434.698 61.0846 434.839 60.7025L437.214 54.2512L443.67 51.8762C444.052 51.7356 444.382 51.4811 444.615 51.1472C444.848 50.8133 444.972 50.4159 444.972 50.0088C444.972 49.6016 444.848 49.2042 444.615 48.8703C444.382 48.5364 444.052 48.2819 443.67 48.1413L443.676 48.1325ZM436.527 52.375C436.257 52.4742 436.012 52.631 435.808 52.8345C435.605 53.0381 435.448 53.2835 435.349 53.5537L432.974 59.9862L430.604 53.5487C430.504 53.2799 430.348 53.0358 430.145 52.8332C429.943 52.6306 429.699 52.4743 429.43 52.375L422.997 50L429.43 47.625C429.699 47.5257 429.943 47.3694 430.145 47.1668C430.348 46.9642 430.504 46.7201 430.604 46.4513L432.979 40.0188L435.354 46.4513C435.453 46.7215 435.61 46.9669 435.813 47.1705C436.017 47.374 436.262 47.5308 436.532 47.63L442.965 50.005L436.527 52.375ZM436.979 37C436.979 36.7348 437.084 36.4804 437.271 36.2929C437.459 36.1054 437.713 36 437.979 36H439.979V34C439.979 33.7348 440.084 33.4804 440.271 33.2929C440.459 33.1054 440.713 33 440.979 33C441.244 33 441.498 33.1054 441.686 33.2929C441.873 33.4804 441.979 33.7348 441.979 34V36H443.979C444.244 36 444.498 36.1054 444.686 36.2929C444.873 36.4804 444.979 36.7348 444.979 37C444.979 37.2652 444.873 37.5196 444.686 37.7071C444.498 37.8946 444.244 38 443.979 38H441.979V40C441.979 40.2652 441.873 40.5196 441.686 40.7071C441.498 40.8946 441.244 41 440.979 41C440.713 41 440.459 40.8946 440.271 40.7071C440.084 40.5196 439.979 40.2652 439.979 40V38H437.979C437.713 38 437.459 37.8946 437.271 37.7071C437.084 37.5196 436.979 37.2652 436.979 37ZM449.979 43C449.979 43.2652 449.873 43.5196 449.686 43.7071C449.498 43.8946 449.244 44 448.979 44H447.979V45C447.979 45.2652 447.873 45.5196 447.686 45.7071C447.498 45.8946 447.244 46 446.979 46C446.713 46 446.459 45.8946 446.271 45.7071C446.084 45.5196 445.979 45.2652 445.979 45V44H444.979C444.713 44 444.459 43.8946 444.271 43.7071C444.084 43.5196 443.979 43.2652 443.979 43C443.979 42.7348 444.084 42.4804 444.271 42.2929C444.459 42.1054 444.713 42 444.979 42H445.979V41C445.979 40.7348 446.084 40.4804 446.271 40.2929C446.459 40.1054 446.713 40 446.979 40C447.244 40 447.498 40.1054 447.686 40.2929C447.873 40.4804 447.979 40.7348 447.979 41V42H448.979C449.244 42 449.498 42.1054 449.686 42.2929C449.873 42.4804 449.979 42.7348 449.979 43Z" fill="url(#paint3_linear_2702_2189)"></path><path d="M470.219 54L469.059 50.78H462.619L461.439 54H460.039L465.119 40.2H466.559L471.619 54H470.219ZM463.019 49.66H468.639L465.839 41.94L463.019 49.66ZM474.32 54V40.2H475.72V54H474.32ZM486.411 54H485.011V40.2H486.411V46.66L492.391 40.2H494.211L487.511 47.2L494.211 54H492.311L486.411 47.8V54ZM497.869 43.08V44.86C498.602 43.54 499.809 42.88 501.489 42.88C502.702 42.88 503.716 43.28 504.529 44.08C505.342 44.8667 505.749 46.0067 505.749 47.5V54H504.369V47.76C504.369 46.56 504.076 45.6467 503.489 45.02C502.916 44.3933 502.122 44.08 501.109 44.08C500.109 44.08 499.316 44.3933 498.729 45.02C498.156 45.6467 497.869 46.56 497.869 47.76V54H496.469V43.08H497.869ZM513.387 53.08C514.52 53.08 515.5 52.6733 516.327 51.86C517.153 51.0467 517.567 49.94 517.567 48.54C517.567 47.1267 517.173 46.02 516.387 45.22C515.6 44.4067 514.64 44 513.507 44C512.373 44 511.427 44.4 510.667 45.2C509.907 46 509.527 47.1133 509.527 48.54C509.527 49.9667 509.887 51.08 510.607 51.88C511.327 52.68 512.253 53.08 513.387 53.08ZM513.387 54.2C511.827 54.2 510.553 53.68 509.567 52.64C508.593 51.6 508.107 50.24 508.107 48.56C508.107 46.8667 508.627 45.5 509.667 44.46C510.707 43.4067 512.007 42.88 513.567 42.88C515.127 42.88 516.427 43.4067 517.467 44.46C518.507 45.5 519.027 46.86 519.027 48.54C519.027 50.2067 518.48 51.5667 517.387 52.62C516.293 53.6733 514.96 54.2 513.387 54.2ZM534.056 43.08H535.536L532.056 54H530.636L527.916 44.8L525.196 54H523.776L520.256 43.08H521.736L524.476 52.5L527.296 43.08H528.696L531.336 52.48L534.056 43.08ZM537.466 54V39.2H538.866V54H537.466ZM546.571 54.2C545.011 54.2 543.744 53.68 542.771 52.64C541.797 51.6 541.311 50.2333 541.311 48.54C541.311 46.8333 541.804 45.4667 542.791 44.44C543.791 43.4 545.077 42.88 546.651 42.88C548.237 42.88 549.497 43.3667 550.431 44.34C551.364 45.3133 551.831 46.52 551.831 47.96C551.831 48.3467 551.804 48.7067 551.751 49.04H542.751C542.804 50.2933 543.184 51.28 543.891 52C544.597 52.72 545.491 53.08 546.571 53.08C547.411 53.08 548.124 52.8867 548.711 52.5C549.311 52.1133 549.724 51.6067 549.951 50.98H551.451C551.091 51.9133 550.504 52.6867 549.691 53.3C548.877 53.9 547.837 54.2 546.571 54.2ZM550.391 47.94C550.391 46.74 550.024 45.7867 549.291 45.08C548.571 44.36 547.671 44 546.591 44C545.524 44 544.631 44.3533 543.911 45.06C543.204 45.7533 542.817 46.7133 542.751 47.94H550.391ZM561.91 51.78C562.71 50.9533 563.11 49.8733 563.11 48.54C563.11 47.2067 562.71 46.1333 561.91 45.32C561.123 44.4933 560.17 44.08 559.05 44.08C557.93 44.08 556.977 44.4733 556.19 45.26C555.403 46.0467 555.01 47.1133 555.01 48.46C555.01 49.7933 555.403 50.8867 556.19 51.74C556.99 52.58 557.943 53 559.05 53C560.17 53 561.123 52.5933 561.91 51.78ZM558.85 54.2C557.33 54.2 556.07 53.66 555.07 52.58C554.07 51.5 553.57 50.1267 553.57 48.46C553.57 46.78 554.063 45.4333 555.05 44.42C556.05 43.3933 557.317 42.88 558.85 42.88C559.837 42.88 560.703 43.12 561.45 43.6C562.197 44.08 562.75 44.7 563.11 45.46V39.2H564.51V54H563.11V51.6C562.75 52.36 562.197 52.9867 561.45 53.48C560.703 53.96 559.837 54.2 558.85 54.2ZM572.242 54.2C570.722 54.2 569.462 53.66 568.462 52.58C567.462 51.5 566.962 50.1267 566.962 48.46C566.962 46.78 567.455 45.4333 568.442 44.42C569.442 43.3933 570.709 42.88 572.242 42.88C573.229 42.88 574.095 43.12 574.842 43.6C575.589 44.08 576.142 44.7 576.502 45.46V43.08H577.902V54.38C577.902 55.86 577.409 57.06 576.422 57.98C575.449 58.9 574.255 59.36 572.842 59.36C571.429 59.36 570.235 59.0133 569.262 58.32C568.289 57.6267 567.729 56.7667 567.582 55.74H568.962C569.135 56.42 569.575 56.9933 570.282 57.46C570.989 57.9267 571.855 58.16 572.882 58.16C573.909 58.16 574.769 57.82 575.462 57.14C576.155 56.4733 576.502 55.5533 576.502 54.38V51.6C576.142 52.36 575.589 52.9867 574.842 53.48C574.095 53.96 573.229 54.2 572.242 54.2ZM575.302 51.78C576.102 50.9533 576.502 49.8733 576.502 48.54C576.502 47.2067 576.102 46.1333 575.302 45.32C574.515 44.4933 573.562 44.08 572.442 44.08C571.322 44.08 570.369 44.4733 569.582 45.26C568.795 46.0467 568.402 47.1133 568.402 48.46C568.402 49.7933 568.795 50.8867 569.582 51.74C570.382 52.58 571.335 53 572.442 53C573.562 53 574.515 52.5933 575.302 51.78ZM585.614 54.2C584.054 54.2 582.788 53.68 581.814 52.64C580.841 51.6 580.354 50.2333 580.354 48.54C580.354 46.8333 580.848 45.4667 581.834 44.44C582.834 43.4 584.121 42.88 585.694 42.88C587.281 42.88 588.541 43.3667 589.474 44.34C590.408 45.3133 590.874 46.52 590.874 47.96C590.874 48.3467 590.848 48.7067 590.794 49.04H581.794C581.848 50.2933 582.228 51.28 582.934 52C583.641 52.72 584.534 53.08 585.614 53.08C586.454 53.08 587.168 52.8867 587.754 52.5C588.354 52.1133 588.768 51.6067 588.994 50.98H590.494C590.134 51.9133 589.548 52.6867 588.734 53.3C587.921 53.9 586.881 54.2 585.614 54.2ZM589.434 47.94C589.434 46.74 589.068 45.7867 588.334 45.08C587.614 44.36 586.714 44 585.634 44C584.568 44 583.674 44.3533 582.954 45.06C582.248 45.7533 581.861 46.7133 581.794 47.94H589.434ZM599.46 40.2H604.12C605.533 40.2 606.613 40.5467 607.36 41.24C608.12 41.92 608.5 42.8 608.5 43.88C608.5 45.4133 607.62 46.4133 605.86 46.88C606.74 47.0267 607.453 47.4333 608 48.1C608.546 48.7533 608.82 49.5467 608.82 50.48C608.82 51.4133 608.406 52.2333 607.58 52.94C606.753 53.6467 605.673 54 604.34 54H599.46V40.2ZM600.86 41.34V46.32H604.12C605.053 46.32 605.78 46.1 606.3 45.66C606.82 45.2067 607.08 44.6 607.08 43.84C607.08 43.08 606.82 42.4733 606.3 42.02C605.78 41.5667 605.053 41.34 604.12 41.34H600.86ZM600.86 52.88H604.32C605.32 52.88 606.093 52.64 606.64 52.16C607.186 51.68 607.46 51.02 607.46 50.18C607.46 49.34 607.153 48.68 606.54 48.2C605.94 47.7067 605.14 47.46 604.14 47.46H600.86V52.88ZM619.144 51.78C619.944 50.9533 620.344 49.8733 620.344 48.54C620.344 47.2067 619.944 46.1333 619.144 45.32C618.358 44.4933 617.404 44.08 616.284 44.08C615.164 44.08 614.211 44.4733 613.424 45.26C612.638 46.0467 612.244 47.1133 612.244 48.46C612.244 49.7933 612.638 50.8867 613.424 51.74C614.224 52.58 615.178 53 616.284 53C617.404 53 618.358 52.5933 619.144 51.78ZM616.084 54.2C614.564 54.2 613.304 53.66 612.304 52.58C611.304 51.5 610.804 50.1267 610.804 48.46C610.804 46.78 611.298 45.4333 612.284 44.42C613.284 43.3933 614.551 42.88 616.084 42.88C617.071 42.88 617.938 43.12 618.684 43.6C619.431 44.08 619.984 44.7 620.344 45.46V43.08H621.744V54H620.344V51.6C619.984 52.36 619.431 52.9867 618.684 53.48C617.938 53.96 617.071 54.2 616.084 54.2ZM624.596 46.1C624.596 45.1933 624.97 44.4333 625.716 43.82C626.463 43.1933 627.416 42.88 628.576 42.88C629.736 42.88 630.636 43.1867 631.276 43.8C631.93 44.4 632.29 45.2333 632.356 46.3H630.916C630.89 45.6333 630.663 45.0867 630.236 44.66C629.81 44.22 629.216 44 628.456 44C627.696 44 627.096 44.1867 626.656 44.56C626.23 44.9333 626.016 45.3867 626.016 45.92C626.016 46.44 626.176 46.8533 626.496 47.16C626.816 47.4667 627.216 47.6733 627.696 47.78C628.19 47.8867 628.716 48.0133 629.276 48.16C629.85 48.3067 630.376 48.4667 630.856 48.64C631.35 48.8 631.756 49.1 632.076 49.54C632.396 49.9667 632.556 50.52 632.556 51.2C632.556 52.08 632.19 52.8 631.456 53.36C630.723 53.92 629.756 54.2 628.556 54.2C627.37 54.2 626.43 53.8933 625.736 53.28C625.043 52.6667 624.663 51.8333 624.596 50.78H626.036C626.063 51.46 626.303 52.0133 626.756 52.44C627.21 52.8667 627.83 53.08 628.616 53.08C629.416 53.08 630.036 52.9133 630.476 52.58C630.916 52.2333 631.136 51.7933 631.136 51.26C631.136 50.7267 630.976 50.3067 630.656 50C630.336 49.6933 629.93 49.4867 629.436 49.38C628.956 49.26 628.43 49.1267 627.856 48.98C627.296 48.8333 626.77 48.68 626.276 48.52C625.796 48.36 625.396 48.0733 625.076 47.66C624.756 47.2467 624.596 46.7267 624.596 46.1ZM639.958 54.2C638.398 54.2 637.131 53.68 636.158 52.64C635.185 51.6 634.698 50.2333 634.698 48.54C634.698 46.8333 635.191 45.4667 636.178 44.44C637.178 43.4 638.465 42.88 640.038 42.88C641.625 42.88 642.885 43.3667 643.818 44.34C644.751 45.3133 645.218 46.52 645.218 47.96C645.218 48.3467 645.191 48.7067 645.138 49.04H636.138C636.191 50.2933 636.571 51.28 637.278 52C637.985 52.72 638.878 53.08 639.958 53.08C640.798 53.08 641.511 52.8867 642.098 52.5C642.698 52.1133 643.111 51.6067 643.338 50.98H644.838C644.478 51.9133 643.891 52.6867 643.078 53.3C642.265 53.9 641.225 54.2 639.958 54.2ZM643.778 47.94C643.778 46.74 643.411 45.7867 642.678 45.08C641.958 44.36 641.058 44 639.978 44C638.911 44 638.018 44.3533 637.298 45.06C636.591 45.7533 636.205 46.7133 636.138 47.94H643.778Z" fill="white"></path><rect x="689.979" y="338" width="332" height="66" rx="33" fill="url(#paint4_linear_2702_2189)" fill-opacity="0.2"></rect><rect x="689.979" y="338" width="332" height="66" rx="33" stroke="url(#paint5_linear_2702_2189)" stroke-width="2"></rect><path d="M735.923 362.368L730.883 379H728.435L724.691 365.56L720.683 379L718.259 379.024L713.555 362.368H715.859L719.555 376.504L723.587 362.368H725.987L729.707 376.456L733.619 362.368H735.923ZM744.94 365.608C745.884 365.608 746.74 365.824 747.508 366.256C748.292 366.672 748.908 367.304 749.356 368.152C749.82 368.984 750.052 370 750.052 371.2V379H747.892V371.56C747.892 370.232 747.572 369.224 746.932 368.536C746.292 367.848 745.404 367.504 744.268 367.504C743.148 367.504 742.26 367.848 741.604 368.536C740.964 369.224 740.644 370.232 740.644 371.56V379H738.46V361.24H740.644V367.96C741.076 367.192 741.668 366.608 742.42 366.208C743.172 365.808 744.012 365.608 744.94 365.608ZM759.104 365.608C760.224 365.608 761.2 365.872 762.032 366.4C762.88 366.928 763.52 367.616 763.952 368.464V365.824H766.16V379H763.952V376.312C763.52 377.176 762.88 377.88 762.032 378.424C761.2 378.952 760.224 379.216 759.104 379.216C757.92 379.216 756.848 378.928 755.888 378.352C754.944 377.76 754.192 376.944 753.632 375.904C753.088 374.848 752.816 373.656 752.816 372.328C752.816 371 753.088 369.832 753.632 368.824C754.192 367.8 754.944 367.008 755.888 366.448C756.848 365.888 757.92 365.608 759.104 365.608ZM759.488 367.504C758.704 367.504 757.968 367.696 757.28 368.08C756.608 368.464 756.064 369.024 755.648 369.76C755.248 370.48 755.048 371.336 755.048 372.328C755.048 373.32 755.248 374.2 755.648 374.968C756.064 375.72 756.608 376.304 757.28 376.72C757.968 377.136 758.704 377.344 759.488 377.344C760.288 377.344 761.024 377.144 761.696 376.744C762.384 376.344 762.928 375.776 763.328 375.04C763.744 374.288 763.952 373.416 763.952 372.424C763.952 371.432 763.744 370.568 763.328 369.832C762.928 369.08 762.384 368.504 761.696 368.104C761.024 367.704 760.288 367.504 759.488 367.504ZM776.028 377.224V379H773.82C772.7 379 771.844 378.728 771.252 378.184C770.676 377.64 770.388 376.784 770.388 375.616V367.6H768.684V365.824H770.388V362.56H772.596V365.824H776.004V367.6H772.596V375.616C772.596 376.208 772.716 376.624 772.956 376.864C773.196 377.104 773.62 377.224 774.228 377.224H776.028ZM779.573 360.208C779.765 361.04 779.861 361.776 779.861 362.416C779.861 363.36 779.653 364.048 779.237 364.48C778.837 364.912 778.237 365.128 777.437 365.128V364.072C777.821 364.072 778.101 363.976 778.277 363.784C778.469 363.576 778.565 363.256 778.565 362.824V362.272H777.389V360.208H779.573ZM786.932 365.608C788.356 365.608 789.484 365.984 790.316 366.736C791.148 367.472 791.604 368.488 791.684 369.784H789.428C789.396 369.048 789.148 368.456 788.684 368.008C788.22 367.56 787.58 367.336 786.764 367.336C785.932 367.336 785.276 367.536 784.796 367.936C784.332 368.32 784.1 368.808 784.1 369.4C784.1 369.896 784.244 370.296 784.532 370.6C784.836 370.888 785.204 371.104 785.636 371.248C786.084 371.392 786.684 371.544 787.436 371.704C788.396 371.928 789.164 372.152 789.74 372.376C790.332 372.584 790.836 372.944 791.252 373.456C791.668 373.952 791.876 374.632 791.876 375.496C791.876 376.216 791.668 376.864 791.252 377.44C790.836 378 790.252 378.44 789.5 378.76C788.748 379.064 787.884 379.216 786.908 379.216C785.436 379.216 784.252 378.848 783.356 378.112C782.476 377.376 781.996 376.36 781.916 375.064H784.172C784.204 375.8 784.46 376.392 784.94 376.84C785.436 377.272 786.092 377.488 786.908 377.488C787.804 377.488 788.492 377.304 788.972 376.936C789.468 376.568 789.716 376.08 789.716 375.472C789.716 374.976 789.564 374.584 789.26 374.296C788.972 373.992 788.604 373.768 788.156 373.624C787.708 373.464 787.092 373.296 786.308 373.12C785.364 372.912 784.596 372.704 784.004 372.496C783.428 372.272 782.932 371.928 782.516 371.464C782.116 371 781.916 370.36 781.916 369.544C781.916 368.824 782.116 368.168 782.516 367.576C782.932 366.968 783.516 366.488 784.268 366.136C785.036 365.784 785.924 365.608 786.932 365.608ZM818.364 365.608C819.324 365.608 820.196 365.824 820.98 366.256C821.764 366.672 822.38 367.304 822.828 368.152C823.292 368.984 823.524 370 823.524 371.2V379H821.364V371.56C821.364 370.232 821.036 369.224 820.38 368.536C819.74 367.848 818.86 367.504 817.74 367.504C816.62 367.504 815.732 367.848 815.076 368.536C814.436 369.224 814.116 370.232 814.116 371.56V379H811.956V371.56C811.956 370.232 811.636 369.224 810.996 368.536C810.356 367.848 809.468 367.504 808.332 367.504C807.212 367.504 806.324 367.848 805.668 368.536C805.028 369.224 804.708 370.232 804.708 371.56V379H802.524V365.824H804.708V367.96C805.14 367.192 805.732 366.608 806.484 366.208C807.236 365.808 808.076 365.608 809.004 365.608C810.012 365.608 810.924 365.856 811.74 366.352C812.556 366.832 813.172 367.536 813.588 368.464C814.068 367.568 814.716 366.872 815.532 366.376C816.364 365.864 817.308 365.608 818.364 365.608ZM828.031 365.824L832.063 376.48L836.167 365.824H838.423L830.479 385.168H828.223L830.839 378.784L825.631 365.824H828.031ZM855.053 365.608C856.237 365.608 857.301 365.888 858.245 366.448C859.205 367.008 859.957 367.8 860.501 368.824C861.061 369.832 861.341 371 861.341 372.328C861.341 373.656 861.061 374.848 860.501 375.904C859.957 376.944 859.205 377.76 858.245 378.352C857.301 378.928 856.237 379.216 855.053 379.216C853.933 379.216 852.949 378.952 852.101 378.424C851.269 377.88 850.629 377.176 850.181 376.312V385.24H847.997V365.824H850.181V368.464C850.629 367.616 851.269 366.928 852.101 366.4C852.949 365.872 853.933 365.608 855.053 365.608ZM854.621 367.504C853.837 367.504 853.101 367.704 852.413 368.104C851.741 368.504 851.197 369.08 850.781 369.832C850.381 370.568 850.181 371.432 850.181 372.424C850.181 373.416 850.381 374.288 850.781 375.04C851.197 375.776 851.741 376.344 852.413 376.744C853.101 377.144 853.837 377.344 854.621 377.344C855.405 377.344 856.141 377.144 856.829 376.744C857.517 376.328 858.061 375.736 858.461 374.968C858.877 374.2 859.085 373.32 859.085 372.328C859.085 371.336 858.877 370.48 858.461 369.76C858.061 369.024 857.517 368.464 856.829 368.08C856.157 367.696 855.421 367.504 854.621 367.504ZM869.649 365.608C870.769 365.608 871.745 365.872 872.577 366.4C873.425 366.928 874.065 367.616 874.497 368.464V365.824H876.705V379H874.497V376.312C874.065 377.176 873.425 377.88 872.577 378.424C871.745 378.952 870.769 379.216 869.649 379.216C868.465 379.216 867.393 378.928 866.433 378.352C865.489 377.76 864.737 376.944 864.177 375.904C863.633 374.848 863.361 373.656 863.361 372.328C863.361 371 863.633 369.832 864.177 368.824C864.737 367.8 865.489 367.008 866.433 366.448C867.393 365.888 868.465 365.608 869.649 365.608ZM870.033 367.504C869.249 367.504 868.513 367.696 867.825 368.08C867.153 368.464 866.609 369.024 866.193 369.76C865.793 370.48 865.593 371.336 865.593 372.328C865.593 373.32 865.793 374.2 866.193 374.968C866.609 375.72 867.153 376.304 867.825 376.72C868.513 377.136 869.249 377.344 870.033 377.344C870.833 377.344 871.569 377.144 872.241 376.744C872.929 376.344 873.473 375.776 873.873 375.04C874.289 374.288 874.497 373.416 874.497 372.424C874.497 371.432 874.289 370.568 873.873 369.832C873.473 369.08 872.929 368.504 872.241 368.104C871.569 367.704 870.833 367.504 870.033 367.504ZM881.342 365.824L885.374 376.48L889.478 365.824H891.734L883.79 385.168H881.534L884.15 378.784L878.942 365.824H881.342ZM896.147 368.056C896.931 366.424 898.267 365.608 900.155 365.608V367.888H899.579C898.459 367.888 897.603 368.184 897.011 368.776C896.435 369.352 896.147 370.36 896.147 371.8V379H893.963V365.824H896.147V368.056ZM908.733 365.608C909.981 365.608 911.109 365.888 912.117 366.448C913.125 367.008 913.917 367.808 914.493 368.848C915.085 369.888 915.381 371.08 915.381 372.424C915.381 373.752 915.077 374.936 914.469 375.976C913.861 377 913.037 377.8 911.997 378.376C910.957 378.936 909.805 379.216 908.541 379.216C907.309 379.216 906.197 378.936 905.205 378.376C904.229 377.816 903.461 377.024 902.901 376C902.357 374.96 902.085 373.768 902.085 372.424C902.085 371.064 902.373 369.872 902.949 368.848C903.541 367.808 904.341 367.008 905.349 366.448C906.357 365.888 907.485 365.608 908.733 365.608ZM908.661 367.408C907.861 367.408 907.133 367.6 906.477 367.984C905.821 368.368 905.293 368.936 904.893 369.688C904.509 370.44 904.317 371.352 904.317 372.424C904.317 373.48 904.501 374.384 904.869 375.136C905.253 375.888 905.765 376.456 906.405 376.84C907.045 377.224 907.757 377.416 908.541 377.416C909.341 377.416 910.085 377.224 910.773 376.84C911.477 376.44 912.045 375.864 912.477 375.112C912.909 374.36 913.125 373.464 913.125 372.424C913.125 371.368 912.917 370.464 912.501 369.712C912.101 368.944 911.557 368.368 910.869 367.984C910.197 367.6 909.461 367.408 908.661 367.408ZM920.447 361.24V379H918.263V361.24H920.447ZM926.386 361.24V379H924.202V361.24H926.386ZM943.006 365.608C944.59 365.608 945.878 365.976 946.87 366.712C947.878 367.448 948.582 368.496 948.982 369.856H946.63C946.374 369.088 945.934 368.488 945.31 368.056C944.686 367.624 943.918 367.408 943.006 367.408C941.758 367.408 940.75 367.848 939.982 368.728C939.23 369.592 938.854 370.824 938.854 372.424C938.854 374.008 939.23 375.24 939.982 376.12C940.75 376.984 941.758 377.416 943.006 377.416C943.934 377.416 944.702 377.208 945.31 376.792C945.918 376.376 946.358 375.768 946.63 374.968H948.982C948.582 376.264 947.87 377.296 946.846 378.064C945.838 378.832 944.558 379.216 943.006 379.216C941.774 379.216 940.67 378.936 939.694 378.376C938.734 377.816 937.982 377.024 937.438 376C936.894 374.96 936.622 373.768 936.622 372.424C936.622 371.064 936.894 369.872 937.438 368.848C937.982 367.808 938.734 367.008 939.694 366.448C940.654 365.888 941.758 365.608 943.006 365.608ZM952.915 365.824L956.947 376.48L961.051 365.824H963.307L955.363 385.168H953.107L955.723 378.784L950.515 365.824H952.915ZM971.056 365.608C972.64 365.608 973.928 365.976 974.92 366.712C975.928 367.448 976.632 368.496 977.032 369.856H974.68C974.424 369.088 973.984 368.488 973.36 368.056C972.736 367.624 971.968 367.408 971.056 367.408C969.808 367.408 968.8 367.848 968.032 368.728C967.28 369.592 966.904 370.824 966.904 372.424C966.904 374.008 967.28 375.24 968.032 376.12C968.8 376.984 969.808 377.416 971.056 377.416C971.984 377.416 972.752 377.208 973.36 376.792C973.968 376.376 974.408 375.768 974.68 374.968H977.032C976.632 376.264 975.92 377.296 974.896 378.064C973.888 378.832 972.608 379.216 971.056 379.216C969.824 379.216 968.72 378.936 967.744 378.376C966.784 377.816 966.032 377.024 965.488 376C964.944 374.96 964.672 373.768 964.672 372.424C964.672 371.064 964.944 369.872 965.488 368.848C966.032 367.808 966.784 367.008 967.744 366.448C968.704 365.888 969.808 365.608 971.056 365.608ZM982.261 361.24V379H980.077V361.24H982.261ZM997.968 371.872C997.968 372.336 997.936 372.768 997.872 373.168H987.384C987.448 374.48 987.856 375.52 988.608 376.288C989.376 377.04 990.352 377.416 991.536 377.416C992.432 377.416 993.184 377.216 993.792 376.816C994.416 376.416 994.872 375.888 995.16 375.232H997.512C997.096 376.384 996.376 377.336 995.352 378.088C994.344 378.84 993.072 379.216 991.536 379.216C990.304 379.216 989.2 378.936 988.224 378.376C987.264 377.816 986.512 377.024 985.968 376C985.424 374.96 985.152 373.768 985.152 372.424C985.152 371.064 985.424 369.872 985.968 368.848C986.512 367.808 987.28 367.008 988.272 366.448C989.264 365.888 990.408 365.608 991.704 365.608C992.936 365.608 994.024 365.88 994.968 366.424C995.912 366.968 996.648 367.712 997.176 368.656C997.704 369.6 997.968 370.672 997.968 371.872ZM995.688 371.584C995.688 370.736 995.504 370 995.136 369.376C994.768 368.736 994.264 368.248 993.624 367.912C993 367.576 992.304 367.408 991.536 367.408C990.4 367.408 989.448 367.784 988.68 368.536C987.912 369.272 987.488 370.288 987.408 371.584H995.688Z" fill="white"></path><path d="M430.119 437.14L425.619 445.76V451H423.799V445.76L419.279 437.14H421.279L424.699 444.08L428.099 437.14H430.119ZM436.894 439.84C437.934 439.84 438.874 440.073 439.714 440.54C440.554 441.007 441.214 441.673 441.694 442.54C442.187 443.407 442.434 444.4 442.434 445.52C442.434 446.627 442.18 447.613 441.674 448.48C441.167 449.333 440.48 450 439.614 450.48C438.747 450.947 437.787 451.18 436.734 451.18C435.707 451.18 434.78 450.947 433.954 450.48C433.14 450.013 432.5 449.353 432.034 448.5C431.58 447.633 431.354 446.64 431.354 445.52C431.354 444.387 431.594 443.393 432.074 442.54C432.567 441.673 433.234 441.007 434.074 440.54C434.914 440.073 435.854 439.84 436.894 439.84ZM436.834 441.34C436.167 441.34 435.56 441.5 435.014 441.82C434.467 442.14 434.027 442.613 433.694 443.24C433.374 443.867 433.214 444.627 433.214 445.52C433.214 446.4 433.367 447.153 433.674 447.78C433.994 448.407 434.42 448.88 434.954 449.2C435.487 449.52 436.08 449.68 436.734 449.68C437.4 449.68 438.02 449.52 438.594 449.2C439.18 448.867 439.654 448.387 440.014 447.76C440.374 447.133 440.554 446.387 440.554 445.52C440.554 444.64 440.38 443.887 440.034 443.26C439.7 442.62 439.247 442.14 438.674 441.82C438.114 441.5 437.5 441.34 436.834 441.34ZM454.421 440.02V451H452.601V449.24C452.241 449.88 451.747 450.367 451.121 450.7C450.494 451.02 449.794 451.18 449.021 451.18C448.234 451.18 447.514 451.007 446.861 450.66C446.221 450.3 445.707 449.773 445.321 449.08C444.947 448.387 444.761 447.54 444.761 446.54V440.02H446.561V446.24C446.561 447.333 446.827 448.173 447.361 448.76C447.907 449.333 448.647 449.62 449.581 449.62C450.514 449.62 451.247 449.333 451.781 448.76C452.327 448.173 452.601 447.333 452.601 446.24V440.02H454.421ZM458.389 435.34C458.549 436.033 458.629 436.647 458.629 437.18C458.629 437.967 458.456 438.54 458.109 438.9C457.776 439.26 457.276 439.44 456.609 439.44V438.56C456.929 438.56 457.162 438.48 457.309 438.32C457.469 438.147 457.549 437.88 457.549 437.52V437.06H456.569V435.34H458.389ZM462.586 441.88C463.239 440.52 464.353 439.84 465.926 439.84V441.74H465.446C464.513 441.74 463.799 441.987 463.306 442.48C462.826 442.96 462.586 443.8 462.586 445V451H460.766V440.02H462.586V441.88ZM478.239 445.06C478.239 445.447 478.213 445.807 478.159 446.14H469.419C469.473 447.233 469.813 448.1 470.439 448.74C471.079 449.367 471.893 449.68 472.879 449.68C473.626 449.68 474.253 449.513 474.759 449.18C475.279 448.847 475.659 448.407 475.899 447.86H477.859C477.513 448.82 476.913 449.613 476.059 450.24C475.219 450.867 474.159 451.18 472.879 451.18C471.853 451.18 470.933 450.947 470.119 450.48C469.319 450.013 468.693 449.353 468.239 448.5C467.786 447.633 467.559 446.64 467.559 445.52C467.559 444.387 467.786 443.393 468.239 442.54C468.693 441.673 469.333 441.007 470.159 440.54C470.986 440.073 471.939 439.84 473.019 439.84C474.046 439.84 474.953 440.067 475.739 440.52C476.526 440.973 477.139 441.593 477.579 442.38C478.019 443.167 478.239 444.06 478.239 445.06ZM476.339 444.82C476.339 444.113 476.186 443.5 475.879 442.98C475.573 442.447 475.153 442.04 474.619 441.76C474.099 441.48 473.519 441.34 472.879 441.34C471.933 441.34 471.139 441.653 470.499 442.28C469.859 442.893 469.506 443.74 469.439 444.82H476.339ZM491.402 439.84C492.722 439.84 493.795 440.147 494.622 440.76C495.462 441.373 496.049 442.247 496.382 443.38H494.422C494.209 442.74 493.842 442.24 493.322 441.88C492.802 441.52 492.162 441.34 491.402 441.34C490.362 441.34 489.522 441.707 488.882 442.44C488.255 443.16 487.942 444.187 487.942 445.52C487.942 446.84 488.255 447.867 488.882 448.6C489.522 449.32 490.362 449.68 491.402 449.68C492.175 449.68 492.815 449.507 493.322 449.16C493.829 448.813 494.195 448.307 494.422 447.64H496.382C496.049 448.72 495.455 449.58 494.602 450.22C493.762 450.86 492.695 451.18 491.402 451.18C490.375 451.18 489.455 450.947 488.642 450.48C487.842 450.013 487.215 449.353 486.762 448.5C486.309 447.633 486.082 446.64 486.082 445.52C486.082 444.387 486.309 443.393 486.762 442.54C487.215 441.673 487.842 441.007 488.642 440.54C489.442 440.073 490.362 439.84 491.402 439.84ZM508.504 440.02V451H506.684V449.24C506.324 449.88 505.831 450.367 505.204 450.7C504.577 451.02 503.877 451.18 503.104 451.18C502.317 451.18 501.597 451.007 500.944 450.66C500.304 450.3 499.791 449.773 499.404 449.08C499.031 448.387 498.844 447.54 498.844 446.54V440.02H500.644V446.24C500.644 447.333 500.911 448.173 501.444 448.76C501.991 449.333 502.731 449.62 503.664 449.62C504.597 449.62 505.331 449.333 505.864 448.76C506.411 448.173 506.684 447.333 506.684 446.24V440.02H508.504ZM513.473 441.88C514.126 440.52 515.239 439.84 516.813 439.84V441.74H516.333C515.399 441.74 514.686 441.987 514.193 442.48C513.713 442.96 513.473 443.8 513.473 445V451H511.653V440.02H513.473V441.88ZM520.986 441.88C521.639 440.52 522.753 439.84 524.326 439.84V441.74H523.846C522.913 441.74 522.199 441.987 521.706 442.48C521.226 442.96 520.986 443.8 520.986 445V451H519.166V440.02H520.986V441.88ZM536.639 445.06C536.639 445.447 536.613 445.807 536.559 446.14H527.819C527.873 447.233 528.213 448.1 528.839 448.74C529.479 449.367 530.293 449.68 531.279 449.68C532.026 449.68 532.653 449.513 533.159 449.18C533.679 448.847 534.059 448.407 534.299 447.86H536.259C535.913 448.82 535.313 449.613 534.459 450.24C533.619 450.867 532.559 451.18 531.279 451.18C530.253 451.18 529.333 450.947 528.519 450.48C527.719 450.013 527.093 449.353 526.639 448.5C526.186 447.633 525.959 446.64 525.959 445.52C525.959 444.387 526.186 443.393 526.639 442.54C527.093 441.673 527.733 441.007 528.559 440.54C529.386 440.073 530.339 439.84 531.419 439.84C532.446 439.84 533.353 440.067 534.139 440.52C534.926 440.973 535.539 441.593 535.979 442.38C536.419 443.167 536.639 444.06 536.639 445.06ZM534.739 444.82C534.739 444.113 534.586 443.5 534.279 442.98C533.973 442.447 533.553 442.04 533.019 441.76C532.499 441.48 531.919 441.34 531.279 441.34C530.333 441.34 529.539 441.653 528.899 442.28C528.259 442.893 527.906 443.74 527.839 444.82H534.739ZM544.456 439.84C545.243 439.84 545.956 440.02 546.596 440.38C547.249 440.727 547.763 441.253 548.136 441.96C548.523 442.653 548.716 443.5 548.716 444.5V451H546.916V444.8C546.916 443.693 546.649 442.853 546.116 442.28C545.583 441.707 544.843 441.42 543.896 441.42C542.963 441.42 542.223 441.707 541.676 442.28C541.143 442.853 540.876 443.693 540.876 444.8V451H539.056V440.02H540.876V441.8C541.236 441.16 541.729 440.673 542.356 440.34C542.983 440.007 543.683 439.84 544.456 439.84ZM556.864 449.52V451H555.024C554.091 451 553.378 450.773 552.884 450.32C552.404 449.867 552.164 449.153 552.164 448.18V441.5H550.744V440.02H552.164V437.3H554.004V440.02H556.844V441.5H554.004V448.18C554.004 448.673 554.104 449.02 554.304 449.22C554.504 449.42 554.858 449.52 555.364 449.52H556.864ZM560.844 436.2V451H559.024V436.2H560.844ZM564.738 440.02L568.098 448.9L571.518 440.02H573.398L566.778 456.14H564.898L567.078 450.82L562.738 440.02H564.738ZM586.247 439.84C587.287 439.84 588.227 440.073 589.067 440.54C589.907 441.007 590.567 441.673 591.047 442.54C591.54 443.407 591.787 444.4 591.787 445.52C591.787 446.627 591.534 447.613 591.027 448.48C590.52 449.333 589.834 450 588.967 450.48C588.1 450.947 587.14 451.18 586.087 451.18C585.06 451.18 584.134 450.947 583.307 450.48C582.494 450.013 581.854 449.353 581.387 448.5C580.934 447.633 580.707 446.64 580.707 445.52C580.707 444.387 580.947 443.393 581.427 442.54C581.92 441.673 582.587 441.007 583.427 440.54C584.267 440.073 585.207 439.84 586.247 439.84ZM586.187 441.34C585.52 441.34 584.914 441.5 584.367 441.82C583.82 442.14 583.38 442.613 583.047 443.24C582.727 443.867 582.567 444.627 582.567 445.52C582.567 446.4 582.72 447.153 583.027 447.78C583.347 448.407 583.774 448.88 584.307 449.2C584.84 449.52 585.434 449.68 586.087 449.68C586.754 449.68 587.374 449.52 587.947 449.2C588.534 448.867 589.007 448.387 589.367 447.76C589.727 447.133 589.907 446.387 589.907 445.52C589.907 444.64 589.734 443.887 589.387 443.26C589.054 442.62 588.6 442.14 588.027 441.82C587.467 441.5 586.854 441.34 586.187 441.34ZM599.614 439.84C600.4 439.84 601.114 440.02 601.754 440.38C602.407 440.727 602.92 441.253 603.294 441.96C603.68 442.653 603.874 443.5 603.874 444.5V451H602.074V444.8C602.074 443.693 601.807 442.853 601.274 442.28C600.74 441.707 600 441.42 599.054 441.42C598.12 441.42 597.38 441.707 596.834 442.28C596.3 442.853 596.034 443.693 596.034 444.8V451H594.214V440.02H596.034V441.8C596.394 441.16 596.887 440.673 597.514 440.34C598.14 440.007 598.84 439.84 599.614 439.84ZM617.588 439.84C618.522 439.84 619.335 440.06 620.028 440.5C620.735 440.94 621.268 441.513 621.628 442.22V440.02H623.468V451H621.628V448.76C621.268 449.48 620.735 450.067 620.028 450.52C619.335 450.96 618.522 451.18 617.588 451.18C616.602 451.18 615.708 450.94 614.908 450.46C614.122 449.967 613.495 449.287 613.028 448.42C612.575 447.54 612.348 446.547 612.348 445.44C612.348 444.333 612.575 443.36 613.028 442.52C613.495 441.667 614.122 441.007 614.908 440.54C615.708 440.073 616.602 439.84 617.588 439.84ZM617.908 441.42C617.255 441.42 616.642 441.58 616.068 441.9C615.508 442.22 615.055 442.687 614.708 443.3C614.375 443.9 614.208 444.613 614.208 445.44C614.208 446.267 614.375 447 614.708 447.64C615.055 448.267 615.508 448.753 616.068 449.1C616.642 449.447 617.255 449.62 617.908 449.62C618.575 449.62 619.188 449.453 619.748 449.12C620.322 448.787 620.775 448.313 621.108 447.7C621.455 447.073 621.628 446.347 621.628 445.52C621.628 444.693 621.455 443.973 621.108 443.36C620.775 442.733 620.322 442.253 619.748 441.92C619.188 441.587 618.575 441.42 617.908 441.42ZM645.963 439.84C646.763 439.84 647.49 440.02 648.143 440.38C648.796 440.727 649.31 441.253 649.683 441.96C650.07 442.653 650.263 443.5 650.263 444.5V451H648.463V444.8C648.463 443.693 648.19 442.853 647.643 442.28C647.11 441.707 646.376 441.42 645.443 441.42C644.51 441.42 643.77 441.707 643.223 442.28C642.69 442.853 642.423 443.693 642.423 444.8V451H640.623V444.8C640.623 443.693 640.356 442.853 639.823 442.28C639.29 441.707 638.55 441.42 637.603 441.42C636.67 441.42 635.93 441.707 635.383 442.28C634.85 442.853 634.583 443.693 634.583 444.8V451H632.763V440.02H634.583V441.8C634.943 441.16 635.436 440.673 636.063 440.34C636.69 440.007 637.39 439.84 638.163 439.84C639.003 439.84 639.763 440.047 640.443 440.46C641.123 440.86 641.636 441.447 641.983 442.22C642.383 441.473 642.923 440.893 643.603 440.48C644.296 440.053 645.083 439.84 645.963 439.84ZM658.124 439.84C659.164 439.84 660.104 440.073 660.944 440.54C661.784 441.007 662.444 441.673 662.924 442.54C663.417 443.407 663.664 444.4 663.664 445.52C663.664 446.627 663.41 447.613 662.904 448.48C662.397 449.333 661.71 450 660.844 450.48C659.977 450.947 659.017 451.18 657.964 451.18C656.937 451.18 656.01 450.947 655.184 450.48C654.37 450.013 653.73 449.353 653.264 448.5C652.81 447.633 652.584 446.64 652.584 445.52C652.584 444.387 652.824 443.393 653.304 442.54C653.797 441.673 654.464 441.007 655.304 440.54C656.144 440.073 657.084 439.84 658.124 439.84ZM658.064 441.34C657.397 441.34 656.79 441.5 656.244 441.82C655.697 442.14 655.257 442.613 654.924 443.24C654.604 443.867 654.444 444.627 654.444 445.52C654.444 446.4 654.597 447.153 654.904 447.78C655.224 448.407 655.65 448.88 656.184 449.2C656.717 449.52 657.31 449.68 657.964 449.68C658.63 449.68 659.25 449.52 659.824 449.2C660.41 448.867 660.884 448.387 661.244 447.76C661.604 447.133 661.784 446.387 661.784 445.52C661.784 444.64 661.61 443.887 661.264 443.26C660.93 442.62 660.477 442.14 659.904 441.82C659.344 441.5 658.73 441.34 658.064 441.34ZM671.49 439.84C672.277 439.84 672.99 440.02 673.63 440.38C674.284 440.727 674.797 441.253 675.17 441.96C675.557 442.653 675.75 443.5 675.75 444.5V451H673.95V444.8C673.95 443.693 673.684 442.853 673.15 442.28C672.617 441.707 671.877 441.42 670.93 441.42C669.997 441.42 669.257 441.707 668.71 442.28C668.177 442.853 667.91 443.693 667.91 444.8V451H666.09V440.02H667.91V441.8C668.27 441.16 668.764 440.673 669.39 440.34C670.017 440.007 670.717 439.84 671.49 439.84ZM683.899 449.52V451H682.059C681.125 451 680.412 450.773 679.919 450.32C679.439 449.867 679.199 449.153 679.199 448.18V441.5H677.779V440.02H679.199V437.3H681.039V440.02H683.879V441.5H681.039V448.18C681.039 448.673 681.139 449.02 681.339 449.22C681.539 449.42 681.892 449.52 682.399 449.52H683.899ZM691.458 439.84C692.245 439.84 692.958 440.02 693.598 440.38C694.252 440.727 694.765 441.253 695.138 441.96C695.525 442.653 695.718 443.5 695.718 444.5V451H693.918V444.8C693.918 443.693 693.652 442.853 693.118 442.28C692.585 441.707 691.845 441.42 690.898 441.42C689.965 441.42 689.225 441.707 688.678 442.28C688.145 442.853 687.878 443.693 687.878 444.8V451H686.058V436.2H687.878V441.8C688.238 441.16 688.732 440.673 689.358 440.34C689.985 440.007 690.685 439.84 691.458 439.84ZM700.587 436.2V451H698.767V436.2H700.587ZM704.481 440.02L707.841 448.9L711.261 440.02H713.141L706.521 456.14H704.641L706.821 450.82L702.481 440.02H704.481ZM727.05 439.84C728.037 439.84 728.923 440.073 729.71 440.54C730.51 441.007 731.137 441.667 731.59 442.52C732.057 443.36 732.29 444.333 732.29 445.44C732.29 446.547 732.057 447.54 731.59 448.42C731.137 449.287 730.51 449.967 729.71 450.46C728.923 450.94 728.037 451.18 727.05 451.18C726.117 451.18 725.297 450.96 724.59 450.52C723.897 450.067 723.363 449.48 722.99 448.76V456.2H721.17V440.02H722.99V442.22C723.363 441.513 723.897 440.94 724.59 440.5C725.297 440.06 726.117 439.84 727.05 439.84ZM726.69 441.42C726.037 441.42 725.423 441.587 724.85 441.92C724.29 442.253 723.837 442.733 723.49 443.36C723.157 443.973 722.99 444.693 722.99 445.52C722.99 446.347 723.157 447.073 723.49 447.7C723.837 448.313 724.29 448.787 724.85 449.12C725.423 449.453 726.037 449.62 726.69 449.62C727.343 449.62 727.957 449.453 728.53 449.12C729.103 448.773 729.557 448.28 729.89 447.64C730.237 447 730.41 446.267 730.41 445.44C730.41 444.613 730.237 443.9 729.89 443.3C729.557 442.687 729.103 442.22 728.53 441.9C727.97 441.58 727.357 441.42 726.69 441.42ZM739.238 439.84C740.172 439.84 740.985 440.06 741.678 440.5C742.385 440.94 742.918 441.513 743.278 442.22V440.02H745.118V451H743.278V448.76C742.918 449.48 742.385 450.067 741.678 450.52C740.985 450.96 740.172 451.18 739.238 451.18C738.252 451.18 737.358 450.94 736.558 450.46C735.772 449.967 735.145 449.287 734.678 448.42C734.225 447.54 733.998 446.547 733.998 445.44C733.998 444.333 734.225 443.36 734.678 442.52C735.145 441.667 735.772 441.007 736.558 440.54C737.358 440.073 738.252 439.84 739.238 439.84ZM739.558 441.42C738.905 441.42 738.292 441.58 737.718 441.9C737.158 442.22 736.705 442.687 736.358 443.3C736.025 443.9 735.858 444.613 735.858 445.44C735.858 446.267 736.025 447 736.358 447.64C736.705 448.267 737.158 448.753 737.718 449.1C738.292 449.447 738.905 449.62 739.558 449.62C740.225 449.62 740.838 449.453 741.398 449.12C741.972 448.787 742.425 448.313 742.758 447.7C743.105 447.073 743.278 446.347 743.278 445.52C743.278 444.693 743.105 443.973 742.758 443.36C742.425 442.733 741.972 442.253 741.398 441.92C740.838 441.587 740.225 441.42 739.558 441.42ZM749.007 440.02L752.367 448.9L755.787 440.02H757.667L751.047 456.14H749.167L751.347 450.82L747.007 440.02H749.007ZM761.37 441.88C762.023 440.52 763.136 439.84 764.71 439.84V441.74H764.23C763.296 441.74 762.583 441.987 762.09 442.48C761.61 442.96 761.37 443.8 761.37 445V451H759.55V440.02H761.37V441.88ZM771.883 439.84C772.923 439.84 773.863 440.073 774.703 440.54C775.543 441.007 776.203 441.673 776.683 442.54C777.176 443.407 777.423 444.4 777.423 445.52C777.423 446.627 777.17 447.613 776.663 448.48C776.156 449.333 775.47 450 774.603 450.48C773.736 450.947 772.776 451.18 771.723 451.18C770.696 451.18 769.77 450.947 768.943 450.48C768.13 450.013 767.49 449.353 767.023 448.5C766.57 447.633 766.343 446.64 766.343 445.52C766.343 444.387 766.583 443.393 767.063 442.54C767.556 441.673 768.223 441.007 769.063 440.54C769.903 440.073 770.843 439.84 771.883 439.84ZM771.823 441.34C771.156 441.34 770.55 441.5 770.003 441.82C769.456 442.14 769.016 442.613 768.683 443.24C768.363 443.867 768.203 444.627 768.203 445.52C768.203 446.4 768.356 447.153 768.663 447.78C768.983 448.407 769.41 448.88 769.943 449.2C770.476 449.52 771.07 449.68 771.723 449.68C772.39 449.68 773.01 449.52 773.583 449.2C774.17 448.867 774.643 448.387 775.003 447.76C775.363 447.133 775.543 446.387 775.543 445.52C775.543 444.64 775.37 443.887 775.023 443.26C774.69 442.62 774.236 442.14 773.663 441.82C773.103 441.5 772.49 441.34 771.823 441.34ZM781.67 436.2V451H779.85V436.2H781.67ZM786.644 436.2V451H784.824V436.2H786.644ZM789.398 449.84C789.398 449.507 789.511 449.227 789.738 449C789.965 448.773 790.238 448.66 790.558 448.66C790.878 448.66 791.151 448.773 791.378 449C791.605 449.227 791.718 449.507 791.718 449.84C791.718 450.16 791.605 450.433 791.378 450.66C791.151 450.887 790.878 451 790.558 451C790.238 451 789.965 450.887 789.738 450.66C789.511 450.433 789.398 450.16 789.398 449.84Z" fill="white" fill-opacity="0.9"></path><rect x="419.979" y="484" width="602" height="86" rx="15" fill="url(#paint6_linear_2702_2189)" fill-opacity="0.06"></rect><rect x="419.979" y="484" width="602" height="86" rx="15" stroke="url(#paint7_linear_2702_2189)" stroke-width="2"></rect><path d="M480.416 525.837C478.561 532.874 476.708 539.912 474.857 546.952C474.809 547.229 474.67 547.481 474.463 547.666C474.255 547.85 473.993 547.956 473.719 547.966C472.287 548.014 470.851 547.978 469.418 547.985C469.164 548.02 468.906 547.957 468.694 547.809C468.482 547.66 468.332 547.435 468.271 547.179C466.989 542.34 465.731 537.492 464.461 532.649C464.048 530.954 463.767 529.227 463.622 527.485C463.453 529.041 463.201 530.585 462.869 532.112C461.568 537.099 460.264 542.086 458.956 547.074C458.809 547.882 457.911 548.043 457.243 547.991C455.911 547.966 454.578 548.023 453.247 547.966C453.022 547.959 452.806 547.872 452.637 547.718C452.468 547.565 452.357 547.356 452.322 547.127C450.452 540.118 448.583 533.109 446.716 526.099C446.667 525.792 446.644 525.482 446.645 525.172C446.733 525.031 446.851 524.912 446.991 524.827C447.132 524.742 447.29 524.692 447.452 524.681C448.479 524.671 449.509 524.648 450.536 524.697C450.781 524.722 451.011 524.833 451.185 525.013C451.36 525.192 451.468 525.429 451.492 525.681C452.501 529.903 453.493 534.13 454.498 538.353C454.793 539.657 455.152 540.948 455.344 542.274C455.543 543.466 455.582 544.675 455.77 545.869C455.989 544.157 456.302 542.46 456.709 540.786C458.023 535.746 459.338 530.707 460.653 525.668C460.711 525.389 460.86 525.139 461.077 524.96C461.293 524.781 461.562 524.684 461.84 524.685C462.983 524.656 464.128 524.676 465.271 524.676C465.581 524.649 465.891 524.732 466.149 524.911C466.407 525.09 466.597 525.355 466.688 525.661C467.67 529.335 468.647 533.012 469.618 536.692C470.315 539.047 470.885 541.439 471.324 543.859C471.417 544.532 471.508 545.206 471.643 545.874C472.138 542.058 472.846 538.274 473.762 534.541C474.415 531.55 475.052 528.556 475.712 525.565C475.786 525.288 475.953 525.046 476.184 524.884C476.415 524.721 476.694 524.649 476.972 524.679C477.897 524.674 478.823 524.646 479.746 524.695C479.872 524.706 479.993 524.748 480.101 524.817C480.208 524.885 480.298 524.979 480.363 525.091C480.428 525.202 480.467 525.327 480.476 525.457C480.486 525.587 480.465 525.717 480.416 525.837Z" fill="#005CB9"></path><path d="M453.21 507.896C450.196 509.887 447.943 512.696 446.768 515.926C446.567 516.482 446.614 517.089 446.901 517.613C447.188 518.137 447.69 518.536 448.297 518.721C448.904 518.906 449.567 518.862 450.139 518.599C450.711 518.337 451.146 517.877 451.348 517.32C452.202 514.972 453.841 512.929 456.034 511.481C458.226 510.034 460.86 509.255 463.562 509.255C466.264 509.255 468.898 510.034 471.09 511.481C473.282 512.929 474.922 514.972 475.776 517.32C475.876 517.596 476.034 517.851 476.242 518.07C476.449 518.289 476.702 518.469 476.985 518.599C477.268 518.729 477.577 518.807 477.893 518.828C478.209 518.849 478.526 518.812 478.827 518.721C479.128 518.629 479.406 518.484 479.645 518.294C479.885 518.104 480.081 517.873 480.223 517.613C480.365 517.354 480.45 517.071 480.472 516.782C480.495 516.492 480.455 516.201 480.355 515.926C479.181 512.696 476.928 509.887 473.913 507.896C470.899 505.905 467.278 504.833 463.562 504.833C459.846 504.833 456.225 505.905 453.21 507.896Z" fill="#F38B00"></path><path d="M518.099 507.14L513.899 521H511.859L508.739 509.8L505.399 521L503.379 521.02L499.459 507.14H501.379L504.459 518.92L507.819 507.14H509.819L512.919 518.88L516.179 507.14H518.099ZM525.078 509.84C526.118 509.84 527.058 510.073 527.898 510.54C528.738 511.007 529.398 511.673 529.878 512.54C530.371 513.407 530.618 514.4 530.618 515.52C530.618 516.627 530.365 517.613 529.858 518.48C529.351 519.333 528.665 520 527.798 520.48C526.931 520.947 525.971 521.18 524.918 521.18C523.891 521.18 522.965 520.947 522.138 520.48C521.325 520.013 520.685 519.353 520.218 518.5C519.765 517.633 519.538 516.64 519.538 515.52C519.538 514.387 519.778 513.393 520.258 512.54C520.751 511.673 521.418 511.007 522.258 510.54C523.098 510.073 524.038 509.84 525.078 509.84ZM525.018 511.34C524.351 511.34 523.745 511.5 523.198 511.82C522.651 512.14 522.211 512.613 521.878 513.24C521.558 513.867 521.398 514.627 521.398 515.52C521.398 516.4 521.551 517.153 521.858 517.78C522.178 518.407 522.605 518.88 523.138 519.2C523.671 519.52 524.265 519.68 524.918 519.68C525.585 519.68 526.205 519.52 526.778 519.2C527.365 518.867 527.838 518.387 528.198 517.76C528.558 517.133 528.738 516.387 528.738 515.52C528.738 514.64 528.565 513.887 528.218 513.26C527.885 512.62 527.431 512.14 526.858 511.82C526.298 511.5 525.685 511.34 525.018 511.34ZM534.885 511.88C535.538 510.52 536.651 509.84 538.225 509.84V511.74H537.745C536.811 511.74 536.098 511.987 535.605 512.48C535.125 512.96 534.885 513.8 534.885 515V521H533.065V510.02H534.885V511.88ZM543.998 515.48L549.178 521H546.718L542.418 516.18V521H540.598V506.2H542.418V514.88L546.618 510.02H549.178L543.998 515.48ZM555.542 509.84C556.475 509.84 557.288 510.06 557.982 510.5C558.688 510.94 559.222 511.513 559.582 512.22V506.2H561.422V521H559.582V518.76C559.222 519.48 558.688 520.067 557.982 520.52C557.288 520.96 556.475 521.18 555.542 521.18C554.555 521.18 553.662 520.94 552.862 520.46C552.075 519.967 551.448 519.287 550.982 518.42C550.528 517.54 550.302 516.547 550.302 515.44C550.302 514.333 550.528 513.36 550.982 512.52C551.448 511.667 552.075 511.007 552.862 510.54C553.662 510.073 554.555 509.84 555.542 509.84ZM555.862 511.42C555.208 511.42 554.595 511.58 554.022 511.9C553.462 512.22 553.008 512.687 552.662 513.3C552.328 513.9 552.162 514.613 552.162 515.44C552.162 516.267 552.328 517 552.662 517.64C553.008 518.267 553.462 518.753 554.022 519.1C554.595 519.447 555.208 519.62 555.862 519.62C556.528 519.62 557.142 519.453 557.702 519.12C558.275 518.787 558.728 518.313 559.062 517.7C559.408 517.073 559.582 516.347 559.582 515.52C559.582 514.693 559.408 513.973 559.062 513.36C558.728 512.733 558.275 512.253 557.702 511.92C557.142 511.587 556.528 511.42 555.862 511.42ZM569.11 509.84C570.044 509.84 570.857 510.06 571.55 510.5C572.257 510.94 572.79 511.513 573.15 512.22V510.02H574.99V521H573.15V518.76C572.79 519.48 572.257 520.067 571.55 520.52C570.857 520.96 570.044 521.18 569.11 521.18C568.124 521.18 567.23 520.94 566.43 520.46C565.644 519.967 565.017 519.287 564.55 518.42C564.097 517.54 563.87 516.547 563.87 515.44C563.87 514.333 564.097 513.36 564.55 512.52C565.017 511.667 565.644 511.007 566.43 510.54C567.23 510.073 568.124 509.84 569.11 509.84ZM569.43 511.42C568.777 511.42 568.164 511.58 567.59 511.9C567.03 512.22 566.577 512.687 566.23 513.3C565.897 513.9 565.73 514.613 565.73 515.44C565.73 516.267 565.897 517 566.23 517.64C566.577 518.267 567.03 518.753 567.59 519.1C568.164 519.447 568.777 519.62 569.43 519.62C570.097 519.62 570.71 519.453 571.27 519.12C571.844 518.787 572.297 518.313 572.63 517.7C572.977 517.073 573.15 516.347 573.15 515.52C573.15 514.693 572.977 513.973 572.63 513.36C572.297 512.733 571.844 512.253 571.27 511.92C570.71 511.587 570.097 511.42 569.43 511.42ZM578.899 510.02L582.259 518.9L585.679 510.02H587.559L580.939 526.14H579.059L581.239 520.82L576.899 510.02H578.899ZM596.128 514.34C596.128 513.647 596.361 513.067 596.828 512.6C597.308 512.12 597.888 511.88 598.568 511.88C599.261 511.88 599.848 512.12 600.328 512.6C600.808 513.067 601.048 513.647 601.048 514.34C601.048 515.02 600.808 515.6 600.328 516.08C599.848 516.547 599.261 516.78 598.568 516.78C597.888 516.78 597.308 516.547 596.828 516.08C596.361 515.6 596.128 515.02 596.128 514.34ZM612.709 515.28V521H610.889V507.14H615.389C616.429 507.14 617.309 507.32 618.029 507.68C618.749 508.027 619.289 508.513 619.649 509.14C620.009 509.753 620.189 510.447 620.189 511.22C620.189 512.393 619.789 513.367 618.989 514.14C618.203 514.9 617.003 515.28 615.389 515.28H612.709ZM615.389 513.84C616.389 513.84 617.129 513.613 617.609 513.16C618.103 512.693 618.349 512.047 618.349 511.22C618.349 510.393 618.109 509.753 617.629 509.3C617.149 508.833 616.403 508.6 615.389 508.6H612.709V513.84H615.389ZM627.142 509.84C628.075 509.84 628.889 510.06 629.582 510.5C630.289 510.94 630.822 511.513 631.182 512.22V510.02H633.022V521H631.182V518.76C630.822 519.48 630.289 520.067 629.582 520.52C628.889 520.96 628.075 521.18 627.142 521.18C626.155 521.18 625.262 520.94 624.462 520.46C623.675 519.967 623.049 519.287 622.582 518.42C622.129 517.54 621.902 516.547 621.902 515.44C621.902 514.333 622.129 513.36 622.582 512.52C623.049 511.667 623.675 511.007 624.462 510.54C625.262 510.073 626.155 509.84 627.142 509.84ZM627.462 511.42C626.809 511.42 626.195 511.58 625.622 511.9C625.062 512.22 624.609 512.687 624.262 513.3C623.929 513.9 623.762 514.613 623.762 515.44C623.762 516.267 623.929 517 624.262 517.64C624.609 518.267 625.062 518.753 625.622 519.1C626.195 519.447 626.809 519.62 627.462 519.62C628.129 519.62 628.742 519.453 629.302 519.12C629.875 518.787 630.329 518.313 630.662 517.7C631.009 517.073 631.182 516.347 631.182 515.52C631.182 514.693 631.009 513.973 630.662 513.36C630.329 512.733 629.875 512.253 629.302 511.92C628.742 511.587 628.129 511.42 627.462 511.42ZM636.93 510.02L640.29 518.9L643.71 510.02H645.59L638.97 526.14H637.09L639.27 520.82L634.93 510.02H636.93ZM649.313 511.88C649.967 510.52 651.08 509.84 652.653 509.84V511.74H652.173C651.24 511.74 650.527 511.987 650.033 512.48C649.553 512.96 649.313 513.8 649.313 515V521H647.493V510.02H649.313V511.88ZM659.846 509.84C660.886 509.84 661.826 510.073 662.666 510.54C663.506 511.007 664.166 511.673 664.646 512.54C665.14 513.407 665.386 514.4 665.386 515.52C665.386 516.627 665.133 517.613 664.626 518.48C664.12 519.333 663.433 520 662.566 520.48C661.7 520.947 660.74 521.18 659.686 521.18C658.66 521.18 657.733 520.947 656.906 520.48C656.093 520.013 655.453 519.353 654.986 518.5C654.533 517.633 654.306 516.64 654.306 515.52C654.306 514.387 654.546 513.393 655.026 512.54C655.52 511.673 656.186 511.007 657.026 510.54C657.866 510.073 658.806 509.84 659.846 509.84ZM659.786 511.34C659.12 511.34 658.513 511.5 657.966 511.82C657.42 512.14 656.98 512.613 656.646 513.24C656.326 513.867 656.166 514.627 656.166 515.52C656.166 516.4 656.32 517.153 656.626 517.78C656.946 518.407 657.373 518.88 657.906 519.2C658.44 519.52 659.033 519.68 659.686 519.68C660.353 519.68 660.973 519.52 661.546 519.2C662.133 518.867 662.606 518.387 662.966 517.76C663.326 517.133 663.506 516.387 663.506 515.52C663.506 514.64 663.333 513.887 662.986 513.26C662.653 512.62 662.2 512.14 661.626 511.82C661.066 511.5 660.453 511.34 659.786 511.34ZM669.653 506.2V521H667.833V506.2H669.653ZM674.647 506.2V521H672.827V506.2H674.647Z" fill="white" fill-opacity="0.87"></path><path d="M510.227 537.184H512.019L509.283 546H507.363L505.587 539.488L503.811 546H501.891L499.139 537.184H500.995L502.835 544.272L504.707 537.184H506.611L508.403 544.24L510.227 537.184ZM519.51 543.808C520.043 543.275 520.31 542.533 520.31 541.584C520.31 540.635 520.048 539.899 519.526 539.376C519.014 538.843 518.39 538.576 517.654 538.576C516.918 538.576 516.299 538.843 515.798 539.376C515.296 539.899 515.046 540.64 515.046 541.6C515.046 542.549 515.291 543.291 515.782 543.824C516.272 544.347 516.88 544.608 517.606 544.608C518.342 544.608 518.976 544.341 519.51 543.808ZM517.606 546.144C516.326 546.144 515.27 545.728 514.438 544.896C513.606 544.053 513.19 542.955 513.19 541.6C513.19 540.235 513.616 539.136 514.47 538.304C515.334 537.461 516.406 537.04 517.686 537.04C518.966 537.04 520.032 537.461 520.886 538.304C521.75 539.136 522.182 540.229 522.182 541.584C522.182 542.939 521.739 544.037 520.854 544.88C519.979 545.723 518.896 546.144 517.606 546.144ZM526.209 537.184V538.72C526.774 537.6 527.654 537.04 528.849 537.04V538.928H528.385C527.67 538.928 527.126 539.109 526.753 539.472C526.39 539.835 526.209 540.464 526.209 541.36V546H524.385V537.184H526.209ZM532.749 546H530.925V534.16H532.749V541.04L535.949 537.184H538.477L534.413 541.6L538.477 546H536.013L532.749 542.208V546ZM545.993 543.76C546.526 543.216 546.793 542.491 546.793 541.584C546.793 540.677 546.526 539.957 545.993 539.424C545.47 538.891 544.846 538.624 544.121 538.624C543.395 538.624 542.766 538.885 542.233 539.408C541.71 539.931 541.449 540.645 541.449 541.552C541.449 542.459 541.71 543.189 542.233 543.744C542.766 544.288 543.395 544.56 544.121 544.56C544.846 544.56 545.47 544.293 545.993 543.76ZM543.737 546.144C542.563 546.144 541.577 545.717 540.777 544.864C539.977 544 539.577 542.901 539.577 541.568C539.577 540.224 539.971 539.136 540.761 538.304C541.561 537.461 542.553 537.04 543.737 537.04C544.43 537.04 545.038 537.2 545.561 537.52C546.094 537.829 546.505 538.24 546.793 538.752V534.16H548.633V546H546.793V544.352C546.494 544.896 546.083 545.333 545.561 545.664C545.038 545.984 544.43 546.144 543.737 546.144ZM557.237 543.76C557.77 543.216 558.037 542.491 558.037 541.584C558.037 540.677 557.77 539.957 557.237 539.424C556.714 538.891 556.09 538.624 555.365 538.624C554.639 538.624 554.01 538.885 553.477 539.408C552.954 539.931 552.693 540.645 552.693 541.552C552.693 542.459 552.954 543.189 553.477 543.744C554.01 544.288 554.639 544.56 555.365 544.56C556.09 544.56 556.714 544.293 557.237 543.76ZM554.981 546.144C553.807 546.144 552.821 545.717 552.021 544.864C551.221 544 550.821 542.901 550.821 541.568C550.821 540.224 551.215 539.136 552.005 538.304C552.805 537.461 553.797 537.04 554.981 537.04C555.674 537.04 556.282 537.2 556.805 537.52C557.338 537.829 557.749 538.24 558.037 538.752V537.184H559.877V546H558.037V544.352C557.738 544.896 557.327 545.333 556.805 545.664C556.282 545.984 555.674 546.144 554.981 546.144ZM565.104 545.856L561.632 537.184H563.664L566.144 543.904L568.72 537.184H570.608L565.2 550.144H563.312L565.104 545.856ZM573.841 545.696C573.627 545.899 573.366 546 573.057 546C572.747 546 572.486 545.893 572.273 545.68C572.07 545.467 571.969 545.211 571.969 544.912C571.969 544.603 572.07 544.341 572.273 544.128C572.486 543.915 572.747 543.808 573.057 543.808C573.366 543.808 573.627 543.915 573.841 544.128C574.054 544.341 574.161 544.603 574.161 544.912C574.161 545.221 574.054 545.483 573.841 545.696ZM580.262 546.144C578.982 546.144 577.942 545.728 577.142 544.896C576.342 544.064 575.942 542.965 575.942 541.6C575.942 540.224 576.342 539.12 577.142 538.288C577.953 537.456 578.993 537.04 580.262 537.04C581.329 537.04 582.209 537.296 582.902 537.808C583.606 538.309 584.081 539.029 584.326 539.968H582.358C582.028 539.04 581.329 538.576 580.262 538.576C579.516 538.576 578.918 538.843 578.47 539.376C578.033 539.899 577.814 540.635 577.814 541.584C577.814 542.533 578.033 543.275 578.47 543.808C578.918 544.341 579.516 544.608 580.262 544.608C581.318 544.608 582.017 544.144 582.358 543.216H584.326C584.07 544.112 583.59 544.827 582.886 545.36C582.182 545.883 581.308 546.144 580.262 546.144ZM592.272 543.808C592.805 543.275 593.072 542.533 593.072 541.584C593.072 540.635 592.811 539.899 592.288 539.376C591.776 538.843 591.152 538.576 590.416 538.576C589.68 538.576 589.061 538.843 588.56 539.376C588.059 539.899 587.808 540.64 587.808 541.6C587.808 542.549 588.053 543.291 588.544 543.824C589.035 544.347 589.643 544.608 590.368 544.608C591.104 544.608 591.739 544.341 592.272 543.808ZM590.368 546.144C589.088 546.144 588.032 545.728 587.2 544.896C586.368 544.053 585.952 542.955 585.952 541.6C585.952 540.235 586.379 539.136 587.232 538.304C588.096 537.461 589.168 537.04 590.448 537.04C591.728 537.04 592.795 537.461 593.648 538.304C594.512 539.136 594.944 540.229 594.944 541.584C594.944 542.939 594.501 544.037 593.616 544.88C592.741 545.723 591.659 546.144 590.368 546.144ZM598.971 537.184V538.576C599.558 537.552 600.497 537.04 601.787 537.04C602.47 537.04 603.078 537.2 603.611 537.52C604.145 537.84 604.55 538.304 604.827 538.912C605.137 538.325 605.563 537.867 606.107 537.536C606.662 537.205 607.286 537.04 607.979 537.04C608.993 537.04 609.825 537.371 610.475 538.032C611.126 538.683 611.451 539.605 611.451 540.8V546H609.627V541.072C609.627 540.283 609.43 539.68 609.035 539.264C608.641 538.837 608.102 538.624 607.419 538.624C606.737 538.624 606.198 538.837 605.803 539.264C605.409 539.68 605.211 540.283 605.211 541.072V546H603.403V541.072C603.403 540.283 603.206 539.68 602.811 539.264C602.417 538.837 601.878 538.624 601.195 538.624C600.513 538.624 599.969 538.837 599.563 539.264C599.169 539.68 598.971 540.283 598.971 541.072V546H597.147V537.184H598.971ZM613.948 548.8L618.284 530.896H620.092L615.74 548.8H613.948ZM629.175 543.744C629.708 543.189 629.975 542.459 629.975 541.552C629.975 540.645 629.708 539.931 629.175 539.408C628.652 538.885 628.023 538.624 627.287 538.624C626.562 538.624 625.932 538.891 625.399 539.424C624.876 539.957 624.615 540.677 624.615 541.584C624.615 542.491 624.876 543.216 625.399 543.76C625.932 544.293 626.562 544.56 627.287 544.56C628.012 544.56 628.642 544.288 629.175 543.744ZM627.687 537.04C628.871 537.04 629.858 537.461 630.647 538.304C631.436 539.136 631.831 540.224 631.831 541.568C631.831 542.901 631.431 544 630.631 544.864C629.842 545.717 628.86 546.144 627.687 546.144C626.994 546.144 626.386 545.984 625.863 545.664C625.34 545.333 624.924 544.896 624.615 544.352V550.192H622.791V537.184H624.615V538.752C624.914 538.24 625.324 537.829 625.847 537.52C626.38 537.2 626.994 537.04 627.687 537.04ZM639.843 543.76C640.376 543.216 640.643 542.491 640.643 541.584C640.643 540.677 640.376 539.957 639.843 539.424C639.32 538.891 638.696 538.624 637.971 538.624C637.245 538.624 636.616 538.885 636.083 539.408C635.56 539.931 635.299 540.645 635.299 541.552C635.299 542.459 635.56 543.189 636.083 543.744C636.616 544.288 637.245 544.56 637.971 544.56C638.696 544.56 639.32 544.293 639.843 543.76ZM637.587 546.144C636.413 546.144 635.427 545.717 634.627 544.864C633.827 544 633.427 542.901 633.427 541.568C633.427 540.224 633.821 539.136 634.611 538.304C635.411 537.461 636.403 537.04 637.587 537.04C638.28 537.04 638.888 537.2 639.411 537.52C639.944 537.829 640.355 538.24 640.643 538.752V537.184H642.483V546H640.643V544.352C640.344 544.896 639.933 545.333 639.411 545.664C638.888 545.984 638.28 546.144 637.587 546.144ZM647.711 545.856L644.239 537.184H646.271L648.751 543.904L651.327 537.184H653.215L647.807 550.144H645.919L647.711 545.856ZM656.815 537.184V538.72C657.38 537.6 658.26 537.04 659.455 537.04V538.928H658.991C658.276 538.928 657.732 539.109 657.359 539.472C656.996 539.835 656.815 540.464 656.815 541.36V546H654.991V537.184H656.815ZM667.26 543.808C667.793 543.275 668.06 542.533 668.06 541.584C668.06 540.635 667.798 539.899 667.276 539.376C666.764 538.843 666.14 538.576 665.404 538.576C664.668 538.576 664.049 538.843 663.548 539.376C663.046 539.899 662.796 540.64 662.796 541.6C662.796 542.549 663.041 543.291 663.532 543.824C664.022 544.347 664.63 544.608 665.356 544.608C666.092 544.608 666.726 544.341 667.26 543.808ZM665.356 546.144C664.076 546.144 663.02 545.728 662.188 544.896C661.356 544.053 660.94 542.955 660.94 541.6C660.94 540.235 661.366 539.136 662.22 538.304C663.084 537.461 664.156 537.04 665.436 537.04C666.716 537.04 667.782 537.461 668.636 538.304C669.5 539.136 669.932 540.229 669.932 541.584C669.932 542.939 669.489 544.037 668.604 544.88C667.729 545.723 666.646 546.144 665.356 546.144ZM672.135 546V534.16H673.959V546H672.135ZM676.754 546V534.16H678.578V546H676.754ZM681.148 548.8L685.484 530.896H687.292L682.94 548.8H681.148ZM693.703 546.144C692.423 546.144 691.383 545.728 690.583 544.896C689.783 544.064 689.383 542.96 689.383 541.584C689.383 540.208 689.788 539.109 690.599 538.288C691.41 537.456 692.455 537.04 693.735 537.04C695.026 537.04 696.071 537.44 696.871 538.24C697.671 539.029 698.071 540.064 698.071 541.344C698.071 541.653 698.05 541.941 698.007 542.208H691.255C691.298 542.944 691.543 543.531 691.991 543.968C692.45 544.395 693.02 544.608 693.703 544.608C694.695 544.608 695.394 544.197 695.799 543.376H697.767C697.5 544.187 697.015 544.853 696.311 545.376C695.607 545.888 694.738 546.144 693.703 546.144ZM696.167 540.96C696.156 540.235 695.916 539.659 695.447 539.232C694.978 538.795 694.407 538.576 693.735 538.576C693.063 538.576 692.498 538.795 692.039 539.232C691.591 539.659 691.335 540.235 691.271 540.96H696.167ZM702.09 537.184V538.576C702.677 537.552 703.615 537.04 704.906 537.04C705.589 537.04 706.197 537.2 706.73 537.52C707.263 537.84 707.669 538.304 707.946 538.912C708.255 538.325 708.682 537.867 709.226 537.536C709.781 537.205 710.405 537.04 711.098 537.04C712.111 537.04 712.943 537.371 713.594 538.032C714.245 538.683 714.57 539.605 714.57 540.8V546H712.746V541.072C712.746 540.283 712.549 539.68 712.154 539.264C711.759 538.837 711.221 538.624 710.538 538.624C709.855 538.624 709.317 538.837 708.922 539.264C708.527 539.68 708.33 540.283 708.33 541.072V546H706.522V541.072C706.522 540.283 706.325 539.68 705.93 539.264C705.535 538.837 704.997 538.624 704.314 538.624C703.631 538.624 703.087 538.837 702.682 539.264C702.287 539.68 702.09 540.283 702.09 541.072V546H700.266V537.184H702.09ZM723.675 543.744C724.208 543.189 724.475 542.459 724.475 541.552C724.475 540.645 724.208 539.931 723.675 539.408C723.152 538.885 722.523 538.624 721.787 538.624C721.062 538.624 720.432 538.891 719.899 539.424C719.376 539.957 719.115 540.677 719.115 541.584C719.115 542.491 719.376 543.216 719.899 543.76C720.432 544.293 721.062 544.56 721.787 544.56C722.512 544.56 723.142 544.288 723.675 543.744ZM722.187 537.04C723.371 537.04 724.358 537.461 725.147 538.304C725.936 539.136 726.331 540.224 726.331 541.568C726.331 542.901 725.931 544 725.131 544.864C724.342 545.717 723.36 546.144 722.187 546.144C721.494 546.144 720.886 545.984 720.363 545.664C719.84 545.333 719.424 544.896 719.115 544.352V550.192H717.291V537.184H719.115V538.752C719.414 538.24 719.824 537.829 720.347 537.52C720.88 537.2 721.494 537.04 722.187 537.04ZM728.535 546V534.16H730.359V546H728.535ZM735.586 545.856L732.114 537.184H734.146L736.626 543.904L739.202 537.184H741.09L735.682 550.144H733.794L735.586 545.856ZM746.578 546.144C745.298 546.144 744.258 545.728 743.458 544.896C742.658 544.064 742.258 542.96 742.258 541.584C742.258 540.208 742.663 539.109 743.474 538.288C744.285 537.456 745.33 537.04 746.61 537.04C747.901 537.04 748.946 537.44 749.746 538.24C750.546 539.029 750.946 540.064 750.946 541.344C750.946 541.653 750.925 541.941 750.882 542.208H744.13C744.173 542.944 744.418 543.531 744.866 543.968C745.325 544.395 745.895 544.608 746.578 544.608C747.57 544.608 748.269 544.197 748.674 543.376H750.642C750.375 544.187 749.89 544.853 749.186 545.376C748.482 545.888 747.613 546.144 746.578 546.144ZM749.042 540.96C749.031 540.235 748.791 539.659 748.322 539.232C747.853 538.795 747.282 538.576 746.61 538.576C745.938 538.576 745.373 538.795 744.914 539.232C744.466 539.659 744.21 540.235 744.146 540.96H749.042ZM756.853 546.144C755.573 546.144 754.533 545.728 753.733 544.896C752.933 544.064 752.533 542.96 752.533 541.584C752.533 540.208 752.938 539.109 753.749 538.288C754.56 537.456 755.605 537.04 756.885 537.04C758.176 537.04 759.221 537.44 760.021 538.24C760.821 539.029 761.221 540.064 761.221 541.344C761.221 541.653 761.2 541.941 761.157 542.208H754.405C754.448 542.944 754.693 543.531 755.141 543.968C755.6 544.395 756.17 544.608 756.853 544.608C757.845 544.608 758.544 544.197 758.949 543.376H760.917C760.65 544.187 760.165 544.853 759.461 545.376C758.757 545.888 757.888 546.144 756.853 546.144ZM759.317 540.96C759.306 540.235 759.066 539.659 758.597 539.232C758.128 538.795 757.557 538.576 756.885 538.576C756.213 538.576 755.648 538.795 755.189 539.232C754.741 539.659 754.485 540.235 754.421 540.96H759.317ZM767.128 546.144C765.848 546.144 764.808 545.728 764.008 544.896C763.208 544.064 762.808 542.965 762.808 541.6C762.808 540.224 763.208 539.12 764.008 538.288C764.819 537.456 765.859 537.04 767.128 537.04C768.195 537.04 769.075 537.296 769.768 537.808C770.472 538.309 770.947 539.029 771.192 539.968H769.224C768.893 539.04 768.195 538.576 767.128 538.576C766.381 538.576 765.784 538.843 765.336 539.376C764.899 539.899 764.68 540.635 764.68 541.584C764.68 542.533 764.899 543.275 765.336 543.808C765.784 544.341 766.381 544.608 767.128 544.608C768.184 544.608 768.883 544.144 769.224 543.216H771.192C770.936 544.112 770.456 544.827 769.752 545.36C769.048 545.883 768.173 546.144 767.128 546.144ZM779.138 543.808C779.671 543.275 779.938 542.533 779.938 541.584C779.938 540.635 779.676 539.899 779.154 539.376C778.642 538.843 778.018 538.576 777.282 538.576C776.546 538.576 775.927 538.843 775.426 539.376C774.924 539.899 774.674 540.64 774.674 541.6C774.674 542.549 774.919 543.291 775.41 543.824C775.9 544.347 776.508 544.608 777.234 544.608C777.97 544.608 778.604 544.341 779.138 543.808ZM777.234 546.144C775.954 546.144 774.898 545.728 774.066 544.896C773.234 544.053 772.818 542.955 772.818 541.6C772.818 540.235 773.244 539.136 774.098 538.304C774.962 537.461 776.034 537.04 777.314 537.04C778.594 537.04 779.66 537.461 780.514 538.304C781.378 539.136 781.81 540.229 781.81 541.584C781.81 542.939 781.367 544.037 780.482 544.88C779.607 545.723 778.524 546.144 777.234 546.144ZM785.837 537.184V538.576C786.424 537.552 787.362 537.04 788.653 537.04C789.336 537.04 789.944 537.2 790.477 537.52C791.01 537.84 791.416 538.304 791.693 538.912C792.002 538.325 792.429 537.867 792.973 537.536C793.528 537.205 794.152 537.04 794.845 537.04C795.858 537.04 796.69 537.371 797.341 538.032C797.992 538.683 798.317 539.605 798.317 540.8V546H796.493V541.072C796.493 540.283 796.296 539.68 795.901 539.264C795.506 538.837 794.968 538.624 794.285 538.624C793.602 538.624 793.064 538.837 792.669 539.264C792.274 539.68 792.077 540.283 792.077 541.072V546H790.269V541.072C790.269 540.283 790.072 539.68 789.677 539.264C789.282 538.837 788.744 538.624 788.061 538.624C787.378 538.624 786.834 538.837 786.429 539.264C786.034 539.68 785.837 540.283 785.837 541.072V546H784.013V537.184H785.837ZM807.422 543.744C807.955 543.189 808.222 542.459 808.222 541.552C808.222 540.645 807.955 539.931 807.422 539.408C806.899 538.885 806.27 538.624 805.534 538.624C804.809 538.624 804.179 538.891 803.646 539.424C803.123 539.957 802.862 540.677 802.862 541.584C802.862 542.491 803.123 543.216 803.646 543.76C804.179 544.293 804.809 544.56 805.534 544.56C806.259 544.56 806.889 544.288 807.422 543.744ZM805.934 537.04C807.118 537.04 808.105 537.461 808.894 538.304C809.683 539.136 810.078 540.224 810.078 541.568C810.078 542.901 809.678 544 808.878 544.864C808.089 545.717 807.107 546.144 805.934 546.144C805.241 546.144 804.633 545.984 804.11 545.664C803.587 545.333 803.171 544.896 802.862 544.352V550.192H801.038V537.184H802.862V538.752C803.161 538.24 803.571 537.829 804.094 537.52C804.627 537.2 805.241 537.04 805.934 537.04ZM815.994 546.144C814.714 546.144 813.674 545.728 812.874 544.896C812.074 544.064 811.674 542.96 811.674 541.584C811.674 540.208 812.079 539.109 812.89 538.288C813.7 537.456 814.746 537.04 816.026 537.04C817.316 537.04 818.362 537.44 819.162 538.24C819.962 539.029 820.362 540.064 820.362 541.344C820.362 541.653 820.34 541.941 820.298 542.208H813.546C813.588 542.944 813.834 543.531 814.282 543.968C814.74 544.395 815.311 544.608 815.994 544.608C816.986 544.608 817.684 544.197 818.09 543.376H820.058C819.791 544.187 819.306 544.853 818.602 545.376C817.898 545.888 817.028 546.144 815.994 546.144ZM818.458 540.96C818.447 540.235 818.207 539.659 817.738 539.232C817.268 538.795 816.698 538.576 816.026 538.576C815.354 538.576 814.788 538.795 814.33 539.232C813.882 539.659 813.626 540.235 813.562 540.96H818.458ZM824.381 537.184V538.576C824.967 537.552 825.906 537.04 827.197 537.04C828.189 537.04 829.005 537.371 829.645 538.032C830.295 538.693 830.621 539.616 830.621 540.8V546H828.813V541.072C828.813 540.283 828.615 539.68 828.221 539.264C827.826 538.837 827.287 538.624 826.605 538.624C825.922 538.624 825.378 538.837 824.973 539.264C824.578 539.68 824.381 540.283 824.381 541.072V546H822.557V537.184H824.381ZM832.947 539.712C832.947 538.965 833.262 538.336 833.891 537.824C834.521 537.301 835.347 537.04 836.371 537.04C837.395 537.04 838.206 537.296 838.803 537.808C839.411 538.309 839.737 538.997 839.779 539.872H837.907C837.875 539.435 837.721 539.093 837.443 538.848C837.177 538.603 836.798 538.48 836.307 538.48C835.817 538.48 835.433 538.592 835.155 538.816C834.878 539.029 834.739 539.317 834.739 539.68C834.739 540.032 834.915 540.309 835.267 540.512C835.619 540.715 836.046 540.864 836.547 540.96C837.059 541.056 837.566 541.173 838.067 541.312C838.579 541.451 839.011 541.707 839.363 542.08C839.715 542.443 839.891 542.933 839.891 543.552C839.891 544.32 839.566 544.944 838.915 545.424C838.275 545.904 837.449 546.144 836.435 546.144C835.422 546.144 834.601 545.899 833.971 545.408C833.342 544.917 832.995 544.219 832.931 543.312H834.819C834.851 543.749 835.011 544.091 835.299 544.336C835.587 544.581 835.977 544.704 836.467 544.704C836.969 544.704 837.363 544.597 837.651 544.384C837.95 544.16 838.099 543.867 838.099 543.504C838.099 543.141 837.923 542.859 837.571 542.656C837.219 542.453 836.787 542.304 836.275 542.208C835.774 542.101 835.267 541.984 834.755 541.856C834.254 541.717 833.827 541.472 833.475 541.12C833.123 540.768 832.947 540.299 832.947 539.712ZM848.102 543.76C848.635 543.216 848.902 542.491 848.902 541.584C848.902 540.677 848.635 539.957 848.102 539.424C847.579 538.891 846.955 538.624 846.23 538.624C845.505 538.624 844.875 538.885 844.342 539.408C843.819 539.931 843.558 540.645 843.558 541.552C843.558 542.459 843.819 543.189 844.342 543.744C844.875 544.288 845.505 544.56 846.23 544.56C846.955 544.56 847.579 544.293 848.102 543.76ZM845.846 546.144C844.673 546.144 843.686 545.717 842.886 544.864C842.086 544 841.686 542.901 841.686 541.568C841.686 540.224 842.081 539.136 842.87 538.304C843.67 537.461 844.662 537.04 845.846 537.04C846.539 537.04 847.147 537.2 847.67 537.52C848.203 537.829 848.614 538.24 848.902 538.752V537.184H850.742V546H848.902V544.352C848.603 544.896 848.193 545.333 847.67 545.664C847.147 545.984 846.539 546.144 845.846 546.144ZM857.81 538.672H855.666V543.552C855.666 543.883 855.741 544.123 855.89 544.272C856.05 544.411 856.317 544.48 856.69 544.48H857.81V546H856.37C854.674 546 853.826 545.184 853.826 543.552V538.672H852.786V537.184H853.826V534.992H855.666V537.184H857.81V538.672ZM861.971 534.848C861.971 535.179 861.859 535.456 861.635 535.68C861.411 535.904 861.134 536.016 860.803 536.016C860.483 536.016 860.211 535.904 859.987 535.68C859.763 535.456 859.651 535.179 859.651 534.848C859.651 534.517 859.763 534.24 859.987 534.016C860.211 533.792 860.483 533.68 860.803 533.68C861.134 533.68 861.411 533.792 861.635 534.016C861.859 534.24 861.971 534.517 861.971 534.848ZM859.891 546V537.184H861.715V546H859.891ZM870.238 543.808C870.771 543.275 871.038 542.533 871.038 541.584C871.038 540.635 870.776 539.899 870.254 539.376C869.742 538.843 869.118 538.576 868.382 538.576C867.646 538.576 867.027 538.843 866.526 539.376C866.024 539.899 865.774 540.64 865.774 541.6C865.774 542.549 866.019 543.291 866.51 543.824C867 544.347 867.608 544.608 868.334 544.608C869.07 544.608 869.704 544.341 870.238 543.808ZM868.334 546.144C867.054 546.144 865.998 545.728 865.166 544.896C864.334 544.053 863.918 542.955 863.918 541.6C863.918 540.235 864.344 539.136 865.198 538.304C866.062 537.461 867.134 537.04 868.414 537.04C869.694 537.04 870.76 537.461 871.614 538.304C872.478 539.136 872.91 540.229 872.91 541.584C872.91 542.939 872.467 544.037 871.582 544.88C870.707 545.723 869.624 546.144 868.334 546.144ZM876.937 537.184V538.576C877.524 537.552 878.462 537.04 879.753 537.04C880.745 537.04 881.561 537.371 882.201 538.032C882.852 538.693 883.177 539.616 883.177 540.8V546H881.369V541.072C881.369 540.283 881.172 539.68 880.777 539.264C880.382 538.837 879.844 538.624 879.161 538.624C878.478 538.624 877.934 538.837 877.529 539.264C877.134 539.68 876.937 540.283 876.937 541.072V546H875.113V537.184H876.937Z" fill="white" fill-opacity="0.6"></path></g><g filter="url(#filter3_d_2702_2189)"><rect x="16" y="267" width="144" height="144" rx="16" fill="white" fill-opacity="0.9" shape-rendering="crispEdges"></rect><rect x="17" y="268" width="142" height="142" rx="15" stroke="url(#paint8_linear_2702_2189)" stroke-width="2" shape-rendering="crispEdges"></rect><path d="M127.857 336.341C123.617 352.425 119.382 368.513 115.151 384.605C115.041 385.239 114.722 385.814 114.249 386.236C113.776 386.658 113.176 386.9 112.55 386.922C109.275 387.032 105.994 386.949 102.719 386.967C102.138 387.047 101.548 386.903 101.064 386.563C100.58 386.222 100.235 385.71 100.097 385.124C97.1654 374.063 94.2921 362.983 91.3878 351.913C90.444 348.037 89.8026 344.09 89.4695 340.11C89.0833 343.664 88.5091 347.195 87.7494 350.685C84.7763 362.083 81.7951 373.482 78.8057 384.885C78.4697 386.731 76.417 387.1 74.8899 386.979C71.8443 386.922 68.7988 387.052 65.7565 386.922C65.2416 386.907 64.7483 386.707 64.362 386.357C63.9757 386.006 63.7209 385.528 63.6416 385.005C59.3672 368.984 55.0962 352.963 50.8286 336.94C50.7171 336.24 50.663 335.531 50.6667 334.822C50.866 334.499 51.137 334.228 51.4576 334.033C51.7781 333.838 52.1391 333.724 52.5108 333.7C54.8584 333.677 57.2127 333.624 59.5585 333.736C60.12 333.792 60.645 334.048 61.0436 334.458C61.4422 334.869 61.6898 335.409 61.744 335.986C64.0518 345.635 66.3185 355.298 68.616 364.95C69.2898 367.93 70.1103 370.88 70.5498 373.912C71.0031 376.636 71.0928 379.4 71.5236 382.129C72.0231 378.217 72.7396 374.338 73.6695 370.51C76.6738 358.99 79.6785 347.472 82.6838 335.956C82.8163 335.319 83.1583 334.747 83.6523 334.338C84.1464 333.929 84.7623 333.707 85.3967 333.709C88.0096 333.642 90.6277 333.688 93.2407 333.688C93.9493 333.627 94.6571 333.816 95.2463 334.226C95.8355 334.635 96.2707 335.24 96.4793 335.939C98.7234 344.336 100.955 352.742 103.175 361.154C104.768 366.536 106.071 372.005 107.076 377.534C107.288 379.073 107.495 380.614 107.803 382.142C108.936 373.419 110.553 364.77 112.648 356.237C114.139 349.401 115.597 342.557 117.105 335.72C117.273 335.086 117.656 334.534 118.183 334.163C118.711 333.792 119.35 333.626 119.986 333.695C122.099 333.683 124.215 333.621 126.325 333.731C126.613 333.757 126.891 333.852 127.136 334.01C127.381 334.167 127.587 334.381 127.736 334.636C127.885 334.89 127.974 335.177 127.995 335.473C128.016 335.77 127.969 336.067 127.857 336.341Z" fill="#005CB9"></path><path d="M65.6726 295.333C58.7832 299.883 53.6316 306.305 50.948 313.687C50.4867 314.959 50.5957 316.346 51.2508 317.544C51.906 318.742 53.0538 319.653 54.4418 320.076C55.8297 320.498 57.3441 320.398 58.6518 319.798C59.9594 319.198 60.9533 318.146 61.4147 316.875C63.3677 311.506 67.115 306.837 72.1257 303.528C77.1364 300.219 83.1565 298.439 89.3332 298.439C95.5099 298.439 101.53 300.219 106.541 303.528C111.551 306.837 115.299 311.506 117.252 316.875C117.48 317.504 117.842 318.087 118.316 318.588C118.79 319.09 119.367 319.501 120.015 319.798C120.662 320.095 121.367 320.273 122.09 320.32C122.812 320.368 123.537 320.285 124.225 320.076C124.912 319.866 125.547 319.535 126.095 319.101C126.642 318.666 127.091 318.138 127.416 317.544C127.74 316.951 127.934 316.305 127.986 315.643C128.038 314.982 127.947 314.317 127.718 313.687C125.035 306.305 119.883 299.883 112.994 295.333C106.104 290.782 97.8264 288.333 89.3331 288.333C80.8399 288.333 72.562 290.782 65.6726 295.333Z" fill="#F38B00"></path></g><path d="M88 411L88.0001 542.833C88.0001 599.401 88.0001 627.685 105.574 645.259C123.147 662.833 151.432 662.833 208 662.833L498.833 662.833C517.588 662.833 526.966 662.833 534.656 664.911C555.259 670.48 571.353 686.574 576.921 707.177C579 714.867 579 724.244 579 743V743" stroke="url(#paint9_linear_2702_2189)" stroke-width="2" stroke-linecap="round"></path><defs><filter id="filter0_d_2702_2189" x="78" y="67" width="826.89" height="500" filterUnits="userSpaceOnUse" color-interpolation-filters="sRGB"><feFlood flood-opacity="0" result="BackgroundImageFix"></feFlood><feColorMatrix in="SourceAlpha" type="matrix" values="0 0 0 0 0 0 0 0 0 0 0 0 0 0 0 0 0 0 127 0" result="hardAlpha"></feColorMatrix><feOffset dx="-5" dy="15"></feOffset><feGaussianBlur stdDeviation="20"></feGaussianBlur><feComposite in2="hardAlpha" operator="out"></feComposite><feColorMatrix type="matrix" values="0 0 0 0 0.109509 0 0 0 0 0.370207 0 0 0 0 0.668148 0 0 0 0.1 0"></feColorMatrix><feBlend mode="normal" in2="BackgroundImageFix" result="effect1_dropShadow_2702_2189"></feBlend><feBlend mode="normal" in="SourceGraphic" in2="effect1_dropShadow_2702_2189" result="shape"></feBlend></filter><filter id="filter1_d_2702_2189" x="129.407" y="104.417" width="75.6077" height="76.2773" filterUnits="userSpaceOnUse" color-interpolation-filters="sRGB"><feFlood flood-opacity="0" result="BackgroundImageFix"></feFlood><feColorMatrix in="SourceAlpha" type="matrix" values="0 0 0 0 0 0 0 0 0 0 0 0 0 0 0 0 0 0 127 0" result="hardAlpha"></feColorMatrix><feOffset dy="4"></feOffset><feGaussianBlur stdDeviation="4.5"></feGaussianBlur><feComposite in2="hardAlpha" operator="out"></feComposite><feColorMatrix type="matrix" values="0 0 0 0 0.315266 0 0 0 0 0.61071 0 0 0 0 0.68457 0 0 0 0.25 0"></feColorMatrix><feBlend mode="normal" in2="BackgroundImageFix" result="effect1_dropShadow_2702_2189"></feBlend><feBlend mode="normal" in="SourceGraphic" in2="effect1_dropShadow_2702_2189" result="shape"></feBlend></filter><filter id="filter2_b_2702_2189" x="366.979" y="-20" width="708" height="643" filterUnits="userSpaceOnUse" color-interpolation-filters="sRGB"><feFlood flood-opacity="0" result="BackgroundImageFix"></feFlood><feGaussianBlur in="BackgroundImageFix" stdDeviation="10"></feGaussianBlur><feComposite in2="SourceAlpha" operator="in" result="effect1_backgroundBlur_2702_2189"></feComposite><feBlend mode="normal" in="SourceGraphic" in2="effect1_backgroundBlur_2702_2189" result="shape"></feBlend></filter><filter id="filter3_d_2702_2189" x="0" y="259" width="176" height="176" filterUnits="userSpaceOnUse" color-interpolation-filters="sRGB"><feFlood flood-opacity="0" result="BackgroundImageFix"></feFlood><feColorMatrix in="SourceAlpha" type="matrix" values="0 0 0 0 0 0 0 0 0 0 0 0 0 0 0 0 0 0 127 0" result="hardAlpha"></feColorMatrix><feMorphology radius="4" operator="dilate" in="SourceAlpha" result="effect1_dropShadow_2702_2189"></feMorphology><feOffset dy="8"></feOffset><feGaussianBlur stdDeviation="6"></feGaussianBlur><feComposite in2="hardAlpha" operator="out"></feComposite><feColorMatrix type="matrix" values="0 0 0 0 0.980392 0 0 0 0 0.321569 0 0 0 0 0.701961 0 0 0 0.16 0"></feColorMatrix><feBlend mode="normal" in2="BackgroundImageFix" result="effect1_dropShadow_2702_2189"></feBlend><feBlend mode="normal" in="SourceGraphic" in2="effect1_dropShadow_2702_2189" result="shape"></feBlend></filter><linearGradient id="paint0_linear_2702_2189" x1="869.89" y1="472.925" x2="123" y2="131.075" gradientUnits="userSpaceOnUse"><stop stop-color="#F5F5F5"></stop><stop offset="1" stop-color="white"></stop></linearGradient><linearGradient id="paint1_linear_2702_2189" x1="265.345" y1="418.89" x2="265.345" y2="450.373" gradientUnits="userSpaceOnUse"><stop stop-color="white"></stop><stop offset="1" stop-color="white" stop-opacity="0.5"></stop></linearGradient><linearGradient id="paint2_linear_2702_2189" x1="985.367" y1="8.01543e-06" x2="277.676" y2="255.371" gradientUnits="userSpaceOnUse"><stop offset="0.6" stop-color="#0F0D12"></stop><stop offset="0.896603" stop-color="#0F0D12" stop-opacity="0.8"></stop><stop offset="1" stop-color="#0F0D12" stop-opacity="0.8"></stop></linearGradient><linearGradient id="paint3_linear_2702_2189" x1="423.865" y1="33" x2="451.731" y2="48.2877" gradientUnits="userSpaceOnUse"><stop stop-color="#692ACA"></stop><stop offset="0.615" stop-color="#EF6C00"></stop><stop offset="1" stop-color="#FA52B3"></stop></linearGradient><linearGradient id="paint4_linear_2702_2189" x1="722.224" y1="337" x2="772.75" y2="473.174" gradientUnits="userSpaceOnUse"><stop stop-color="#692ACA"></stop><stop offset="0.615" stop-color="#EF6C00"></stop><stop offset="1" stop-color="#FA52B3"></stop></linearGradient><linearGradient id="paint5_linear_2702_2189" x1="722.224" y1="337" x2="772.75" y2="473.174" gradientUnits="userSpaceOnUse"><stop stop-color="#692ACA"></stop><stop offset="0.615" stop-color="#EF6C00"></stop><stop offset="1" stop-color="#FA52B3"></stop></linearGradient><linearGradient id="paint6_linear_2702_2189" x1="479.099" y1="483" x2="528.827" y2="670.282" gradientUnits="userSpaceOnUse"><stop stop-color="#692ACA"></stop><stop offset="0.615" stop-color="#EF6C00"></stop><stop offset="1" stop-color="#FA52B3"></stop></linearGradient><linearGradient id="paint7_linear_2702_2189" x1="479.099" y1="483" x2="528.827" y2="670.282" gradientUnits="userSpaceOnUse"><stop stop-color="#692ACA"></stop><stop offset="0.615" stop-color="#EF6C00"></stop><stop offset="1" stop-color="#FA52B3"></stop></linearGradient><linearGradient id="paint8_linear_2702_2189" x1="30.3333" y1="267" x2="168.691" y2="342.918" gradientUnits="userSpaceOnUse"><stop stop-color="#692ACA"></stop><stop offset="0.615" stop-color="#EF6C00"></stop><stop offset="1" stop-color="#FA52B3"></stop></linearGradient><linearGradient id="paint9_linear_2702_2189" x1="601.643" y1="758.199" x2="179.016" y2="556.964" gradientUnits="userSpaceOnUse"><stop stop-color="#231137" stop-opacity="0.2"></stop><stop offset="0.28" stop-color="#FF4B1E"></stop><stop offset="1" stop-color="#FC52B3"></stop></linearGradient></defs></svg> 