<?xml version="1.0" encoding="UTF-8"?> <svg xmlns="http://www.w3.org/2000/svg" width="474" height="156" viewBox="0 0 474 156" fill="none"><path d="M333.456 28.1849V47.4901H359.293C359.293 47.4901 359.137 28.1849 359.293 28.1849H371.977V76.4484H359.293V55.2124H333.456V76.448H320.773V28.1853H333.456M212.439 28.1849V36.3894H192.858V76.448H180.017V36.3894H160.597V28.1849H212.439ZM262.033 76.4484H247.749L243.576 65.9912H219.661L215.488 76.448H201.364L223.834 28.1849H239.403L262.033 76.4484ZM231.699 36.3894L222.711 58.2689H240.529L231.699 36.3894ZM382.097 76.4484V28.1844H394.937V76.4484H382.097ZM94.6312 28.1849V47.4901H120.312V28.1849H133.151V76.4484H120.312V55.2124H94.6312V76.448H81.791C81.791 76.448 81.9519 28.1849 81.791 28.1849H94.6312ZM143.263 76.4484V28.1844H155.943V76.4484H143.263ZM261.552 63.0959C260.429 59.717 259.787 56.339 259.787 52.7993C259.787 47.6513 260.75 42.8252 263.157 38.6421C265.565 34.46 269.419 31.2423 274.074 29.4722C278.405 27.8638 283.211 26.8984 288.205 26.8984C293.978 26.8984 299.439 28.1853 304.255 30.2769C308.892 32.3684 312.436 36.5511 313.394 41.5383C313.551 42.5033 313.707 43.4682 313.885 44.5948H300.554C300.398 43.3079 300.242 42.0206 299.752 40.8949C298.793 38.1599 296.542 36.0684 293.822 35.2637C292.039 34.781 290.122 34.4595 288.205 34.4595C285.953 34.4595 283.858 34.781 281.941 35.5857C278.565 36.7113 275.997 39.2856 274.874 42.664C273.751 45.721 273.108 49.2597 273.108 52.7993C273.108 55.6951 273.59 58.5908 274.392 61.1651C275.355 64.7043 277.923 67.6 281.294 68.8874C283.545 69.6915 285.797 70.1742 288.205 70.1742C290.278 70.1742 292.217 69.8528 294.134 69.2088C296.541 68.4047 298.637 66.6346 299.752 64.2216C300.398 62.6132 300.71 60.8431 300.71 59.0735H314.197C314.041 60.5216 313.885 62.1305 313.551 63.5781C312.436 68.4051 309.07 72.4261 304.567 74.1961C299.596 76.4484 293.978 77.5746 288.205 77.5746C283.702 77.5746 279.369 76.9311 275.195 75.6447C269.096 73.713 263.639 69.2088 261.552 63.0959ZM70.3964 89.964L59 90.9271V92.6944H59.4825C63.9752 93.1794 63.9752 93.1794 63.9752 96.5579V120.368H70.8771V89.964H70.3964ZM94.4704 98.9704C90.2976 98.9704 87.7293 101.868 86.6063 103.636V98.8101L86.1247 98.9714L76.9762 100.419V102.026H77.297C80.1859 102.187 80.8283 102.671 80.8283 105.409V120.369H86.6063V109.427C86.6063 106.534 89.3349 102.671 92.2239 102.671C94.9525 102.671 95.1128 105.084 95.1128 108.785V120.367H100.891V105.407C100.891 101.223 98.6437 98.9704 94.4704 98.9704ZM116.941 107.336C114.694 106.21 112.768 105.247 112.768 103.636C112.768 101.868 114.855 101.706 115.818 101.706C118.225 101.706 120.312 102.995 121.275 103.473L122.077 104.121V99.7728L121.435 99.6162C120.312 99.455 118.386 98.9704 116.139 98.9704C110.842 98.9704 107.472 101.223 107.472 105.247C107.472 108.624 110.842 110.392 113.892 111.84C116.139 112.966 118.386 113.93 118.386 115.702C118.386 117.313 116.942 118.115 114.534 118.115C111.806 118.115 109.559 116.828 108.275 116.025L107.633 115.54V120.045H107.954C109.238 120.367 111.324 120.851 114.374 120.851C120.152 120.851 123.683 118.438 123.683 114.414C123.682 110.553 120.151 108.785 116.941 107.336ZM142.3 98.9704C140.213 98.9704 138.127 99.9358 136.201 101.868V98.8101L135.72 98.9704L126.571 100.419V102.025H127.053C129.781 102.186 130.423 102.671 130.423 105.408V129.217H136.201V118.439C137.164 119.726 138.93 120.852 142.14 120.852C148.078 120.852 151.288 116.99 151.288 109.588C151.288 102.832 148.078 98.9704 142.3 98.9704ZM140.695 102.187C144.547 102.187 145.029 106.372 145.029 109.588C145.029 115.057 143.584 117.793 140.695 117.793C137.004 117.793 136.201 114.254 136.201 111.361V109.428C136.201 107.337 136.682 102.187 140.695 102.187ZM155.301 100.419V102.025H155.621C158.51 102.186 159.153 102.671 159.153 105.408V120.368H164.77V98.8101L164.449 98.9714L155.301 100.419ZM162.042 96.3966C163.967 96.3966 165.573 94.9467 165.573 93.179C165.573 91.5683 163.968 90.1252 162.042 90.1252C160.115 90.1252 158.51 91.5683 158.51 93.179C158.51 94.9467 160.116 96.3966 162.042 96.3966ZM189.006 103.636V99.2928L188.524 99.1316C187.722 98.9704 186.758 98.9704 185.796 98.9704C182.586 98.9704 180.821 101.383 180.018 103.155V98.8092L179.537 98.9704L170.388 100.418V102.025H170.709C173.598 102.186 174.24 102.67 174.24 105.408V120.368H180.018V109.588C180.018 107.82 180.66 103.636 185.957 103.636C186.599 103.636 187.401 103.797 188.043 103.957L189.006 104.281L189.006 103.636ZM211.637 107.659C211.637 101.868 208.427 98.9704 202.167 98.9704C194.944 98.9704 191.414 102.349 191.414 109.265C191.414 116.506 196.068 120.852 203.933 120.852C206.279 120.848 208.609 120.468 210.835 119.726L211.156 119.565V116.829L210.674 116.99C209.711 117.313 208.106 117.793 206.18 117.793C200.081 117.793 197.673 112.648 197.673 107.978H211.637V107.659L211.637 107.659ZM202.007 101.224C205.056 101.224 205.859 103.474 205.859 105.565H197.673C197.834 103.958 198.636 101.224 202.007 101.224ZM264.122 98.9704C259.786 98.9704 257.379 101.545 256.256 103.473V89.1548H255.774L246.625 90.4417V92.0528H246.949C249.835 92.0528 250.48 92.694 250.48 95.592V120.367H256.256V109.749C256.256 105.725 259.144 102.671 261.552 102.671C264.762 102.671 264.762 105.084 264.762 107.174V120.367H270.542V106.534C270.542 104.282 270.542 98.9714 264.122 98.9714M296.385 107.659C296.385 101.868 293.175 98.9704 286.911 98.9704C279.688 98.9704 276.158 102.349 276.158 109.265C276.158 116.506 280.812 120.852 288.517 120.852C292.039 120.852 294.625 120.045 295.583 119.726L295.896 119.565V116.829L295.427 116.99C294.446 117.313 292.864 117.793 290.924 117.793C284.816 117.793 282.409 112.648 282.409 107.978H296.386V107.659L296.385 107.659ZM286.599 101.224C289.809 101.224 290.612 103.474 290.612 105.565H282.408C282.408 103.958 283.389 101.224 286.599 101.224ZM231.859 92.8579V99.4559H228.01V102.025H231.859V114.899C231.859 120.529 235.39 120.852 239.724 120.852C240.847 120.852 241.971 120.691 243.094 120.529H243.418V117.955H242.934C242.452 118.116 241.81 118.116 241.168 118.116C237.798 118.116 237.637 117.151 237.637 114.254V102.026H244.059V99.4554H237.637V92.8575H231.859M345.004 90.4421H339.231V113.128C338.116 111.36 324.317 90.4421 324.317 90.4421H310.987V92.0533L312.101 92.3771C315.646 92.8575 315.802 93.0187 315.802 96.3971V120.368H322.066V96.5579C323.181 98.3302 337.804 120.368 337.804 120.368H345.338V90.4426L345.004 90.4421ZM371.174 107.659C371.174 101.868 367.965 98.9704 361.544 98.9704C354.478 98.9704 350.799 102.349 350.799 109.265C350.799 116.506 355.459 120.852 363.305 120.852C366.694 120.852 369.413 120.045 370.372 119.726L370.706 119.565V116.829L370.216 116.99C369.258 117.313 367.474 117.793 365.557 117.793C359.471 117.793 357.22 112.648 357.042 108.139H371.175L371.174 107.659ZM361.388 101.224C364.442 101.224 365.245 103.474 365.4 105.565H357.041C357.22 103.958 358.178 101.224 361.388 101.224ZM402.784 92.8579V99.4559H398.95V102.025H402.784V114.899C402.784 120.529 406.329 120.852 410.653 120.852C411.79 120.852 412.904 120.691 414.019 120.529H414.509V117.955H413.863C413.394 118.116 412.904 118.116 412.258 118.116C408.736 118.116 408.58 117.151 408.58 114.254V102.026H415V99.4554H408.58V92.8575H402.784M391.237 106.21L397.166 99.4559H391.081L385.463 105.889L380.492 99.4559H371.665V101.06H372.133C375.031 101.384 375.833 101.869 377.595 104.282L381.295 109.109L375.343 115.864H381.451L384.014 112.805L389.788 120.368H396.542L385.775 106.21H391.237Z" fill="#4D4D4D"></path></svg> 