<?xml version="1.0" encoding="UTF-8"?> <svg xmlns="http://www.w3.org/2000/svg" width="125" height="125" viewBox="0 0 125 125" fill="none"><rect width="125" height="125" rx="62.5" fill="#231137"></rect><circle cx="62.5" cy="62.5" r="62.5" fill="url(#paint0_radial_2890_18699)" fill-opacity="0.4"></circle><g clip-path="url(#clip0_2890_18699)"><path d="M83.6753 42.862H78.9079V42.0952C78.9079 41.681 78.5721 41.3452 78.1579 41.3452H73.8483C73.4342 41.3452 73.0983 41.681 73.0983 42.0952V42.862H44.3247C41.9401 42.862 40 44.8022 40 47.1868V71.7792C40 74.1639 41.9401 76.104 44.3247 76.104H55.9428V80.2834H51.2516C49.1571 80.2834 47.4531 81.7125 47.4531 83.4691V85.9048C47.4531 86.319 47.7889 86.6548 48.2031 86.6548H79.7969C80.2111 86.6548 80.5469 86.319 80.5469 85.9048V83.4692C80.5469 81.7126 78.8429 80.2835 76.7484 80.2835H72.0572V76.1041H83.6753C86.06 76.1041 88 74.164 88 71.7793V47.1868C88 44.8022 86.0599 42.862 83.6753 42.862ZM80.0598 70.2699L80.4288 71.1008L80.0367 71.493L79.2063 71.1241C78.9706 71.0194 78.6977 71.0432 78.4837 71.1869C77.8234 71.6303 77.0942 71.9327 76.3162 72.0855C76.0632 72.1351 75.8534 72.3113 75.7608 72.552L75.4347 73.3992H74.8801L74.5538 72.5517C74.4612 72.3111 74.2515 72.1349 73.9984 72.0852C73.2211 71.9325 72.492 71.6301 71.8313 71.1867C71.6173 71.0429 71.3443 71.0193 71.1089 71.1239L70.278 71.493L69.8858 71.1008L70.2546 70.2704C70.3593 70.0348 70.3356 69.7619 70.1919 69.5478C69.7486 68.8876 69.4462 68.1584 69.2934 67.3803C69.2437 67.1274 69.0675 66.9176 68.8269 66.825L67.9796 66.4988V65.9443L68.827 65.6181C69.0677 65.5255 69.2438 65.3157 69.2936 65.0627C69.4462 64.2852 69.7486 63.5561 70.192 62.8955C70.3357 62.6816 70.3594 62.4088 70.2548 62.1731L69.8858 61.3423L70.278 60.9501L71.1088 61.3192C71.3445 61.4237 71.6172 61.4 71.8312 61.2565C72.4919 60.8131 73.2211 60.5107 73.9984 60.358C74.2515 60.3084 74.4612 60.1322 74.5538 59.8915L74.8801 59.0439H75.4346L75.7608 59.8915C75.8535 60.1321 76.0632 60.3082 76.3162 60.358C77.0936 60.5107 77.8227 60.8131 78.4833 61.2565C78.6973 61.4002 78.9702 61.4237 79.2058 61.3192L80.0367 60.9501L80.4288 61.3423L80.0599 62.1728C79.9553 62.4085 79.979 62.6813 80.1228 62.8953C80.5662 63.5556 80.8685 64.2848 81.0212 65.0628C81.0709 65.3158 81.2472 65.5257 81.4878 65.6182L82.3351 65.9444V66.4989L81.4875 66.8252C81.2469 66.9178 81.0707 67.1276 81.021 67.3805C80.8683 68.1579 80.566 68.887 80.1226 69.5476C79.9788 69.7615 79.9552 70.0343 80.0598 70.2699ZM73.0983 59.0336C72.4863 59.2082 71.9017 59.4594 71.3519 59.7856L70.906 59.5875V52.7044C70.906 52.2902 70.5702 51.9544 70.156 51.9544H65.8464C65.4322 51.9544 65.0964 52.2902 65.0964 52.7044V65.3039C65.0964 65.7181 65.4322 66.0539 65.8464 66.0539H66.4798V67.0137C66.4798 67.324 66.6708 67.6022 66.9603 67.7136L67.9145 68.0809C67.9578 68.2502 68.0069 68.4173 68.0617 68.5824H44.4893V47.3513H73.0984L73.0983 59.0336ZM68.306 61.4804L68.7215 62.4159C68.3599 63.0253 68.0897 63.6771 67.9147 64.3621L67.4162 64.554H66.5964V53.4545H69.406V59.7008L68.4612 60.6456C68.2417 60.8651 68.18 61.1969 68.306 61.4804ZM82.4 68.081L83.3546 67.7136C83.4111 67.6919 83.4625 67.6622 83.5108 67.6287V68.5823H82.2529C82.3076 68.4174 82.3568 68.2502 82.4 68.081ZM83.5107 64.8142C83.4624 64.7807 83.4109 64.751 83.3544 64.7293L82.4003 64.3621C82.2253 63.6768 81.955 63.0248 81.5934 62.4155L82.0088 61.4803C82.1347 61.1968 82.0731 60.865 81.8537 60.6455L80.7333 59.5251C80.5139 59.3058 80.1821 59.2444 79.8985 59.3701L78.9629 59.7857C78.9447 59.7749 78.9262 59.7649 78.9079 59.7543V47.3513H83.5107V64.8142ZM77.4079 42.8453V59.0915C77.2788 59.0508 77.1486 59.0126 77.017 58.9789L76.6496 58.0244C76.5382 57.7349 76.26 57.5438 75.9497 57.5438H74.5984V42.8453H77.4079ZM41.5 71.7793V47.1868C41.5 45.6292 42.7672 44.362 44.3247 44.362H73.0983V45.8513H44.2351C43.5482 45.8513 42.9893 46.4102 42.9893 47.0971V69.3324C42.9893 69.7466 43.3251 70.0824 43.7393 70.0824H68.697L68.306 70.9626C68.18 71.2461 68.2417 71.5779 68.4611 71.7974L69.5815 72.9178C69.801 73.1372 70.1328 73.1987 70.4163 73.0728L71.3519 72.6572C71.9613 73.0188 72.613 73.289 73.2978 73.4641L73.6653 74.4185C73.6913 74.4863 73.7273 74.5481 73.77 74.604H44.3247C42.7672 74.604 41.5 73.3368 41.5 71.7793ZM79.0469 83.4692V85.1549H48.9531V83.4692C48.9531 82.5555 50.0057 81.7835 51.2516 81.7835H76.7484C77.9943 81.7834 79.0469 82.5555 79.0469 83.4692ZM70.5572 80.2834H57.4428V76.104H70.5572V80.2834ZM86.5 71.7793C86.5 73.3368 85.2328 74.6041 83.6753 74.6041H76.5449C76.5875 74.5483 76.6235 74.4865 76.6496 74.4186L77.0168 73.4644C77.7021 73.2894 78.354 73.0191 78.9633 72.6575L79.8985 73.0729C80.1821 73.1989 80.5138 73.1372 80.7333 72.9179L81.8537 71.7975C82.073 71.578 82.1347 71.2462 82.0087 70.9627L81.6178 70.0825H84.2607C84.6749 70.0825 85.0107 69.7467 85.0107 69.3325V47.0971C85.0107 46.4102 84.4518 45.8513 83.7649 45.8513H78.9079V44.362H83.6753C85.2329 44.362 86.5 45.6292 86.5 47.1868V71.7793ZM49.8421 66.0538H54.1516C54.5657 66.0538 54.9016 65.718 54.9016 65.3038V57.6343C54.9016 57.2201 54.5657 56.8843 54.1516 56.8843H49.8421C49.4279 56.8843 49.0921 57.2201 49.0921 57.6343V65.3038C49.0921 65.718 49.4279 66.0538 49.8421 66.0538ZM50.5921 58.3844H53.4016V64.5539H50.5921V58.3844ZM57.8442 66.0539H62.1537C62.5679 66.0539 62.9037 65.7181 62.9037 65.3039V49.7654C62.9037 49.3512 62.5679 49.0154 62.1537 49.0154H57.8442C57.43 49.0154 57.0942 49.3512 57.0942 49.7654V65.3039C57.0942 65.7181 57.43 66.0539 57.8442 66.0539ZM58.5942 50.5154H61.4037V64.5539H58.5942V50.5154ZM75.1574 61.9715C72.8139 61.9715 70.9074 63.878 70.9074 66.2215C70.9074 68.5649 72.8139 70.4714 75.1574 70.4714C77.5008 70.4714 79.4073 68.5649 79.4073 66.2215C79.4073 63.878 77.5008 61.9715 75.1574 61.9715ZM77.3418 64.5538H74.5983V63.5288C74.7789 63.4914 74.9658 63.4715 75.1574 63.4715C76.047 63.4715 76.8389 63.8966 77.3418 64.5538ZM76.5654 68.5824H73.7493C72.9463 68.1017 72.4074 67.2235 72.4074 66.2215C72.4074 65.5241 72.6689 64.8869 73.0983 64.4015V65.3038C73.0983 65.718 73.4342 66.0538 73.8483 66.0538H77.9017C77.9051 66.1093 77.9073 66.1652 77.9073 66.2215C77.9073 67.2235 77.3684 68.1017 76.5654 68.5824Z" fill="white"></path></g><defs><radialGradient id="paint0_radial_2890_18699" cx="0" cy="0" r="1" gradientUnits="userSpaceOnUse" gradientTransform="translate(62.5 62.5) rotate(90) scale(178.571)"><stop stop-color="#FF7725"></stop><stop offset="0.366523" stop-color="#222222" stop-opacity="0"></stop></radialGradient><clipPath id="clip0_2890_18699"><rect width="48" height="48" fill="white" transform="translate(40 40)"></rect></clipPath></defs></svg> 