<?xml version="1.0" encoding="UTF-8"?> <svg xmlns="http://www.w3.org/2000/svg" width="19" height="24" viewBox="0 0 19 24" fill="none"><path d="M17.2727 0H1.72727C1.26917 0 0.829833 0.18198 0.505906 0.505906C0.18198 0.829833 0 1.26917 0 1.72727V17.2727C0 17.7308 0.18198 18.1702 0.505906 18.4941C0.829833 18.818 1.26917 19 1.72727 19H17.2727C17.7308 19 18.1702 18.818 18.4941 18.4941C18.818 18.1702 19 17.7308 19 17.2727V1.72727C19 1.26917 18.818 0.829833 18.4941 0.505906C18.1702 0.18198 17.7308 0 17.2727 0ZM6.04545 15.9773C6.04545 16.0918 5.99996 16.2016 5.91898 16.2826C5.838 16.3636 5.72816 16.4091 5.61364 16.4091H3.02273C2.9082 16.4091 2.79837 16.3636 2.71739 16.2826C2.6364 16.2016 2.59091 16.0918 2.59091 15.9773V7.34091C2.59091 7.22638 2.6364 7.11655 2.71739 7.03557C2.79837 6.95459 2.9082 6.90909 3.02273 6.90909H5.61364C5.72816 6.90909 5.838 6.95459 5.91898 7.03557C5.99996 7.11655 6.04545 7.22638 6.04545 7.34091V15.9773ZM4.31818 6.04545C3.97656 6.04545 3.64261 5.94415 3.35856 5.75436C3.07451 5.56456 2.85312 5.2948 2.72239 4.97918C2.59166 4.66356 2.55745 4.31627 2.6241 3.98121C2.69075 3.64615 2.85525 3.33838 3.09682 3.09682C3.33838 2.85525 3.64615 2.69075 3.98121 2.6241C4.31627 2.55745 4.66356 2.59166 4.97918 2.72239C5.2948 2.85312 5.56456 3.07451 5.75436 3.35856C5.94415 3.64261 6.04545 3.97656 6.04545 4.31818C6.04545 4.77628 5.86347 5.21562 5.53955 5.53955C5.21562 5.86347 4.77628 6.04545 4.31818 6.04545ZM16.4091 15.9773C16.4091 16.0918 16.3636 16.2016 16.2826 16.2826C16.2016 16.3636 16.0918 16.4091 15.9773 16.4091H13.3864C13.2718 16.4091 13.162 16.3636 13.081 16.2826C13 16.2016 12.9545 16.0918 12.9545 15.9773V11.2273C12.9545 10.1477 12.4709 9.5 11.6591 9.5C10.8473 9.5 10.3636 10.1477 10.3636 11.2273V15.9773C10.3636 16.0918 10.3181 16.2016 10.2372 16.2826C10.1562 16.3636 10.0463 16.4091 9.93182 16.4091H7.34091C7.22638 16.4091 7.11655 16.3636 7.03557 16.2826C6.95459 16.2016 6.90909 16.0918 6.90909 15.9773V7.34091C6.90909 7.22638 6.95459 7.11655 7.03557 7.03557C7.11655 6.95459 7.22638 6.90909 7.34091 6.90909H9.93182C10.0463 6.90909 10.1562 6.95459 10.2372 7.03557C10.3181 7.11655 10.3636 7.22638 10.3636 7.34091V7.60864C10.9783 7.12812 11.7431 6.88034 12.5227 6.90909C14.8805 6.90909 16.4091 8.63636 16.4091 11.2273V15.9773Z" fill="#888888"></path></svg> 