<?xml version="1.0" encoding="UTF-8"?> <svg xmlns="http://www.w3.org/2000/svg" width="734" height="264" viewBox="0 0 734 264" fill="none"><g clip-path="url(#clip0_2919_14647)"><path d="M226.561 79.9963V142.074C226.561 150.359 233.276 157.074 241.561 157.074H298.612" stroke="url(#paint0_linear_2919_14647)" stroke-width="2"></path><path d="M358.514 157.074H663.056" stroke="url(#paint1_linear_2919_14647)" stroke-width="2"></path><circle cx="328.374" cy="156.682" r="28.8508" stroke="#FF7F2C" stroke-width="2"></circle><rect x="314.883" y="147.853" width="26.9852" height="18.5896" rx="4.5" stroke="white"></rect><path d="M28 29.728H188.858" stroke="url(#paint2_linear_2919_14647)" stroke-width="2"></path><path d="M1036.72 29.728L265.099 29.728" stroke="url(#paint3_linear_2919_14647)" stroke-width="2"></path><path d="M232.122 10.3333L262.608 26.838C264.626 27.9305 264.72 30.7919 262.779 32.0148L232.747 50.928C229.164 53.1841 224.605 53.1841 221.023 50.928L190.991 32.0148C189.049 30.7919 189.143 27.9305 191.161 26.838L221.648 10.3333C224.915 8.56445 228.854 8.56445 232.122 10.3333Z" stroke="#FF7F2C" stroke-width="2"></path><path d="M706.319 137.68L736.806 154.184C738.824 155.277 738.918 158.138 736.976 159.361L706.944 178.274C703.362 180.53 698.802 180.53 695.22 178.274L665.188 159.361C663.246 158.138 663.341 155.277 665.358 154.184L695.845 137.68C699.112 135.911 703.052 135.911 706.319 137.68Z" stroke="#FA54AF" stroke-width="2"></path><path d="M195.089 63.1562H196.181V71.5322H195.089L190.697 64.8722V71.5322H189.605V63.1562H190.697L195.089 69.8042V63.1562ZM200.838 65.7722C199.77 65.7722 198.882 66.4802 198.762 67.7642H202.914C202.926 66.4802 201.966 65.7722 200.838 65.7722ZM203.91 69.5042C203.574 70.7042 202.518 71.6402 200.886 71.6402C199.014 71.6402 197.634 70.3202 197.634 68.2322C197.634 66.1562 198.966 64.8482 200.886 64.8482C202.794 64.8482 204.042 66.1922 204.042 67.9922C204.042 68.2322 204.03 68.4242 204.006 68.6522H198.75C198.834 69.9842 199.77 70.7162 200.886 70.7162C201.87 70.7162 202.494 70.2122 202.734 69.5042H203.91ZM205.076 68.2202C205.076 66.1682 206.432 64.8482 208.196 64.8482C209.396 64.8482 210.26 65.4482 210.644 66.1562V64.9562H211.748V71.6762C211.748 73.4882 210.536 74.7722 208.604 74.7722C206.876 74.7722 205.64 73.8962 205.424 72.4922H206.504C206.744 73.2842 207.524 73.8242 208.604 73.8242C209.768 73.8242 210.644 73.0802 210.644 71.6762V70.2962C210.248 71.0042 209.396 71.6402 208.196 71.6402C206.432 71.6402 205.076 70.2602 205.076 68.2202ZM210.644 68.2322C210.644 66.7082 209.612 65.7962 208.412 65.7962C207.212 65.7962 206.192 66.6722 206.192 68.2202C206.192 69.7682 207.212 70.6802 208.412 70.6802C209.612 70.6802 210.644 69.7802 210.644 68.2322ZM219.833 68.2322C219.833 70.3202 218.333 71.6402 216.461 71.6402C214.601 71.6402 213.185 70.3202 213.185 68.2322C213.185 66.1562 214.649 64.8482 216.509 64.8482C218.381 64.8482 219.833 66.1562 219.833 68.2322ZM214.301 68.2322C214.301 69.9002 215.321 70.6802 216.461 70.6802C217.601 70.6802 218.717 69.9002 218.717 68.2322C218.717 66.5762 217.625 65.7962 216.497 65.7962C215.345 65.7962 214.301 66.5762 214.301 68.2322ZM221.509 69.7322V65.8562H220.657V64.9562H221.509V63.3002H222.601V64.9562H224.317V65.8562H222.601V69.7322C222.601 70.3802 222.841 70.6082 223.513 70.6082H224.317V71.5322H223.333C222.169 71.5322 221.509 71.0522 221.509 69.7322ZM225.64 71.5322V64.9562H226.732V71.5322H225.64ZM226.204 63.8882C225.784 63.8882 225.46 63.5642 225.46 63.1442C225.46 62.7242 225.784 62.4002 226.204 62.4002C226.6 62.4002 226.924 62.7242 226.924 63.1442C226.924 63.5642 226.6 63.8882 226.204 63.8882ZM228.185 68.2202C228.185 66.1682 229.541 64.8482 231.305 64.8482C232.529 64.8482 233.369 65.4722 233.753 66.1562V64.9562H234.857V71.5322H233.753V70.3082C233.357 71.0162 232.505 71.6402 231.293 71.6402C229.541 71.6402 228.185 70.2602 228.185 68.2202ZM233.753 68.2322C233.753 66.7082 232.721 65.7962 231.521 65.7962C230.321 65.7962 229.301 66.6722 229.301 68.2202C229.301 69.7682 230.321 70.6802 231.521 70.6802C232.721 70.6802 233.753 69.7802 233.753 68.2322ZM236.942 69.7322V65.8562H236.09V64.9562H236.942V63.3002H238.034V64.9562H239.75V65.8562H238.034V69.7322C238.034 70.3802 238.274 70.6082 238.946 70.6082H239.75V71.5322H238.766C237.602 71.5322 236.942 71.0522 236.942 69.7322ZM241.074 71.5322V64.9562H242.166V71.5322H241.074ZM241.638 63.8882C241.218 63.8882 240.894 63.5642 240.894 63.1442C240.894 62.7242 241.218 62.4002 241.638 62.4002C242.034 62.4002 242.358 62.7242 242.358 63.1442C242.358 63.5642 242.034 63.8882 241.638 63.8882ZM250.267 68.2322C250.267 70.3202 248.767 71.6402 246.895 71.6402C245.035 71.6402 243.619 70.3202 243.619 68.2322C243.619 66.1562 245.083 64.8482 246.943 64.8482C248.815 64.8482 250.267 66.1562 250.267 68.2322ZM244.735 68.2322C244.735 69.9002 245.755 70.6802 246.895 70.6802C248.035 70.6802 249.151 69.9002 249.151 68.2322C249.151 66.5762 248.059 65.7962 246.931 65.7962C245.779 65.7962 244.735 66.5762 244.735 68.2322ZM256.514 71.5322V67.8122C256.514 66.4682 255.782 65.7842 254.678 65.7842C253.562 65.7842 252.794 66.4802 252.794 67.8962V71.5322H251.702V64.9562H252.794V65.8922C253.226 65.2082 254.018 64.8362 254.906 64.8362C256.43 64.8362 257.594 65.7722 257.594 67.6562V71.5322H256.514ZM258.898 65.4722C258.886 64.0202 259.942 63.0602 261.514 63.0602C263.086 63.0602 264.166 64.0082 264.166 65.5322C264.166 67.2842 262.954 68.0042 261.274 68.0042L261.238 69.1442H260.29L260.242 67.2482H260.59C261.958 67.2482 263.122 66.9842 263.122 65.5322C263.122 64.5722 262.498 63.9722 261.526 63.9722C260.542 63.9722 259.93 64.5362 259.93 65.4722H258.898ZM261.478 70.8602C261.478 71.2802 261.154 71.6042 260.758 71.6042C260.338 71.6042 260.014 71.2802 260.014 70.8602C260.014 70.4402 260.338 70.1162 260.758 70.1162C261.154 70.1162 261.478 70.4402 261.478 70.8602Z" fill="white"></path><path d="M674.008 194.18C674.008 193.256 673.312 192.68 672.244 192.68H670.348V195.632H672.28C673.36 195.632 674.008 195.092 674.008 194.18ZM673.792 190.424C673.792 189.596 673.228 189.068 672.16 189.068H670.348V191.78H672.184C673.204 191.78 673.792 191.276 673.792 190.424ZM675.1 194.288C675.1 195.548 674.104 196.532 672.376 196.532H669.256V188.168H672.256C674.02 188.168 674.908 189.128 674.908 190.292C674.908 191.348 674.248 191.96 673.444 192.224C674.356 192.38 675.1 193.256 675.1 194.288ZM682.448 189.956V196.532H681.356V195.56C680.936 196.244 680.132 196.628 679.256 196.628C677.744 196.628 676.556 195.692 676.556 193.808V189.956H677.636V193.664C677.636 194.996 678.368 195.68 679.472 195.68C680.6 195.68 681.356 194.984 681.356 193.568V189.956H682.448ZM683.883 193.22C683.883 191.168 685.239 189.848 687.015 189.848C688.047 189.848 688.995 190.376 689.451 191.132V187.652H690.555V196.532H689.451V195.296C689.055 196.028 688.203 196.64 687.003 196.64C685.239 196.64 683.883 195.26 683.883 193.22ZM689.451 193.232C689.451 191.708 688.419 190.796 687.219 190.796C686.019 190.796 684.999 191.672 684.999 193.22C684.999 194.768 686.019 195.68 687.219 195.68C688.419 195.68 689.451 194.78 689.451 193.232ZM691.993 193.22C691.993 191.168 693.349 189.848 695.113 189.848C696.313 189.848 697.177 190.448 697.561 191.156V189.956H698.665V196.676C698.665 198.488 697.453 199.772 695.521 199.772C693.793 199.772 692.557 198.896 692.341 197.492H693.421C693.661 198.284 694.441 198.824 695.521 198.824C696.685 198.824 697.561 198.08 697.561 196.676V195.296C697.165 196.004 696.313 196.64 695.113 196.64C693.349 196.64 691.993 195.26 691.993 193.22ZM697.561 193.232C697.561 191.708 696.529 190.796 695.329 190.796C694.129 190.796 693.109 191.672 693.109 193.22C693.109 194.768 694.129 195.68 695.329 195.68C696.529 195.68 697.561 194.78 697.561 193.232ZM703.306 190.772C702.238 190.772 701.35 191.48 701.23 192.764H705.382C705.394 191.48 704.434 190.772 703.306 190.772ZM706.378 194.504C706.042 195.704 704.986 196.64 703.354 196.64C701.482 196.64 700.102 195.32 700.102 193.232C700.102 191.156 701.434 189.848 703.354 189.848C705.262 189.848 706.51 191.192 706.51 192.992C706.51 193.232 706.498 193.424 706.474 193.652H701.218C701.302 194.984 702.238 195.716 703.354 195.716C704.338 195.716 704.962 195.212 705.202 194.504H706.378ZM708.191 194.732V190.856H707.339V189.956H708.191V188.3H709.283V189.956H710.999V190.856H709.283V194.732C709.283 195.38 709.523 195.608 710.195 195.608H710.999V196.532H710.015C708.851 196.532 708.191 196.052 708.191 194.732ZM711.843 190.472C711.831 189.02 712.887 188.06 714.459 188.06C716.031 188.06 717.111 189.008 717.111 190.532C717.111 192.284 715.899 193.004 714.219 193.004L714.183 194.144H713.235L713.187 192.248H713.535C714.903 192.248 716.067 191.984 716.067 190.532C716.067 189.572 715.443 188.972 714.471 188.972C713.487 188.972 712.875 189.536 712.875 190.472H711.843ZM714.423 195.86C714.423 196.28 714.099 196.604 713.703 196.604C713.283 196.604 712.959 196.28 712.959 195.86C712.959 195.44 713.283 195.116 713.703 195.116C714.099 195.116 714.423 195.44 714.423 195.86Z" fill="white"></path><g filter="url(#filter0_d_2919_14647)"><rect x="304.857" y="22.1878" width="30.7837" height="14.9254" rx="7.46271" fill="#8131FF"></rect><rect x="305.357" y="22.6878" width="29.7837" height="13.9254" rx="6.96271" stroke="white"></rect></g><path d="M313.909 27.4374H315.277V33.0534H313.909L311.621 29.5894V33.0534H310.253V27.4374H311.621L313.909 30.9174V27.4374ZM321.797 30.2294C321.797 31.9174 320.517 33.1094 318.925 33.1094C317.333 33.1094 316.037 31.9174 316.037 30.2294C316.037 28.5414 317.333 27.3574 318.925 27.3574C320.525 27.3574 321.797 28.5414 321.797 30.2294ZM317.437 30.2294C317.437 31.2134 318.013 31.8614 318.925 31.8614C319.821 31.8614 320.405 31.2134 320.405 30.2294C320.405 29.2294 319.821 28.5974 318.925 28.5974C318.013 28.5974 317.437 29.2294 317.437 30.2294Z" fill="white"></path><path d="M715.502 148.286L706.907 149.342L712.119 156.258L715.502 148.286ZM707.482 154.331L707.03 153.732L707.482 154.331ZM702.26 169.741V166.31H700.76V169.741H702.26ZM707.933 154.93L710.563 152.947L709.66 151.749L707.03 153.732L707.933 154.93ZM702.26 166.31C702.26 161.836 704.361 157.622 707.933 154.93L707.03 153.732C703.082 156.708 700.76 161.365 700.76 166.31H702.26Z" fill="white"></path><path d="M688.45 148.286L697.006 149.629L691.565 156.367L688.45 148.286ZM700.76 169.741V165.999H702.26V169.741H700.76ZM695.462 154.912L693.23 153.11L694.173 151.943L696.405 153.745L695.462 154.912ZM700.76 165.999C700.76 161.693 698.813 157.618 695.462 154.912L696.405 153.745C700.108 156.735 702.26 161.239 702.26 165.999H700.76Z" fill="white"></path><path d="M239.756 23.2859L231.161 24.342L236.373 31.2579L239.756 23.2859ZM231.736 29.3309L231.284 28.7319L231.736 29.3309ZM226.514 44.7412V41.3097H225.014V44.7412H226.514ZM232.187 29.9298L234.817 27.9475L233.914 26.7496L231.284 28.7319L232.187 29.9298ZM226.514 41.3097C226.514 36.8362 228.614 32.6223 232.187 29.9298L231.284 28.7319C227.336 31.7079 225.014 36.3653 225.014 41.3097H226.514Z" fill="white"></path><path d="M212.704 23.2859L221.259 24.6289L215.819 31.3667L212.704 23.2859ZM225.014 44.7412V40.999H226.514V44.7412H225.014ZM219.716 29.9124L217.484 28.1101L218.427 26.9431L220.659 28.7453L219.716 29.9124ZM225.014 40.999C225.014 36.6929 223.066 32.6177 219.716 29.9124L220.659 28.7453C224.361 31.7354 226.514 36.2396 226.514 40.999H225.014Z" fill="white"></path><path d="M701.594 205.093V245.962C701.594 254.246 708.309 260.962 716.594 260.962H932.409C940.693 260.962 947.409 254.246 947.409 245.962V172.074C947.409 163.79 954.125 157.074 962.409 157.074H975.556" stroke="url(#paint4_linear_2919_14647)" stroke-width="2"></path><g filter="url(#filter1_d_2919_14647)"><rect x="738.822" y="218.249" width="175.374" height="82.0898" rx="10" fill="url(#paint5_linear_2919_14647)"></rect></g><g filter="url(#filter2_d_2919_14647)"><rect x="412.553" y="114.346" width="175.374" height="82.0898" rx="10" fill="url(#paint6_linear_2919_14647)"></rect></g><g filter="url(#filter3_d_2919_14647)"><rect x="522.627" y="159.123" width="55.0375" height="26.1195" rx="13.0597" fill="#8131FF"></rect></g><path d="M427.809 129.054V130.17H424.569V132.618H427.449V133.734H424.569V136.29H427.809V137.406H423.201V129.054H427.809ZM434.186 137.406V133.71C434.186 132.498 433.526 131.874 432.53 131.874C431.522 131.874 430.862 132.498 430.862 133.71V137.406H429.494V130.794H430.862V131.55C431.306 131.01 432.038 130.686 432.83 130.686C434.378 130.686 435.542 131.658 435.542 133.506V137.406H434.186ZM437.503 135.57V131.91H436.723V130.794H437.503V129.15H438.883V130.794H440.491V131.91H438.883V135.57C438.883 136.062 439.075 136.266 439.651 136.266H440.491V137.406H439.411C438.235 137.406 437.503 136.914 437.503 135.57ZM444.536 131.838C443.612 131.838 442.868 132.462 442.724 133.506H446.384C446.36 132.486 445.556 131.838 444.536 131.838ZM447.632 135.438C447.26 136.59 446.216 137.514 444.596 137.514C442.7 137.514 441.296 136.17 441.296 134.094C441.296 132.018 442.64 130.686 444.596 130.686C446.48 130.686 447.812 131.994 447.812 133.938C447.812 134.166 447.8 134.382 447.764 134.61H442.712C442.808 135.702 443.588 136.362 444.596 136.362C445.436 136.362 445.904 135.954 446.156 135.438H447.632ZM450.526 133.926V137.406H449.158V130.794H450.526V131.754C450.91 131.094 451.57 130.686 452.506 130.686V132.102H452.158C451.15 132.102 450.526 132.522 450.526 133.926ZM457.54 129.066H458.5L457.768 131.922H456.28L457.54 129.066ZM459.7 129.066H460.66L459.928 131.922H458.44L459.7 129.066ZM463.358 132.906H464.87C465.938 132.906 466.418 132.39 466.418 131.55C466.418 130.686 465.938 130.182 464.87 130.182H463.358V132.906ZM467.822 131.55C467.822 132.738 467.042 134.022 464.87 134.022H463.358V137.406H461.99V129.066H464.87C466.85 129.066 467.822 130.194 467.822 131.55ZM470.495 133.926V137.406H469.127V130.794H470.495V131.754C470.879 131.094 471.539 130.686 472.475 130.686V132.102H472.127C471.119 132.102 470.495 132.522 470.495 133.926ZM480.032 134.094C480.032 136.17 478.496 137.514 476.6 137.514C474.716 137.514 473.288 136.17 473.288 134.094C473.288 132.018 474.776 130.686 476.66 130.686C478.544 130.686 480.032 132.018 480.032 134.094ZM474.68 134.094C474.68 135.594 475.568 136.326 476.6 136.326C477.62 136.326 478.628 135.594 478.628 134.094C478.628 132.594 477.656 131.874 476.636 131.874C475.604 131.874 474.68 132.594 474.68 134.094ZM482.752 131.778C483.184 131.178 484.012 130.686 485.056 130.686C486.808 130.686 488.164 132.03 488.164 134.07C488.164 136.11 486.796 137.514 485.056 137.514C483.964 137.514 483.184 137.022 482.752 136.446V137.406H481.384V128.526H482.752V131.778ZM486.772 134.07C486.772 132.642 485.788 131.874 484.756 131.874C483.736 131.874 482.752 132.678 482.752 134.094C482.752 135.522 483.736 136.326 484.756 136.326C485.788 136.326 486.772 135.498 486.772 134.07ZM489.061 134.07C489.061 132.03 490.441 130.686 492.181 130.686C493.297 130.686 494.065 131.214 494.473 131.754V130.794H495.853V137.406H494.473V136.422C494.053 136.986 493.261 137.514 492.157 137.514C490.441 137.514 489.061 136.11 489.061 134.07ZM494.473 134.094C494.473 132.678 493.501 131.874 492.469 131.874C491.449 131.874 490.465 132.642 490.465 134.07C490.465 135.498 491.449 136.326 492.469 136.326C493.501 136.326 494.473 135.522 494.473 134.094ZM499.018 131.778C499.45 131.178 500.278 130.686 501.322 130.686C503.074 130.686 504.43 132.03 504.43 134.07C504.43 136.11 503.062 137.514 501.322 137.514C500.23 137.514 499.45 137.022 499.018 136.446V137.406H497.65V128.526H499.018V131.778ZM503.038 134.07C503.038 132.642 502.054 131.874 501.022 131.874C500.002 131.874 499.018 132.678 499.018 134.094C499.018 135.522 500.002 136.326 501.022 136.326C502.054 136.326 503.038 135.498 503.038 134.07ZM505.783 137.406V130.794H507.151V137.406H505.783ZM506.479 129.918C505.987 129.918 505.603 129.534 505.603 129.042C505.603 128.55 505.987 128.166 506.479 128.166C506.959 128.166 507.343 128.55 507.343 129.042C507.343 129.534 506.959 129.918 506.479 129.918ZM508.947 137.406V128.526H510.315V137.406H508.947ZM512.111 137.406V130.794H513.479V137.406H512.111ZM512.807 129.918C512.315 129.918 511.931 129.534 511.931 129.042C511.931 128.55 512.315 128.166 512.807 128.166C513.287 128.166 513.671 128.55 513.671 129.042C513.671 129.534 513.287 129.918 512.807 129.918ZM515.491 135.57V131.91H514.711V130.794H515.491V129.15H516.871V130.794H518.479V131.91H516.871V135.57C516.871 136.062 517.063 136.266 517.639 136.266H518.479V137.406H517.399C516.223 137.406 515.491 136.914 515.491 135.57ZM522.344 135.834L524.276 130.794H525.692L521.636 140.514H520.22L521.564 137.298L518.96 130.794H520.484L522.344 135.834ZM529.46 131.922H528.5L529.232 129.066H530.72L529.46 131.922ZM527.3 131.922H526.34L527.072 129.066H528.56L527.3 131.922Z" fill="black"></path><path d="M535.691 168.233H537.059V176.585H535.691L531.575 170.357V176.585H530.207V168.233H531.575L535.691 174.449V168.233ZM541.639 171.017C540.715 171.017 539.971 171.641 539.827 172.685H543.487C543.463 171.665 542.659 171.017 541.639 171.017ZM544.735 174.617C544.363 175.769 543.319 176.693 541.699 176.693C539.803 176.693 538.399 175.349 538.399 173.273C538.399 171.197 539.743 169.865 541.699 169.865C543.583 169.865 544.915 171.173 544.915 173.117C544.915 173.345 544.903 173.561 544.867 173.789H539.815C539.911 174.881 540.691 175.541 541.699 175.541C542.539 175.541 543.007 175.133 543.259 174.617H544.735ZM549.681 176.585L548.253 174.341L546.909 176.585H545.481L547.617 173.333L545.481 169.973H547.029L548.457 172.217L549.801 169.973H551.229L549.093 173.237L551.229 176.585H549.681ZM552.466 174.749V171.089H551.686V169.973H552.466V168.329H553.846V169.973H555.454V171.089H553.846V174.749C553.846 175.241 554.038 175.445 554.614 175.445H555.454V176.585H554.374C553.198 176.585 552.466 176.093 552.466 174.749Z" fill="white"></path><path d="M564.605 129.272L572.068 136.734" stroke="#ABABAB" stroke-width="1.5" stroke-linecap="round"></path><path d="M572.068 129.272L564.606 136.735" stroke="#ABABAB" stroke-width="1.5" stroke-linecap="round"></path><g filter="url(#filter4_d_2919_14647)"><rect x="685.652" y="218.249" width="30.7837" height="14.9254" rx="7.46271" fill="#8131FF"></rect><rect x="686.152" y="218.749" width="29.7837" height="13.9254" rx="6.96271" stroke="white"></rect></g><path d="M686.784 227.259L684.84 223.499H686.392L687.48 225.851L688.56 223.499H690.096L688.152 227.259V229.115H686.784V227.259ZM694.087 223.499V224.595H692.015V225.731H693.847V226.787H692.015V228.019H694.087V229.115H690.647V223.499H694.087ZM699.055 227.443C699.055 228.387 698.319 229.171 697.007 229.171C695.799 229.171 694.855 228.571 694.815 227.435H696.271C696.311 227.867 696.583 228.075 696.967 228.075C697.367 228.075 697.623 227.875 697.623 227.547C697.623 226.507 694.815 227.067 694.831 225.075C694.831 224.011 695.703 223.419 696.879 223.419C698.103 223.419 698.927 224.027 698.983 225.099H697.503C697.479 224.739 697.223 224.523 696.855 224.515C696.527 224.507 696.279 224.675 696.279 225.027C696.279 226.003 699.055 225.563 699.055 227.443Z" fill="white"></path><g filter="url(#filter5_d_2919_14647)"><rect x="210.641" y="91.3123" width="30.7837" height="14.9254" rx="7.46271" fill="#8131FF"></rect><rect x="211.141" y="91.8123" width="29.7837" height="13.9254" rx="6.96271" stroke="white"></rect></g><path d="M217.526 100.322L215.582 96.5621H217.134L218.222 98.9141L219.302 96.5621H220.838L218.894 100.322V102.178H217.526V100.322ZM224.829 96.5621V97.6581H222.757V98.7941H224.589V99.8501H222.757V101.082H224.829V102.178H221.389V96.5621H224.829ZM229.797 100.506C229.797 101.45 229.061 102.234 227.749 102.234C226.541 102.234 225.597 101.634 225.557 100.498H227.013C227.053 100.93 227.325 101.138 227.709 101.138C228.109 101.138 228.365 100.938 228.365 100.61C228.365 99.5701 225.557 100.13 225.573 98.1381C225.573 97.0741 226.445 96.4821 227.621 96.4821C228.845 96.4821 229.669 97.0901 229.725 98.1621H228.245C228.221 97.8021 227.965 97.5861 227.597 97.5781C227.269 97.5701 227.021 97.7381 227.021 98.0901C227.021 99.0661 229.797 98.6261 229.797 100.506Z" fill="white"></path></g><defs><filter id="filter0_d_2919_14647" x="294.857" y="16.1878" width="50.7832" height="34.9254" filterUnits="userSpaceOnUse" color-interpolation-filters="sRGB"><feFlood flood-opacity="0" result="BackgroundImageFix"></feFlood><feColorMatrix in="SourceAlpha" type="matrix" values="0 0 0 0 0 0 0 0 0 0 0 0 0 0 0 0 0 0 127 0" result="hardAlpha"></feColorMatrix><feOffset dy="4"></feOffset><feGaussianBlur stdDeviation="5"></feGaussianBlur><feComposite in2="hardAlpha" operator="out"></feComposite><feColorMatrix type="matrix" values="0 0 0 0 0.337695 0 0 0 0 0.116251 0 0 0 0 0.0136309 0 0 0 0.1 0"></feColorMatrix><feBlend mode="normal" in2="BackgroundImageFix" result="effect1_dropShadow_2919_14647"></feBlend><feBlend mode="normal" in="SourceGraphic" in2="effect1_dropShadow_2919_14647" result="shape"></feBlend></filter><filter id="filter1_d_2919_14647" x="724.822" y="208.249" width="203.374" height="110.09" filterUnits="userSpaceOnUse" color-interpolation-filters="sRGB"><feFlood flood-opacity="0" result="BackgroundImageFix"></feFlood><feColorMatrix in="SourceAlpha" type="matrix" values="0 0 0 0 0 0 0 0 0 0 0 0 0 0 0 0 0 0 127 0" result="hardAlpha"></feColorMatrix><feOffset dy="4"></feOffset><feGaussianBlur stdDeviation="7"></feGaussianBlur><feComposite in2="hardAlpha" operator="out"></feComposite><feColorMatrix type="matrix" values="0 0 0 0 0.152327 0 0 0 0 0.152327 0 0 0 0 0.152327 0 0 0 0.2 0"></feColorMatrix><feBlend mode="normal" in2="BackgroundImageFix" result="effect1_dropShadow_2919_14647"></feBlend><feBlend mode="normal" in="SourceGraphic" in2="effect1_dropShadow_2919_14647" result="shape"></feBlend></filter><filter id="filter2_d_2919_14647" x="398.553" y="104.346" width="203.374" height="110.09" filterUnits="userSpaceOnUse" color-interpolation-filters="sRGB"><feFlood flood-opacity="0" result="BackgroundImageFix"></feFlood><feColorMatrix in="SourceAlpha" type="matrix" values="0 0 0 0 0 0 0 0 0 0 0 0 0 0 0 0 0 0 127 0" result="hardAlpha"></feColorMatrix><feOffset dy="4"></feOffset><feGaussianBlur stdDeviation="7"></feGaussianBlur><feComposite in2="hardAlpha" operator="out"></feComposite><feColorMatrix type="matrix" values="0 0 0 0 0.152327 0 0 0 0 0.152327 0 0 0 0 0.152327 0 0 0 0.2 0"></feColorMatrix><feBlend mode="normal" in2="BackgroundImageFix" result="effect1_dropShadow_2919_14647"></feBlend><feBlend mode="normal" in="SourceGraphic" in2="effect1_dropShadow_2919_14647" result="shape"></feBlend></filter><filter id="filter3_d_2919_14647" x="512.627" y="153.123" width="75.0371" height="46.1195" filterUnits="userSpaceOnUse" color-interpolation-filters="sRGB"><feFlood flood-opacity="0" result="BackgroundImageFix"></feFlood><feColorMatrix in="SourceAlpha" type="matrix" values="0 0 0 0 0 0 0 0 0 0 0 0 0 0 0 0 0 0 127 0" result="hardAlpha"></feColorMatrix><feOffset dy="4"></feOffset><feGaussianBlur stdDeviation="5"></feGaussianBlur><feComposite in2="hardAlpha" operator="out"></feComposite><feColorMatrix type="matrix" values="0 0 0 0 0.337695 0 0 0 0 0.116251 0 0 0 0 0.0136309 0 0 0 0.1 0"></feColorMatrix><feBlend mode="normal" in2="BackgroundImageFix" result="effect1_dropShadow_2919_14647"></feBlend><feBlend mode="normal" in="SourceGraphic" in2="effect1_dropShadow_2919_14647" result="shape"></feBlend></filter><filter id="filter4_d_2919_14647" x="675.652" y="212.249" width="50.7832" height="34.9254" filterUnits="userSpaceOnUse" color-interpolation-filters="sRGB"><feFlood flood-opacity="0" result="BackgroundImageFix"></feFlood><feColorMatrix in="SourceAlpha" type="matrix" values="0 0 0 0 0 0 0 0 0 0 0 0 0 0 0 0 0 0 127 0" result="hardAlpha"></feColorMatrix><feOffset dy="4"></feOffset><feGaussianBlur stdDeviation="5"></feGaussianBlur><feComposite in2="hardAlpha" operator="out"></feComposite><feColorMatrix type="matrix" values="0 0 0 0 0.337695 0 0 0 0 0.116251 0 0 0 0 0.0136309 0 0 0 0.1 0"></feColorMatrix><feBlend mode="normal" in2="BackgroundImageFix" result="effect1_dropShadow_2919_14647"></feBlend><feBlend mode="normal" in="SourceGraphic" in2="effect1_dropShadow_2919_14647" result="shape"></feBlend></filter><filter id="filter5_d_2919_14647" x="200.641" y="85.3123" width="50.7832" height="34.9254" filterUnits="userSpaceOnUse" color-interpolation-filters="sRGB"><feFlood flood-opacity="0" result="BackgroundImageFix"></feFlood><feColorMatrix in="SourceAlpha" type="matrix" values="0 0 0 0 0 0 0 0 0 0 0 0 0 0 0 0 0 0 127 0" result="hardAlpha"></feColorMatrix><feOffset dy="4"></feOffset><feGaussianBlur stdDeviation="5"></feGaussianBlur><feComposite in2="hardAlpha" operator="out"></feComposite><feColorMatrix type="matrix" values="0 0 0 0 0.337695 0 0 0 0 0.116251 0 0 0 0 0.0136309 0 0 0 0.1 0"></feColorMatrix><feBlend mode="normal" in2="BackgroundImageFix" result="effect1_dropShadow_2919_14647"></feBlend><feBlend mode="normal" in="SourceGraphic" in2="effect1_dropShadow_2919_14647" result="shape"></feBlend></filter><linearGradient id="paint0_linear_2919_14647" x1="226.561" y1="118.535" x2="298.612" y2="118.537" gradientUnits="userSpaceOnUse"><stop stop-color="#FF7F2C"></stop></linearGradient><linearGradient id="paint1_linear_2919_14647" x1="355.581" y1="111.074" x2="427.633" y2="111.076" gradientUnits="userSpaceOnUse"><stop stop-color="#FF7F2C"></stop><stop offset="1" stop-color="#F771BB"></stop></linearGradient><linearGradient id="paint2_linear_2919_14647" x1="28" y1="30.228" x2="188.858" y2="30.228" gradientUnits="userSpaceOnUse"><stop stop-color="#FF7F2C" stop-opacity="0"></stop><stop offset="0.55" stop-color="#FF7F2C"></stop></linearGradient><linearGradient id="paint3_linear_2919_14647" x1="1036.72" y1="29.228" x2="265.099" y2="29.228" gradientUnits="userSpaceOnUse"><stop stop-color="#FA54AF" stop-opacity="0"></stop><stop offset="0.325" stop-color="#FA54AF"></stop><stop offset="1" stop-color="#FF7F2C"></stop></linearGradient><linearGradient id="paint4_linear_2919_14647" x1="701.594" y1="251.542" x2="975.218" y2="161.051" gradientUnits="userSpaceOnUse"><stop offset="0.94" stop-color="#FA54AF"></stop><stop offset="1" stop-color="#FA54AF" stop-opacity="0"></stop></linearGradient><linearGradient id="paint5_linear_2919_14647" x1="826.509" y1="218.249" x2="826.509" y2="300.339" gradientUnits="userSpaceOnUse"><stop stop-color="white"></stop><stop offset="1" stop-color="#D7D7D7"></stop></linearGradient><linearGradient id="paint6_linear_2919_14647" x1="500.24" y1="114.346" x2="500.24" y2="196.436" gradientUnits="userSpaceOnUse"><stop stop-color="white"></stop><stop offset="1" stop-color="#D7D7D7"></stop></linearGradient><clipPath id="clip0_2919_14647"><path d="M0 0H734V243C734 254.598 724.598 264 713 264H0V0Z" fill="white"></path></clipPath></defs></svg> 