<?xml version="1.0" encoding="UTF-8"?> <svg xmlns="http://www.w3.org/2000/svg" width="474" height="156" viewBox="0 0 474 156" fill="none"><g clip-path="url(#clip0_254_2064)"><path d="M156.637 95.1094L152.074 99.6866L158.27 101.734L156.637 95.1094Z" fill="#E3000B"></path><path d="M158.892 104.029L155.379 109.047L160.431 109.39L158.892 104.029Z" fill="#E3000B"></path><path d="M154.315 86.5996L149.672 90.6836L156.032 93.0599L154.315 86.5996Z" fill="#E3000B"></path><path d="M163.958 109.669L153.546 83.4512L149 81.0738L155.916 76.6812L149.244 71.534L156.602 67.8952L150.389 62.2868L158.498 59.7305L152.958 53.3995L161.163 51.5782L156.701 44.6116L164.891 43.7759L161.215 36.137L169.828 36.3648L167.342 28.8067L175.778 29.5124L174.014 21.7577L181.924 24.118L181.32 15.8066L189.184 19.1661L189.757 11.1666L196.868 15.6251L198.159 7.39509L204.68 12.5422L207.168 4.85392L212.955 10.7711L216.208 3.52461L221.374 9.87014L225.478 3.01758L229.809 9.95382L234.649 3.73877L237.952 11.1486L243.934 5.3779L246.24 13.4131L252.762 8.4945L254.185 16.6242L261.083 12.7057L261.36 21.134L268.947 17.8558L268.258 26.4444L276.467 24.3132L274.309 32.2502L282.287 31.4789L279.474 38.9543L287.992 39.2844L283.97 46.3842L292.03 47.0039L287.026 53.4989L295.007 55.8576L289.576 61.7765L296.966 65.287L290.901 70.4666L297.867 75.074L291.392 78.862L297.85 84.0759L290.641 87.4694L296.623 93.7008L288.892 96.1763L293.828 102.718L286.014 104.503L290.576 112.21L281.91 112.194L285.426 119.719L277.219 119.441L279.752 127.292L271.843 125.557L273.606 133.77L265.464 131.408L266.055 139.293L258.499 136.18L258.336 144.721L251.357 140.359L249.835 148.115L243.329 143.279L240.744 150.967L234.682 145.214L231.721 152.509L226.244 146.196L222.157 152.984L217.727 145.935L212.725 152.18L209.439 144.426L203.684 150.458L201.216 142.346L194.547 147.655L193.45 139.278L186.683 143.526L186.634 135.196L178.819 138.362L179.815 130.13L171.477 132.212L173.704 124.424L165.496 125.441L168.225 117.733L159.856 117.324L163.958 109.669Z" fill="#E3000B"></path><path d="M280.109 140.688C280.094 136.523 283.462 133.457 287.435 133.441C291.375 133.441 294.74 136.508 294.74 140.688C294.759 144.884 291.39 147.949 287.451 147.949C283.479 147.949 280.109 144.884 280.109 140.688ZM287.451 146.738C290.72 146.738 293.302 144.164 293.302 140.688C293.302 137.229 290.705 134.655 287.436 134.655C284.131 134.655 281.548 137.245 281.548 140.688C281.548 144.18 284.131 146.738 287.451 146.738ZM285.914 144.884H284.655L284.639 136.523H287.81C289.789 136.523 290.769 137.229 290.769 138.901C290.769 140.393 289.837 141.048 288.613 141.195L290.997 144.884H289.577L287.371 141.263H285.914V144.884ZM287.417 140.197C288.497 140.197 289.463 140.098 289.463 138.803C289.447 137.787 288.497 137.591 287.631 137.591H285.914V140.197H287.417Z" fill="#E3000B"></path><path d="M152.777 80.9942L159.823 79.092L173.865 99.8976L173.962 99.8625L175.5 74.8447L182.463 72.9766L190.311 102.275L185.555 103.569L179.504 80.9287L179.406 80.9611L177.511 105.732L173.408 106.832L159.413 86.3692H159.332L165.378 108.997L160.607 110.275L152.777 80.9942Z" fill="white"></path><path d="M195.103 69.5635L200.45 68.1562L219.316 94.4539L213.954 95.8949L209.181 88.881L197.754 91.9454L197.129 100.453L191.965 101.831L195.103 69.5635ZM198.08 87.6811L206.824 85.3211L199.141 73.895H199.108L199.027 73.9268L198.08 87.6811Z" fill="white"></path><path d="M204.145 67.1389L227.324 60.875L228.519 65.3028L219.412 67.7639L226.083 92.6166L221.063 93.9775L214.394 69.1218L205.337 71.5667L204.145 67.1389Z" fill="white"></path><path d="M223.156 62.0095L246.355 55.7793L247.531 60.205L238.425 62.6481L245.096 87.5018L240.075 88.8479L233.422 64.0091L224.366 66.4503L223.156 62.0095Z" fill="white"></path><path d="M248.215 55.2843L268.13 49.873L269.322 54.302L254.394 58.349L256.456 66.025L270.22 62.3015L271.332 66.4832L257.584 70.2035L259.872 78.762L275.059 74.6481L276.27 79.0908L256.062 84.5495L248.215 55.2843Z" fill="white"></path><path d="M270.695 49.2023L275.698 47.8574L282.366 72.7118L296.918 68.7933L298.127 73.2202L278.526 78.4988L270.695 49.2023Z" fill="white"></path></g><defs><clipPath id="clip0_254_2064"><rect width="149.128" height="149.966" fill="white" transform="translate(149 3.01758)"></rect></clipPath></defs></svg> 