<?xml version="1.0" encoding="UTF-8"?> <svg xmlns="http://www.w3.org/2000/svg" width="125" height="125" viewBox="0 0 125 125" fill="none"><rect width="125" height="125" rx="62.5" fill="#231137"></rect><circle cx="62.5" cy="62.5" r="62.5" fill="url(#paint0_radial_2890_18697)" fill-opacity="0.4"></circle><path d="M87.0625 79.9374H86.125V49.9376C86.125 48.3868 84.8633 47.1251 83.3125 47.1251H80.7782C79.0685 43.7886 75.5934 41.5 71.5938 41.5C67.5941 41.5 64.1192 43.7886 62.4094 47.1251H44.6876C43.1368 47.1251 41.8751 48.3868 41.8751 49.9376V79.9374H40.9375C40.4197 79.9374 40 80.3571 40 80.8749V83.6874C40 85.2382 41.2617 86.4999 42.8125 86.4999H85.1875C86.7383 86.4999 88 85.2382 88 83.6874V80.8749C88 80.3571 87.5803 79.9374 87.0625 79.9374ZM71.5938 43.375C76.2462 43.375 80.0313 47.1601 80.0313 51.8125C80.0313 56.4649 76.2462 60.25 71.5938 60.25C66.9414 60.25 63.1563 56.4649 63.1563 51.8125C63.1563 47.1601 66.9414 43.375 71.5938 43.375ZM67.375 61.2221C68.6634 61.8021 70.0916 62.125 71.5938 62.125C73.0959 62.125 74.5241 61.8021 75.8125 61.2221V70.5257L72.1219 68.0094C71.8033 67.7921 71.3843 67.7921 71.0656 68.0094L67.3749 70.5257V61.2221H67.375ZM44.6876 49.0001H61.671C61.4171 49.8945 61.2813 50.8379 61.2813 51.8125C61.2813 55.221 62.9436 58.2487 65.5 60.1272V72.2995C65.5 72.6471 65.6922 72.966 65.9994 73.1284C66.3067 73.2907 66.6785 73.2698 66.9656 73.0741L71.5938 69.9186L76.2219 73.0741C76.3806 73.1823 76.565 73.237 76.7501 73.237C76.9001 73.237 77.0507 73.201 77.1881 73.1284C77.4953 72.966 77.6875 72.647 77.6875 72.2995V60.1272C80.244 58.2486 81.9063 55.221 81.9063 51.8125C81.9063 50.8379 81.7703 49.8945 81.5165 49.0001H83.3124C83.8294 49.0001 84.2499 49.4206 84.2499 49.9376V76.1873H43.75V49.9376C43.75 49.4206 44.1706 49.0001 44.6876 49.0001ZM43.75 78.0623H84.2499V79.9374H69.6249C69.1072 79.9374 68.6874 80.3571 68.6874 80.8749H59.3125C59.3125 80.3571 58.8927 79.9374 58.375 79.9374H43.75V78.0623ZM86.125 83.6874C86.125 84.2044 85.7044 84.6249 85.1875 84.6249H42.8125C42.2956 84.6249 41.875 84.2044 41.875 83.6874V81.8124H57.6892C58.0138 82.3725 58.6199 82.7499 59.3126 82.7499H68.6875C69.3802 82.7499 69.9863 82.3725 70.3108 81.8124H86.125V83.6874Z" fill="white"></path><path d="M68.184 52.9224L67.7698 55.6618C67.7174 56.008 67.8625 56.3546 68.1458 56.5604C68.429 56.7661 68.8035 56.797 69.1165 56.6402L71.5938 55.3997L74.0711 56.6401C74.2039 56.7066 74.3476 56.7393 74.4908 56.7393C74.6853 56.7393 74.8787 56.6789 75.0419 56.5603C75.3252 56.3545 75.4702 56.0079 75.4179 55.6617L75.0037 52.9223L76.9489 50.9496C77.1948 50.7002 77.2811 50.3346 77.173 50.0016C77.0648 49.6686 76.78 49.4236 76.4345 49.3665L73.7012 48.9138L72.4261 46.4542C72.265 46.1433 71.944 45.9482 71.5938 45.9482C71.2436 45.9482 70.9226 46.1434 70.7615 46.4542L69.4864 48.9138L66.7531 49.3665C66.4076 49.4236 66.1228 49.6686 66.0146 50.0016C65.9065 50.3346 65.9929 50.7002 66.2387 50.9496L68.184 52.9224ZM70.2559 50.687C70.5474 50.6387 70.7991 50.4559 70.935 50.1936L71.5938 48.9227L72.2526 50.1936C72.3885 50.4559 72.6402 50.6387 72.9317 50.687L74.344 50.9209L73.3389 51.9402C73.1314 52.1506 73.0353 52.4464 73.0795 52.7386L73.2935 54.154L72.0135 53.5131C71.8814 53.4469 71.7376 53.4139 71.5938 53.4139C71.45 53.4139 71.3062 53.447 71.1741 53.5131L69.8941 54.154L70.1081 52.7386C70.1523 52.4465 70.0562 52.1506 69.8487 51.9402L68.8436 50.9209L70.2559 50.687Z" fill="white"></path><path d="M47.0312 53.1519H57.9998C58.5176 53.1519 58.9373 52.7321 58.9373 52.2144C58.9373 51.6966 58.5176 51.2769 57.9998 51.2769H47.0312C46.5135 51.2769 46.0938 51.6966 46.0938 52.2144C46.0938 52.7321 46.5135 53.1519 47.0312 53.1519Z" fill="white"></path><path d="M47.0312 57.3037H52.5155C53.0333 57.3037 53.453 56.884 53.453 56.3662C53.453 55.8484 53.0333 55.4287 52.5155 55.4287H47.0312C46.5135 55.4287 46.0938 55.8484 46.0938 56.3662C46.0938 56.884 46.5135 57.3037 47.0312 57.3037Z" fill="white"></path><path d="M47.0312 65.6072H57.9998C58.5176 65.6072 58.9373 65.1875 58.9373 64.6697C58.9373 64.1519 58.5176 63.7322 57.9998 63.7322H47.0312C46.5135 63.7322 46.0938 64.1519 46.0938 64.6697C46.0938 65.1875 46.5135 65.6072 47.0312 65.6072Z" fill="white"></path><path d="M47.0312 69.7588H57.9998C58.5176 69.7588 58.9373 69.3391 58.9373 68.8213C58.9373 68.3035 58.5176 67.8838 57.9998 67.8838H47.0312C46.5135 67.8838 46.0938 68.3035 46.0938 68.8213C46.0938 69.3391 46.5135 69.7588 47.0312 69.7588Z" fill="white"></path><path d="M47.0312 73.9106H52.5155C53.0333 73.9106 53.453 73.4909 53.453 72.9731C53.453 72.4554 53.0333 72.0356 52.5155 72.0356H47.0312C46.5135 72.0356 46.0938 72.4554 46.0938 72.9731C46.0938 73.4909 46.5135 73.9106 47.0312 73.9106Z" fill="white"></path><defs><radialGradient id="paint0_radial_2890_18697" cx="0" cy="0" r="1" gradientUnits="userSpaceOnUse" gradientTransform="translate(62.5 62.5) rotate(90) scale(178.571)"><stop stop-color="#FC52B3"></stop><stop offset="0.366523" stop-color="#222222" stop-opacity="0"></stop></radialGradient></defs></svg> 