<?xml version="1.0" encoding="UTF-8"?> <svg xmlns="http://www.w3.org/2000/svg" width="125" height="125" viewBox="0 0 125 125" fill="none"><rect width="125" height="125" rx="62.5" fill="#231137"></rect><circle cx="62.5" cy="62.5" r="62.5" fill="url(#paint0_radial_2890_18698)" fill-opacity="0.4"></circle><g clip-path="url(#clip0_2890_18698)"><path d="M56.1483 75.1895L56.226 74.8789H55.9058H44.043C41.9517 74.8789 40.25 73.1772 40.25 71.0859V44.043C40.25 41.9517 41.9517 40.25 44.043 40.25H81.957C84.0483 40.25 85.75 41.9517 85.75 44.043V71.0859C85.75 73.1772 84.0483 74.8789 81.957 74.8789H70.0942H69.774L69.8516 75.1895L70.5479 77.9747L70.5952 78.1641H70.7904H71.0859C73.1772 78.1641 74.8789 79.8658 74.8789 81.957V84.6523C74.8789 85.2585 74.3874 85.75 73.7812 85.75H52.2188C51.6126 85.75 51.1211 85.2585 51.1211 84.6523V81.957C51.1211 79.8658 52.8228 78.1641 54.9141 78.1641H55.2095H55.4047L55.452 77.9747L56.1483 75.1895ZM72.4336 83.5547H72.6836V83.3047V81.957C72.6836 81.0759 71.9671 80.3594 71.0859 80.3594H71.0764H71.0666H71.0565H71.0462H71.0355H71.0246H71.0134H71.0019H70.9902H70.9781H70.9658H70.9533H70.9404H70.9273H70.9139H70.9002H70.8863H70.8721H70.8577H70.843H70.828H70.8127H70.7973H70.7815H70.7655H70.7492H70.7327H70.7159H70.6989H70.6816H70.6641H70.6463H70.6282H70.61H70.5914H70.5727H70.5537H70.5344H70.5149H70.4952H70.4752H70.455H70.4345H70.4139H70.3929H70.3718H70.3504H70.3288H70.3069H70.2849H70.2626H70.2401H70.2173H70.1943H70.1711H70.1477H70.1241H70.1002H70.0762H70.0519H70.0274H70.0026H69.9777H69.9526H69.9272H69.9016H69.8759H69.8499H69.8237H69.7973H69.7707H69.7439H69.7169H69.6897H69.6623H69.6347H69.6069H69.5789H69.5507H69.5224H69.4938H69.465H69.4361H69.4069H69.3776H69.3481H69.3184H69.2885H69.2584H69.2282H69.1978H69.1671H69.1364H69.1054H69.0742H69.0429H69.0114H68.9798H68.948H68.9159H68.8838H68.8514H68.8189H68.7863H68.7534H68.7204H68.6873H68.6539H68.6205H68.5868H68.553H68.5191H68.485H68.4507H68.4163H68.3817H68.347H68.3121H68.2771H68.2419H68.2066H68.1712H68.1356H68.0999H68.064H68.028H67.9918H67.9555H67.9191H67.8825H67.8458H67.809H67.772H67.7349H67.6977H67.6603H67.6229H67.5852H67.5475H67.5097H67.4717H67.4336H67.3954H67.357H67.3186H67.28H67.2413H67.2025H67.1636H67.1246H67.0854H67.0462H67.0068H66.9674H66.9278H66.8881H66.8483H66.8085H66.7685H66.7284H66.6882H66.6479H66.6076H66.5671H66.5265H66.4859H66.4451H66.4043H66.3633H66.3223H66.2812H66.24H66.1987H66.1574H66.1159H66.0744H66.0328H65.9911H65.9493H65.9075H65.8655H65.8235H65.7815H65.7393H65.6971H65.6548H65.6125H65.5701H65.5276H65.485H65.4424H65.3997H65.357H65.3142H65.2713H65.2284H65.1854H65.1424H65.0993H65.0562H65.013H64.9697H64.9264H64.8831H64.8397H64.7962H64.7528H64.7092H64.6657H64.622H64.5784H64.5347H64.4909H64.4472H64.4034H64.3595H64.3156H64.2717H64.2278H64.1838H64.1398H64.0958H64.0517H64.0076H63.9635H63.9194H63.8752H63.8311H63.7869H63.7426H63.6984H63.6542H63.6099H63.5656H63.5213H63.477H63.4327H63.3884H63.344H63.2997H63.2554H63.211H63.1666H63.1223H63.0779H63.0336H62.9892H62.9449H62.9005H62.8562H62.8118H62.7675H62.7231H62.6788H62.6345H62.5902H62.5459H62.5017H62.4574H62.4132H62.3689H62.3247H62.2805H62.2364H62.1922H62.1481H62.104H62.0599H62.0159H61.9719H61.9279H61.8839H61.84H61.7961H61.7522H61.7084H61.6646H61.6209H61.5771H61.5335H61.4898H61.4462H61.4027H61.3592H61.3157H61.2723H61.2289H61.1856H61.1423H61.0991H61.0559H61.0128H60.9698H60.9268H60.8838H60.8409H60.7981H60.7553H60.7126H60.67H60.6274H60.5848H60.5424H60.5H60.4577H60.4154H60.3733H60.3312H60.2891H60.2472H60.2053H60.1635H60.1217H60.0801H60.0385H59.997H59.9556H59.9143H59.8731H59.8319H59.7908H59.7499H59.709H59.6682H59.6275H59.5869H59.5463H59.5059H59.4656H59.4254H59.3852H59.3452H59.3053H59.2654H59.2257H59.1861H59.1466H59.1072H59.0679H59.0287H58.9896H58.9506H58.9118H58.873H58.8344H58.7959H58.7575H58.7192H58.681H58.643H58.6051H58.5673H58.5296H58.4921H58.4546H58.4174H58.3802H58.3432H58.3063H58.2695H58.2329H58.1964H58.16H58.1238H58.0877H58.0517H58.0159H57.9803H57.9447H57.9094H57.8741H57.839H57.8041H57.7693H57.7347H57.7002H57.6658H57.6316H57.5976H57.5637H57.53H57.4965H57.4631H57.4298H57.3967H57.3638H57.3311H57.2985H57.266H57.2338H57.2017H57.1698H57.138H57.1065H57.0751H57.0438H57.0128H56.9819H56.9512H56.9207H56.8903H56.8602H56.8302H56.8004H56.7708H56.7414H56.7121H56.6831H56.6542H56.6256H56.5971H56.5688H56.5407H56.5128H56.4851H56.4576H56.4303H56.4032H56.3763H56.3496H56.3231H56.2968H56.2708H56.2449H56.2192H56.1938H56.1685H56.1435H56.1186H56.094H56.0696H56.0454H56.0215H55.9977H55.9742H55.9509H55.9278H55.905H55.8823H55.8599H55.8377H55.8158H55.794H55.7725H55.7513H55.7302H55.7094H55.6889H55.6685H55.6484H55.6286H55.609H55.5896H55.5705H55.5516H55.5329H55.5145H55.4964H55.4785H55.4608H55.4434H55.4262H55.4093H55.3927H55.3763H55.3601H55.3443H55.3286H55.3133H55.2982H55.2833H55.2687H55.2544H55.2403H55.2266H55.213H55.1998H55.1868H55.1741H55.1616H55.1495H55.1376H55.126H55.1146H55.1036H55.0928H55.0823H55.072H55.0621H55.0524H55.0431H55.034H55.0252H55.0167H55.0084H55.0005H54.9929H54.9855H54.9785H54.9717H54.9653H54.9591H54.9532H54.9477H54.9424H54.9374H54.9328H54.9284H54.9244H54.9206H54.9172H54.9141C54.0329 80.3594 53.3164 81.0759 53.3164 81.957V83.3047V83.5547H53.5664H72.4336ZM57.7453 77.8534L57.6676 78.1641H57.9878H68.0123H68.3325L68.2548 77.8534L67.5585 75.0683L67.5112 74.8789H67.316H58.6841H58.4889L58.4416 75.0683L57.7453 77.8534ZM42.6953 69.4883H42.4453V69.7383V71.0859C42.4453 71.9671 43.1618 72.6836 44.043 72.6836H81.957C82.8382 72.6836 83.5547 71.9671 83.5547 71.0859V69.7383V69.4883H83.3047H42.6953ZM83.3047 67.293H83.5547V67.043V56.2617V56.0117H83.3047H77.7275H77.5109L77.4801 56.2262C76.8415 60.6706 73.0085 64.0977 68.3906 64.0977C64.7822 64.0977 61.6526 62.005 60.152 58.9681L59.9444 58.5479L59.7111 58.9544L57.0749 63.5465L57.2844 63.6668L57.0749 63.5465C56.8788 63.8881 56.5152 64.0977 56.1231 64.0977C56.1114 64.0977 56.0993 64.0974 56.0865 64.0971C55.6807 64.0835 55.3155 63.8472 55.1371 63.4828L54.9125 63.5927L55.1371 63.4827L49.7354 52.4521L49.5132 51.9984L49.2873 52.4502L47.81 55.4049C47.81 55.4049 47.81 55.4049 47.81 55.4049C47.6239 55.7769 47.2439 56.0117 46.8281 56.0117H42.6953H42.4453V56.2617V67.043V67.293H42.6953H83.3047ZM83.3047 53.8164H83.5547V53.5664V44.043C83.5547 43.1618 82.8382 42.4453 81.957 42.4453H44.043C43.1618 42.4453 42.4453 43.1618 42.4453 44.043V53.5664V53.8164H42.6953H45.9952H46.1497L46.2188 53.6782L48.5416 49.0326L48.5416 49.0326C48.7275 48.6606 49.1078 48.4258 49.5233 48.4258H49.5234H49.5234H49.5234H49.5234H49.5234H49.5234H49.5234H49.5234H49.5234H49.5235H49.5235H49.5235H49.5235H49.5235H49.5235H49.5235H49.5235H49.5235H49.5236H49.5236H49.5236H49.5236H49.5236H49.5236H49.5236H49.5236H49.5236H49.5237H49.5237H49.5237H49.5237H49.5237H49.5237H49.5237H49.5237H49.5237H49.5238H49.5238H49.5238H49.5238H49.5238H49.5238H49.5238H49.5238H49.5238H49.5239H49.5239H49.5239H49.5239H49.5239H49.5239H49.5239H49.5239H49.5239H49.524H49.524H49.524H49.524H49.524H49.524H49.524H49.524H49.524H49.5241H49.5241H49.5241H49.5241H49.5241H49.5241H49.5241H49.5241H49.5241H49.5242H49.5242H49.5242H49.5242H49.5242H49.5242H49.5242H49.5242H49.5242H49.5243H49.5243H49.5243H49.5243H49.5243H49.5243H49.5243H49.5243H49.5243H49.5244H49.5244H49.5244H49.5244H49.5244H49.5244H49.5244H49.5244H49.5244H49.5245H49.5245H49.5245H49.5245H49.5245H49.5245H49.5245H49.5245H49.5245H49.5246H49.5246H49.5246H49.5246H49.5246H49.5246H49.5246H49.5246H49.5246H49.5247H49.5247H49.5247H49.5247H49.5247H49.5247H49.5247H49.5247H49.5247H49.5248H49.5248H49.5248H49.5248H49.5248H49.5248H49.5248H49.5248H49.5248H49.5249H49.5249H49.5249H49.5249H49.5249H49.5249H49.5249H49.5249H49.5249H49.525H49.525H49.525H49.525H49.525H49.525H49.525H49.525H49.525H49.5251H49.5251H49.5251H49.5251H49.5251H49.5251H49.5251H49.5251H49.5251H49.5251H49.5252H49.5252H49.5252H49.5252H49.5252H49.5252H49.5252H49.5252H49.5252H49.5253H49.5253H49.5253H49.5253H49.5253H49.5253H49.5253H49.5253H49.5253H49.5254H49.5254H49.5254H49.5254H49.5254H49.5254H49.5254H49.5254H49.5254H49.5255H49.5255H49.5255H49.5255H49.5255H49.5255H49.5255H49.5255H49.5255H49.5256H49.5256H49.5256H49.5256H49.5256H49.5256H49.5256H49.5256H49.5256H49.5257H49.5257H49.5257H49.5257H49.5257H49.5257H49.5257H49.5257H49.5257H49.5258H49.5258H49.5258H49.5258H49.5258H49.5258H49.5258H49.5258H49.5258H49.5259H49.5259H49.5259H49.5259H49.5259H49.5259H49.5259H49.5259H49.5259H49.526H49.526H49.526H49.526H49.526H49.526H49.526H49.526H49.526H49.5261H49.5261H49.5261H49.5261H49.5261H49.5261H49.5261H49.5261H49.5261H49.5262H49.5262H49.5262H49.5262H49.5262H49.5262H49.5262H49.5262H49.5262H49.5263H49.5263H49.5263H49.5263H49.5263H49.5263H49.5263H49.5263H49.5263H49.5264H49.5264H49.5264H49.5264H49.5264H49.5264H49.5264H49.5264H49.5264H49.5265H49.5265H49.5265H49.5265H49.5265H49.5265H49.5265H49.5265H49.5265H49.5266H49.5266H49.5266H49.5266H49.5266H49.5266H49.5266H49.5266H49.5266H49.5267H49.5267H49.5267H49.5267H49.5267H49.5267H49.5267H49.5267H49.5267H49.5268H49.5268H49.5268H49.5268H49.5268H49.5268H49.5268H49.5268H49.5268H49.5269H49.5269H49.5269H49.5269H49.5269H49.5269H49.5269H49.5269H49.5269H49.527H49.527H49.527H49.527H49.527H49.527H49.527H49.527H49.527H49.5271H49.5271H49.5271H49.5271H49.5271H49.5271H49.5271H49.5271H49.5271H49.5272H49.5272H49.5272H49.5272H49.5272H49.5272H49.5272H49.5272H49.5272H49.5273H49.5273H49.5273H49.5273H49.5273H49.5273H49.5273H49.5273H49.5273H49.5273H49.5274H49.5274H49.5274H49.5274H49.5274H49.5274H49.5274H49.5274H49.5274H49.5275H49.5275H49.5275H49.5275H49.5275H49.5275H49.5275H49.5275H49.5275H49.5276H49.5276H49.5276H49.5276H49.5276H49.5276H49.5276H49.5276H49.5276H49.5277H49.5277H49.5277H49.5277H49.5277H49.5277H49.5277H49.5277H49.5277H49.5278H49.5278H49.5278H49.5278H49.5278H49.5278H49.5278H49.5278H49.5278H49.5279H49.5279H49.5279H49.5279H49.5279H49.5279H49.5279H49.5279H49.5279H49.528H49.528H49.528H49.528H49.528H49.528H49.528H49.528H49.528H49.5281H49.5281H49.5281H49.5281H49.5281H49.5281H49.5281H49.5281H49.5281H49.5282H49.5282H49.5282H49.5282H49.5282H49.5282H49.5282H49.5282H49.5282H49.5283H49.5283H49.5283H49.5283H49.5283H49.5283H49.5283H49.5283H49.5283H49.5284H49.5284H49.5284H49.5284C49.9456 48.4277 50.3257 48.6659 50.5093 49.0407C50.5093 49.0407 50.5093 49.0407 50.5093 49.0407L55.9927 60.2385L56.1997 60.6613L56.4341 60.2531L59.1838 55.4632L59.22 55.4003L59.2168 55.3278C59.2107 55.1898 59.207 55.052 59.207 54.9141C59.207 49.8505 63.327 45.7305 68.3906 45.7305C73.0085 45.7305 76.8415 49.1575 77.4801 53.602L77.5109 53.8164H77.7275H83.3047ZM68.3906 47.9258C64.5371 47.9258 61.4023 51.0605 61.4023 54.9141C61.4023 58.7676 64.5371 61.9023 68.3906 61.9023C72.2442 61.9023 75.3789 58.7676 75.3789 54.9141C75.3789 51.0605 72.2442 47.9258 68.3906 47.9258Z" fill="white" stroke="#562628" stroke-width="0.5"></path><path d="M72.3151 52.5564C71.7573 52.0637 70.9057 52.1164 70.4129 52.6742L67.7907 55.6427L66.783 54.635C66.2568 54.1087 65.4035 54.1087 64.8772 54.635C64.3508 55.1613 64.3508 56.0145 64.8772 56.5408L66.8988 58.5624C67.1519 58.8155 67.4949 58.9571 67.8516 58.9571C67.8655 58.9571 67.8795 58.9569 67.8934 58.9565C68.2652 58.945 68.6155 58.7804 68.8617 58.5016L72.433 54.4586C72.9257 53.9008 72.873 53.0492 72.3151 52.5564Z" fill="white"></path></g><defs><radialGradient id="paint0_radial_2890_18698" cx="0" cy="0" r="1" gradientUnits="userSpaceOnUse" gradientTransform="translate(62.5 62.5) rotate(90) scale(178.571)"><stop stop-color="#FF4B1E"></stop><stop offset="0.366523" stop-color="#222222" stop-opacity="0"></stop></radialGradient><clipPath id="clip0_2890_18698"><rect width="46" height="46" fill="white" transform="translate(40 40)"></rect></clipPath></defs></svg> 