<?xml version="1.0" encoding="UTF-8"?> <svg xmlns="http://www.w3.org/2000/svg" width="1060" height="743" viewBox="0 0 1060 743" fill="none"><g opacity="0.6"><g filter="url(#filter0_d_2689_12804)"><rect x="123" y="92" width="746.89" height="420" rx="15" fill="#515151" fill-opacity="0.2" shape-rendering="crispEdges"></rect></g><path d="M123 107C123 98.7157 129.716 92 138 92H854.89C863.174 92 869.89 98.7157 869.89 107V497C869.89 505.284 863.174 512 854.89 512H138C129.716 512 123 505.284 123 497V107Z" fill="#7A7A7A" fill-opacity="0.2"></path><path d="M354.101 147.263H407.69" stroke="#9A9A9A" stroke-width="2" stroke-linecap="round"></path><rect x="229.338" y="129.342" width="100.148" height="11.0574" rx="5.52871" stroke="#B7B7B7" stroke-opacity="0.5"></rect><rect x="352.091" y="128.842" width="57.6077" height="12.0574" rx="6.02871" fill="#B7B7B7" fill-opacity="0.5"></rect><rect x="432.304" y="129.342" width="56.6077" height="11.0574" rx="5.52871" stroke="#B7B7B7" stroke-opacity="0.5"></rect><rect x="512.018" y="129.342" width="96.799" height="11.0574" rx="5.52871" stroke="#B7B7B7" stroke-opacity="0.5"></rect><rect x="228.838" y="185.11" width="486.316" height="198.278" rx="10" fill="white" fill-opacity="0.2"></rect><path d="M297.833 248.746H689.029" stroke="#9E9E9E"></path><path d="M297.833 354.584H689.029" stroke="#9E9E9E"></path><path d="M297.833 283.579H689.029" stroke="#9E9E9E"></path><path d="M297.833 319.751H689.029" stroke="#9E9E9E"></path><rect x="246.924" y="201.187" width="101.148" height="12.0574" rx="6.02871" fill="#9E9E9E"></rect><rect x="659.556" y="201.187" width="29.4737" height="12.0574" rx="6.02871" fill="#ABABAB" fill-opacity="0.5"></rect><rect x="622.043" y="201.187" width="29.4737" height="12.0574" rx="6.02871" fill="#B7B7B7" fill-opacity="0.5"></rect><path d="M336.015 262.454C336.015 259.693 338.253 257.454 341.015 257.454H361.488C363.697 257.454 365.488 259.245 365.488 261.454V354.584H336.015V262.454Z" fill="#B7B7B7" fill-opacity="0.5"></path><path d="M405.68 288.579C405.68 285.817 407.918 283.579 410.68 283.579H431.823C434.032 283.579 435.823 285.37 435.823 287.579V354.584H405.68V288.579Z" fill="#B7B7B7" fill-opacity="0.5"></path><path d="M615.345 288.579C615.345 285.817 617.583 283.579 620.345 283.579H641.488C643.697 283.579 645.488 285.37 645.488 287.579V354.584H615.345V288.579Z" fill="#B7B7B7" fill-opacity="0.5"></path><path d="M476.015 281.88C476.015 279.119 478.253 276.88 481.015 276.88H501.488C503.697 276.88 505.488 278.671 505.488 280.88V354.584H476.015V281.88Z" fill="#B7B7B7" fill-opacity="0.5"></path><path d="M545.68 243.029C545.68 240.267 547.918 238.029 550.68 238.029H571.153C573.363 238.029 575.153 239.819 575.153 242.029V354.584H545.68V243.029Z" fill="#B7B7B7" fill-opacity="0.5"></path><rect x="123.5" y="92.5" width="745.89" height="419" rx="14.5" stroke="url(#paint0_linear_2689_12804)" stroke-opacity="0.2"></rect><path d="M228.838 410.804C228.838 405.281 233.315 400.804 238.838 400.804H705.154C710.677 400.804 715.154 405.281 715.154 410.804V512H228.838V410.804Z" fill="white" fill-opacity="0.2"></path><rect x="299.843" y="428.938" width="101.148" height="12.0574" rx="6.02871" fill="#9E9E9E"></rect><rect x="659.556" y="428.938" width="29.4737" height="12.0574" rx="6.02871" fill="#B7B7B7" fill-opacity="0.5"></rect><rect x="249.604" y="470.469" width="439.426" height="12.0574" rx="6.02871" fill="#ABABAB" fill-opacity="0.5"></rect><rect x="249.604" y="489.895" width="298.756" height="12.0574" rx="6.02871" fill="#ABABAB" fill-opacity="0.5"></rect><circle cx="265.345" cy="434.632" r="15.7416" fill="url(#paint1_linear_2689_12804)" fill-opacity="0.5"></circle><path d="M123 107C123 98.7157 129.716 92 138 92H210.751V512H138C129.716 512 123 505.284 123 497V107Z" fill="#B8B8B8" fill-opacity="0.25"></path><rect x="123" y="197.167" width="87.7512" height="28.8038" fill="#B7B7B7" fill-opacity="0.5"></rect><rect x="136.397" y="205.876" width="61.6268" height="12.0574" rx="6.02871" fill="white" fill-opacity="0.75"></rect><rect x="136.397" y="270.182" width="61.6268" height="12.0574" rx="6.02871" fill="#B7B7B7" fill-opacity="0.5"></rect><rect x="136.397" y="238.029" width="61.6268" height="12.0574" rx="6.02871" fill="#B7B7B7" fill-opacity="0.5"></rect><rect x="136.397" y="302.335" width="61.6268" height="12.0574" rx="6.02871" fill="#B7B7B7" fill-opacity="0.5"></rect><rect x="158.502" y="481.856" width="39.5215" height="8.03828" rx="4.01914" fill="#B7B7B7" fill-opacity="0.5"></rect><circle cx="145.44" cy="485.541" r="9.04306" fill="#ADADAD" fill-opacity="0.5"></circle><g filter="url(#filter1_d_2689_12804)"><rect x="138.407" y="109.416" width="57.6077" height="58.2775" rx="10" fill="#A9A9A9"></rect><rect x="138.907" y="109.916" width="56.6077" height="57.2775" rx="9.5" stroke="white" stroke-opacity="0.2"></rect></g><g clip-path="url(#clip0_2689_12804)"><path d="M162.887 127.017C164.277 125.607 166.211 124.733 168.351 124.733C171.195 124.733 173.676 126.277 174.997 128.57C176.145 128.071 177.417 127.793 178.754 127.793C183.883 127.793 188.042 131.878 188.042 136.918C188.042 141.959 183.883 146.045 178.754 146.045C178.139 146.045 177.527 145.986 176.924 145.867C175.761 147.889 173.543 149.255 170.998 149.255C169.933 149.255 168.925 149.015 168.028 148.589C166.848 151.291 164.1 153.186 160.897 153.186C157.561 153.186 154.719 151.131 153.627 148.247C153.15 148.346 152.656 148.398 152.149 148.398C148.178 148.398 144.958 145.229 144.958 141.32C144.958 138.701 146.405 136.414 148.554 135.19C148.112 134.198 147.866 133.104 147.866 131.953C147.866 127.458 151.612 123.814 156.234 123.814C158.947 123.814 161.358 125.07 162.887 127.017Z" fill="white"></path></g></g><g filter="url(#filter2_b_2689_12804)"><rect x="386.979" width="668" height="603" rx="24" fill="url(#paint2_linear_2689_12804)" fill-opacity="0.98"></rect><path d="M443.676 48.1325L437.225 45.7575L434.85 39.3012C434.709 38.9192 434.455 38.5894 434.121 38.3565C433.787 38.1236 433.389 37.9987 432.982 37.9987C432.575 37.9987 432.178 38.1236 431.844 38.3565C431.51 38.5894 431.255 38.9192 431.115 39.3012L428.737 45.75L422.281 48.125C421.899 48.2656 421.569 48.5201 421.336 48.854C421.103 49.188 420.979 49.5853 420.979 49.9925C420.979 50.3997 421.103 50.797 421.336 51.131C421.569 51.4649 421.899 51.7194 422.281 51.86L428.729 54.25L431.104 60.7025C431.244 61.0846 431.499 61.4143 431.833 61.6473C432.167 61.8802 432.564 62.0051 432.971 62.0051C433.378 62.0051 433.776 61.8802 434.11 61.6473C434.443 61.4143 434.698 61.0846 434.839 60.7025L437.214 54.2512L443.67 51.8762C444.052 51.7356 444.382 51.4811 444.615 51.1472C444.848 50.8133 444.972 50.4159 444.972 50.0088C444.972 49.6016 444.848 49.2042 444.615 48.8703C444.382 48.5364 444.052 48.2819 443.67 48.1413L443.676 48.1325ZM436.527 52.375C436.257 52.4742 436.012 52.631 435.808 52.8345C435.605 53.0381 435.448 53.2835 435.349 53.5537L432.974 59.9862L430.604 53.5487C430.504 53.2799 430.348 53.0358 430.145 52.8332C429.943 52.6306 429.699 52.4743 429.43 52.375L422.997 50L429.43 47.625C429.699 47.5257 429.943 47.3694 430.145 47.1668C430.348 46.9642 430.504 46.7201 430.604 46.4513L432.979 40.0188L435.354 46.4513C435.453 46.7215 435.61 46.9669 435.813 47.1705C436.017 47.374 436.262 47.5308 436.532 47.63L442.965 50.005L436.527 52.375ZM436.979 37C436.979 36.7348 437.084 36.4804 437.271 36.2929C437.459 36.1054 437.713 36 437.979 36H439.979V34C439.979 33.7348 440.084 33.4804 440.271 33.2929C440.459 33.1054 440.713 33 440.979 33C441.244 33 441.498 33.1054 441.686 33.2929C441.873 33.4804 441.979 33.7348 441.979 34V36H443.979C444.244 36 444.498 36.1054 444.686 36.2929C444.873 36.4804 444.979 36.7348 444.979 37C444.979 37.2652 444.873 37.5196 444.686 37.7071C444.498 37.8946 444.244 38 443.979 38H441.979V40C441.979 40.2652 441.873 40.5196 441.686 40.7071C441.498 40.8946 441.244 41 440.979 41C440.713 41 440.459 40.8946 440.271 40.7071C440.084 40.5196 439.979 40.2652 439.979 40V38H437.979C437.713 38 437.459 37.8946 437.271 37.7071C437.084 37.5196 436.979 37.2652 436.979 37ZM449.979 43C449.979 43.2652 449.873 43.5196 449.686 43.7071C449.498 43.8946 449.244 44 448.979 44H447.979V45C447.979 45.2652 447.873 45.5196 447.686 45.7071C447.498 45.8946 447.244 46 446.979 46C446.713 46 446.459 45.8946 446.271 45.7071C446.084 45.5196 445.979 45.2652 445.979 45V44H444.979C444.713 44 444.459 43.8946 444.271 43.7071C444.084 43.5196 443.979 43.2652 443.979 43C443.979 42.7348 444.084 42.4804 444.271 42.2929C444.459 42.1054 444.713 42 444.979 42H445.979V41C445.979 40.7348 446.084 40.4804 446.271 40.2929C446.459 40.1054 446.713 40 446.979 40C447.244 40 447.498 40.1054 447.686 40.2929C447.873 40.4804 447.979 40.7348 447.979 41V42H448.979C449.244 42 449.498 42.1054 449.686 42.2929C449.873 42.4804 449.979 42.7348 449.979 43Z" fill="url(#paint3_linear_2689_12804)"></path><path d="M468.679 51.68H462.319L461.099 55H459.619L464.719 41.2H466.299L471.379 55H469.899L468.679 51.68ZM468.259 50.52L465.499 42.96L462.739 50.52H468.259ZM475.175 41.02V55H473.775V41.02H475.175ZM492.234 51.68H485.874L484.654 55H483.174L488.274 41.2H489.854L494.934 55H493.454L492.234 51.68ZM491.814 50.52L489.054 42.96L486.294 50.52H491.814ZM506.791 44.08V55H505.391V53.08C505.071 53.76 504.578 54.28 503.911 54.64C503.244 55 502.498 55.18 501.671 55.18C500.364 55.18 499.298 54.78 498.471 53.98C497.644 53.1667 497.231 51.9933 497.231 50.46V44.08H498.611V50.3C498.611 51.4867 498.904 52.3933 499.491 53.02C500.091 53.6467 500.904 53.96 501.931 53.96C502.984 53.96 503.824 53.6267 504.451 52.96C505.078 52.2933 505.391 51.3133 505.391 50.02V44.08H506.791ZM511.957 45.26V52.04C511.957 52.7067 512.084 53.1667 512.337 53.42C512.59 53.6733 513.037 53.8 513.677 53.8H514.957V55H513.457C512.47 55 511.737 54.7733 511.257 54.32C510.777 53.8533 510.537 53.0933 510.537 52.04V45.26H509.017V44.08H510.537V41.34H511.957V44.08H514.957V45.26H511.957ZM522.196 55.16C521.169 55.16 520.243 54.9333 519.416 54.48C518.603 54.0133 517.956 53.36 517.476 52.52C517.009 51.6667 516.776 50.6733 516.776 49.54C516.776 48.4067 517.016 47.42 517.496 46.58C517.976 45.7267 518.629 45.0733 519.456 44.62C520.283 44.1533 521.209 43.92 522.236 43.92C523.263 43.92 524.189 44.1533 525.016 44.62C525.856 45.0733 526.509 45.7267 526.976 46.58C527.456 47.42 527.696 48.4067 527.696 49.54C527.696 50.66 527.456 51.6467 526.976 52.5C526.496 53.3533 525.836 54.0133 524.996 54.48C524.156 54.9333 523.223 55.16 522.196 55.16ZM522.196 53.94C522.916 53.94 523.583 53.78 524.196 53.46C524.809 53.1267 525.303 52.6333 525.676 51.98C526.063 51.3133 526.256 50.5 526.256 49.54C526.256 48.58 526.069 47.7733 525.696 47.12C525.323 46.4533 524.829 45.96 524.216 45.64C523.603 45.3067 522.936 45.14 522.216 45.14C521.496 45.14 520.829 45.3067 520.216 45.64C519.603 45.96 519.109 46.4533 518.736 47.12C518.376 47.7733 518.196 48.58 518.196 49.54C518.196 50.5 518.376 51.3133 518.736 51.98C519.109 52.6333 519.596 53.1267 520.196 53.46C520.809 53.78 521.476 53.94 522.196 53.94ZM543.398 43.88C544.678 43.88 545.718 44.2867 546.518 45.1C547.331 45.9 547.738 47.0667 547.738 48.6V55H546.358V48.76C546.358 47.5733 546.071 46.6667 545.498 46.04C544.925 45.4133 544.145 45.1 543.158 45.1C542.131 45.1 541.311 45.44 540.698 46.12C540.085 46.8 539.778 47.7867 539.778 49.08V55H538.398V48.76C538.398 47.5733 538.111 46.6667 537.538 46.04C536.965 45.4133 536.178 45.1 535.178 45.1C534.151 45.1 533.331 45.44 532.718 46.12C532.105 46.8 531.798 47.7867 531.798 49.08V55H530.398V44.08H531.798V45.96C532.145 45.28 532.638 44.7667 533.278 44.42C533.918 44.06 534.631 43.88 535.418 43.88C536.365 43.88 537.191 44.1067 537.898 44.56C538.618 45.0133 539.138 45.68 539.458 46.56C539.751 45.6933 540.251 45.0333 540.958 44.58C541.678 44.1133 542.491 43.88 543.398 43.88ZM550.357 49.52C550.357 48.4 550.577 47.42 551.017 46.58C551.471 45.7267 552.091 45.0733 552.877 44.62C553.677 44.1533 554.577 43.92 555.577 43.92C556.617 43.92 557.511 44.16 558.257 44.64C559.017 45.12 559.564 45.7333 559.897 46.48V44.08H561.297V55H559.897V52.58C559.551 53.3267 558.997 53.9467 558.237 54.44C557.491 54.92 556.597 55.16 555.557 55.16C554.571 55.16 553.677 54.9267 552.877 54.46C552.091 53.9933 551.471 53.3333 551.017 52.48C550.577 51.6267 550.357 50.64 550.357 49.52ZM559.897 49.54C559.897 48.66 559.717 47.8867 559.357 47.22C558.997 46.5533 558.504 46.04 557.877 45.68C557.264 45.32 556.584 45.14 555.837 45.14C555.064 45.14 554.371 45.3133 553.757 45.66C553.144 46.0067 552.657 46.5133 552.297 47.18C551.951 47.8333 551.777 48.6133 551.777 49.52C551.777 50.4133 551.951 51.2 552.297 51.88C552.657 52.5467 553.144 53.06 553.757 53.42C554.371 53.7667 555.064 53.94 555.837 53.94C556.584 53.94 557.264 53.76 557.877 53.4C558.504 53.04 558.997 52.5267 559.357 51.86C559.717 51.1933 559.897 50.42 559.897 49.54ZM566.463 45.26V52.04C566.463 52.7067 566.59 53.1667 566.843 53.42C567.097 53.6733 567.543 53.8 568.183 53.8H569.463V55H567.963C566.977 55 566.243 54.7733 565.763 54.32C565.283 53.8533 565.043 53.0933 565.043 52.04V45.26H563.523V44.08H565.043V41.34H566.463V44.08H569.463V45.26H566.463ZM581.802 48.98C581.802 49.46 581.789 49.8267 581.762 50.08H572.702C572.742 50.9067 572.942 51.6133 573.302 52.2C573.662 52.7867 574.136 53.2333 574.722 53.54C575.309 53.8333 575.949 53.98 576.642 53.98C577.549 53.98 578.309 53.76 578.922 53.32C579.549 52.88 579.962 52.2867 580.162 51.54H581.642C581.376 52.6067 580.802 53.48 579.922 54.16C579.056 54.8267 577.962 55.16 576.642 55.16C575.616 55.16 574.696 54.9333 573.882 54.48C573.069 54.0133 572.429 53.36 571.962 52.52C571.509 51.6667 571.282 50.6733 571.282 49.54C571.282 48.4067 571.509 47.4133 571.962 46.56C572.416 45.7067 573.049 45.0533 573.862 44.6C574.676 44.1467 575.602 43.92 576.642 43.92C577.682 43.92 578.589 44.1467 579.362 44.6C580.149 45.0533 580.749 45.6667 581.162 46.44C581.589 47.2 581.802 48.0467 581.802 48.98ZM580.382 48.94C580.396 48.1267 580.229 47.4333 579.882 46.86C579.549 46.2867 579.089 45.8533 578.502 45.56C577.916 45.2667 577.276 45.12 576.582 45.12C575.542 45.12 574.656 45.4533 573.922 46.12C573.189 46.7867 572.782 47.7267 572.702 48.94H580.382ZM583.874 49.52C583.874 48.4 584.1 47.42 584.554 46.58C585.007 45.7267 585.627 45.0733 586.414 44.62C587.214 44.1533 588.114 43.92 589.114 43.92C590.074 43.92 590.94 44.1533 591.714 44.62C592.487 45.0867 593.054 45.6933 593.414 46.44V40.2H594.814V55H593.414V52.56C593.08 53.32 592.534 53.9467 591.774 54.44C591.014 54.92 590.12 55.16 589.094 55.16C588.094 55.16 587.194 54.9267 586.394 54.46C585.607 53.9933 584.987 53.3333 584.534 52.48C584.094 51.6267 583.874 50.64 583.874 49.52ZM593.414 49.54C593.414 48.66 593.234 47.8867 592.874 47.22C592.514 46.5533 592.02 46.04 591.394 45.68C590.78 45.32 590.1 45.14 589.354 45.14C588.58 45.14 587.887 45.3133 587.274 45.66C586.66 46.0067 586.174 46.5133 585.814 47.18C585.467 47.8333 585.294 48.6133 585.294 49.52C585.294 50.4133 585.467 51.2 585.814 51.88C586.174 52.5467 586.66 53.06 587.274 53.42C587.887 53.7667 588.58 53.94 589.354 53.94C590.1 53.94 590.78 53.76 591.394 53.4C592.02 53.04 592.514 52.5267 592.874 51.86C593.234 51.1933 593.414 50.42 593.414 49.54ZM612.738 45.04C612.738 46.24 612.345 47.2067 611.558 47.94C610.771 48.6733 609.591 49.04 608.018 49.04H605.198V55H603.798V41.02H608.018C609.578 41.02 610.751 41.3867 611.538 42.12C612.338 42.8533 612.738 43.8267 612.738 45.04ZM608.018 47.84C610.205 47.84 611.298 46.9067 611.298 45.04C611.298 44.1067 611.038 43.4 610.518 42.92C609.998 42.44 609.165 42.2 608.018 42.2H605.198V47.84H608.018ZM616.637 46.02C616.944 45.34 617.41 44.8133 618.037 44.44C618.677 44.0667 619.457 43.88 620.377 43.88V45.34H619.997C618.984 45.34 618.17 45.6133 617.557 46.16C616.944 46.7067 616.637 47.62 616.637 48.9V55H615.237V44.08H616.637V46.02ZM627.413 55.16C626.387 55.16 625.46 54.9333 624.633 54.48C623.82 54.0133 623.173 53.36 622.693 52.52C622.227 51.6667 621.993 50.6733 621.993 49.54C621.993 48.4067 622.233 47.42 622.713 46.58C623.193 45.7267 623.847 45.0733 624.673 44.62C625.5 44.1533 626.427 43.92 627.453 43.92C628.48 43.92 629.407 44.1533 630.233 44.62C631.073 45.0733 631.727 45.7267 632.193 46.58C632.673 47.42 632.913 48.4067 632.913 49.54C632.913 50.66 632.673 51.6467 632.193 52.5C631.713 53.3533 631.053 54.0133 630.213 54.48C629.373 54.9333 628.44 55.16 627.413 55.16ZM627.413 53.94C628.133 53.94 628.8 53.78 629.413 53.46C630.027 53.1267 630.52 52.6333 630.893 51.98C631.28 51.3133 631.473 50.5 631.473 49.54C631.473 48.58 631.287 47.7733 630.913 47.12C630.54 46.4533 630.047 45.96 629.433 45.64C628.82 45.3067 628.153 45.14 627.433 45.14C626.713 45.14 626.047 45.3067 625.433 45.64C624.82 45.96 624.327 46.4533 623.953 47.12C623.593 47.7733 623.413 48.58 623.413 49.54C623.413 50.5 623.593 51.3133 623.953 51.98C624.327 52.6333 624.813 53.1267 625.413 53.46C626.027 53.78 626.693 53.94 627.413 53.94ZM634.975 49.54C634.975 48.4067 635.202 47.42 635.655 46.58C636.109 45.7267 636.735 45.0733 637.535 44.62C638.335 44.1533 639.249 43.92 640.275 43.92C641.622 43.92 642.729 44.2533 643.595 44.92C644.475 45.5867 645.042 46.4933 645.295 47.64H643.795C643.609 46.8533 643.202 46.24 642.575 45.8C641.962 45.3467 641.195 45.12 640.275 45.12C639.542 45.12 638.882 45.2867 638.295 45.62C637.709 45.9533 637.242 46.4533 636.895 47.12C636.562 47.7733 636.395 48.58 636.395 49.54C636.395 50.5 636.562 51.3133 636.895 51.98C637.242 52.6467 637.709 53.1467 638.295 53.48C638.882 53.8133 639.542 53.98 640.275 53.98C641.195 53.98 641.962 53.76 642.575 53.32C643.202 52.8667 643.609 52.24 643.795 51.44H645.295C645.042 52.56 644.475 53.46 643.595 54.14C642.715 54.82 641.609 55.16 640.275 55.16C639.249 55.16 638.335 54.9333 637.535 54.48C636.735 54.0133 636.109 53.36 635.655 52.52C635.202 51.6667 634.975 50.6733 634.975 49.54ZM657.911 48.98C657.911 49.46 657.898 49.8267 657.871 50.08H648.811C648.851 50.9067 649.051 51.6133 649.411 52.2C649.771 52.7867 650.244 53.2333 650.831 53.54C651.418 53.8333 652.058 53.98 652.751 53.98C653.658 53.98 654.418 53.76 655.031 53.32C655.658 52.88 656.071 52.2867 656.271 51.54H657.751C657.484 52.6067 656.911 53.48 656.031 54.16C655.164 54.8267 654.071 55.16 652.751 55.16C651.724 55.16 650.804 54.9333 649.991 54.48C649.178 54.0133 648.538 53.36 648.071 52.52C647.618 51.6667 647.391 50.6733 647.391 49.54C647.391 48.4067 647.618 47.4133 648.071 46.56C648.524 45.7067 649.158 45.0533 649.971 44.6C650.784 44.1467 651.711 43.92 652.751 43.92C653.791 43.92 654.698 44.1467 655.471 44.6C656.258 45.0533 656.858 45.6667 657.271 46.44C657.698 47.2 657.911 48.0467 657.911 48.98ZM656.491 48.94C656.504 48.1267 656.338 47.4333 655.991 46.86C655.658 46.2867 655.198 45.8533 654.611 45.56C654.024 45.2667 653.384 45.12 652.691 45.12C651.651 45.12 650.764 45.4533 650.031 46.12C649.298 46.7867 648.891 47.7267 648.811 48.94H656.491ZM664.382 55.16C663.129 55.16 662.102 54.8733 661.302 54.3C660.516 53.7133 660.076 52.92 659.982 51.92H661.422C661.489 52.5333 661.776 53.0333 662.282 53.42C662.802 53.7933 663.496 53.98 664.362 53.98C665.122 53.98 665.716 53.8 666.142 53.44C666.582 53.08 666.802 52.6333 666.802 52.1C666.802 51.7267 666.682 51.42 666.442 51.18C666.202 50.94 665.896 50.7533 665.522 50.62C665.162 50.4733 664.669 50.32 664.042 50.16C663.229 49.9467 662.569 49.7333 662.062 49.52C661.556 49.3067 661.122 48.9933 660.762 48.58C660.416 48.1533 660.242 47.5867 660.242 46.88C660.242 46.3467 660.402 45.8533 660.722 45.4C661.042 44.9467 661.496 44.5867 662.082 44.32C662.669 44.0533 663.336 43.92 664.082 43.92C665.256 43.92 666.202 44.22 666.922 44.82C667.642 45.4067 668.029 46.22 668.082 47.26H666.682C666.642 46.62 666.389 46.1067 665.922 45.72C665.469 45.32 664.842 45.12 664.042 45.12C663.336 45.12 662.762 45.2867 662.322 45.62C661.882 45.9533 661.662 46.3667 661.662 46.86C661.662 47.2867 661.789 47.64 662.042 47.92C662.309 48.1867 662.636 48.4 663.022 48.56C663.409 48.7067 663.929 48.8733 664.582 49.06C665.369 49.2733 665.996 49.48 666.462 49.68C666.929 49.88 667.329 50.1733 667.662 50.56C667.996 50.9467 668.169 51.46 668.182 52.1C668.182 52.6867 668.022 53.2133 667.702 53.68C667.382 54.1333 666.936 54.4933 666.362 54.76C665.789 55.0267 665.129 55.16 664.382 55.16ZM674.728 55.16C673.474 55.16 672.448 54.8733 671.648 54.3C670.861 53.7133 670.421 52.92 670.328 51.92H671.768C671.834 52.5333 672.121 53.0333 672.628 53.42C673.148 53.7933 673.841 53.98 674.708 53.98C675.468 53.98 676.061 53.8 676.488 53.44C676.928 53.08 677.148 52.6333 677.148 52.1C677.148 51.7267 677.028 51.42 676.788 51.18C676.548 50.94 676.241 50.7533 675.868 50.62C675.508 50.4733 675.014 50.32 674.388 50.16C673.574 49.9467 672.914 49.7333 672.408 49.52C671.901 49.3067 671.468 48.9933 671.108 48.58C670.761 48.1533 670.588 47.5867 670.588 46.88C670.588 46.3467 670.748 45.8533 671.068 45.4C671.388 44.9467 671.841 44.5867 672.428 44.32C673.014 44.0533 673.681 43.92 674.428 43.92C675.601 43.92 676.548 44.22 677.268 44.82C677.988 45.4067 678.374 46.22 678.428 47.26H677.028C676.988 46.62 676.734 46.1067 676.268 45.72C675.814 45.32 675.188 45.12 674.388 45.12C673.681 45.12 673.108 45.2867 672.668 45.62C672.228 45.9533 672.008 46.3667 672.008 46.86C672.008 47.2867 672.134 47.64 672.388 47.92C672.654 48.1867 672.981 48.4 673.368 48.56C673.754 48.7067 674.274 48.8733 674.928 49.06C675.714 49.2733 676.341 49.48 676.808 49.68C677.274 49.88 677.674 50.1733 678.008 50.56C678.341 50.9467 678.514 51.46 678.528 52.1C678.528 52.6867 678.368 53.2133 678.048 53.68C677.728 54.1333 677.281 54.4933 676.708 54.76C676.134 55.0267 675.474 55.16 674.728 55.16Z" fill="white"></path><rect x="664.979" y="130" width="357" height="66" rx="33" fill="url(#paint4_linear_2689_12804)" fill-opacity="0.2"></rect><rect x="664.979" y="130" width="357" height="66" rx="33" stroke="url(#paint5_linear_2689_12804)" stroke-width="2"></rect><path d="M689.011 162.624C689.011 157.608 692.683 154.056 697.363 154.056C700.987 154.056 703.867 155.88 705.115 159.12H702.499C701.587 157.104 699.811 155.976 697.363 155.976C693.859 155.976 691.243 158.52 691.243 162.624C691.243 166.704 693.859 169.248 697.363 169.248C699.811 169.248 701.587 168.12 702.499 166.128H705.115C703.867 169.344 700.987 171.144 697.363 171.144C692.683 171.144 689.011 167.64 689.011 162.624ZM710.7 163.848V171H708.516V157.848H710.7V159.984C711.444 158.52 712.86 157.608 714.948 157.608V159.864H714.372C712.284 159.864 710.7 160.8 710.7 163.848ZM723.211 159.48C721.075 159.48 719.299 160.896 719.059 163.464H727.363C727.387 160.896 725.467 159.48 723.211 159.48ZM729.355 166.944C728.683 169.344 726.571 171.216 723.307 171.216C719.563 171.216 716.803 168.576 716.803 164.4C716.803 160.248 719.467 157.632 723.307 157.632C727.123 157.632 729.619 160.32 729.619 163.92C729.619 164.4 729.595 164.784 729.547 165.24H719.035C719.203 167.904 721.075 169.368 723.307 169.368C725.275 169.368 726.523 168.36 727.003 166.944H729.355ZM731.836 164.376C731.836 160.272 734.548 157.632 738.076 157.632C740.524 157.632 742.204 158.88 742.972 160.248V157.848H745.18V171H742.972V168.552C742.18 169.968 740.476 171.216 738.052 171.216C734.548 171.216 731.836 168.456 731.836 164.376ZM742.972 164.4C742.972 161.352 740.908 159.528 738.508 159.528C736.108 159.528 734.068 161.28 734.068 164.376C734.068 167.472 736.108 169.296 738.508 169.296C740.908 169.296 742.972 167.496 742.972 164.4ZM749.5 167.4V159.648H747.796V157.848H749.5V154.536H751.684V157.848H755.116V159.648H751.684V167.4C751.684 168.696 752.164 169.152 753.508 169.152H755.116V171H753.148C750.82 171 749.5 170.04 749.5 167.4ZM763.504 159.48C761.368 159.48 759.592 160.896 759.352 163.464H767.656C767.68 160.896 765.76 159.48 763.504 159.48ZM769.648 166.944C768.976 169.344 766.864 171.216 763.6 171.216C759.856 171.216 757.096 168.576 757.096 164.4C757.096 160.248 759.76 157.632 763.6 157.632C767.416 157.632 769.912 160.32 769.912 163.92C769.912 164.4 769.888 164.784 769.84 165.24H759.328C759.496 167.904 761.368 169.368 763.6 169.368C765.568 169.368 766.816 168.36 767.296 166.944H769.648ZM778.678 164.376C778.678 160.272 781.39 157.632 784.918 157.632C787.366 157.632 789.046 158.88 789.814 160.248V157.848H792.022V171H789.814V168.552C789.022 169.968 787.318 171.216 784.894 171.216C781.39 171.216 778.678 168.456 778.678 164.376ZM789.814 164.4C789.814 161.352 787.75 159.528 785.35 159.528C782.95 159.528 780.91 161.28 780.91 164.376C780.91 167.472 782.95 169.296 785.35 169.296C787.75 169.296 789.814 167.496 789.814 164.4ZM812.035 171V163.56C812.035 160.872 810.571 159.504 808.363 159.504C806.131 159.504 804.595 160.896 804.595 163.728V171H802.411V157.848H804.595V159.72C805.459 158.352 807.043 157.608 808.819 157.608C811.867 157.608 814.195 159.48 814.195 163.248V171H812.035ZM823.504 159.48C821.368 159.48 819.592 160.896 819.352 163.464H827.656C827.68 160.896 825.76 159.48 823.504 159.48ZM829.648 166.944C828.976 169.344 826.864 171.216 823.6 171.216C819.856 171.216 817.096 168.576 817.096 164.4C817.096 160.248 819.76 157.632 823.6 157.632C827.416 157.632 829.912 160.32 829.912 163.92C829.912 164.4 829.888 164.784 829.84 165.24H819.328C819.496 167.904 821.368 169.368 823.6 169.368C825.568 169.368 826.816 168.36 827.296 166.944H829.648ZM835.513 171L831.385 157.848H833.617L836.641 168.888L839.905 157.848H842.137L845.329 168.912L848.305 157.848H850.465L846.361 171H844.105L840.937 160.56L837.769 171H835.513ZM871.811 164.4C871.811 168.576 868.811 171.216 865.067 171.216C861.347 171.216 858.515 168.576 858.515 164.4C858.515 160.248 861.443 157.632 865.163 157.632C868.907 157.632 871.811 160.248 871.811 164.4ZM860.747 164.4C860.747 167.736 862.787 169.296 865.067 169.296C867.347 169.296 869.579 167.736 869.579 164.4C869.579 161.088 867.395 159.528 865.139 159.528C862.835 159.528 860.747 161.088 860.747 164.4ZM877.017 160.272C877.809 158.88 879.537 157.632 881.937 157.632C885.465 157.632 888.177 160.272 888.177 164.376C888.177 168.456 885.465 171.216 881.937 171.216C879.537 171.216 877.833 169.92 877.017 168.576V177.24H874.833V157.848H877.017V160.272ZM885.945 164.376C885.945 161.28 883.905 159.528 881.481 159.528C879.105 159.528 877.017 161.352 877.017 164.4C877.017 167.496 879.105 169.296 881.481 169.296C883.905 169.296 885.945 167.472 885.945 164.376ZM893.386 160.272C894.178 158.88 895.906 157.632 898.306 157.632C901.834 157.632 904.546 160.272 904.546 164.376C904.546 168.456 901.834 171.216 898.306 171.216C895.906 171.216 894.202 169.92 893.386 168.576V177.24H891.202V157.848H893.386V160.272ZM902.314 164.376C902.314 161.28 900.274 159.528 897.85 159.528C895.474 159.528 893.386 161.352 893.386 164.4C893.386 167.496 895.474 169.296 897.85 169.296C900.274 169.296 902.314 167.472 902.314 164.376ZM920.05 164.4C920.05 168.576 917.05 171.216 913.306 171.216C909.586 171.216 906.754 168.576 906.754 164.4C906.754 160.248 909.682 157.632 913.402 157.632C917.146 157.632 920.05 160.248 920.05 164.4ZM908.986 164.4C908.986 167.736 911.026 169.296 913.306 169.296C915.586 169.296 917.818 167.736 917.818 164.4C917.818 161.088 915.634 159.528 913.378 159.528C911.074 159.528 908.986 161.088 908.986 164.4ZM925.256 163.848V171H923.072V157.848H925.256V159.984C926 158.52 927.416 157.608 929.504 157.608V159.864H928.928C926.84 159.864 925.256 160.8 925.256 163.848ZM932.655 167.4V159.648H930.951V157.848H932.655V154.536H934.839V157.848H938.271V159.648H934.839V167.4C934.839 168.696 935.319 169.152 936.663 169.152H938.271V171H936.303C933.975 171 932.655 170.04 932.655 167.4ZM952.731 157.848V171H950.547V169.056C949.707 170.424 948.099 171.192 946.347 171.192C943.323 171.192 940.947 169.32 940.947 165.552V157.848H943.107V165.264C943.107 167.928 944.571 169.296 946.779 169.296C949.035 169.296 950.547 167.904 950.547 165.072V157.848H952.731ZM966.193 171V163.56C966.193 160.872 964.729 159.504 962.521 159.504C960.289 159.504 958.753 160.896 958.753 163.728V171H956.569V157.848H958.753V159.72C959.617 158.352 961.201 157.608 962.977 157.608C966.025 157.608 968.353 159.48 968.353 163.248V171H966.193ZM972.07 171V157.848H974.254V171H972.07ZM973.198 155.712C972.358 155.712 971.71 155.064 971.71 154.224C971.71 153.384 972.358 152.736 973.198 152.736C973.99 152.736 974.638 153.384 974.638 154.224C974.638 155.064 973.99 155.712 973.198 155.712ZM978.607 167.4V159.648H976.903V157.848H978.607V154.536H980.791V157.848H984.223V159.648H980.791V167.4C980.791 168.696 981.271 169.152 982.615 169.152H984.223V171H982.255C979.927 171 978.607 170.04 978.607 167.4ZM992.011 168.504L996.091 157.848H998.347L990.427 177.192H988.171L990.763 170.856L985.459 157.848H987.883L992.011 168.504Z" fill="white"></path><path d="M424.939 243.14C424.019 243.14 423.192 242.98 422.459 242.66C421.739 242.327 421.172 241.873 420.759 241.3C420.345 240.713 420.132 240.04 420.119 239.28H422.059C422.125 239.933 422.392 240.487 422.859 240.94C423.339 241.38 424.032 241.6 424.939 241.6C425.805 241.6 426.485 241.387 426.979 240.96C427.485 240.52 427.739 239.96 427.739 239.28C427.739 238.747 427.592 238.313 427.299 237.98C427.005 237.647 426.639 237.393 426.199 237.22C425.759 237.047 425.165 236.86 424.419 236.66C423.499 236.42 422.759 236.18 422.199 235.94C421.652 235.7 421.179 235.327 420.779 234.82C420.392 234.3 420.199 233.607 420.199 232.74C420.199 231.98 420.392 231.307 420.779 230.72C421.165 230.133 421.705 229.68 422.399 229.36C423.105 229.04 423.912 228.88 424.819 228.88C426.125 228.88 427.192 229.207 428.019 229.86C428.859 230.513 429.332 231.38 429.439 232.46H427.439C427.372 231.927 427.092 231.46 426.599 231.06C426.105 230.647 425.452 230.44 424.639 230.44C423.879 230.44 423.259 230.64 422.779 231.04C422.299 231.427 422.059 231.973 422.059 232.68C422.059 233.187 422.199 233.6 422.479 233.92C422.772 234.24 423.125 234.487 423.539 234.66C423.965 234.82 424.559 235.007 425.319 235.22C426.239 235.473 426.979 235.727 427.539 235.98C428.099 236.22 428.579 236.6 428.979 237.12C429.379 237.627 429.579 238.32 429.579 239.2C429.579 239.88 429.399 240.52 429.039 241.12C428.679 241.72 428.145 242.207 427.439 242.58C426.732 242.953 425.899 243.14 424.939 243.14ZM442.127 232.04V243H440.307V241.38C439.96 241.94 439.473 242.38 438.847 242.7C438.233 243.007 437.553 243.16 436.807 243.16C435.953 243.16 435.187 242.987 434.507 242.64C433.827 242.28 433.287 241.747 432.887 241.04C432.5 240.333 432.307 239.473 432.307 238.46V232.04H434.107V238.22C434.107 239.3 434.38 240.133 434.927 240.72C435.473 241.293 436.22 241.58 437.167 241.58C438.14 241.58 438.907 241.28 439.467 240.68C440.027 240.08 440.307 239.207 440.307 238.06V232.04H442.127ZM447.17 233.82C447.49 233.193 447.943 232.707 448.53 232.36C449.13 232.013 449.856 231.84 450.71 231.84V233.72H450.23C448.19 233.72 447.17 234.827 447.17 237.04V243H445.35V232.04H447.17V233.82ZM462.961 237.1C462.961 237.447 462.941 237.813 462.901 238.2H454.141C454.207 239.28 454.574 240.127 455.241 240.74C455.921 241.34 456.741 241.64 457.701 241.64C458.487 241.64 459.141 241.46 459.661 241.1C460.194 240.727 460.567 240.233 460.781 239.62H462.741C462.447 240.673 461.861 241.533 460.981 242.2C460.101 242.853 459.007 243.18 457.701 243.18C456.661 243.18 455.727 242.947 454.901 242.48C454.087 242.013 453.447 241.353 452.981 240.5C452.514 239.633 452.281 238.633 452.281 237.5C452.281 236.367 452.507 235.373 452.961 234.52C453.414 233.667 454.047 233.013 454.861 232.56C455.687 232.093 456.634 231.86 457.701 231.86C458.741 231.86 459.661 232.087 460.461 232.54C461.261 232.993 461.874 233.62 462.301 234.42C462.741 235.207 462.961 236.1 462.961 237.1ZM461.081 236.72C461.081 236.027 460.927 235.433 460.621 234.94C460.314 234.433 459.894 234.053 459.361 233.8C458.841 233.533 458.261 233.4 457.621 233.4C456.701 233.4 455.914 233.693 455.261 234.28C454.621 234.867 454.254 235.68 454.161 236.72H461.081ZM467.873 229.06L467.653 239.06H466.133L465.913 229.06H467.873ZM466.973 243.12C466.626 243.12 466.333 243 466.093 242.76C465.853 242.52 465.733 242.227 465.733 241.88C465.733 241.533 465.853 241.24 466.093 241C466.333 240.76 466.626 240.64 466.973 240.64C467.306 240.64 467.586 240.76 467.813 241C468.053 241.24 468.173 241.533 468.173 241.88C468.173 242.227 468.053 242.52 467.813 242.76C467.586 243 467.306 243.12 466.973 243.12ZM486.422 233.14C486.422 234.3 486.022 235.267 485.222 236.04C484.435 236.8 483.229 237.18 481.602 237.18H478.922V243H477.102V229.06H481.602C483.175 229.06 484.369 229.44 485.182 230.2C486.009 230.96 486.422 231.94 486.422 233.14ZM481.602 235.68C482.615 235.68 483.362 235.46 483.842 235.02C484.322 234.58 484.562 233.953 484.562 233.14C484.562 231.42 483.575 230.56 481.602 230.56H478.922V235.68H481.602ZM490.654 228.2V243H488.834V228.2H490.654ZM503.906 237.1C503.906 237.447 503.886 237.813 503.846 238.2H495.086C495.153 239.28 495.519 240.127 496.186 240.74C496.866 241.34 497.686 241.64 498.646 241.64C499.433 241.64 500.086 241.46 500.606 241.1C501.139 240.727 501.513 240.233 501.726 239.62H503.686C503.393 240.673 502.806 241.533 501.926 242.2C501.046 242.853 499.953 243.18 498.646 243.18C497.606 243.18 496.673 242.947 495.846 242.48C495.033 242.013 494.393 241.353 493.926 240.5C493.459 239.633 493.226 238.633 493.226 237.5C493.226 236.367 493.453 235.373 493.906 234.52C494.359 233.667 494.993 233.013 495.806 232.56C496.633 232.093 497.579 231.86 498.646 231.86C499.686 231.86 500.606 232.087 501.406 232.54C502.206 232.993 502.819 233.62 503.246 234.42C503.686 235.207 503.906 236.1 503.906 237.1ZM502.026 236.72C502.026 236.027 501.873 235.433 501.566 234.94C501.259 234.433 500.839 234.053 500.306 233.8C499.786 233.533 499.206 233.4 498.566 233.4C497.646 233.4 496.859 233.693 496.206 234.28C495.566 234.867 495.199 235.68 495.106 236.72H502.026ZM505.778 237.48C505.778 236.36 506.005 235.38 506.458 234.54C506.912 233.687 507.532 233.027 508.318 232.56C509.118 232.093 510.005 231.86 510.978 231.86C511.938 231.86 512.772 232.067 513.478 232.48C514.185 232.893 514.712 233.413 515.058 234.04V232.04H516.898V243H515.058V240.96C514.698 241.6 514.158 242.133 513.438 242.56C512.732 242.973 511.905 243.18 510.958 243.18C509.985 243.18 509.105 242.94 508.318 242.46C507.532 241.98 506.912 241.307 506.458 240.44C506.005 239.573 505.778 238.587 505.778 237.48ZM515.058 237.5C515.058 236.673 514.892 235.953 514.558 235.34C514.225 234.727 513.772 234.26 513.198 233.94C512.638 233.607 512.018 233.44 511.338 233.44C510.658 233.44 510.038 233.6 509.478 233.92C508.918 234.24 508.472 234.707 508.138 235.32C507.805 235.933 507.638 236.653 507.638 237.48C507.638 238.32 507.805 239.053 508.138 239.68C508.472 240.293 508.918 240.767 509.478 241.1C510.038 241.42 510.658 241.58 511.338 241.58C512.018 241.58 512.638 241.42 513.198 241.1C513.772 240.767 514.225 240.293 514.558 239.68C514.892 239.053 515.058 238.327 515.058 237.5ZM524.004 243.18C523.164 243.18 522.411 243.04 521.744 242.76C521.077 242.467 520.551 242.067 520.164 241.56C519.777 241.04 519.564 240.447 519.524 239.78H521.404C521.457 240.327 521.711 240.773 522.164 241.12C522.631 241.467 523.237 241.64 523.984 241.64C524.677 241.64 525.224 241.487 525.624 241.18C526.024 240.873 526.224 240.487 526.224 240.02C526.224 239.54 526.011 239.187 525.584 238.96C525.157 238.72 524.497 238.487 523.604 238.26C522.791 238.047 522.124 237.833 521.604 237.62C521.097 237.393 520.657 237.067 520.284 236.64C519.924 236.2 519.744 235.627 519.744 234.92C519.744 234.36 519.911 233.847 520.244 233.38C520.577 232.913 521.051 232.547 521.664 232.28C522.277 232 522.977 231.86 523.764 231.86C524.977 231.86 525.957 232.167 526.704 232.78C527.451 233.393 527.851 234.233 527.904 235.3H526.084C526.044 234.727 525.811 234.267 525.384 233.92C524.971 233.573 524.411 233.4 523.704 233.4C523.051 233.4 522.531 233.54 522.144 233.82C521.757 234.1 521.564 234.467 521.564 234.92C521.564 235.28 521.677 235.58 521.904 235.82C522.144 236.047 522.437 236.233 522.784 236.38C523.144 236.513 523.637 236.667 524.264 236.84C525.051 237.053 525.691 237.267 526.184 237.48C526.677 237.68 527.097 237.987 527.444 238.4C527.804 238.813 527.991 239.353 528.004 240.02C528.004 240.62 527.837 241.16 527.504 241.64C527.171 242.12 526.697 242.5 526.084 242.78C525.484 243.047 524.791 243.18 524.004 243.18ZM540.723 237.1C540.723 237.447 540.703 237.813 540.663 238.2H531.903C531.97 239.28 532.337 240.127 533.003 240.74C533.683 241.34 534.503 241.64 535.463 241.64C536.25 241.64 536.903 241.46 537.423 241.1C537.957 240.727 538.33 240.233 538.543 239.62H540.503C540.21 240.673 539.623 241.533 538.743 242.2C537.863 242.853 536.77 243.18 535.463 243.18C534.423 243.18 533.49 242.947 532.663 242.48C531.85 242.013 531.21 241.353 530.743 240.5C530.277 239.633 530.043 238.633 530.043 237.5C530.043 236.367 530.27 235.373 530.723 234.52C531.177 233.667 531.81 233.013 532.623 232.56C533.45 232.093 534.397 231.86 535.463 231.86C536.503 231.86 537.423 232.087 538.223 232.54C539.023 232.993 539.637 233.62 540.063 234.42C540.503 235.207 540.723 236.1 540.723 237.1ZM538.843 236.72C538.843 236.027 538.69 235.433 538.383 234.94C538.077 234.433 537.657 234.053 537.123 233.8C536.603 233.533 536.023 233.4 535.383 233.4C534.463 233.4 533.677 233.693 533.023 234.28C532.383 234.867 532.017 235.68 531.923 236.72H538.843ZM553.218 233.54H550.918V243H549.098V233.54H547.678V232.04H549.098V231.26C549.098 230.033 549.411 229.14 550.038 228.58C550.678 228.007 551.698 227.72 553.098 227.72V229.24C552.298 229.24 551.731 229.4 551.398 229.72C551.078 230.027 550.918 230.54 550.918 231.26V232.04H553.218V233.54ZM556.43 230.26C556.083 230.26 555.79 230.14 555.55 229.9C555.31 229.66 555.19 229.367 555.19 229.02C555.19 228.673 555.31 228.38 555.55 228.14C555.79 227.9 556.083 227.78 556.43 227.78C556.763 227.78 557.043 227.9 557.27 228.14C557.51 228.38 557.63 228.673 557.63 229.02C557.63 229.367 557.51 229.66 557.27 229.9C557.043 230.14 556.763 230.26 556.43 230.26ZM557.31 232.04V243H555.49V232.04H557.31ZM562.381 228.2V243H560.561V228.2H562.381ZM567.453 228.2V243H565.633V228.2H567.453ZM577.127 230.26C576.781 230.26 576.487 230.14 576.247 229.9C576.007 229.66 575.887 229.367 575.887 229.02C575.887 228.673 576.007 228.38 576.247 228.14C576.487 227.9 576.781 227.78 577.127 227.78C577.461 227.78 577.741 227.9 577.967 228.14C578.207 228.38 578.327 228.673 578.327 229.02C578.327 229.367 578.207 229.66 577.967 229.9C577.741 230.14 577.461 230.26 577.127 230.26ZM578.007 232.04V243H576.187V232.04H578.007ZM586.599 231.84C587.932 231.84 589.012 232.247 589.839 233.06C590.666 233.86 591.079 235.02 591.079 236.54V243H589.279V236.8C589.279 235.707 589.006 234.873 588.459 234.3C587.912 233.713 587.166 233.42 586.219 233.42C585.259 233.42 584.492 233.72 583.919 234.32C583.359 234.92 583.079 235.793 583.079 236.94V243H581.259V232.04H583.079V233.6C583.439 233.04 583.926 232.607 584.539 232.3C585.166 231.993 585.852 231.84 586.599 231.84ZM601.904 233.54V240C601.904 240.533 602.017 240.913 602.244 241.14C602.471 241.353 602.864 241.46 603.424 241.46H604.764V243H603.124C602.111 243 601.351 242.767 600.844 242.3C600.337 241.833 600.084 241.067 600.084 240V233.54H598.664V232.04H600.084V229.28H601.904V232.04H604.764V233.54H601.904ZM612.559 231.84C613.386 231.84 614.133 232.02 614.799 232.38C615.466 232.727 615.986 233.253 616.359 233.96C616.746 234.667 616.939 235.527 616.939 236.54V243H615.139V236.8C615.139 235.707 614.866 234.873 614.319 234.3C613.773 233.713 613.026 233.42 612.079 233.42C611.119 233.42 610.353 233.72 609.779 234.32C609.219 234.92 608.939 235.793 608.939 236.94V243H607.119V228.2H608.939V233.6C609.299 233.04 609.793 232.607 610.419 232.3C611.059 231.993 611.773 231.84 612.559 231.84ZM630.062 237.1C630.062 237.447 630.042 237.813 630.002 238.2H621.242C621.309 239.28 621.676 240.127 622.342 240.74C623.022 241.34 623.842 241.64 624.802 241.64C625.589 241.64 626.242 241.46 626.762 241.1C627.296 240.727 627.669 240.233 627.882 239.62H629.842C629.549 240.673 628.962 241.533 628.082 242.2C627.202 242.853 626.109 243.18 624.802 243.18C623.762 243.18 622.829 242.947 622.002 242.48C621.189 242.013 620.549 241.353 620.082 240.5C619.616 239.633 619.382 238.633 619.382 237.5C619.382 236.367 619.609 235.373 620.062 234.52C620.516 233.667 621.149 233.013 621.962 232.56C622.789 232.093 623.736 231.86 624.802 231.86C625.842 231.86 626.762 232.087 627.562 232.54C628.362 232.993 628.976 233.62 629.402 234.42C629.842 235.207 630.062 236.1 630.062 237.1ZM628.182 236.72C628.182 236.027 628.029 235.433 627.722 234.94C627.416 234.433 626.996 234.053 626.462 233.8C625.942 233.533 625.362 233.4 624.722 233.4C623.802 233.4 623.016 233.693 622.362 234.28C621.722 234.867 621.356 235.68 621.262 236.72H628.182ZM642.557 233.54H640.257V243H638.437V233.54H637.017V232.04H638.437V231.26C638.437 230.033 638.75 229.14 639.377 228.58C640.017 228.007 641.037 227.72 642.437 227.72V229.24C641.637 229.24 641.07 229.4 640.737 229.72C640.417 230.027 640.257 230.54 640.257 231.26V232.04H642.557V233.54ZM649.609 243.18C648.582 243.18 647.649 242.947 646.809 242.48C645.982 242.013 645.329 241.353 644.849 240.5C644.382 239.633 644.149 238.633 644.149 237.5C644.149 236.38 644.389 235.393 644.869 234.54C645.362 233.673 646.029 233.013 646.869 232.56C647.709 232.093 648.649 231.86 649.689 231.86C650.729 231.86 651.669 232.093 652.509 232.56C653.349 233.013 654.009 233.667 654.489 234.52C654.982 235.373 655.229 236.367 655.229 237.5C655.229 238.633 654.975 239.633 654.469 240.5C653.975 241.353 653.302 242.013 652.449 242.48C651.595 242.947 650.649 243.18 649.609 243.18ZM649.609 241.58C650.262 241.58 650.875 241.427 651.449 241.12C652.022 240.813 652.482 240.353 652.829 239.74C653.189 239.127 653.369 238.38 653.369 237.5C653.369 236.62 653.195 235.873 652.849 235.26C652.502 234.647 652.049 234.193 651.489 233.9C650.929 233.593 650.322 233.44 649.669 233.44C649.002 233.44 648.389 233.593 647.829 233.9C647.282 234.193 646.842 234.647 646.509 235.26C646.175 235.873 646.009 236.62 646.009 237.5C646.009 238.393 646.169 239.147 646.489 239.76C646.822 240.373 647.262 240.833 647.809 241.14C648.355 241.433 648.955 241.58 649.609 241.58ZM659.592 228.2V243H657.772V228.2H659.592ZM664.664 228.2V243H662.844V228.2H664.664ZM672.695 243.18C671.669 243.18 670.735 242.947 669.895 242.48C669.069 242.013 668.415 241.353 667.935 240.5C667.469 239.633 667.235 238.633 667.235 237.5C667.235 236.38 667.475 235.393 667.955 234.54C668.449 233.673 669.115 233.013 669.955 232.56C670.795 232.093 671.735 231.86 672.775 231.86C673.815 231.86 674.755 232.093 675.595 232.56C676.435 233.013 677.095 233.667 677.575 234.52C678.069 235.373 678.315 236.367 678.315 237.5C678.315 238.633 678.062 239.633 677.555 240.5C677.062 241.353 676.389 242.013 675.535 242.48C674.682 242.947 673.735 243.18 672.695 243.18ZM672.695 241.58C673.349 241.58 673.962 241.427 674.535 241.12C675.109 240.813 675.569 240.353 675.915 239.74C676.275 239.127 676.455 238.38 676.455 237.5C676.455 236.62 676.282 235.873 675.935 235.26C675.589 234.647 675.135 234.193 674.575 233.9C674.015 233.593 673.409 233.44 672.755 233.44C672.089 233.44 671.475 233.593 670.915 233.9C670.369 234.193 669.929 234.647 669.595 235.26C669.262 235.873 669.095 236.62 669.095 237.5C669.095 238.393 669.255 239.147 669.575 239.76C669.909 240.373 670.349 240.833 670.895 241.14C671.442 241.433 672.042 241.58 672.695 241.58ZM695.458 232.04L692.038 243H690.158L687.518 234.3L684.878 243H682.998L679.558 232.04H681.418L683.938 241.24L686.658 232.04H688.518L691.178 241.26L693.658 232.04H695.458ZM698.355 230.26C698.008 230.26 697.715 230.14 697.475 229.9C697.235 229.66 697.115 229.367 697.115 229.02C697.115 228.673 697.235 228.38 697.475 228.14C697.715 227.9 698.008 227.78 698.355 227.78C698.688 227.78 698.968 227.9 699.195 228.14C699.435 228.38 699.555 228.673 699.555 229.02C699.555 229.367 699.435 229.66 699.195 229.9C698.968 230.14 698.688 230.26 698.355 230.26ZM699.235 232.04V243H697.415V232.04H699.235ZM707.826 231.84C709.16 231.84 710.24 232.247 711.066 233.06C711.893 233.86 712.306 235.02 712.306 236.54V243H710.506V236.8C710.506 235.707 710.233 234.873 709.686 234.3C709.14 233.713 708.393 233.42 707.446 233.42C706.486 233.42 705.72 233.72 705.146 234.32C704.586 234.92 704.306 235.793 704.306 236.94V243H702.486V232.04H704.306V233.6C704.666 233.04 705.153 232.607 705.766 232.3C706.393 231.993 707.08 231.84 707.826 231.84ZM719.949 231.86C720.896 231.86 721.723 232.067 722.429 232.48C723.149 232.893 723.683 233.413 724.029 234.04V232.04H725.869V243.24C725.869 244.24 725.656 245.127 725.229 245.9C724.803 246.687 724.189 247.3 723.389 247.74C722.603 248.18 721.683 248.4 720.629 248.4C719.189 248.4 717.989 248.06 717.029 247.38C716.069 246.7 715.503 245.773 715.329 244.6H717.129C717.329 245.267 717.743 245.8 718.369 246.2C718.996 246.613 719.749 246.82 720.629 246.82C721.629 246.82 722.443 246.507 723.069 245.88C723.709 245.253 724.029 244.373 724.029 243.24V240.94C723.669 241.58 723.136 242.113 722.429 242.54C721.723 242.967 720.896 243.18 719.949 243.18C718.976 243.18 718.089 242.94 717.289 242.46C716.503 241.98 715.883 241.307 715.429 240.44C714.976 239.573 714.749 238.587 714.749 237.48C714.749 236.36 714.976 235.38 715.429 234.54C715.883 233.687 716.503 233.027 717.289 232.56C718.089 232.093 718.976 231.86 719.949 231.86ZM724.029 237.5C724.029 236.673 723.863 235.953 723.529 235.34C723.196 234.727 722.743 234.26 722.169 233.94C721.609 233.607 720.989 233.44 720.309 233.44C719.629 233.44 719.009 233.6 718.449 233.92C717.889 234.24 717.443 234.707 717.109 235.32C716.776 235.933 716.609 236.653 716.609 237.48C716.609 238.32 716.776 239.053 717.109 239.68C717.443 240.293 717.889 240.767 718.449 241.1C719.009 241.42 719.629 241.58 720.309 241.58C720.989 241.58 721.609 241.42 722.169 241.1C722.743 240.767 723.196 240.293 723.529 239.68C723.863 239.053 724.029 238.327 724.029 237.5ZM735.517 230.26C735.17 230.26 734.877 230.14 734.637 229.9C734.397 229.66 734.277 229.367 734.277 229.02C734.277 228.673 734.397 228.38 734.637 228.14C734.877 227.9 735.17 227.78 735.517 227.78C735.85 227.78 736.13 227.9 736.357 228.14C736.597 228.38 736.717 228.673 736.717 229.02C736.717 229.367 736.597 229.66 736.357 229.9C736.13 230.14 735.85 230.26 735.517 230.26ZM736.397 232.04V243H734.577V232.04H736.397ZM744.989 231.84C746.322 231.84 747.402 232.247 748.229 233.06C749.056 233.86 749.469 235.02 749.469 236.54V243H747.669V236.8C747.669 235.707 747.396 234.873 746.849 234.3C746.302 233.713 745.556 233.42 744.609 233.42C743.649 233.42 742.882 233.72 742.309 234.32C741.749 234.92 741.469 235.793 741.469 236.94V243H739.649V232.04H741.469V233.6C741.829 233.04 742.316 232.607 742.929 232.3C743.556 231.993 744.242 231.84 744.989 231.84ZM757.052 233.54H754.752V243H752.932V233.54H751.512V232.04H752.932V231.26C752.932 230.033 753.245 229.14 753.872 228.58C754.512 228.007 755.532 227.72 756.932 227.72V229.24C756.132 229.24 755.565 229.4 755.232 229.72C754.912 230.027 754.752 230.54 754.752 231.26V232.04H757.052V233.54ZM764.104 243.18C763.077 243.18 762.144 242.947 761.304 242.48C760.477 242.013 759.824 241.353 759.344 240.5C758.877 239.633 758.644 238.633 758.644 237.5C758.644 236.38 758.884 235.393 759.364 234.54C759.857 233.673 760.524 233.013 761.364 232.56C762.204 232.093 763.144 231.86 764.184 231.86C765.224 231.86 766.164 232.093 767.004 232.56C767.844 233.013 768.504 233.667 768.984 234.52C769.477 235.373 769.724 236.367 769.724 237.5C769.724 238.633 769.471 239.633 768.964 240.5C768.471 241.353 767.797 242.013 766.944 242.48C766.091 242.947 765.144 243.18 764.104 243.18ZM764.104 241.58C764.757 241.58 765.371 241.427 765.944 241.12C766.517 240.813 766.977 240.353 767.324 239.74C767.684 239.127 767.864 238.38 767.864 237.5C767.864 236.62 767.691 235.873 767.344 235.26C766.997 234.647 766.544 234.193 765.984 233.9C765.424 233.593 764.817 233.44 764.164 233.44C763.497 233.44 762.884 233.593 762.324 233.9C761.777 234.193 761.337 234.647 761.004 235.26C760.671 235.873 760.504 236.62 760.504 237.5C760.504 238.393 760.664 239.147 760.984 239.76C761.317 240.373 761.757 240.833 762.304 241.14C762.851 241.433 763.451 241.58 764.104 241.58ZM774.087 233.82C774.407 233.193 774.86 232.707 775.447 232.36C776.047 232.013 776.774 231.84 777.627 231.84V233.72H777.147C775.107 233.72 774.087 234.827 774.087 237.04V243H772.267V232.04H774.087V233.82ZM793.058 231.84C793.911 231.84 794.671 232.02 795.338 232.38C796.005 232.727 796.531 233.253 796.918 233.96C797.305 234.667 797.498 235.527 797.498 236.54V243H795.698V236.8C795.698 235.707 795.425 234.873 794.878 234.3C794.345 233.713 793.618 233.42 792.698 233.42C791.751 233.42 790.998 233.727 790.438 234.34C789.878 234.94 789.598 235.813 789.598 236.96V243H787.798V236.8C787.798 235.707 787.525 234.873 786.978 234.3C786.445 233.713 785.718 233.42 784.798 233.42C783.851 233.42 783.098 233.727 782.538 234.34C781.978 234.94 781.698 235.813 781.698 236.96V243H779.878V232.04H781.698V233.62C782.058 233.047 782.538 232.607 783.138 232.3C783.751 231.993 784.425 231.84 785.158 231.84C786.078 231.84 786.891 232.047 787.598 232.46C788.305 232.873 788.831 233.48 789.178 234.28C789.485 233.507 789.991 232.907 790.698 232.48C791.405 232.053 792.191 231.84 793.058 231.84ZM799.953 237.48C799.953 236.36 800.18 235.38 800.633 234.54C801.087 233.687 801.707 233.027 802.493 232.56C803.293 232.093 804.18 231.86 805.153 231.86C806.113 231.86 806.947 232.067 807.653 232.48C808.36 232.893 808.887 233.413 809.233 234.04V232.04H811.073V243H809.233V240.96C808.873 241.6 808.333 242.133 807.613 242.56C806.907 242.973 806.08 243.18 805.133 243.18C804.16 243.18 803.28 242.94 802.493 242.46C801.707 241.98 801.087 241.307 800.633 240.44C800.18 239.573 799.953 238.587 799.953 237.48ZM809.233 237.5C809.233 236.673 809.067 235.953 808.733 235.34C808.4 234.727 807.947 234.26 807.373 233.94C806.813 233.607 806.193 233.44 805.513 233.44C804.833 233.44 804.213 233.6 803.653 233.92C803.093 234.24 802.647 234.707 802.313 235.32C801.98 235.933 801.813 236.653 801.813 237.48C801.813 238.32 801.98 239.053 802.313 239.68C802.647 240.293 803.093 240.767 803.653 241.1C804.213 241.42 804.833 241.58 805.513 241.58C806.193 241.58 806.813 241.42 807.373 241.1C807.947 240.767 808.4 240.293 808.733 239.68C809.067 239.053 809.233 238.327 809.233 237.5ZM816.519 233.54V240C816.519 240.533 816.632 240.913 816.859 241.14C817.086 241.353 817.479 241.46 818.039 241.46H819.379V243H817.739C816.726 243 815.966 242.767 815.459 242.3C814.952 241.833 814.699 241.067 814.699 240V233.54H813.279V232.04H814.699V229.28H816.519V232.04H819.379V233.54H816.519ZM822.674 230.26C822.327 230.26 822.034 230.14 821.794 229.9C821.554 229.66 821.434 229.367 821.434 229.02C821.434 228.673 821.554 228.38 821.794 228.14C822.034 227.9 822.327 227.78 822.674 227.78C823.007 227.78 823.287 227.9 823.514 228.14C823.754 228.38 823.874 228.673 823.874 229.02C823.874 229.367 823.754 229.66 823.514 229.9C823.287 230.14 823.007 230.26 822.674 230.26ZM823.554 232.04V243H821.734V232.04H823.554ZM831.586 243.18C830.559 243.18 829.626 242.947 828.786 242.48C827.959 242.013 827.306 241.353 826.826 240.5C826.359 239.633 826.126 238.633 826.126 237.5C826.126 236.38 826.366 235.393 826.846 234.54C827.339 233.673 828.006 233.013 828.846 232.56C829.686 232.093 830.626 231.86 831.666 231.86C832.706 231.86 833.646 232.093 834.486 232.56C835.326 233.013 835.986 233.667 836.466 234.52C836.959 235.373 837.206 236.367 837.206 237.5C837.206 238.633 836.953 239.633 836.446 240.5C835.953 241.353 835.279 242.013 834.426 242.48C833.573 242.947 832.626 243.18 831.586 243.18ZM831.586 241.58C832.239 241.58 832.853 241.427 833.426 241.12C833.999 240.813 834.459 240.353 834.806 239.74C835.166 239.127 835.346 238.38 835.346 237.5C835.346 236.62 835.173 235.873 834.826 235.26C834.479 234.647 834.026 234.193 833.466 233.9C832.906 233.593 832.299 233.44 831.646 233.44C830.979 233.44 830.366 233.593 829.806 233.9C829.259 234.193 828.819 234.647 828.486 235.26C828.153 235.873 827.986 236.62 827.986 237.5C827.986 238.393 828.146 239.147 828.466 239.76C828.799 240.373 829.239 240.833 829.786 241.14C830.333 241.433 830.933 241.58 831.586 241.58ZM845.089 231.84C846.422 231.84 847.502 232.247 848.329 233.06C849.156 233.86 849.569 235.02 849.569 236.54V243H847.769V236.8C847.769 235.707 847.496 234.873 846.949 234.3C846.402 233.713 845.656 233.42 844.709 233.42C843.749 233.42 842.982 233.72 842.409 234.32C841.849 234.92 841.569 235.793 841.569 236.94V243H839.749V232.04H841.569V233.6C841.929 233.04 842.416 232.607 843.029 232.3C843.656 231.993 844.342 231.84 845.089 231.84ZM853.272 243.12C852.925 243.12 852.632 243 852.392 242.76C852.152 242.52 852.032 242.227 852.032 241.88C852.032 241.533 852.152 241.24 852.392 241C852.632 240.76 852.925 240.64 853.272 240.64C853.605 240.64 853.885 240.76 854.112 241C854.352 241.24 854.472 241.533 854.472 241.88C854.472 242.227 854.352 242.52 854.112 242.76C853.885 243 853.605 243.12 853.272 243.12Z" fill="white" fill-opacity="0.9"></path><g filter="url(#filter3_ddd_2689_12804)"><rect x="418.979" y="275" width="604" height="296" rx="16" fill="url(#paint6_linear_2689_12804)" fill-opacity="0.06" shape-rendering="crispEdges"></rect><rect x="419.979" y="276" width="602" height="294" rx="15" stroke="url(#paint7_linear_2689_12804)" stroke-width="2" shape-rendering="crispEdges"></rect><g clip-path="url(#clip1_2689_12804)"><path d="M445.134 297.137C445.843 296.416 446.831 295.97 447.923 295.97C449.376 295.97 450.643 296.759 451.317 297.93C451.904 297.674 452.553 297.532 453.236 297.532C455.855 297.532 457.979 299.619 457.979 302.192C457.979 304.766 455.855 306.853 453.236 306.853C452.922 306.853 452.609 306.822 452.301 306.762C451.707 307.794 450.575 308.492 449.275 308.492C448.731 308.492 448.217 308.369 447.759 308.152C447.156 309.532 445.753 310.499 444.117 310.499C442.414 310.499 440.962 309.45 440.405 307.977C440.162 308.028 439.909 308.054 439.651 308.054C437.623 308.054 435.979 306.436 435.979 304.44C435.979 303.103 436.717 301.935 437.815 301.31C437.589 300.803 437.463 300.245 437.463 299.657C437.463 297.361 439.376 295.501 441.736 295.501C443.122 295.501 444.353 296.142 445.134 297.137Z" fill="#00A1E0"></path></g><path d="M471.747 309.112C471.011 309.112 470.349 308.984 469.763 308.728C469.187 308.461 468.733 308.099 468.403 307.64C468.072 307.171 467.901 306.632 467.891 306.024H469.443C469.496 306.547 469.709 306.989 470.083 307.352C470.467 307.704 471.021 307.88 471.747 307.88C472.44 307.88 472.984 307.709 473.379 307.368C473.784 307.016 473.987 306.568 473.987 306.024C473.987 305.597 473.869 305.251 473.635 304.984C473.4 304.717 473.107 304.515 472.755 304.376C472.403 304.237 471.928 304.088 471.331 303.928C470.595 303.736 470.003 303.544 469.555 303.352C469.117 303.16 468.739 302.861 468.419 302.456C468.109 302.04 467.955 301.485 467.955 300.792C467.955 300.184 468.109 299.645 468.419 299.176C468.728 298.707 469.16 298.344 469.715 298.088C470.28 297.832 470.925 297.704 471.651 297.704C472.696 297.704 473.549 297.965 474.211 298.488C474.883 299.011 475.261 299.704 475.347 300.568H473.747C473.693 300.141 473.469 299.768 473.075 299.448C472.68 299.117 472.157 298.952 471.507 298.952C470.899 298.952 470.403 299.112 470.019 299.432C469.635 299.741 469.443 300.179 469.443 300.744C469.443 301.149 469.555 301.48 469.779 301.736C470.013 301.992 470.296 302.189 470.627 302.328C470.968 302.456 471.443 302.605 472.051 302.776C472.787 302.979 473.379 303.181 473.827 303.384C474.275 303.576 474.659 303.88 474.979 304.296C475.299 304.701 475.459 305.256 475.459 305.96C475.459 306.504 475.315 307.016 475.027 307.496C474.739 307.976 474.312 308.365 473.747 308.664C473.181 308.963 472.515 309.112 471.747 309.112ZM477.207 304.584C477.207 303.688 477.388 302.904 477.751 302.232C478.114 301.549 478.61 301.021 479.239 300.648C479.879 300.275 480.588 300.088 481.367 300.088C482.135 300.088 482.802 300.253 483.367 300.584C483.932 300.915 484.354 301.331 484.631 301.832V300.232H486.103V309H484.631V307.368C484.343 307.88 483.911 308.307 483.335 308.648C482.77 308.979 482.108 309.144 481.351 309.144C480.572 309.144 479.868 308.952 479.239 308.568C478.61 308.184 478.114 307.645 477.751 306.952C477.388 306.259 477.207 305.469 477.207 304.584ZM484.631 304.6C484.631 303.939 484.498 303.363 484.231 302.872C483.964 302.381 483.602 302.008 483.143 301.752C482.695 301.485 482.199 301.352 481.655 301.352C481.111 301.352 480.615 301.48 480.167 301.736C479.719 301.992 479.362 302.365 479.095 302.856C478.828 303.347 478.695 303.923 478.695 304.584C478.695 305.256 478.828 305.843 479.095 306.344C479.362 306.835 479.719 307.213 480.167 307.48C480.615 307.736 481.111 307.864 481.655 307.864C482.199 307.864 482.695 307.736 483.143 307.48C483.602 307.213 483.964 306.835 484.231 306.344C484.498 305.843 484.631 305.261 484.631 304.6ZM490.17 297.16V309H488.714V297.16H490.17ZM500.801 304.28C500.801 304.557 500.785 304.851 500.753 305.16H493.745C493.798 306.024 494.092 306.701 494.625 307.192C495.169 307.672 495.825 307.912 496.593 307.912C497.222 307.912 497.745 307.768 498.161 307.48C498.588 307.181 498.886 306.787 499.057 306.296H500.625C500.39 307.139 499.921 307.827 499.217 308.36C498.513 308.883 497.638 309.144 496.593 309.144C495.761 309.144 495.014 308.957 494.353 308.584C493.702 308.211 493.19 307.683 492.817 307C492.444 306.307 492.257 305.507 492.257 304.6C492.257 303.693 492.438 302.899 492.801 302.216C493.164 301.533 493.67 301.011 494.321 300.648C494.982 300.275 495.74 300.088 496.593 300.088C497.425 300.088 498.161 300.269 498.801 300.632C499.441 300.995 499.932 301.496 500.273 302.136C500.625 302.765 500.801 303.48 500.801 304.28ZM499.297 303.976C499.297 303.421 499.174 302.947 498.929 302.552C498.684 302.147 498.348 301.843 497.921 301.64C497.505 301.427 497.041 301.32 496.529 301.32C495.793 301.32 495.164 301.555 494.641 302.024C494.129 302.493 493.836 303.144 493.761 303.976H499.297ZM505.977 309.144C505.305 309.144 504.702 309.032 504.169 308.808C503.636 308.573 503.214 308.253 502.905 307.848C502.596 307.432 502.425 306.957 502.393 306.424H503.897C503.94 306.861 504.142 307.219 504.505 307.496C504.878 307.773 505.364 307.912 505.961 307.912C506.516 307.912 506.953 307.789 507.273 307.544C507.593 307.299 507.753 306.989 507.753 306.616C507.753 306.232 507.582 305.949 507.241 305.768C506.9 305.576 506.372 305.389 505.657 305.208C505.006 305.037 504.473 304.867 504.057 304.696C503.652 304.515 503.3 304.253 503.001 303.912C502.713 303.56 502.569 303.101 502.569 302.536C502.569 302.088 502.702 301.677 502.969 301.304C503.236 300.931 503.614 300.637 504.105 300.424C504.596 300.2 505.156 300.088 505.785 300.088C506.756 300.088 507.54 300.333 508.137 300.824C508.734 301.315 509.054 301.987 509.097 302.84H507.641C507.609 302.381 507.422 302.013 507.081 301.736C506.75 301.459 506.302 301.32 505.737 301.32C505.214 301.32 504.798 301.432 504.489 301.656C504.18 301.88 504.025 302.173 504.025 302.536C504.025 302.824 504.116 303.064 504.297 303.256C504.489 303.437 504.724 303.587 505.001 303.704C505.289 303.811 505.684 303.933 506.185 304.072C506.814 304.243 507.326 304.413 507.721 304.584C508.116 304.744 508.452 304.989 508.729 305.32C509.017 305.651 509.166 306.083 509.177 306.616C509.177 307.096 509.044 307.528 508.777 307.912C508.51 308.296 508.132 308.6 507.641 308.824C507.161 309.037 506.606 309.144 505.977 309.144ZM514.95 301.432H513.11V309H511.654V301.432H510.518V300.232H511.654V299.608C511.654 298.627 511.905 297.912 512.406 297.464C512.918 297.005 513.734 296.776 514.854 296.776V297.992C514.214 297.992 513.761 298.12 513.494 298.376C513.238 298.621 513.11 299.032 513.11 299.608V300.232H514.95V301.432ZM520.622 309.144C519.801 309.144 519.054 308.957 518.382 308.584C517.721 308.211 517.198 307.683 516.814 307C516.441 306.307 516.254 305.507 516.254 304.6C516.254 303.704 516.446 302.915 516.83 302.232C517.225 301.539 517.758 301.011 518.43 300.648C519.102 300.275 519.854 300.088 520.686 300.088C521.518 300.088 522.27 300.275 522.942 300.648C523.614 301.011 524.142 301.533 524.526 302.216C524.921 302.899 525.118 303.693 525.118 304.6C525.118 305.507 524.915 306.307 524.51 307C524.115 307.683 523.577 308.211 522.894 308.584C522.211 308.957 521.454 309.144 520.622 309.144ZM520.622 307.864C521.145 307.864 521.635 307.741 522.094 307.496C522.553 307.251 522.921 306.883 523.198 306.392C523.486 305.901 523.63 305.304 523.63 304.6C523.63 303.896 523.491 303.299 523.214 302.808C522.937 302.317 522.574 301.955 522.126 301.72C521.678 301.475 521.193 301.352 520.67 301.352C520.137 301.352 519.646 301.475 519.198 301.72C518.761 301.955 518.409 302.317 518.142 302.808C517.875 303.299 517.742 303.896 517.742 304.6C517.742 305.315 517.87 305.917 518.126 306.408C518.393 306.899 518.745 307.267 519.182 307.512C519.619 307.747 520.099 307.864 520.622 307.864ZM528.638 301.656C528.894 301.155 529.257 300.765 529.726 300.488C530.206 300.211 530.788 300.072 531.47 300.072V301.576H531.086C529.454 301.576 528.638 302.461 528.638 304.232V309H527.182V300.232H528.638V301.656ZM532.757 304.6C532.757 303.693 532.938 302.904 533.301 302.232C533.664 301.549 534.165 301.021 534.805 300.648C535.456 300.275 536.197 300.088 537.029 300.088C538.106 300.088 538.992 300.349 539.685 300.872C540.389 301.395 540.853 302.12 541.077 303.048H539.509C539.36 302.515 539.066 302.093 538.629 301.784C538.202 301.475 537.669 301.32 537.029 301.32C536.197 301.32 535.525 301.608 535.013 302.184C534.501 302.749 534.245 303.555 534.245 304.6C534.245 305.656 534.501 306.472 535.013 307.048C535.525 307.624 536.197 307.912 537.029 307.912C537.669 307.912 538.202 307.763 538.629 307.464C539.056 307.165 539.349 306.739 539.509 306.184H541.077C540.842 307.08 540.373 307.8 539.669 308.344C538.965 308.877 538.085 309.144 537.029 309.144C536.197 309.144 535.456 308.957 534.805 308.584C534.165 308.211 533.664 307.683 533.301 307C532.938 306.317 532.757 305.517 532.757 304.6ZM551.17 304.28C551.17 304.557 551.154 304.851 551.122 305.16H544.114C544.167 306.024 544.461 306.701 544.994 307.192C545.538 307.672 546.194 307.912 546.962 307.912C547.591 307.912 548.114 307.768 548.53 307.48C548.957 307.181 549.255 306.787 549.426 306.296H550.994C550.759 307.139 550.29 307.827 549.586 308.36C548.882 308.883 548.007 309.144 546.962 309.144C546.13 309.144 545.383 308.957 544.722 308.584C544.071 308.211 543.559 307.683 543.186 307C542.813 306.307 542.626 305.507 542.626 304.6C542.626 303.693 542.807 302.899 543.17 302.216C543.533 301.533 544.039 301.011 544.69 300.648C545.351 300.275 546.109 300.088 546.962 300.088C547.794 300.088 548.53 300.269 549.17 300.632C549.81 300.995 550.301 301.496 550.642 302.136C550.994 302.765 551.17 303.48 551.17 304.28ZM549.666 303.976C549.666 303.421 549.543 302.947 549.298 302.552C549.053 302.147 548.717 301.843 548.29 301.64C547.874 301.427 547.41 301.32 546.898 301.32C546.162 301.32 545.533 301.555 545.01 302.024C544.498 302.493 544.205 303.144 544.13 303.976H549.666ZM559.705 305.624C559.161 305.624 558.697 305.437 558.313 305.064C557.94 304.68 557.753 304.216 557.753 303.672C557.753 303.117 557.94 302.653 558.313 302.28C558.697 301.896 559.161 301.704 559.705 301.704C560.26 301.704 560.729 301.896 561.113 302.28C561.497 302.653 561.689 303.117 561.689 303.672C561.689 304.216 561.497 304.68 561.113 305.064C560.729 305.437 560.26 305.624 559.705 305.624ZM577.585 309H576.129L570.273 300.12V309H568.817V297.832H570.273L576.129 306.696V297.832H577.585V309ZM588.217 304.28C588.217 304.557 588.201 304.851 588.169 305.16H581.161C581.214 306.024 581.507 306.701 582.041 307.192C582.585 307.672 583.241 307.912 584.009 307.912C584.638 307.912 585.161 307.768 585.577 307.48C586.003 307.181 586.302 306.787 586.473 306.296H588.041C587.806 307.139 587.337 307.827 586.633 308.36C585.929 308.883 585.054 309.144 584.009 309.144C583.177 309.144 582.43 308.957 581.769 308.584C581.118 308.211 580.606 307.683 580.233 307C579.859 306.307 579.673 305.507 579.673 304.6C579.673 303.693 579.854 302.899 580.217 302.216C580.579 301.533 581.086 301.011 581.737 300.648C582.398 300.275 583.155 300.088 584.009 300.088C584.841 300.088 585.577 300.269 586.217 300.632C586.857 300.995 587.347 301.496 587.689 302.136C588.041 302.765 588.217 303.48 588.217 304.28ZM586.713 303.976C586.713 303.421 586.59 302.947 586.345 302.552C586.099 302.147 585.763 301.843 585.337 301.64C584.921 301.427 584.457 301.32 583.945 301.32C583.209 301.32 582.579 301.555 582.057 302.024C581.545 302.493 581.251 303.144 581.177 303.976H586.713ZM601.969 300.232L599.233 309H597.729L595.617 302.04L593.505 309H592.001L589.249 300.232H590.737L592.753 307.592L594.929 300.232H596.417L598.545 307.608L600.529 300.232H601.969ZM613.035 309.112C612.001 309.112 611.057 308.872 610.203 308.392C609.35 307.901 608.673 307.224 608.171 306.36C607.681 305.485 607.435 304.504 607.435 303.416C607.435 302.328 607.681 301.352 608.171 300.488C608.673 299.613 609.35 298.936 610.203 298.456C611.057 297.965 612.001 297.72 613.035 297.72C614.081 297.72 615.03 297.965 615.883 298.456C616.737 298.936 617.409 299.608 617.899 300.472C618.39 301.336 618.635 302.317 618.635 303.416C618.635 304.515 618.39 305.496 617.899 306.36C617.409 307.224 616.737 307.901 615.883 308.392C615.03 308.872 614.081 309.112 613.035 309.112ZM613.035 307.848C613.814 307.848 614.513 307.667 615.131 307.304C615.761 306.941 616.251 306.424 616.603 305.752C616.966 305.08 617.147 304.301 617.147 303.416C617.147 302.52 616.966 301.741 616.603 301.08C616.251 300.408 615.766 299.891 615.147 299.528C614.529 299.165 613.825 298.984 613.035 298.984C612.246 298.984 611.542 299.165 610.923 299.528C610.305 299.891 609.814 300.408 609.451 301.08C609.099 301.741 608.923 302.52 608.923 303.416C608.923 304.301 609.099 305.08 609.451 305.752C609.814 306.424 610.305 306.941 610.923 307.304C611.553 307.667 612.257 307.848 613.035 307.848ZM622.163 301.848C622.451 301.347 622.878 300.931 623.443 300.6C624.019 300.259 624.686 300.088 625.443 300.088C626.222 300.088 626.926 300.275 627.555 300.648C628.195 301.021 628.697 301.549 629.059 302.232C629.422 302.904 629.603 303.688 629.603 304.584C629.603 305.469 629.422 306.259 629.059 306.952C628.697 307.645 628.195 308.184 627.555 308.568C626.926 308.952 626.222 309.144 625.443 309.144C624.697 309.144 624.035 308.979 623.459 308.648C622.894 308.307 622.462 307.885 622.163 307.384V313.16H620.707V300.232H622.163V301.848ZM628.115 304.584C628.115 303.923 627.982 303.347 627.715 302.856C627.449 302.365 627.086 301.992 626.627 301.736C626.179 301.48 625.683 301.352 625.139 301.352C624.606 301.352 624.11 301.485 623.651 301.752C623.203 302.008 622.841 302.387 622.563 302.888C622.297 303.379 622.163 303.949 622.163 304.6C622.163 305.261 622.297 305.843 622.563 306.344C622.841 306.835 623.203 307.213 623.651 307.48C624.11 307.736 624.606 307.864 625.139 307.864C625.683 307.864 626.179 307.736 626.627 307.48C627.086 307.213 627.449 306.835 627.715 306.344C627.982 305.843 628.115 305.256 628.115 304.584ZM633.126 301.848C633.414 301.347 633.841 300.931 634.406 300.6C634.982 300.259 635.649 300.088 636.406 300.088C637.185 300.088 637.889 300.275 638.518 300.648C639.158 301.021 639.659 301.549 640.022 302.232C640.385 302.904 640.566 303.688 640.566 304.584C640.566 305.469 640.385 306.259 640.022 306.952C639.659 307.645 639.158 308.184 638.518 308.568C637.889 308.952 637.185 309.144 636.406 309.144C635.659 309.144 634.998 308.979 634.422 308.648C633.857 308.307 633.425 307.885 633.126 307.384V313.16H631.67V300.232H633.126V301.848ZM639.078 304.584C639.078 303.923 638.945 303.347 638.678 302.856C638.411 302.365 638.049 301.992 637.59 301.736C637.142 301.48 636.646 301.352 636.102 301.352C635.569 301.352 635.073 301.485 634.614 301.752C634.166 302.008 633.803 302.387 633.526 302.888C633.259 303.379 633.126 303.949 633.126 304.6C633.126 305.261 633.259 305.843 633.526 306.344C633.803 306.835 634.166 307.213 634.614 307.48C635.073 307.736 635.569 307.864 636.102 307.864C636.646 307.864 637.142 307.736 637.59 307.48C638.049 307.213 638.411 306.835 638.678 306.344C638.945 305.843 639.078 305.256 639.078 304.584ZM646.456 309.144C645.635 309.144 644.888 308.957 644.216 308.584C643.555 308.211 643.032 307.683 642.648 307C642.275 306.307 642.088 305.507 642.088 304.6C642.088 303.704 642.28 302.915 642.664 302.232C643.059 301.539 643.592 301.011 644.264 300.648C644.936 300.275 645.688 300.088 646.52 300.088C647.352 300.088 648.104 300.275 648.776 300.648C649.448 301.011 649.976 301.533 650.36 302.216C650.755 302.899 650.952 303.693 650.952 304.6C650.952 305.507 650.75 306.307 650.344 307C649.95 307.683 649.411 308.211 648.728 308.584C648.046 308.957 647.288 309.144 646.456 309.144ZM646.456 307.864C646.979 307.864 647.47 307.741 647.928 307.496C648.387 307.251 648.755 306.883 649.032 306.392C649.32 305.901 649.464 305.304 649.464 304.6C649.464 303.896 649.326 303.299 649.048 302.808C648.771 302.317 648.408 301.955 647.96 301.72C647.512 301.475 647.027 301.352 646.504 301.352C645.971 301.352 645.48 301.475 645.032 301.72C644.595 301.955 644.243 302.317 643.976 302.808C643.71 303.299 643.576 303.896 643.576 304.6C643.576 305.315 643.704 305.917 643.96 306.408C644.227 306.899 644.579 307.267 645.016 307.512C645.454 307.747 645.934 307.864 646.456 307.864ZM654.473 301.656C654.729 301.155 655.091 300.765 655.561 300.488C656.041 300.211 656.622 300.072 657.305 300.072V301.576H656.921C655.289 301.576 654.473 302.461 654.473 304.232V309H653.017V300.232H654.473V301.656ZM660.912 301.432V306.6C660.912 307.027 661.002 307.331 661.184 307.512C661.365 307.683 661.68 307.768 662.128 307.768H663.2V309H661.888C661.077 309 660.469 308.813 660.064 308.44C659.658 308.067 659.456 307.453 659.456 306.6V301.432H658.32V300.232H659.456V298.024H660.912V300.232H663.2V301.432H660.912ZM672.89 300.232V309H671.434V307.704C671.156 308.152 670.767 308.504 670.266 308.76C669.775 309.005 669.231 309.128 668.634 309.128C667.951 309.128 667.338 308.989 666.794 308.712C666.25 308.424 665.818 307.997 665.498 307.432C665.188 306.867 665.034 306.179 665.034 305.368V300.232H666.474V305.176C666.474 306.04 666.692 306.707 667.13 307.176C667.567 307.635 668.164 307.864 668.922 307.864C669.7 307.864 670.314 307.624 670.762 307.144C671.21 306.664 671.434 305.965 671.434 305.048V300.232H672.89ZM679.77 300.072C680.837 300.072 681.701 300.397 682.362 301.048C683.023 301.688 683.354 302.616 683.354 303.832V309H681.914V304.04C681.914 303.165 681.695 302.499 681.258 302.04C680.821 301.571 680.223 301.336 679.466 301.336C678.698 301.336 678.085 301.576 677.626 302.056C677.178 302.536 676.954 303.235 676.954 304.152V309H675.498V300.232H676.954V301.48C677.242 301.032 677.631 300.685 678.122 300.44C678.623 300.195 679.173 300.072 679.77 300.072ZM686.634 298.808C686.357 298.808 686.122 298.712 685.93 298.52C685.738 298.328 685.642 298.093 685.642 297.816C685.642 297.539 685.738 297.304 685.93 297.112C686.122 296.92 686.357 296.824 686.634 296.824C686.901 296.824 687.125 296.92 687.306 297.112C687.498 297.304 687.594 297.539 687.594 297.816C687.594 298.093 687.498 298.328 687.306 298.52C687.125 298.712 686.901 298.808 686.634 298.808ZM687.338 300.232V309H685.882V300.232H687.338ZM691.746 301.432V306.6C691.746 307.027 691.837 307.331 692.018 307.512C692.199 307.683 692.514 307.768 692.962 307.768H694.034V309H692.722C691.911 309 691.303 308.813 690.898 308.44C690.493 308.067 690.29 307.453 690.29 306.6V301.432H689.154V300.232H690.29V298.024H691.746V300.232H694.034V301.432H691.746ZM703.5 300.232L698.22 313.128H696.716L698.444 308.904L694.908 300.232H696.524L699.276 307.336L701.996 300.232H703.5Z" fill="white" fill-opacity="0.87"></path><g clip-path="url(#clip2_2689_12804)"><path d="M434.979 343C434.979 340.791 436.769 339 438.979 339H704.979C707.188 339 708.979 340.791 708.979 343V391C708.979 393.209 707.188 395 704.979 395H438.979C436.769 395 434.979 393.209 434.979 391V343Z" fill="white" fill-opacity="0.1"></path><path d="M435.479 343C435.479 341.067 437.046 339.5 438.979 339.5H704.979C706.911 339.5 708.479 341.067 708.479 343V391C708.479 392.933 706.911 394.5 704.979 394.5H438.979C437.046 394.5 435.479 392.933 435.479 391V343Z" stroke="black" stroke-opacity="0.1"></path></g><g clip-path="url(#clip3_2689_12804)"><path d="M732.979 343C732.979 340.791 734.769 339 736.979 339H1002.98C1005.19 339 1006.98 340.791 1006.98 343V391C1006.98 393.209 1005.19 395 1002.98 395H736.979C734.769 395 732.979 393.209 732.979 391V343Z" fill="white" fill-opacity="0.1"></path><path d="M733.479 343C733.479 341.067 735.046 339.5 736.979 339.5H1002.98C1004.91 339.5 1006.48 341.067 1006.48 343V391C1006.48 392.933 1004.91 394.5 1002.98 394.5H736.979C735.046 394.5 733.479 392.933 733.479 391V343Z" stroke="black" stroke-opacity="0.1"></path></g><g clip-path="url(#clip4_2689_12804)"><path d="M434.979 423C434.979 420.791 436.769 419 438.979 419H704.979C707.188 419 708.979 420.791 708.979 423V471C708.979 473.209 707.188 475 704.979 475H438.979C436.769 475 434.979 473.209 434.979 471V423Z" fill="white" fill-opacity="0.1"></path><path d="M435.479 423C435.479 421.067 437.046 419.5 438.979 419.5H704.979C706.911 419.5 708.479 421.067 708.479 423V471C708.479 472.933 706.911 474.5 704.979 474.5H438.979C437.046 474.5 435.479 472.933 435.479 471V423Z" stroke="black" stroke-opacity="0.1"></path></g><g clip-path="url(#clip5_2689_12804)"><path d="M732.979 423C732.979 420.791 734.769 419 736.979 419H1002.98C1005.19 419 1006.98 420.791 1006.98 423V471C1006.98 473.209 1005.19 475 1002.98 475H736.979C734.769 475 732.979 473.209 732.979 471V423Z" fill="white" fill-opacity="0.1"></path><path d="M733.479 423C733.479 421.067 735.046 419.5 736.979 419.5H1002.98C1004.91 419.5 1006.48 421.067 1006.48 423V471C1006.48 472.933 1004.91 474.5 1002.98 474.5H736.979C735.046 474.5 733.479 472.933 733.479 471V423Z" stroke="black" stroke-opacity="0.1"></path></g><g clip-path="url(#clip6_2689_12804)"><path d="M434.979 503C434.979 500.791 436.769 499 438.979 499H1002.98C1005.19 499 1006.98 500.791 1006.98 503V551C1006.98 553.209 1005.19 555 1002.98 555H438.979C436.769 555 434.979 553.209 434.979 551V503Z" fill="white" fill-opacity="0.1"></path><path d="M435.479 503C435.479 501.067 437.046 499.5 438.979 499.5H1002.98C1004.91 499.5 1006.48 501.067 1006.48 503V551C1006.48 552.933 1004.91 554.5 1002.98 554.5H438.979C437.046 554.5 435.479 552.933 435.479 551V503Z" stroke="black" stroke-opacity="0.1"></path></g></g></g><g filter="url(#filter4_d_2689_12804)"><rect x="16" y="267" width="144" height="144" rx="16" fill="white" fill-opacity="0.9" shape-rendering="crispEdges"></rect><rect x="17" y="268" width="142" height="142" rx="15" stroke="url(#paint8_linear_2689_12804)" stroke-width="2" shape-rendering="crispEdges"></rect><g clip-path="url(#clip7_2689_12804)"><path d="M78.1606 307.728C81.9448 303.888 87.213 301.506 93.0395 301.506C100.785 301.506 107.542 305.712 111.141 311.957C114.268 310.597 117.73 309.839 121.372 309.839C135.341 309.839 146.667 320.967 146.667 334.692C146.667 348.42 135.341 359.547 121.372 359.547C119.698 359.548 118.029 359.386 116.389 359.064C113.22 364.569 107.181 368.29 100.25 368.29C97.3484 368.29 94.604 367.637 92.1604 366.476C88.9479 373.836 81.4633 378.997 72.7401 378.997C63.656 378.997 55.914 373.398 52.9423 365.546C51.6436 365.815 50.2981 365.955 48.9175 365.955C38.1018 365.955 29.3335 357.327 29.3335 346.681C29.3335 339.547 33.273 333.318 39.1263 329.986C37.9213 327.285 37.251 324.304 37.251 321.17C37.251 308.928 47.455 299.004 60.0408 299.004C67.4301 299.004 73.9971 302.426 78.1606 307.728Z" fill="#00A1E0"></path></g></g><path d="M88 411L88.0001 542.833C88.0001 599.401 88.0001 627.685 105.574 645.259C123.147 662.833 151.432 662.833 208 662.833L498.833 662.833C517.588 662.833 526.966 662.833 534.656 664.911C555.259 670.48 571.353 686.574 576.921 707.177C579 714.867 579 724.244 579 743V743" stroke="url(#paint9_linear_2689_12804)" stroke-width="2" stroke-linecap="round"></path><defs><filter id="filter0_d_2689_12804" x="78" y="67" width="826.89" height="500" filterUnits="userSpaceOnUse" color-interpolation-filters="sRGB"><feFlood flood-opacity="0" result="BackgroundImageFix"></feFlood><feColorMatrix in="SourceAlpha" type="matrix" values="0 0 0 0 0 0 0 0 0 0 0 0 0 0 0 0 0 0 127 0" result="hardAlpha"></feColorMatrix><feOffset dx="-5" dy="15"></feOffset><feGaussianBlur stdDeviation="20"></feGaussianBlur><feComposite in2="hardAlpha" operator="out"></feComposite><feColorMatrix type="matrix" values="0 0 0 0 0.109509 0 0 0 0 0.370207 0 0 0 0 0.668148 0 0 0 0.1 0"></feColorMatrix><feBlend mode="normal" in2="BackgroundImageFix" result="effect1_dropShadow_2689_12804"></feBlend><feBlend mode="normal" in="SourceGraphic" in2="effect1_dropShadow_2689_12804" result="shape"></feBlend></filter><filter id="filter1_d_2689_12804" x="129.407" y="104.416" width="75.6074" height="76.2775" filterUnits="userSpaceOnUse" color-interpolation-filters="sRGB"><feFlood flood-opacity="0" result="BackgroundImageFix"></feFlood><feColorMatrix in="SourceAlpha" type="matrix" values="0 0 0 0 0 0 0 0 0 0 0 0 0 0 0 0 0 0 127 0" result="hardAlpha"></feColorMatrix><feOffset dy="4"></feOffset><feGaussianBlur stdDeviation="4.5"></feGaussianBlur><feComposite in2="hardAlpha" operator="out"></feComposite><feColorMatrix type="matrix" values="0 0 0 0 0.315266 0 0 0 0 0.61071 0 0 0 0 0.68457 0 0 0 0.25 0"></feColorMatrix><feBlend mode="normal" in2="BackgroundImageFix" result="effect1_dropShadow_2689_12804"></feBlend><feBlend mode="normal" in="SourceGraphic" in2="effect1_dropShadow_2689_12804" result="shape"></feBlend></filter><filter id="filter2_b_2689_12804" x="366.979" y="-20" width="708" height="643" filterUnits="userSpaceOnUse" color-interpolation-filters="sRGB"><feFlood flood-opacity="0" result="BackgroundImageFix"></feFlood><feGaussianBlur in="BackgroundImageFix" stdDeviation="10"></feGaussianBlur><feComposite in2="SourceAlpha" operator="in" result="effect1_backgroundBlur_2689_12804"></feComposite><feBlend mode="normal" in="SourceGraphic" in2="effect1_backgroundBlur_2689_12804" result="shape"></feBlend></filter><filter id="filter3_ddd_2689_12804" x="381.979" y="244" width="678" height="372" filterUnits="userSpaceOnUse" color-interpolation-filters="sRGB"><feFlood flood-opacity="0" result="BackgroundImageFix"></feFlood><feColorMatrix in="SourceAlpha" type="matrix" values="0 0 0 0 0 0 0 0 0 0 0 0 0 0 0 0 0 0 127 0" result="hardAlpha"></feColorMatrix><feMorphology radius="5" operator="erode" in="SourceAlpha" result="effect1_dropShadow_2689_12804"></feMorphology><feOffset dy="8"></feOffset><feGaussianBlur stdDeviation="5.5"></feGaussianBlur><feComposite in2="hardAlpha" operator="out"></feComposite><feColorMatrix type="matrix" values="0 0 0 0 0 0 0 0 0 0 0 0 0 0 0 0 0 0 0.02 0"></feColorMatrix><feBlend mode="normal" in2="BackgroundImageFix" result="effect1_dropShadow_2689_12804"></feBlend><feColorMatrix in="SourceAlpha" type="matrix" values="0 0 0 0 0 0 0 0 0 0 0 0 0 0 0 0 0 0 127 0" result="hardAlpha"></feColorMatrix><feMorphology radius="2" operator="dilate" in="SourceAlpha" result="effect2_dropShadow_2689_12804"></feMorphology><feOffset dy="17"></feOffset><feGaussianBlur stdDeviation="13"></feGaussianBlur><feComposite in2="hardAlpha" operator="out"></feComposite><feColorMatrix type="matrix" values="0 0 0 0 0 0 0 0 0 0 0 0 0 0 0 0 0 0 0.01 0"></feColorMatrix><feBlend mode="normal" in2="effect1_dropShadow_2689_12804" result="effect2_dropShadow_2689_12804"></feBlend><feColorMatrix in="SourceAlpha" type="matrix" values="0 0 0 0 0 0 0 0 0 0 0 0 0 0 0 0 0 0 127 0" result="hardAlpha"></feColorMatrix><feMorphology radius="5" operator="dilate" in="SourceAlpha" result="effect3_dropShadow_2689_12804"></feMorphology><feOffset dy="6"></feOffset><feGaussianBlur stdDeviation="16"></feGaussianBlur><feComposite in2="hardAlpha" operator="out"></feComposite><feColorMatrix type="matrix" values="0 0 0 0 0 0 0 0 0 0 0 0 0 0 0 0 0 0 0.01 0"></feColorMatrix><feBlend mode="normal" in2="effect2_dropShadow_2689_12804" result="effect3_dropShadow_2689_12804"></feBlend><feBlend mode="normal" in="SourceGraphic" in2="effect3_dropShadow_2689_12804" result="shape"></feBlend></filter><filter id="filter4_d_2689_12804" x="0" y="259" width="176" height="176" filterUnits="userSpaceOnUse" color-interpolation-filters="sRGB"><feFlood flood-opacity="0" result="BackgroundImageFix"></feFlood><feColorMatrix in="SourceAlpha" type="matrix" values="0 0 0 0 0 0 0 0 0 0 0 0 0 0 0 0 0 0 127 0" result="hardAlpha"></feColorMatrix><feMorphology radius="4" operator="dilate" in="SourceAlpha" result="effect1_dropShadow_2689_12804"></feMorphology><feOffset dy="8"></feOffset><feGaussianBlur stdDeviation="6"></feGaussianBlur><feComposite in2="hardAlpha" operator="out"></feComposite><feColorMatrix type="matrix" values="0 0 0 0 0.980392 0 0 0 0 0.321569 0 0 0 0 0.701961 0 0 0 0.16 0"></feColorMatrix><feBlend mode="normal" in2="BackgroundImageFix" result="effect1_dropShadow_2689_12804"></feBlend><feBlend mode="normal" in="SourceGraphic" in2="effect1_dropShadow_2689_12804" result="shape"></feBlend></filter><linearGradient id="paint0_linear_2689_12804" x1="869.89" y1="472.925" x2="123" y2="131.075" gradientUnits="userSpaceOnUse"><stop stop-color="#F5F5F5"></stop><stop offset="1" stop-color="white"></stop></linearGradient><linearGradient id="paint1_linear_2689_12804" x1="265.345" y1="418.89" x2="265.345" y2="450.373" gradientUnits="userSpaceOnUse"><stop stop-color="white"></stop><stop offset="1" stop-color="white" stop-opacity="0.5"></stop></linearGradient><linearGradient id="paint2_linear_2689_12804" x1="985.367" y1="8.01543e-06" x2="277.676" y2="255.371" gradientUnits="userSpaceOnUse"><stop offset="0.6" stop-color="#0F0D12"></stop><stop offset="0.896603" stop-color="#0F0D12" stop-opacity="0.8"></stop><stop offset="1" stop-color="#0F0D12" stop-opacity="0.8"></stop></linearGradient><linearGradient id="paint3_linear_2689_12804" x1="423.865" y1="33" x2="451.731" y2="48.2877" gradientUnits="userSpaceOnUse"><stop stop-color="#692ACA"></stop><stop offset="0.615" stop-color="#EF6C00"></stop><stop offset="1" stop-color="#FA52B3"></stop></linearGradient><linearGradient id="paint4_linear_2689_12804" x1="699.712" y1="129" x2="747.497" y2="267.426" gradientUnits="userSpaceOnUse"><stop stop-color="#692ACA"></stop><stop offset="0.615" stop-color="#EF6C00"></stop><stop offset="1" stop-color="#FA52B3"></stop></linearGradient><linearGradient id="paint5_linear_2689_12804" x1="699.712" y1="129" x2="747.497" y2="267.426" gradientUnits="userSpaceOnUse"><stop stop-color="#692ACA"></stop><stop offset="0.615" stop-color="#EF6C00"></stop><stop offset="1" stop-color="#FA52B3"></stop></linearGradient><linearGradient id="paint6_linear_2689_12804" x1="479.099" y1="275" x2="814.137" y2="650.131" gradientUnits="userSpaceOnUse"><stop stop-color="#692ACA"></stop><stop offset="0.615" stop-color="#EF6C00"></stop><stop offset="1" stop-color="#FA52B3"></stop></linearGradient><linearGradient id="paint7_linear_2689_12804" x1="479.099" y1="275" x2="814.137" y2="650.131" gradientUnits="userSpaceOnUse"><stop stop-color="#692ACA"></stop><stop offset="0.615" stop-color="#EF6C00"></stop><stop offset="1" stop-color="#FA52B3"></stop></linearGradient><linearGradient id="paint8_linear_2689_12804" x1="30.3333" y1="267" x2="168.691" y2="342.918" gradientUnits="userSpaceOnUse"><stop stop-color="#692ACA"></stop><stop offset="0.615" stop-color="#EF6C00"></stop><stop offset="1" stop-color="#FA52B3"></stop></linearGradient><linearGradient id="paint9_linear_2689_12804" x1="601.643" y1="758.199" x2="179.016" y2="556.964" gradientUnits="userSpaceOnUse"><stop stop-color="#231137" stop-opacity="0.2"></stop><stop offset="0.28" stop-color="#FF4B1E"></stop><stop offset="1" stop-color="#FC52B3"></stop></linearGradient><clipPath id="clip0_2689_12804"><rect width="43.0833" height="29.375" fill="white" transform="translate(144.958 123.812)"></rect></clipPath><clipPath id="clip1_2689_12804"><rect width="22" height="15" fill="white" transform="translate(435.979 295.5)"></rect></clipPath><clipPath id="clip2_2689_12804"><rect width="274" height="56" fill="white" transform="translate(434.979 339)"></rect></clipPath><clipPath id="clip3_2689_12804"><rect width="274" height="56" fill="white" transform="translate(732.979 339)"></rect></clipPath><clipPath id="clip4_2689_12804"><rect width="274" height="56" fill="white" transform="translate(434.979 419)"></rect></clipPath><clipPath id="clip5_2689_12804"><rect width="274" height="56" fill="white" transform="translate(732.979 419)"></rect></clipPath><clipPath id="clip6_2689_12804"><rect width="572" height="56" fill="white" transform="translate(434.979 499)"></rect></clipPath><clipPath id="clip7_2689_12804"><rect width="117.333" height="80" fill="white" transform="translate(29.3335 299)"></rect></clipPath></defs></svg> 